<?xml version="1.0" standalone="no"?>
<!DOCTYPE svg PUBLIC "-//W3C//DTD SVG 1.1//EN" "http://www.w3.org/Graphics/SVG/1.1/DTD/svg11.dtd">
<svg xmlns="http://www.w3.org/2000/svg">
<defs >
<font id="BarlowCondensed" horiz-adv-x="410" ><font-face
    font-family="Barlow Condensed Medium"
    units-per-em="1000"
    panose-1="0 0 6 6 0 0 0 0 0 0"
    ascent="1000"
    descent="-200"
    alphabetic="0" />
<glyph unicode=" " glyph-name="space" horiz-adv-x="200" />
<glyph unicode="!" glyph-name="exclam" horiz-adv-x="265" d="M94 232T94 242L85 690Q85 700 95 700H171Q181 700 181 690L171 242Q171 232 161 232H104Q94 232 94 242ZM103 3T85 23T66 72Q66 100 86 120T131 141Q157 141 177 121T197 72Q197 43 178 23T131 3Q103
3 85 23Z" />
<glyph unicode="&quot;" glyph-name="quotedbl" horiz-adv-x="274" d="M29 482T29 492L20 686Q20 696 29 696H102Q112 696 112 686L102 492Q102 482 92 482H40Q29 482 29 492ZM171 482T171 492L162 686Q162 696 171 696H244Q253 696 253 686L243 492Q243 482 233
482H181Q171 482 171 492Z" />
<glyph unicode="#" glyph-name="numbersign" horiz-adv-x="599" d="M551 420T541 420H477Q472 420 472 416L453 278Q453 274 456 274H508Q518 274 518 264V201Q518 191 508 191H443Q438 191 438 187L415 29Q414 20 405 20L329 21Q325 21 322 24T320 32L342 187Q342
191 339 191H215Q210 191 210 187L187 29Q186 20 177 20L101 21Q97 21 94 24T92 32L114 187Q114 191 111 191H58Q48 191 48 201V264Q48 274 58 274H124Q129 274 129 278L148 416Q148 420 145 420H91Q81 420 81 430V494Q81 504 91 504H158Q163 504 163 508L186 666Q187
675 196 675L272 674Q276 674 279 671T281 663L259 508Q259 504 262 504H386Q391 504 391 508L414 666Q415 675 424 675L500 674Q504 674 507 671T509 663L487 508Q487 504 490 504H541Q551 504 551 494V430Q551 420 541 420ZM357 274T357 278L376 416Q376 420
373 420H249Q244 420 244 416L225 278Q225 274 228 274H352Q357 274 357 278Z" />
<glyph unicode="$" glyph-name="dollar" horiz-adv-x="434" d="M399 102T359 53T251 -6Q247 -6 247 -10L248 -69Q248 -79 238 -79H194Q184 -79 184 -69L185 -9Q185 -5 181 -4Q119 7 82 54T45 171V198Q45 208 55 208H129Q139 208 139 198V176Q139 130 162 103T221
75Q257 75 280 101T304 171Q304 200 292 222T259 261T192 313Q141 351 112 378T63 443T43 532Q43 603 80 648T180 705Q184 706 184 710L182 776Q182 786 192 786H236Q246 786 246 776L244 710Q244 706 248 705Q315 695 354 647T393 523V498Q393 488 383 488H309Q299
488 299 498V525Q299 570 276 597T216 625Q181 625 160 601T138 532Q138 492 160 465T244 391Q305 346 335 318T382 257T399 177Q399 102 359 53Z" />
<glyph unicode="%" glyph-name="percent" horiz-adv-x="776" d="M168 413T135 433T82 487T62 562Q62 602 81 636T134 689T208 709Q247 709 280 689T332 636T352 562Q352 521 333 487T280 433T208 413Q168 413 135 433ZM171 0T169 3T169 12L536 693Q539 700 548
700H597Q603 700 605 697T605 688L238 7Q235 0 226 0H177Q171 0 169 3ZM245 467T271 494T297 562Q297 601 271 628T208 656Q170 656 144 629T117 562Q117 522 143 495T208 467Q245 467 271 494ZM530 -9T497 11T444 65T424 139Q424 179 443 213T496 267T569 287Q608
287 641 267T694 213T714 139Q714 99 695 65T642 11T569 -9Q530 -9 497 11ZM607 44T633 72T659 139Q659 178 633 205T569 233Q532 233 506 206T479 139Q479 99 505 72T569 44Q607 44 633 72Z" />
<glyph unicode="&amp;" glyph-name="ampersand" horiz-adv-x="571" d="M529 10T529 6Q529 0 521 0H439Q432 0 426 6L392 55Q389 58 386 55Q349 22 309 7T220 -9Q138 -9 91 34T43 160Q43 228 74 275T160 366Q163 367 161 371Q126 421 110 449T88 498T82 545Q82
619 125 663T240 708Q312 708 358 663T404 544Q404 483 373 439T285 349Q282 348 284 344Q297 327 332 277L390 198Q392 194 396 198Q421 238 443 278Q445 282 449 283T457 282L513 250Q521 245 517 236Q487 180 448 125Q446 122 448 120L527 12Q529 10 529 6ZM214
621T196 600T178 542Q178 517 187 496T228 425Q231 421 234 424Q270 454 289 482T308 544Q308 578 290 599T243 621Q214 621 196 600ZM282 74T335 125Q338 128 336 131L217 292Q215 295 212 292Q177 261 158 232T139 166Q139 125 162 100T230 74Q282 74 335 125Z"
/>
<glyph unicode="&apos;" glyph-name="quotesingle" horiz-adv-x="137" d="M29 486T29 496L20 688Q20 698 29 698H107Q116 698 116 688L106 496Q106 486 96 486H39Q29 486 29 496Z" />
<glyph unicode="(" glyph-name="parenleft" horiz-adv-x="254" d="M99 -100T95 -93Q52 -17 26 92T-1 328Q-1 456 26 567T97 755Q101 762 109 762H182Q187 762 189 759T190 750Q154 668 131 560T107 329Q107 208 130 101T190 -88L191 -92Q191 -100 182 -100H107Q99
-100 95 -93Z" />
<glyph unicode=")" glyph-name="parenright" horiz-adv-x="254" d="M155 -100T147 -100H72Q67 -100 65 -97T64 -88Q100 -7 123 100T147 329Q147 451 124 559T64 750L63 754Q63 762 72 762H145Q153 762 157 755Q201 679 228 568T255 328Q255 202 229 93T159 -93Q155
-100 147 -100Z" />
<glyph unicode="*" glyph-name="asterisk" horiz-adv-x="361" d="M152 395T152 405V512Q152 514 151 515T147 515L57 460L52 458Q47 458 43 464L24 497Q22 501 22 503Q22 509 27 511L121 567Q123 568 123 570T121 573L27 629Q19 634 24 643L43 677Q49 687 57 681L147
625Q149 624 150 625T152 628V736Q152 746 162 746H200Q210 746 210 736L209 628Q209 625 210 624T214 625L304 681L309 683Q314 683 318 677L337 643Q339 639 339 637Q339 632 334 629L240 573Q239 572 239 570T240 567L334 511Q342 506 337 497L318 463Q312 453
304 459L214 515Q212 517 211 516T209 512L210 405Q210 395 200 395H162Q152 395 152 405Z" />
<glyph unicode="+" glyph-name="plus" horiz-adv-x="440" d="M411 353T411 343V289Q411 279 401 279H261Q257 279 257 275V135Q257 125 247 125H193Q183 125 183 135V275Q183 279 179 279H39Q29 279 29 289V343Q29 353 39 353H179Q183 353 183 357V497Q183 507
193 507H247Q257 507 257 497V357Q257 353 261 353H401Q411 353 411 343Z" />
<glyph unicode="," glyph-name="comma" horiz-adv-x="189" d="M40 -86T37 -83T35 -75L64 147Q65 156 74 156H140Q151 156 149 145L101 -77Q100 -86 90 -86H45Q40 -86 37 -83Z" />
<glyph unicode="-" glyph-name="hyphen" horiz-adv-x="320" d="M29 264T29 274V337Q29 347 39 347H281Q291 347 291 337V274Q291 264 281 264H39Q29 264 29 274Z" />
<glyph unicode="." glyph-name="period" horiz-adv-x="229" d="M84 0T66 20T47 70Q47 98 67 118T112 138Q138 138 158 118T178 70Q178 41 159 21T112 0Q84 0 66 20Z" />
<glyph unicode="/" glyph-name="slash" horiz-adv-x="334" d="M26 0T24 3T22 11L217 692Q220 700 228 700H303Q308 700 310 697T312 689L117 8Q114 0 106 0H31Q26 0 24 3Z" />
<glyph unicode="0" glyph-name="zero" horiz-adv-x="422" d="M130 -10T81 41T32 177V523Q32 608 81 659T210 710Q291 710 340 659T390 523V177Q390 92 341 41T210 -10Q130 -10 81 41ZM248 73T271 100T294 171V529Q294 573 271 600T210 627Q173 627 151 600T128
529V171Q128 127 150 100T210 73Q248 73 271 100Z" />
<glyph unicode="1" glyph-name="one" horiz-adv-x="258" d="M114 700T121 700H200Q210 700 210 690V10Q210 0 200 0H124Q114 0 114 10V602Q114 604 113 605T109 605L31 576L27 575Q19 575 19 584V640Q19 649 26 652L108 697Q114 700 121 700Z" />
<glyph unicode="2" glyph-name="two" horiz-adv-x="415" d="M35 0T35 10V76Q35 84 39 89L70 135Q165 272 217 357Q277 459 277 527Q277 572 257 598T203 625Q170 625 150 599T131 530V490Q131 480 121 480H43Q33 480 33 490V533Q36 612 84 660T207 708Q282 708
328 658T374 526Q374 477 357 427T303 318Q275 271 237 215T187 139L153 88Q152 86 153 85T156 83H381Q391 83 391 73V10Q391 0 381 0H45Q35 0 35 10Z" />
<glyph unicode="3" glyph-name="three" horiz-adv-x="458" d="M413 210T413 188T411 144Q403 76 353 34T225 -8Q146 -8 95 34T36 144Q32 171 32 205Q32 215 42 215H118Q128 215 128 205Q128 172 130 159Q136 121 161 98T225 75Q263 75 289 98T320 158Q322 175
322 197T322 225Q322 275 320 295Q313 332 288 355T225 378Q209 378 195 369Q191 366 187 366Q183 366 180 370L143 409Q137 416 143 423L297 612Q299 614 298 615T295 617H49Q39 617 39 627V690Q39 700 49 700H398Q408 700 408 690V624Q408 617 404 612L282 454Q280
450 284 449Q335 438 369 392T410 290Q413 269 413 244T413 215Q413 210 413 188Z" />
<glyph unicode="4" glyph-name="four" horiz-adv-x="429" d="M409 273T409 263V196Q409 186 399 186H367Q363 186 363 182V10Q363 0 353 0H277Q267 0 267 10V182Q267 186 263 186H29Q19 186 19 196V252Q19 256 21 264L165 692Q168 700 177 700H259Q270 700 267
689L131 278Q130 276 131 275T135 273H263Q267 273 267 277V414Q267 424 277 424H353Q363 424 363 414V277Q363 273 367 273H399Q409 273 409 263Z" />
<glyph unicode="5" glyph-name="five" horiz-adv-x="420" d="M388 261T388 215Q388 177 383 139Q376 68 332 30T216 -8Q146 -8 103 29T49 139L46 169Q46 179 56 179H132Q142 179 142 169L145 147Q158 75 216 75Q244 75 262 93T286 145Q292 175 292 215Q292 257
284 289Q277 319 260 335T216 351Q157 351 143 294Q140 285 132 285H55Q45 285 45 295V690Q45 700 55 700H364Q374 700 374 690V627Q374 617 364 617H145Q141 617 141 613V393Q141 391 142 391T146 392Q162 412 187 423T243 435Q300 435 335 400T380 299Q388 261
388 215Z" />
<glyph unicode="6" glyph-name="six" horiz-adv-x="420" d="M389 255T389 215Q389 188 385 146Q379 72 335 32T217 -8Q149 -8 106 29T52 138Q46 168 46 208L45 534Q45 613 92 660T216 708Q287 708 332 661T378 534V512Q378 502 368 502H292Q282 502 282 512V530Q282
571 263 596T216 622Q183 622 163 597T142 530V420Q142 415 147 418Q176 447 220 447Q288 447 331 405T382 293Q389 255 389 215ZM292 186T292 221Q292 252 285 299Q271 364 216 364Q161 364 147 296Q142 264 142 221Q142 182 146 149Q160 75 216 75Q245 75 263
95T288 154Q292 186 292 221Z" />
<glyph unicode="7" glyph-name="seven" horiz-adv-x="381" d="M99 0T97 3T95 11L264 613Q265 614 264 615T260 617H102Q98 617 98 613V573Q98 563 88 563H29Q19 563 19 573L20 690Q20 700 30 700H356Q366 700 366 690V623Q366 621 364 611L195 8Q193 0 184 0H104Q99
0 97 3Z" />
<glyph unicode="8" glyph-name="eight" horiz-adv-x="429" d="M308 369T312 366Q346 347 363 308Q385 261 385 198Q385 146 370 103Q351 51 310 22T213 -8Q158 -8 118 21T58 103Q44 147 44 199Q44 259 62 302Q79 344 117 365Q122 368 117 371Q82 391 64 428Q44
470 44 527Q44 586 64 625Q84 666 123 688T213 711Q264 711 303 689T363 626Q385 586 385 526Q385 469 365 429Q347 392 312 372Q308 369 312 366ZM138 554T138 518Q138 479 151 453Q158 431 174 419T213 406Q237 406 254 419T279 456Q291 482 291 518Q291 557
277 583Q268 604 252 616T213 628Q191 628 175 616T150 581Q138 554 138 518ZM290 173T290 203Q290 244 278 277Q271 303 254 317T213 331Q190 331 173 317T149 274Q139 247 139 204Q139 165 147 140Q154 109 171 93T213 76Q239 76 257 93T283 143Q290 173 290
203Z" />
<glyph unicode="9" glyph-name="nine" horiz-adv-x="414" d="M369 166Q369 87 322 40T198 -8Q127 -8 82 39T36 166V188Q36 198 46 198H122Q132 198 132 188V170Q132 129 151 104T198 78Q231 78 251 103T272 170V280Q272 285 267 282Q238 253 194 253Q126 253 83
295T32 407Q25 446 25 485Q25 512 29 554Q35 628 79 668T197 708Q265 708 308 671T362 562Q368 532 368 492L369 166ZM272 437T272 479Q272 518 268 551Q254 625 198 625Q169 625 151 605T126 546Q122 514 122 479Q122 448 129 401Q143 336 198 336Q253 336 267
404Q272 437 272 479Z" />
<glyph unicode=":" glyph-name="colon" horiz-adv-x="234" d="M90 337T71 357T52 407Q52 435 72 455T118 475Q143 475 163 455T183 407Q183 378 165 358T118 337Q90 337 71 357ZM90 4T71 24T52 73Q52 101 72 121T118 142Q143 142 163 122T183 73Q183 44 165 24T118
4Q90 4 71 24Z" />
<glyph unicode=";" glyph-name="semicolon" horiz-adv-x="207" d="M75 335T57 355T38 404Q38 432 58 452T104 473Q129 473 149 453T169 404Q169 375 151 355T104 335Q75 335 57 355ZM47 -83T44 -80T42 -73L62 143Q63 153 73 153H139Q144 153 146 150T148 142L109
-74Q108 -83 98 -83H52Q47 -83 44 -80Z" />
<glyph unicode="&lt;" glyph-name="less" horiz-adv-x="440" d="M411 62T408 60T399 60L36 234Q29 238 29 246V315Q29 323 36 327L399 501L404 503Q407 503 409 501T411 494V421Q411 414 404 410L126 283Q120 280 126 277L404 150Q411 147 411 139V67Q411 62 408 60Z" />
<glyph unicode="=" glyph-name="equal" horiz-adv-x="440" d="M29 386T29 396V450Q29 460 39 460H401Q411 460 411 450V396Q411 386 401 386H39Q29 386 29 396ZM29 445T29 455V509Q29 519 39 519H401Q411 519 411 509V455Q411 445 401 445H39Q29 445 29 455Z" />
<glyph unicode="&gt;" glyph-name="greater" horiz-adv-x="440" d="M36 58Q33 58 31 60T29 67V139Q29 147 36 150L314 277Q320 280 314 283L36 410Q29 414 29 421V494Q29 499 32 501T41 501L404 327Q411 323 411 315V246Q411 238 404 234L41 60L36 58Z" />
<glyph unicode="?" glyph-name="question" horiz-adv-x="394" d="M135 208T135 218V268Q135 313 153 342T206 404Q238 434 254 459T271 524Q271 569 251 595T198 622Q162 622 141 595T120 522V496Q120 486 110 486L34 490Q24 490 24 500V522Q24 606 72 657T200
709Q276 709 322 660T368 527Q368 483 356 451T328 399T285 354Q257 328 244 309T231 263V218Q231 208 221 208H145Q135 208 135 218ZM162 1T145 20T127 66Q127 93 145 112T188 131Q212 131 230 112T249 66Q249 39 231 20T187 1Q162 1 145 20Z" />
<glyph unicode="@" glyph-name="at" horiz-adv-x="759" d="M508 630T575 595T679 494T716 344Q716 319 713 292Q700 196 651 143T529 89Q466 89 433 130Q430 133 427 130Q413 108 391 98T346 88Q298 88 268 115T238 190Q238 207 243 240L247 276Q247 273 256 343Q265
396 293 425T371 455Q385 455 401 449T430 431Q431 429 433 429T435 432L436 440Q437 449 446 449H493Q498 449 501 446T503 438L478 243Q477 237 477 225Q477 190 494 172T540 153Q580 153 607 191T642 293Q645 317 645 339Q645 408 616 460T535 540T413 568Q339
568 275 530T168 424T114 269Q111 245 111 222Q111 147 141 93T221 10T332 -18Q377 -18 414 -6T476 25L480 28Q481 29 483 29Q489 29 492 24L515 -12Q517 -16 517 -18Q517 -23 512 -26Q477 -51 428 -66T321 -82Q241 -82 178 -46T79 57T43 215Q43 233 47 273Q60
376 113 457T248 584T421 630Q508 630 575 595ZM371 146T386 161T407 203L409 215V219Q409 228 410 232L425 347V351Q423 372 412 384T381 397Q359 397 343 381T323 339L320 318Q315 280 314 271L306 203Q304 176 315 161T349 146Q371 146 386 161Z" />
<glyph unicode="A" glyph-name="A" horiz-adv-x="471" d="M345 0T343 9L321 124Q321 126 320 127T316 128H155Q153 128 152 127T150 124L127 9Q126 0 116 0H40Q35 0 33 3T31 11L180 691Q182 700 191 700H279Q289 700 290 691L441 11V9Q441 0 432 0H354Q345 0 343
9ZM167 204T170 204H302Q305 204 305 208L239 550Q238 553 237 553T235 550L167 208Q167 204 170 204Z" />
<glyph unicode="B" glyph-name="B" horiz-adv-x="456" d="M426 100T375 50T239 0H72Q62 0 62 10V690Q62 700 72 700H225Q316 700 367 653T419 514Q419 406 342 365Q337 362 341 360Q381 336 403 293T426 191Q426 100 375 50ZM158 617T158 613V401Q158 397 162
397H226Q273 397 299 425T325 505Q325 558 299 587T226 617H162Q158 617 158 613ZM277 84T303 115T330 203Q330 261 304 293T232 326H162Q158 326 158 322V88Q158 84 162 84H231Q277 84 303 115Z" />
<glyph unicode="C" glyph-name="C" horiz-adv-x="452" d="M147 -8T98 41T48 173V528Q48 610 97 659T228 708Q310 708 359 659T409 528V512Q409 502 399 502L323 498Q313 498 313 508V534Q313 575 290 600T228 625Q190 625 167 600T144 534V166Q144 125 167 100T228
75Q266 75 289 100T313 166V192Q313 202 323 202L399 198Q409 198 409 188V173Q409 91 360 42T228 -8Q147 -8 98 41Z" />
<glyph unicode="D" glyph-name="D" horiz-adv-x="469" d="M62 0T62 10V690Q62 700 72 700H236Q319 700 368 649T417 511V189Q417 102 368 51T236 0H72Q62 0 62 10ZM158 83T162 83L235 84Q273 84 296 113T320 194V506Q320 557 297 587T235 617H162Q158 617 158
613V87Q158 83 162 83Z" />
<glyph unicode="E" glyph-name="E" horiz-adv-x="432" d="M397 617T387 617H162Q158 617 158 613V396Q158 392 162 392H300Q310 392 310 382V319Q310 309 300 309H162Q158 309 158 305V87Q158 83 162 83H387Q397 83 397 73V10Q397 0 387 0H72Q62 0 62 10V690Q62
700 72 700H387Q397 700 397 690V627Q397 617 387 617Z" />
<glyph unicode="F" glyph-name="F" d="M396 617T386 617H162Q158 617 158 613V396Q158 392 162 392H299Q309 392 309 382V319Q309 309 299 309H162Q158 309 158 305V10Q158 0 148 0H72Q62 0 62 10V690Q62 700 72 700H386Q396 700 396 690V627Q396 617 386 617Z" />
<glyph unicode="G" glyph-name="G" horiz-adv-x="452" d="M147 -8T98 40T48 167V533Q48 612 97 660T228 708Q309 708 359 660T409 532V490Q409 480 399 480H323Q313 480 313 490V534Q313 575 290 600T228 625Q190 625 167 600T143 534V166Q143 125 166 100T228
75Q266 75 289 100T313 166V276Q313 280 309 280H233Q223 280 223 290V352Q223 362 233 362H399Q409 362 409 352V167Q409 88 359 40T228 -8Q147 -8 98 40Z" />
<glyph unicode="H" glyph-name="H" horiz-adv-x="475" d="M317 700T327 700H403Q413 700 413 690V10Q413 0 403 0H327Q317 0 317 10V305Q317 309 313 309H162Q158 309 158 305V10Q158 0 148 0H72Q62 0 62 10V690Q62 700 72 700H148Q158 700 158 690V396Q158 392
162 392H313Q317 392 317 396V690Q317 700 327 700Z" />
<glyph unicode="I" glyph-name="I" horiz-adv-x="220" d="M62 0T62 10V690Q62 700 72 700H148Q158 700 158 690V10Q158 0 148 0H72Q62 0 62 10Z" />
<glyph unicode="J" glyph-name="J" horiz-adv-x="435" d="M116 -8T68 40T19 168V247Q19 257 29 257H105Q115 257 115 247V166Q115 126 137 101T196 75Q232 75 254 100T277 166V690Q277 700 287 700H363Q373 700 373 690V168Q373 89 325 41T196 -8Q116 -8 68 40Z" />
<glyph unicode="K" glyph-name="K" horiz-adv-x="466" d="M62 0T62 10V690Q62 700 72 700H148Q158 700 158 690V390Q158 387 160 387T163 389L333 693Q338 700 345 700H427Q433 700 435 697T434 688L280 410Q279 407 280 404L447 12L448 8Q448 0 439 0H356Q348
0 345 8L215 320Q214 325 210 321L159 240Q158 239 158 235V10Q158 0 148 0H72Q62 0 62 10Z" />
<glyph unicode="L" glyph-name="L" horiz-adv-x="407" d="M62 0T62 10V690Q62 700 72 700H148Q158 700 158 690V87Q158 83 162 83H386Q396 83 396 73V10Q396 0 386 0H72Q62 0 62 10Z" />
<glyph unicode="M" glyph-name="M" horiz-adv-x="528" d="M61 0T61 10V690Q61 700 71 700H147Q155 700 158 692L260 449Q261 447 263 447T266 449L370 692Q373 700 381 700H457Q467 700 467 690V10Q467 0 457 0H381Q371 0 371 10V463Q371 466 370 466T366 464L273
266Q270 259 265 259Q258 259 255 266L162 465Q160 467 159 467T157 464V10Q157 0 147 0H71Q61 0 61 10Z" />
<glyph unicode="N" glyph-name="N" horiz-adv-x="501" d="M63 0T63 10V690Q63 700 73 700H150Q158 700 161 692L339 251Q340 248 342 248T344 252V690Q344 700 354 700H429Q439 700 439 690V10Q439 0 429 0H351Q343 0 340 8L162 449Q161 452 159 452T157 449L158
10Q158 0 148 0H73Q63 0 63 10Z" />
<glyph unicode="O" glyph-name="O" horiz-adv-x="462" d="M148 -8T98 42T48 175V524Q48 607 98 657T230 708Q313 708 363 658T414 524V175Q414 92 364 42T230 -8Q148 -8 98 42ZM270 75T294 101T318 171V529Q318 572 294 598T230 625Q191 625 168 599T144 529V171Q144
128 167 102T230 75Q270 75 294 101Z" />
<glyph unicode="P" glyph-name="P" horiz-adv-x="451" d="M327 701T374 646T422 500Q422 412 376 358T255 304H161Q157 304 157 300V10Q157 0 147 0H71Q61 0 61 10V691Q61 701 71 701H250Q327 701 374 646ZM276 381T301 412T326 498Q326 553 301 585T235 618H161Q157
618 157 614V385Q157 381 161 381H235Q276 381 301 412Z" />
<glyph unicode="Q" glyph-name="Q" horiz-adv-x="450" d="M304 708T353 656T402 520V180Q402 111 368 63T276 -1Q273 -3 273 -6V-99Q273 -109 263 -109H186Q176 -109 176 -99V-6Q176 -3 173 -1Q115 15 82 63T48 180V520Q48 604 97 656T225 708Q304 708 353 656ZM306
530Q306 572 284 598T225 625Q189 625 167 599T144 530V170Q144 128 166 102T225 75Q261 75 283 101T306 170V530Z" />
<glyph unicode="R" glyph-name="R" horiz-adv-x="453" d="M331 0T328 8L235 308Q234 311 231 311H162Q158 311 158 307V10Q158 0 148 0H72Q62 0 62 10V691Q62 701 72 701H251Q302 701 341 676T401 606T423 502Q423 439 397 393T325 326Q322 323 323 320L426 11L427
7Q427 0 418 0H340Q331 0 328 8ZM158 618T158 614V390Q158 386 162 386H236Q277 386 302 417T327 501Q327 555 302 586T236 618H162Q158 618 158 614Z" />
<glyph unicode="S" glyph-name="S" horiz-adv-x="434" d="M142 -8T94 41T45 171V198Q45 208 55 208H129Q139 208 139 198V176Q139 130 162 103T221 75Q257 75 280 101T304 171Q304 200 292 222T259 261T192 313Q141 351 112 378T63 443T43 532Q43 613 91 660T216
708Q296 708 344 657T393 523V498Q393 488 383 488H309Q299 488 299 498V525Q299 570 276 597T216 625Q181 625 160 601T138 532Q138 492 160 465T244 391Q305 346 335 318T382 257T399 177Q399 93 350 43T221 -8Q142 -8 94 41Z" />
<glyph unicode="T" glyph-name="T" horiz-adv-x="439" d="M409 700T409 690V627Q409 617 399 617H268Q264 617 264 613V10Q264 0 254 0H178Q168 0 168 10V613Q168 617 164 617H40Q30 617 30 627V690Q30 700 40 700H399Q409 700 409 690Z" />
<glyph unicode="U" glyph-name="U" horiz-adv-x="477" d="M156 -8T107 46T57 190V690Q57 700 67 700H143Q153 700 153 690V180Q153 133 176 104T238 75Q277 75 300 104T324 180V690Q324 700 334 700H410Q420 700 420 690V190Q420 101 370 47T238 -8Q156 -8 107 46Z" />
<glyph unicode="V" glyph-name="V" horiz-adv-x="457" d="M177 0T175 9L31 689V691Q31 700 40 700H123Q133 700 134 691L229 172Q230 170 231 170T233 172L326 691Q328 700 337 700H417Q428 700 426 689L282 9Q281 0 271 0H186Q177 0 175 9Z" />
<glyph unicode="W" glyph-name="W" horiz-adv-x="646" d="M161 0T159 9L26 689V691Q26 700 35 700H114Q124 700 125 691L206 222Q207 220 208 220T210 222L282 691Q283 700 292 700H359Q368 700 369 691L446 222Q447 220 448 220T450 222L524 691Q526 700 534
700H612Q617 700 619 697T621 689L495 9Q494 0 484 0H413Q405 0 403 9L327 482Q326 484 325 484T323 482L251 9Q250 0 241 0H170Q161 0 159 9Z" />
<glyph unicode="X" glyph-name="X" horiz-adv-x="449" d="M37 0T35 3T34 12L173 347Q175 350 173 353L34 688L33 692Q33 700 42 700H120Q128 700 131 692L222 451Q223 448 225 448T228 451L318 692Q321 700 329 700H407Q412 700 414 697T415 688L276 352Q275 349
276 346L415 12L416 8Q416 0 407 0H330Q322 0 319 8L228 248Q227 251 225 251T222 248L131 8Q128 0 120 0H42Q37 0 35 3Z" />
<glyph unicode="Y" glyph-name="Y" horiz-adv-x="442" d="M173 1T173 11V297L172 302L33 689L32 693Q32 700 41 700H121Q130 700 133 692L218 416Q219 414 221 414T224 416L309 692Q312 700 321 700H401Q412 700 409 689L270 302L269 297V11Q269 1 259 1H183Q173
1 173 11Z" />
<glyph unicode="Z" glyph-name="Z" horiz-adv-x="401" d="M29 0T29 10V77Q29 82 32 89L264 612Q265 614 264 615T261 617H39Q29 617 29 627V690Q29 700 39 700H358Q368 700 368 690V623Q368 619 365 611L132 88Q131 86 132 85T135 83H358Q368 83 368 73V10Q368
0 358 0H39Q29 0 29 10Z" />
<glyph unicode="[" glyph-name="bracketleft" horiz-adv-x="318" d="M27 -130T27 -120V774Q27 784 37 784H211Q221 784 221 774V710Q221 700 211 700H127Q123 700 123 696V-43Q123 -47 127 -47H212Q222 -47 222 -57V-120Q222 -130 212 -130H37Q27 -130 27 -120Z" />
<glyph unicode="\" glyph-name="backslash" horiz-adv-x="334" d="M313 8Q313 0 303 0H228Q220 0 217 8L22 689L21 692Q21 700 31 700H106Q114 700 117 692L312 11L313 8Z" />
<glyph unicode="]" glyph-name="bracketright" horiz-adv-x="318" d="M291 -130T281 -130H106Q96 -130 96 -120V-57Q96 -47 106 -47H191Q195 -47 195 -43V696Q195 700 191 700H107Q97 700 97 710V774Q97 784 107 784H281Q291 784 291 774V-120Q291 -130 281 -130Z" />
<glyph unicode="^" glyph-name="asciicircum" horiz-adv-x="406" d="M30 304T33 315L158 692Q161 700 170 700H234Q243 700 246 692L373 315L374 311Q374 304 365 304H303Q294 304 291 312L206 590Q205 592 203 592T200 590L114 312Q111 304 102 304H41Q30 304 33 315Z" />
<glyph unicode="_" glyph-name="underscore" horiz-adv-x="392" d="M19 0T19 10V65Q19 75 29 75H363Q373 75 373 65V10Q373 0 363 0H29Q19 0 19 10Z" />
<glyph unicode="`" glyph-name="grave" horiz-adv-x="203" d="M179 584T179 582Q179 576 170 576H112Q104 576 100 582L27 691L25 696Q25 703 34 703H103Q110 703 115 696L177 588Q179 584 179 582Z" />
<glyph unicode="a" glyph-name="a" horiz-adv-x="423" d="M287 517T333 471T380 350V10Q380 0 370 0H294Q284 0 284 10V32Q284 34 283 35T279 34Q244 -8 176 -8Q119 -8 76 24T32 140Q32 227 84 267T222 308H280Q284 308 284 312V341Q284 383 264 408T212 434Q187
434 170 417T150 373Q150 363 140 363H59Q49 363 49 373Q54 437 100 477T214 517Q287 517 333 471ZM232 76T258 98T284 160V228Q284 232 280 232H219Q179 232 155 211T131 148Q131 112 149 94T197 76Q232 76 258 98Z" />
<glyph unicode="b" glyph-name="b" horiz-adv-x="431" d="M314 516T351 474T388 358V150Q388 78 352 35T249 -8Q224 -8 198 2T153 35Q151 37 150 36T148 33V10Q148 0 138 0H62Q52 0 52 10V690Q52 700 62 700H138Q148 700 148 690V475Q148 473 150 473T154 475Q173
497 198 506T249 516Q314 516 351 474ZM292 388T272 411T220 434Q188 434 169 411T149 352V156Q149 120 168 98T220 75Q252 75 272 97T292 156V352Q292 388 272 411Z" />
<glyph unicode="c" glyph-name="c" horiz-adv-x="413" d="M134 -8T89 35T43 151V358Q43 429 88 473T211 517Q262 517 300 498T359 445T380 369V356Q380 346 370 346L294 343Q284 343 284 353V363Q284 392 263 413T211 434Q179 434 159 411T139 352V157Q139 121
159 98T211 75Q242 75 263 96T284 146V156Q284 166 294 166L370 165Q380 165 380 155V140Q380 75 334 34T211 -8Q134 -8 89 35Z" />
<glyph unicode="d" glyph-name="d" horiz-adv-x="431" d="M283 700T293 700H369Q379 700 379 690V10Q379 0 369 0H293Q283 0 283 10V33Q283 35 282 36T278 35Q259 13 233 3T182 -8Q116 -8 80 35T43 150V358Q43 432 80 474T182 516Q208 516 233 506T278 473Q280
471 281 472T283 475V690Q283 700 293 700ZM282 388T263 411T211 434Q179 434 159 411T139 352V156Q139 120 159 98T211 75Q243 75 262 97T282 156V352Q282 388 263 411Z" />
<glyph unicode="e" glyph-name="e" horiz-adv-x="417" d="M379 215T369 215H143Q139 215 139 211V157Q139 121 159 98T211 75Q239 75 258 92T282 136Q285 144 293 144L367 140Q372 140 374 137T376 130Q369 65 327 29T211 -8Q134 -8 89 35T43 150V358Q43 429 88
473T211 517Q289 517 334 473T379 358V225Q379 215 369 215ZM179 434T159 411T139 352V299Q139 295 143 295H280Q284 295 284 299V352Q284 388 264 411T211 434Q179 434 159 411Z" />
<glyph unicode="f" glyph-name="f" horiz-adv-x="284" d="M171 513Q171 509 175 509H245Q255 509 255 499V449Q255 439 245 439H175Q171 439 171 435V10Q171 0 161 0H86Q76 0 76 10V435Q76 439 72 439H35Q25 439 25 449V499Q25 509 35 509H72Q76 509 76 513V539Q76
628 113 666T233 705H246Q256 705 256 695L254 634Q254 624 244 624H234Q201 624 186 603T171 536V513Z" />
<glyph unicode="g" glyph-name="g" horiz-adv-x="423" d="M282 509T292 509H368Q378 509 378 499V15Q378 -90 330 -147T165 -205L138 -204Q128 -203 128 -193V-129Q128 -119 139 -119Q221 -122 251 -87T282 24V45Q282 47 281 47T277 46Q243 0 180 0Q114 0 79 42T43
158V358Q43 432 79 474T180 517Q245 517 277 471Q279 469 280 470T282 473V499Q282 509 292 509ZM243 83T262 105T282 164V352Q282 388 263 411T211 434Q179 434 159 411T139 352V164Q139 128 159 106T211 83Q243 83 262 105Z" />
<glyph unicode="h" glyph-name="h" horiz-adv-x="432" d="M318 516T351 474T385 353V10Q385 0 375 0H299Q289 0 289 10V345Q289 387 271 410T221 433Q186 433 167 409T148 341V10Q148 0 138 0H62Q52 0 52 10V690Q52 700 62 700H138Q148 700 148 690V473Q148 471
150 471T154 472Q190 516 255 516Q318 516 351 474Z" />
<glyph unicode="i" glyph-name="i" horiz-adv-x="211" d="M79 584T62 602T45 648Q45 676 62 693T106 711Q133 711 149 694T166 648Q166 619 150 602T106 584Q79 584 62 602ZM58 0T58 10V499Q58 509 68 509H144Q154 509 154 499V10Q154 0 144 0H68Q58 0 58 10Z" />
<glyph unicode="j" glyph-name="j" horiz-adv-x="201" d="M74 585T57 603T40 649Q40 675 58 693T100 712Q125 712 143 694T162 649Q162 621 145 603T100 585Q74 585 57 603ZM-39 -207T-39 -197V-134Q-39 -124 -29 -124Q52 -123 52 -28V499Q52 509 62 509H138Q148
509 148 499V-28Q148 -90 136 -127T85 -186T-26 -207Q-39 -207 -39 -197Z" />
<glyph unicode="k" glyph-name="k" horiz-adv-x="421" d="M52 0T52 10V690Q52 700 62 700H138Q148 700 148 690V311Q148 308 150 307T153 309L282 503Q287 509 294 509H372Q378 509 380 506T379 497L276 345Q273 342 275 339L395 11L396 7Q396 0 387 0H308Q299
0 296 8L216 259Q215 265 210 260L150 173Q148 171 148 168V10Q148 0 138 0H62Q52 0 52 10Z" />
<glyph unicode="l" glyph-name="l" horiz-adv-x="191" d="M48 0T48 10V690Q48 700 58 700H134Q144 700 144 690V10Q144 0 134 0H58Q48 0 48 10Z" />
<glyph unicode="m" glyph-name="m" horiz-adv-x="657" d="M542 516T575 472T609 347V10Q609 0 599 0H524Q514 0 514 10V340Q514 384 496 408T448 433Q416 433 397 409T378 341V10Q378 0 368 0H293Q283 0 283 10V340Q283 384 265 408T217 433Q185 433 166 409T147
341V10Q147 0 137 0H62Q52 0 52 10V499Q52 509 62 509H137Q147 509 147 499V474Q147 472 148 471T152 472Q172 494 198 505T250 516Q326 516 359 449Q360 447 362 447T365 452Q385 486 416 501T480 516Q542 516 575 472Z" />
<glyph unicode="n" glyph-name="n" horiz-adv-x="432" d="M318 516T351 474T385 353V10Q385 0 375 0H299Q289 0 289 10V345Q289 387 271 410T221 433Q186 433 167 409T148 341V10Q148 0 138 0H62Q52 0 52 10V499Q52 509 62 509H138Q148 509 148 499V473Q148 471
150 471T154 472Q190 516 255 516Q318 516 351 474Z" />
<glyph unicode="o" glyph-name="o" horiz-adv-x="424" d="M134 -8T89 35T43 150V358Q43 429 89 473T212 517Q290 517 335 473T381 358V150Q381 78 336 35T212 -8Q134 -8 89 35ZM244 76T264 98T285 157V352Q285 388 265 411T212 434Q180 434 160 411T139 352V157Q139
121 159 99T212 76Q244 76 264 98Z" />
<glyph unicode="p" glyph-name="p" horiz-adv-x="435" d="M320 517T356 474T393 359V151Q393 77 356 35T254 -7Q228 -7 203 3T158 36Q156 38 155 37T153 34V-181Q153 -191 143 -191H67Q57 -191 57 -181V499Q57 509 67 509H143Q153 509 153 499V476Q153 474 155
474T159 476Q178 497 203 507T254 517Q320 517 356 474ZM297 389T277 411T225 434Q193 434 174 412T154 353V157Q154 121 173 98T225 75Q257 75 277 98T297 157V353Q297 389 277 411Z" />
<glyph unicode="q" glyph-name="q" horiz-adv-x="435" d="M283 509T293 509H369Q379 509 379 499V-181Q379 -191 369 -191H293Q283 -191 283 -181V34Q283 36 282 37T278 36Q259 14 234 4T182 -7Q117 -7 80 35T43 151V359Q43 431 79 474T182 517Q207 517 233 507T278
474Q280 472 281 473T283 476V499Q283 509 293 509ZM282 389T263 411T211 434Q179 434 159 412T139 353V157Q139 121 159 98T211 75Q243 75 262 98T282 157V353Q282 389 263 411Z" />
<glyph unicode="r" glyph-name="r" horiz-adv-x="304" d="M270 514T288 503Q295 499 293 490L278 414Q277 405 266 408Q253 413 236 413Q225 413 220 412Q189 408 169 377T148 302V10Q148 0 138 0H62Q52 0 52 10V499Q52 509 62 509H138Q148 509 148 499V441Q148
438 149 438T152 440Q181 514 245 514Q270 514 288 503Z" />
<glyph unicode="s" glyph-name="s" horiz-adv-x="387" d="M122 -6T79 30T35 129V138Q35 148 45 148H116Q126 148 126 140V131Q126 104 147 86T199 67Q229 67 247 85T266 131Q266 153 253 168T223 191T169 215Q130 232 105 248T59 294T39 370Q39 438 81 476T196
514Q270 514 312 475T355 369V366Q355 356 345 356H276Q272 356 269 358T266 365V373Q266 400 247 419T198 438Q167 438 149 419T131 373Q131 352 143 338T172 316T226 291Q267 273 294 257T341 210T362 135Q362 70 318 32T197 -6Q122 -6 79 30Z" />
<glyph unicode="t" glyph-name="t" horiz-adv-x="275" d="M251 439T241 439H171Q167 439 167 435V154Q167 114 181 99T225 84H234Q244 84 244 74V10Q244 0 234 0H203Q139 0 107 25T74 120V435Q74 439 70 439H31Q21 439 21 449V499Q21 509 31 509H70Q74 509 74
513V626Q74 636 84 636H157Q167 636 167 626V513Q167 509 171 509H241Q251 509 251 499V449Q251 439 241 439Z" />
<glyph unicode="u" glyph-name="u" horiz-adv-x="432" d="M283 509T293 509H369Q379 509 379 499V10Q379 0 369 0H293Q283 0 283 10V39Q283 42 282 42T278 40Q248 -7 182 -7Q122 -7 85 29T48 141V499Q48 509 58 509H134Q144 509 144 499V162Q144 76 212 76Q246
76 264 100T283 168V499Q283 509 293 509Z" />
<glyph unicode="v" glyph-name="v" horiz-adv-x="399" d="M147 0T145 9L22 498L21 502Q21 509 30 509H115Q125 509 126 500L198 144Q199 141 200 141T202 144L273 500Q275 509 284 509L369 508Q374 508 376 505T377 497L255 9Q254 0 244 0H156Q147 0 145 9Z" />
<glyph unicode="w" glyph-name="w" horiz-adv-x="575" d="M130 0T128 9L21 498V500Q21 509 30 509H103Q113 509 114 500L176 142Q177 140 178 140T180 142L243 500Q245 509 254 509H320Q330 509 331 500L396 142Q397 140 398 140T400 142L463 500Q465 509 474
509L545 508Q556 508 554 497L447 9Q446 0 436 0H362Q353 0 351 9L287 338Q286 340 285 340T283 338L222 9Q221 0 211 0H139Q130 0 128 9Z" />
<glyph unicode="x" glyph-name="x" horiz-adv-x="398" d="M22 0T20 3T20 12L141 251Q143 254 141 257L20 497Q19 499 19 502Q19 509 27 509H111Q120 509 123 502L196 346Q197 344 199 344T202 346L276 502Q279 509 288 509H371Q376 509 378 506T378 497L258 257Q257
254 258 251L378 12Q379 10 379 7Q379 0 371 0H288Q279 0 276 7L202 165Q201 167 199 167T196 165L122 7Q119 0 111 0H27Q22 0 20 3Z" />
<glyph unicode="y" glyph-name="y" horiz-adv-x="387" d="M40 -200T38 -197T36 -190V-129Q36 -119 41 -119H46Q78 -119 96 -110T126 -76T146 -3L145 2L17 498L16 501Q16 509 26 509H108Q118 509 119 500L192 139Q193 136 194 136T196 139L268 500Q270 509 279
509L362 508Q367 508 369 505T370 497L233 -35Q214 -104 195 -138T143 -186T47 -200H42Q40 -200 38 -197Z" />
<glyph unicode="z" glyph-name="z" horiz-adv-x="365" d="M28 0T28 10V80Q28 87 31 93L218 416Q219 418 218 419T215 421H42Q32 421 32 431V499Q32 509 42 509H325Q335 509 335 499V428Q335 421 332 415L140 92Q139 90 140 89T143 87H328Q338 87 338 77V10Q338
0 328 0H38Q28 0 28 10Z" />
<glyph unicode="{" glyph-name="braceleft" horiz-adv-x="298" d="M90 -130T90 -13V200Q90 242 77 263T36 290Q27 292 27 301V358Q27 368 36 369Q90 378 90 458V666Q90 784 198 784H262Q272 784 272 774V710Q272 700 262 700H238Q213 700 200 682T186 630V448Q186
402 174 374T135 332Q130 330 135 327Q186 300 186 211V24Q186 -10 199 -28T238 -47H262Q272 -47 272 -57V-120Q272 -130 262 -130H198Q90 -130 90 -13Z" />
<glyph unicode="|" glyph-name="bar" horiz-adv-x="159" d="M31 -80T31 -70V750Q31 760 41 760H117Q127 760 127 750V-70Q127 -80 117 -80H41Q31 -80 31 -70Z" />
<glyph unicode="}" glyph-name="braceright" horiz-adv-x="298" d="M36 -130Q26 -130 26 -120V-57Q26 -47 36 -47H60Q85 -47 98 -29T112 24V211Q112 300 163 327Q168 330 163 332Q137 346 125 374T112 448V630Q112 664 99 682T60 700H36Q26 700 26 710V774Q26
784 36 784H100Q208 784 208 666V458Q208 378 262 369Q271 368 271 358V301Q271 292 262 290Q235 285 222 264T208 200V-13Q208 -130 100 -130H36Z" />
<glyph unicode="~" glyph-name="asciitilde" horiz-adv-x="471" d="M296 221T278 229T232 253Q227 256 213 264T186 276T161 280Q119 280 92 241Q87 231 78 237L37 262Q29 267 32 276Q48 315 80 339T153 364Q176 364 195 357T233 338Q261 321 278 313T317 305Q336
305 349 315T376 344Q382 352 390 347L434 320Q442 315 438 309L436 305Q388 221 322 221Q296 221 278 229Z" />
<glyph unicode="&#xa0;" glyph-name="uni00A0" horiz-adv-x="200" />
<glyph unicode="&#xa1;" glyph-name="exclamdown" horiz-adv-x="265" d="M159 708T178 688T197 639Q197 611 177 591T131 570Q106 570 86 590T66 639Q66 668 84 688T131 708Q159 708 178 688ZM94 479T104 479H161Q171 479 171 469L181 21Q181 11 171 11H95Q85
11 85 21L94 469Q94 479 104 479Z" />
<glyph unicode="&#xa2;" glyph-name="cent" horiz-adv-x="413" d="M380 436T370 436L294 433Q284 433 284 443V453Q284 482 263 503T211 524Q179 524 159 501T139 442V247Q139 211 159 188T211 165Q242 165 263 186T284 236V246Q284 256 294 256L370 255Q380 255
380 245V230Q380 174 346 136T254 86Q250 85 250 81L252 11Q252 1 242 1H180Q170 1 170 11L172 81Q172 85 168 86Q110 97 77 138T43 241V448Q43 508 76 549T168 603Q172 604 172 608L170 678Q170 688 180 688H242Q252 688 252 678L250 608Q250 604 254 603Q312
592 346 553T380 459V446Q380 436 370 436Z" />
<glyph unicode="&#xa3;" glyph-name="sterling" horiz-adv-x="508" d="M195 83T200 83H469Q479 83 479 73V10Q479 0 469 0H101Q91 0 91 10V75Q91 82 97 88Q114 104 123 132T133 199V297Q133 301 129 301H72Q62 301 62 311V369Q62 379 72 379H129Q133 379 133 383V504Q133
600 180 654T308 708Q372 708 413 671T470 561V559Q470 552 462 550L390 540H388Q380 540 378 549Q368 588 351 606T306 625Q267 625 247 595T227 508V383Q227 379 231 379H372Q382 379 382 369V311Q382 301 372 301H231Q227 301 227 297V201Q227 164 219 135T198
88Q195 83 200 83Z" />
<glyph unicode="&#xa4;" glyph-name="currency" horiz-adv-x="531" d="M469 241T436 192Q434 189 437 186L503 120Q506 117 506 114Q506 110 502 106L455 65Q452 62 449 62Q445 62 441 66L378 128Q375 131 372 129Q325 97 262 97Q202 97 156 126Q153 128 150 125L90
66Q83 59 76 65L29 106Q22 114 28 120L90 181Q93 184 91 187Q55 239 55 302Q55 362 87 412Q89 415 86 418L21 483Q18 486 18 489Q18 493 22 497L70 539Q73 542 76 542Q80 542 84 538L145 477Q148 474 151 476Q202 508 262 508Q325 508 376 473Q379 471 382 474L447
538Q455 546 461 539L509 497Q517 490 510 483L440 414Q437 411 439 408Q469 359 469 302Q469 241 436 192ZM138 251T174 215T262 179Q313 179 349 214T386 302Q385 353 349 389T262 425Q211 425 175 389T138 302Q138 251 174 215Z" />
<glyph unicode="&#xa5;" glyph-name="yen" horiz-adv-x="526" d="M451 700T448 689L324 344Q323 342 324 341T327 339H442Q452 339 452 329V293Q452 283 442 283H312Q308 283 308 279V221Q308 217 312 217H442Q452 217 452 207V171Q452 161 442 161H312Q308 161
308 157V11Q308 1 298 1H222Q212 1 212 11V157Q212 161 208 161H81Q71 161 71 171V207Q71 217 81 217H208Q212 217 212 221V279Q212 283 208 283H81Q71 283 71 293V329Q71 339 81 339H193Q195 339 196 340T196 344L72 689L71 693Q71 700 80 700H160Q169 700 172
692L257 416Q258 414 260 414T263 416L348 692Q351 700 360 700H440Q451 700 448 689Z" />
<glyph unicode="&#xa6;" glyph-name="brokenbar" horiz-adv-x="159" d="M31 385T31 395V750Q31 760 41 760H117Q127 760 127 750V395Q127 385 117 385H41Q31 385 31 395ZM31 -80T31 -70V279Q31 289 41 289H117Q127 289 127 279V-70Q127 -80 117 -80H41Q31 -80 31 -70Z" />
<glyph unicode="&#xa7;" glyph-name="section" horiz-adv-x="412" d="M138 -205T94 -161T49 -45V-29Q49 -19 59 -19H135Q145 -19 145 -29V-39Q146 -76 164 -99T210 -122Q240 -122 258 -99T277 -41Q277 -12 261 9T224 43T167 73Q125 93 100 113T60 167Q46 203 46
246Q46 296 71 339Q94 378 130 393Q135 395 130 398Q91 423 69 460T46 548Q46 618 91 663T209 708Q281 708 325 663T370 544V531Q370 521 360 521H283Q273 521 273 531V540Q273 577 255 601T208 625Q179 625 161 601T143 541Q143 501 166 477T240 429Q285 407 309
392T350 351Q377 312 377 258Q377 205 357 167Q335 122 293 104Q287 102 292 99Q330 75 351 40T373 -45Q373 -116 328 -160T210 -205Q138 -205 94 -161ZM252 157T270 195Q282 221 282 251Q282 286 264 313Q255 326 241 334T210 342Q190 342 175 331T153 303Q142
281 142 249Q142 218 154 194Q171 157 212 157Q252 157 270 195Z" />
<glyph unicode="&#xa8;" glyph-name="dieresis" horiz-adv-x="288" d="M50 585T35 600T19 640Q19 664 34 679T73 695Q95 695 109 680T124 640Q124 616 110 601T73 585Q50 585 35 600ZM193 585T179 600T164 640Q164 664 178 679T217 695Q240 695 254 680T269 640Q269
616 255 601T217 585Q193 585 179 600Z" />
<glyph unicode="&#xa9;" glyph-name="copyright" horiz-adv-x="819" d="M308 -8T225 39T95 169T48 351Q48 451 95 532T225 661T409 708Q511 708 593 661T723 533T771 351Q771 251 724 169T594 40T409 -8Q308 -8 225 39ZM495 48T564 88T673 197T713 351Q713 435
674 504T565 612T409 652Q323 652 254 613T145 504T105 351Q105 267 144 198T253 88T409 48Q495 48 564 88ZM369 181T344 204T319 267V429Q319 468 343 491T410 514Q452 514 477 491T502 429V425Q502 415 492 415L458 413Q448 413 448 423V433Q448 448 438 458T410
468Q394 468 384 458T373 433V263Q373 247 383 238T410 228Q427 228 437 237T448 263V273Q448 283 458 283L492 281Q502 281 502 274V267Q502 228 477 205T410 181Q369 181 344 204Z" />
<glyph unicode="&#xaa;" glyph-name="ordfeminine" horiz-adv-x="279" d="M179 564Q183 564 183 568V592Q183 620 171 636T135 652Q120 652 108 643T91 618Q90 609 80 609L35 611Q31 611 28 614T26 622Q31 660 61 684T135 708Q187 708 217 679T247 599V377Q247
367 237 367H193Q183 367 183 377V385Q183 387 182 388T178 387Q156 362 115 362Q76 362 47 383T18 461Q18 517 50 540T140 564H179ZM150 415T166 429T183 468V508Q183 512 179 512H141Q115 512 99 499T83 460Q83 437 95 426T127 415Q150 415 166 429ZM15 319T25
319H246Q256 319 256 309V271Q256 261 246 261H25Q15 261 15 271V309Q15 319 25 319Z" />
<glyph unicode="&#xab;" glyph-name="guillemotleft" horiz-adv-x="467" d="M247 115T247 113Q247 107 238 107H168Q161 107 156 114L60 274Q58 277 58 281T60 288L156 448Q161 455 168 455H238Q244 455 246 452T245 443L149 284Q148 281 149 278L245 119Q247
115 247 113ZM400 115T400 113Q400 107 391 107H321Q314 107 309 114L213 274Q211 277 211 281T213 288L309 448Q314 455 321 455H391Q397 455 399 452T398 443L302 284Q301 281 302 278L398 119Q400 115 400 113Z" />
<glyph unicode="&#xac;" glyph-name="logicalnot" horiz-adv-x="440" d="M411 351T411 341V283V277L410 275V182Q410 172 400 172H346Q336 172 336 182V273Q336 277 332 277H39Q29 277 29 287V341Q29 351 39 351H401Q411 351 411 341Z" />
<glyph unicode="&#xad;" glyph-name="uni00AD" horiz-adv-x="320" d="M29 264T29 274V337Q29 347 39 347H281Q291 347 291 337V274Q291 264 281 264H39Q29 264 29 274Z" />
<glyph unicode="&#xae;" glyph-name="registered" horiz-adv-x="436" d="M273 712T318 687T390 617T417 518Q417 462 391 416T319 344T218 318Q163 318 118 344T46 416T19 518Q19 572 45 616T117 686T218 712Q273 712 318 687ZM261 360T297 380T353 437T374 518Q374
560 354 595T297 650T218 670Q175 670 139 650T83 595T62 518Q62 474 82 438T139 381T218 360Q261 360 297 380ZM284 518T258 505Q255 502 256 499L281 437Q282 435 282 432Q282 425 274 425H255Q246 425 243 433L220 496Q219 499 216 499H204Q200 499 200 495V435Q200
425 190 425H174Q164 425 164 435V596Q164 606 174 606H230Q254 606 269 591T284 551Q284 518 258 505ZM200 575T200 571V530Q200 526 204 526H224Q235 526 241 533T248 550Q248 562 242 568T224 575H204Q200 575 200 571Z" />
<glyph unicode="&#xaf;" glyph-name="overscore" horiz-adv-x="436" d="M113 590T113 600V648Q113 658 123 658H311Q321 658 321 648V600Q321 590 311 590H123Q113 590 113 600Z" />
<glyph unicode="&#xb0;" glyph-name="degree" horiz-adv-x="358" d="M135 483T99 504T41 563T19 646Q19 691 40 728T98 786T179 808Q223 808 259 787T317 728T339 646Q339 601 318 564T260 505T179 483Q135 483 99 504ZM219 549T246 577T273 646Q273 687 246 715T179
744Q140 744 113 716T85 646Q85 606 112 578T179 549Q219 549 246 577Z" />
<glyph unicode="&#xb1;" glyph-name="plusminus" horiz-adv-x="440" d="M411 401T411 391V337Q411 327 401 327H261Q257 327 257 323V183Q257 173 247 173H193Q183 173 183 183V323Q183 327 179 327H39Q29 327 29 337V391Q29 401 39 401H179Q183 401 183 405V545Q183
555 193 555H247Q257 555 257 545V405Q257 401 261 401H401Q411 401 411 391ZM29 22T29 32V86Q29 96 39 96H401Q411 96 411 86V32Q411 22 401 22H39Q29 22 29 32Z" />
<glyph unicode="&#xb2;" glyph-name="uni00B2" horiz-adv-x="252" d="M19 433T19 443V482Q19 490 23 495Q95 595 130 650Q164 707 164 747Q164 773 153 787T123 801Q106 801 95 787T84 750V729Q84 719 74 719H28Q18 719 18 729V752Q19 801 48 829T125 858Q173
858 201 829T230 744Q230 690 196 628Q175 591 123 513Q121 510 118 505T110 494Q109 492 110 491T113 489H229Q239 489 239 479V443Q239 433 229 433H29Q19 433 19 443Z" />
<glyph unicode="&#xb3;" glyph-name="uni00B3" horiz-adv-x="270" d="M240 587T240 563Q240 532 234 509Q233 508 233 505Q227 469 201 448T134 427Q89 427 61 453T28 522Q26 542 26 553Q26 563 36 563H80Q90 563 90 553Q90 547 92 533Q94 510 105 497T134 484Q163
484 173 519Q179 543 179 569Q179 596 175 615Q167 655 134 655Q130 655 122 653L118 651Q111 648 107 653L85 675Q79 681 84 689L159 792Q161 794 160 795T157 797H41Q31 797 31 807V842Q31 852 41 852H227Q237 852 237 842V804Q237 796 233 791L169 702Q167 699
170 697Q196 692 213 669T235 612Q240 587 240 563Z" />
<glyph unicode="&#xb4;" glyph-name="acute" horiz-adv-x="203" d="M27 576T25 579T26 588L88 696Q93 703 100 703H169Q175 703 177 700T176 691L103 582Q99 576 91 576H33Q27 576 25 579Z" />
<glyph unicode="&#xb5;" glyph-name="uni00B5" horiz-adv-x="437" d="M288 509T298 509H374Q384 509 384 499V10Q384 0 374 0H298Q288 0 288 10V39Q288 42 287 42T283 40Q253 -7 187 -7Q169 -7 152 -4Q151 -3 150 -4T148 -8V-190Q148 -200 138 -200H62Q52 -200
52 -190V499Q52 509 62 509H139Q149 509 149 499V162Q149 76 217 76Q251 76 269 100T288 168V499Q288 509 298 509Z" />
<glyph unicode="&#xb6;" glyph-name="paragraph" horiz-adv-x="486" d="M414 700Q424 700 424 690V-190Q424 -200 414 -200H353Q343 -200 343 -190V617Q343 621 339 621H271Q267 621 267 617V-190Q267 -200 257 -200H196Q186 -200 186 -190V247Q186 251 182 252Q112
262 71 323T29 475Q29 539 51 590T114 670T209 700H414Z" />
<glyph unicode="&#xb7;" glyph-name="middot" horiz-adv-x="131" d="M293 0T275 20T256 70Q256 98 276 118T321 138Q347 138 367 118T387 70Q387 41 368 21T321 0Q293 0 275 20Z" />
<glyph unicode="&#xb8;" glyph-name="cedilla" horiz-adv-x="132" d="M4 -180T5 -171L10 -139Q11 -130 22 -132Q26 -133 32 -133Q48 -133 58 -123T68 -90Q68 -53 27 -12Q24 -9 24 -5Q24 0 32 0H73Q80 0 83 -3Q83 -3 87 -7Q132 -49 132 -104Q132 -119 130 -127Q123
-160 101 -173T49 -187Q33 -187 13 -183Q4 -180 5 -171Z" />
<glyph unicode="&#xb9;" glyph-name="uni00B9" horiz-adv-x="149" d="M57 853T65 853H113Q123 853 123 843V443Q123 433 113 433H68Q58 433 58 443V789Q58 791 57 792T54 793L34 788L30 787Q23 787 23 796V825Q23 832 30 837L52 850Q57 853 65 853Z" />
<glyph unicode="&#xba;" glyph-name="ordmasculine" horiz-adv-x="285" d="M89 361T59 389T29 467V603Q29 650 59 679T142 708Q194 708 224 679T255 603V467Q255 418 225 390T142 361Q89 361 59 389ZM162 417T176 432T190 471V598Q190 621 176 636T142 652Q121
652 107 637T93 598V471Q93 448 107 433T142 417Q162 417 176 432ZM21 261T21 271V309Q21 319 31 319H252Q262 319 262 309V271Q262 261 252 261H31Q21 261 21 271Z" />
<glyph unicode="&#xbb;" glyph-name="guillemotright" horiz-adv-x="467" d="M70 107T68 110T69 119L165 278Q167 281 165 284L69 443Q67 447 67 449Q67 455 76 455H146Q153 455 158 448L254 288Q256 285 256 281T254 274L158 114Q153 107 146 107H76Q70 107 68
110ZM223 107T221 110T222 119L318 278Q320 281 318 284L222 443Q220 447 220 449Q220 455 229 455H299Q306 455 311 448L407 288Q409 285 409 281T407 274L311 114Q306 107 299 107H229Q223 107 221 110Z" />
<glyph unicode="&#xbc;" glyph-name="onequarter" horiz-adv-x="681" d="M57 700T65 700H113Q123 700 123 690V290Q123 280 113 280H68Q58 280 58 290V636Q58 638 57 639T54 640L34 635L30 634Q23 634 23 643V672Q23 679 30 684L52 697Q57 700 65 700ZM67 0T65
3T66 12L490 693Q495 700 502 700H551Q557 700 559 697T558 688L134 7Q129 0 122 0H73Q67 0 65 3ZM671 169T671 159V120Q671 110 661 110H647Q643 110 643 106V10Q643 0 633 0H588Q578 0 578 10V106Q578 110 574 110H437Q427 110 427 120V153Q427 157 429 165L511
412Q514 420 523 420H571Q582 420 579 409L503 174Q502 172 503 171T507 169H574Q578 169 578 173V244Q578 254 588 254H633Q643 254 643 244V173Q643 169 647 169H661Q671 169 671 159Z" />
<glyph unicode="&#xbd;" glyph-name="onehalf" horiz-adv-x="674" d="M57 700T65 700H113Q123 700 123 690V290Q123 280 113 280H68Q58 280 58 290V636Q58 638 57 639T54 640L34 635L30 634Q23 634 23 643V672Q23 679 30 684L52 697Q57 700 65 700ZM67 0T65 3T66
12L490 693Q495 700 502 700H551Q557 700 559 697T558 688L134 7Q129 0 122 0H73Q67 0 65 3ZM441 0T441 10V49Q441 57 445 62Q517 162 552 217Q586 274 586 314Q586 340 575 354T545 368Q528 368 517 354T506 317V296Q506 286 496 286H450Q440 286 440 296V319Q441
368 470 396T547 425Q595 425 623 396T652 311Q652 257 618 195Q597 158 545 80Q543 77 540 72T532 61Q531 59 532 58T535 56H651Q661 56 661 46V10Q661 0 651 0H451Q441 0 441 10Z" />
<glyph unicode="&#xbe;" glyph-name="threequarters" horiz-adv-x="753" d="M240 433T240 409Q240 378 234 355Q233 354 233 351Q227 315 201 294T134 273Q89 273 61 299T28 368Q26 388 26 399Q26 409 36 409H80Q90 409 90 399Q90 393 92 379Q94 356 105 343T134
330Q163 330 173 365Q179 389 179 415Q179 442 175 461Q167 501 134 501Q130 501 122 499L118 497Q111 494 107 499L85 521Q79 527 84 535L159 638Q161 640 160 641T157 643H41Q31 643 31 653V688Q31 698 41 698H227Q237 698 237 688V650Q237 642 233 637L169 548Q167
545 170 543Q196 538 213 515T235 458Q240 433 240 409ZM139 0T137 3T138 12L562 693Q567 700 574 700H623Q629 700 631 697T630 688L206 7Q201 0 194 0H145Q139 0 137 3ZM743 169T743 159V120Q743 110 733 110H719Q715 110 715 106V10Q715 0 705 0H660Q650 0 650
10V106Q650 110 646 110H509Q499 110 499 120V153Q499 157 501 165L583 412Q586 420 595 420H643Q654 420 651 409L575 174Q574 172 575 171T579 169H646Q650 169 650 173V244Q650 254 660 254H705Q715 254 715 244V173Q715 169 719 169H733Q743 169 743 159Z"
/>
<glyph unicode="&#xbf;" glyph-name="questiondown" horiz-adv-x="394" d="M232 499T249 480T267 434Q267 407 249 388T206 369Q182 369 164 388T145 434Q145 461 163 480T207 499Q232 499 249 480ZM259 292T259 282V232Q259 187 241 158T188 96Q156 66 140 41T123
-24Q123 -69 143 -95T196 -122Q232 -122 253 -95T274 -22V4Q274 14 284 14L360 10Q370 10 370 0V-22Q370 -106 322 -157T194 -209Q118 -209 72 -160T26 -27Q26 17 38 49T66 101T109 146Q137 172 150 191T163 237V282Q163 292 173 292H249Q259 292 259 282Z" />
<glyph unicode="&#xc0;" glyph-name="Agrave" horiz-adv-x="471" d="M345 0T343 9L321 124Q321 126 320 127T316 128H155Q153 128 152 127T150 124L127 9Q126 0 116 0H40Q35 0 33 3T31 11L180 691Q182 700 191 700H279Q289 700 290 691L441 11V9Q441 0 432 0H354Q345
0 343 9ZM167 204T170 204H302Q305 204 305 208L239 550Q238 553 237 553T235 550L167 208Q167 204 170 204ZM272 775T272 773Q272 767 263 767H205Q197 767 193 773L120 882L118 887Q118 894 127 894H196Q203 894 208 887L270 779Q272 775 272 773Z" />
<glyph unicode="&#xc1;" glyph-name="Aacute" horiz-adv-x="471" d="M345 0T343 9L321 124Q321 126 320 127T316 128H155Q153 128 152 127T150 124L127 9Q126 0 116 0H40Q35 0 33 3T31 11L180 691Q182 700 191 700H279Q289 700 290 691L441 11V9Q441 0 432 0H354Q345
0 343 9ZM167 204T170 204H302Q305 204 305 208L239 550Q238 553 237 553T235 550L167 208Q167 204 170 204ZM183 767T181 770T182 779L244 887Q249 894 256 894H325Q331 894 333 891T332 882L259 773Q255 767 247 767H189Q183 767 181 770Z" />
<glyph unicode="&#xc2;" glyph-name="Acircumflex" horiz-adv-x="471" d="M345 0T343 9L321 124Q321 126 320 127T316 128H155Q153 128 152 127T150 124L127 9Q126 0 116 0H40Q35 0 33 3T31 11L180 691Q182 700 191 700H279Q289 700 290 691L441 11V9Q441 0 432
0H354Q345 0 343 9ZM167 204T170 204H302Q305 204 305 208L239 550Q238 553 237 553T235 550L167 208Q167 204 170 204ZM115 761T114 764T115 773L182 878Q187 885 194 885H275Q282 885 287 878L356 773Q358 769 358 767Q358 761 350 761H289Q282 761 277 768L238
837Q237 839 235 839T232 837L193 768Q188 761 181 761H121Q115 761 114 764Z" />
<glyph unicode="&#xc3;" glyph-name="Atilde" horiz-adv-x="471" d="M345 0T343 9L321 124Q321 126 320 127T316 128H155Q153 128 152 127T150 124L127 9Q126 0 116 0H40Q35 0 33 3T31 11L180 691Q182 700 191 700H279Q289 700 290 691L441 11V9Q441 0 432 0H354Q345
0 343 9ZM167 204T170 204H302Q305 204 305 208L239 550Q238 553 237 553T235 550L167 208Q167 204 170 204ZM286 780T275 785T245 800Q240 803 232 809T217 817T202 820Q189 820 179 815T160 794Q158 790 154 789T146 791L118 811Q111 817 114 824Q128 854 149
869T195 884Q211 884 225 878T255 861Q259 859 267 853T283 844T299 841Q311 841 321 846T340 867Q344 876 354 870L381 852Q385 849 385 843Q385 839 382 833Q367 805 344 793T299 780Q286 780 275 785Z" />
<glyph unicode="&#xc4;" glyph-name="Adieresis" horiz-adv-x="471" d="M345 0T343 9L321 124Q321 126 320 127T316 128H155Q153 128 152 127T150 124L127 9Q126 0 116 0H40Q35 0 33 3T31 11L180 691Q182 700 191 700H279Q289 700 290 691L441 11V9Q441 0 432
0H354Q345 0 343 9ZM167 204T170 204H302Q305 204 305 208L239 550Q238 553 237 553T235 550L167 208Q167 204 170 204ZM143 776T128 791T112 831Q112 855 127 870T166 886Q188 886 202 871T217 831Q217 807 203 792T166 776Q143 776 128 791ZM286 776T272 791T257
831Q257 855 271 870T310 886Q333 886 347 871T362 831Q362 807 348 792T310 776Q286 776 272 791Z" />
<glyph unicode="&#xc5;" glyph-name="Aring" horiz-adv-x="471" d="M345 0T343 9L321 124Q321 126 320 127T316 128H155Q153 128 152 127T150 124L127 9Q126 0 116 0H40Q35 0 33 3T31 11L180 691Q182 700 191 700H279Q289 700 290 691L441 11V9Q441 0 432 0H354Q345
0 343 9ZM167 204T170 204H302Q305 204 305 208L239 550Q238 553 237 553T235 550L167 208Q167 204 170 204ZM193 759T163 790T132 865Q132 909 162 940T236 971Q280 971 310 940T341 865Q341 821 311 790T236 759Q193 759 163 790ZM259 807T276 824T293 865Q293
890 277 907T236 924Q213 924 197 907T180 865Q180 841 196 824T236 807Q259 807 276 824Z" />
<glyph unicode="&#xc6;" glyph-name="AE" horiz-adv-x="737" d="M701 617T691 617H467Q463 617 463 613V396Q463 392 467 392H604Q614 392 614 382V319Q614 309 604 309H467Q463 309 463 305V87Q463 83 467 83H691Q701 83 701 73V10Q701 0 691 0H376Q366 0 366
10V124Q366 128 362 128H185Q183 128 181 125L132 8Q129 0 121 0H42Q37 0 35 3T34 12L326 692Q329 700 337 700H691Q701 700 701 690V627Q701 617 691 617ZM215 207T216 206T219 204H362Q366 204 366 208L367 562Q367 565 365 565T362 563L216 209Q215 207 216
206Z" />
<glyph unicode="&#xc7;" glyph-name="Ccedilla" horiz-adv-x="452" d="M409 502T399 502L323 498Q313 498 313 508V534Q313 575 290 600T228 625Q190 625 167 600T144 534V166Q144 125 167 100T228 75Q266 75 289 100T313 166V192Q313 202 323 202L399 198Q409
198 409 188V173Q409 101 371 54T266 -5Q261 -7 264 -10Q304 -50 304 -102Q304 -148 280 -166T221 -185Q205 -185 185 -181Q176 -178 177 -169L182 -137Q183 -128 194 -130Q198 -131 204 -131Q218 -131 227 -123T239 -99Q240 -95 240 -88Q240 -68 228 -48T196 -8Q195
-6 191 -6Q125 5 87 53T48 173V528Q48 610 97 659T228 708Q310 708 359 659T409 528V512Q409 502 399 502Z" />
<glyph unicode="&#xc8;" glyph-name="Egrave" horiz-adv-x="432" d="M397 617T387 617H162Q158 617 158 613V396Q158 392 162 392H300Q310 392 310 382V319Q310 309 300 309H162Q158 309 158 305V87Q158 83 162 83H387Q397 83 397 73V10Q397 0 387 0H72Q62 0 62
10V690Q62 700 72 700H387Q397 700 397 690V627Q397 617 387 617ZM266 786T266 784Q266 778 257 778H199Q191 778 187 784L114 893L112 898Q112 905 121 905H190Q197 905 202 898L264 790Q266 786 266 784Z" />
<glyph unicode="&#xc9;" glyph-name="Eacute" horiz-adv-x="432" d="M397 617T387 617H162Q158 617 158 613V396Q158 392 162 392H300Q310 392 310 382V319Q310 309 300 309H162Q158 309 158 305V87Q158 83 162 83H387Q397 83 397 73V10Q397 0 387 0H72Q62 0 62
10V690Q62 700 72 700H387Q397 700 397 690V627Q397 617 387 617ZM177 778T175 781T176 790L238 898Q243 905 250 905H319Q325 905 327 902T326 893L253 784Q249 778 241 778H183Q177 778 175 781Z" />
<glyph unicode="&#xca;" glyph-name="Ecircumflex" horiz-adv-x="432" d="M397 617T387 617H162Q158 617 158 613V396Q158 392 162 392H300Q310 392 310 382V319Q310 309 300 309H162Q158 309 158 305V87Q158 83 162 83H387Q397 83 397 73V10Q397 0 387 0H72Q62
0 62 10V690Q62 700 72 700H387Q397 700 397 690V627Q397 617 387 617ZM109 772T108 775T109 784L176 889Q181 896 188 896H269Q276 896 281 889L350 784Q352 780 352 778Q352 772 344 772H283Q276 772 271 779L232 848Q231 850 229 850T226 848L187 779Q182 772
175 772H115Q109 772 108 775Z" />
<glyph unicode="&#xcb;" glyph-name="Edieresis" horiz-adv-x="432" d="M397 617T387 617H162Q158 617 158 613V396Q158 392 162 392H300Q310 392 310 382V319Q310 309 300 309H162Q158 309 158 305V87Q158 83 162 83H387Q397 83 397 73V10Q397 0 387 0H72Q62
0 62 10V690Q62 700 72 700H387Q397 700 397 690V627Q397 617 387 617ZM137 787T122 802T106 842Q106 866 121 881T160 897Q182 897 196 882T211 842Q211 818 197 803T160 787Q137 787 122 802ZM280 787T266 802T251 842Q251 866 265 881T304 897Q327 897 341 882T356
842Q356 818 342 803T304 787Q280 787 266 802Z" />
<glyph unicode="&#xcc;" glyph-name="Igrave" horiz-adv-x="220" d="M62 0T62 10V690Q62 700 72 700H148Q158 700 158 690V10Q158 0 148 0H72Q62 0 62 10ZM146 786T146 784Q146 778 137 778H79Q71 778 67 784L-6 893L-8 898Q-8 905 1 905H70Q77 905 82 898L144
790Q146 786 146 784Z" />
<glyph unicode="&#xcd;" glyph-name="Iacute" horiz-adv-x="220" d="M62 0T62 10V690Q62 700 72 700H148Q158 700 158 690V10Q158 0 148 0H72Q62 0 62 10ZM57 778T55 781T56 790L118 898Q123 905 130 905H199Q205 905 207 902T206 893L133 784Q129 778 121 778H63Q57
778 55 781Z" />
<glyph unicode="&#xce;" glyph-name="Icircumflex" horiz-adv-x="220" d="M62 0T62 10V690Q62 700 72 700H148Q158 700 158 690V10Q158 0 148 0H72Q62 0 62 10ZM-11 772T-12 775T-11 784L56 889Q61 896 68 896H149Q156 896 161 889L230 784Q232 780 232 778Q232
772 224 772H163Q156 772 151 779L112 848Q111 850 109 850T106 848L67 779Q62 772 55 772H-5Q-11 772 -12 775Z" />
<glyph unicode="&#xcf;" glyph-name="Idieresis" horiz-adv-x="220" d="M62 0T62 10V690Q62 700 72 700H148Q158 700 158 690V10Q158 0 148 0H72Q62 0 62 10ZM17 787T2 802T-14 842Q-14 866 1 881T40 897Q62 897 76 882T91 842Q91 818 77 803T40 787Q17 787 2
802ZM160 787T146 802T131 842Q131 866 145 881T184 897Q207 897 221 882T236 842Q236 818 222 803T184 787Q160 787 146 802Z" />
<glyph unicode="&#xd0;" glyph-name="Eth" horiz-adv-x="508" d="M358 700T407 649T456 511V189Q456 102 407 51T275 0H111Q101 0 101 10V333Q101 337 97 337H72Q62 337 62 347V385Q62 395 72 395H97Q101 395 101 399V690Q101 700 111 700H275Q358 700 407 649ZM359
506Q359 557 336 587T274 617H201Q197 617 197 613V399Q197 395 201 395H264Q274 395 274 385V347Q274 337 264 337H201Q197 337 197 333V87Q197 83 201 83L274 84Q312 84 335 113T359 194V506Z" />
<glyph unicode="&#xd1;" glyph-name="Ntilde" horiz-adv-x="501" d="M63 0T63 10V690Q63 700 73 700H150Q158 700 161 692L339 251Q340 248 342 248T344 252V690Q344 700 354 700H429Q439 700 439 690V10Q439 0 429 0H351Q343 0 340 8L162 449Q161 452 159 452T157
449L158 10Q158 0 148 0H73Q63 0 63 10ZM300 792T289 797T259 812Q254 815 246 821T231 829T216 832Q203 832 193 827T174 806Q172 802 168 801T160 803L132 823Q125 829 128 836Q142 866 163 881T209 896Q225 896 239 890T269 873Q273 871 281 865T297 856T313
853Q325 853 335 858T354 879Q358 888 368 882L395 864Q399 861 399 855Q399 851 396 845Q381 817 358 805T313 792Q300 792 289 797Z" />
<glyph unicode="&#xd2;" glyph-name="Ograve" horiz-adv-x="462" d="M148 -8T98 42T48 175V524Q48 607 98 657T230 708Q313 708 363 658T414 524V175Q414 92 364 42T230 -8Q148 -8 98 42ZM270 75T294 101T318 171V529Q318 572 294 598T230 625Q191 625 168 599T144
529V171Q144 128 167 102T230 75Q270 75 294 101ZM266 778T266 776Q266 770 257 770H199Q191 770 187 776L114 885L112 890Q112 897 121 897H190Q197 897 202 890L264 782Q266 778 266 776Z" />
<glyph unicode="&#xd3;" glyph-name="Oacute" horiz-adv-x="462" d="M148 -8T98 42T48 175V524Q48 607 98 657T230 708Q313 708 363 658T414 524V175Q414 92 364 42T230 -8Q148 -8 98 42ZM270 75T294 101T318 171V529Q318 572 294 598T230 625Q191 625 168 599T144
529V171Q144 128 167 102T230 75Q270 75 294 101ZM177 770T175 773T176 782L238 890Q243 897 250 897H319Q325 897 327 894T326 885L253 776Q249 770 241 770H183Q177 770 175 773Z" />
<glyph unicode="&#xd4;" glyph-name="Ocircumflex" horiz-adv-x="462" d="M148 -8T98 42T48 175V524Q48 607 98 657T230 708Q313 708 363 658T414 524V175Q414 92 364 42T230 -8Q148 -8 98 42ZM270 75T294 101T318 171V529Q318 572 294 598T230 625Q191 625 168
599T144 529V171Q144 128 167 102T230 75Q270 75 294 101ZM109 764T108 767T109 776L176 881Q181 888 188 888H269Q276 888 281 881L350 776Q352 772 352 770Q352 764 344 764H283Q276 764 271 771L232 840Q231 842 229 842T226 840L187 771Q182 764 175 764H115Q109
764 108 767Z" />
<glyph unicode="&#xd5;" glyph-name="Otilde" horiz-adv-x="462" d="M148 -8T98 42T48 175V524Q48 607 98 657T230 708Q313 708 363 658T414 524V175Q414 92 364 42T230 -8Q148 -8 98 42ZM270 75T294 101T318 171V529Q318 572 294 598T230 625Q191 625 168 599T144
529V171Q144 128 167 102T230 75Q270 75 294 101ZM280 783T269 788T239 803Q234 806 226 812T211 820T196 823Q183 823 173 818T154 797Q152 793 148 792T140 794L112 814Q105 820 108 827Q122 857 143 872T189 887Q205 887 219 881T249 864Q253 862 261 856T277
847T293 844Q305 844 315 849T334 870Q338 879 348 873L375 855Q379 852 379 846Q379 842 376 836Q361 808 338 796T293 783Q280 783 269 788Z" />
<glyph unicode="&#xd6;" glyph-name="Odieresis" horiz-adv-x="462" d="M148 -8T98 42T48 175V524Q48 607 98 657T230 708Q313 708 363 658T414 524V175Q414 92 364 42T230 -8Q148 -8 98 42ZM270 75T294 101T318 171V529Q318 572 294 598T230 625Q191 625 168
599T144 529V171Q144 128 167 102T230 75Q270 75 294 101ZM137 779T122 794T106 834Q106 858 121 873T160 889Q182 889 196 874T211 834Q211 810 197 795T160 779Q137 779 122 794ZM280 779T266 794T251 834Q251 858 265 873T304 889Q327 889 341 874T356 834Q356
810 342 795T304 779Q280 779 266 794Z" />
<glyph unicode="&#xd7;" glyph-name="multiply" horiz-adv-x="380" d="M347 424T347 420T344 413L245 314Q242 311 245 308L344 209Q347 206 347 202T344 195L306 157Q303 154 299 154T292 157L193 256Q190 259 187 256L88 157Q85 154 81 154T74 157L36 195Q33
198 33 202T36 209L135 308Q138 311 135 314L36 413Q33 416 33 420T36 427L74 465Q77 468 81 468T88 465L187 366Q190 363 193 366L292 465Q295 468 299 468T306 465L344 427Q347 424 347 420Z" />
<glyph unicode="&#xd8;" glyph-name="Oslash" horiz-adv-x="501" d="M445 748T447 745T448 736L399 623Q398 620 399 617Q421 579 421 524V175Q421 92 371 42T237 -8Q182 -8 144 14Q139 16 138 12L118 -35Q115 -43 107 -43H61Q56 -43 54 -40T53 -31L90 55Q91 57
89 61Q55 106 55 175V524Q55 607 105 657T237 708Q301 708 349 676Q353 673 355 677L382 740Q385 748 393 748H440Q445 748 447 745ZM151 211Q151 208 153 208T156 210L312 577Q314 580 312 583Q301 603 282 614T237 625Q198 625 175 599T151 529V211ZM325 436Q325
439 323 439T320 437L177 103Q176 100 178 98Q201 75 237 75Q277 75 301 101T325 171V436Z" />
<glyph unicode="&#xd9;" glyph-name="Ugrave" horiz-adv-x="477" d="M156 -8T107 46T57 190V690Q57 700 67 700H143Q153 700 153 690V180Q153 133 176 104T238 75Q277 75 300 104T324 180V690Q324 700 334 700H410Q420 700 420 690V190Q420 101 370 47T238 -8Q156
-8 107 46ZM274 786T274 784Q274 778 265 778H207Q199 778 195 784L122 893L120 898Q120 905 129 905H198Q205 905 210 898L272 790Q274 786 274 784Z" />
<glyph unicode="&#xda;" glyph-name="Uacute" horiz-adv-x="477" d="M156 -8T107 46T57 190V690Q57 700 67 700H143Q153 700 153 690V180Q153 133 176 104T238 75Q277 75 300 104T324 180V690Q324 700 334 700H410Q420 700 420 690V190Q420 101 370 47T238 -8Q156
-8 107 46ZM185 778T183 781T184 790L246 898Q251 905 258 905H327Q333 905 335 902T334 893L261 784Q257 778 249 778H191Q185 778 183 781Z" />
<glyph unicode="&#xdb;" glyph-name="Ucircumflex" horiz-adv-x="477" d="M156 -8T107 46T57 190V690Q57 700 67 700H143Q153 700 153 690V180Q153 133 176 104T238 75Q277 75 300 104T324 180V690Q324 700 334 700H410Q420 700 420 690V190Q420 101 370 47T238
-8Q156 -8 107 46ZM117 772T116 775T117 784L184 889Q189 896 196 896H277Q284 896 289 889L358 784Q360 780 360 778Q360 772 352 772H291Q284 772 279 779L240 848Q239 850 237 850T234 848L195 779Q190 772 183 772H123Q117 772 116 775Z" />
<glyph unicode="&#xdc;" glyph-name="Udieresis" horiz-adv-x="477" d="M156 -8T107 46T57 190V690Q57 700 67 700H143Q153 700 153 690V180Q153 133 176 104T238 75Q277 75 300 104T324 180V690Q324 700 334 700H410Q420 700 420 690V190Q420 101 370 47T238
-8Q156 -8 107 46ZM145 787T130 802T114 842Q114 866 129 881T168 897Q190 897 204 882T219 842Q219 818 205 803T168 787Q145 787 130 802ZM288 787T274 802T259 842Q259 866 273 881T312 897Q335 897 349 882T364 842Q364 818 350 803T312 787Q288 787 274 802Z"
/>
<glyph unicode="&#xdd;" glyph-name="Yacute" horiz-adv-x="442" d="M173 1T173 11V297L172 302L33 689L32 693Q32 700 41 700H121Q130 700 133 692L218 416Q219 414 221 414T224 416L309 692Q312 700 321 700H401Q412 700 409 689L270 302L269 297V11Q269 1 259
1H183Q173 1 173 11ZM168 767T166 770T167 779L229 887Q234 894 241 894H310Q316 894 318 891T317 882L244 773Q240 767 232 767H174Q168 767 166 770Z" />
<glyph unicode="&#xde;" glyph-name="Thorn" horiz-adv-x="450" d="M300 550T339 525T399 454T421 349Q421 261 375 207T254 152H161Q157 152 157 148V10Q157 0 147 0H71Q61 0 61 10V690Q61 700 71 700H147Q157 700 157 690V554Q157 550 161 550H250Q300 550 339
525ZM276 229T300 261T325 347Q325 402 301 434T235 467H161Q157 467 157 463V233Q157 229 161 229H235Q276 229 300 261Z" />
<glyph unicode="&#xdf;" glyph-name="germandbls" horiz-adv-x="441" d="M52 0T52 10V501Q52 599 95 654T217 709Q297 709 343 658T390 518Q390 466 373 431T323 376Q318 373 323 370Q358 350 378 305T398 198Q398 105 350 53T214 0H194Q184 0 184 10V72Q184 82
194 82L215 83Q258 84 281 116T304 208Q304 267 284 299T226 334H204Q194 334 194 344V400Q194 410 204 410H225Q258 410 276 436T295 509Q295 564 275 595T218 626Q185 626 167 597T148 515V10Q148 0 138 0H62Q52 0 52 10Z" />
<glyph unicode="&#xe0;" glyph-name="agrave" horiz-adv-x="423" d="M287 517T333 471T380 350V10Q380 0 370 0H294Q284 0 284 10V32Q284 34 283 35T279 34Q244 -8 176 -8Q119 -8 76 24T32 140Q32 227 84 267T222 308H280Q284 308 284 312V341Q284 383 264 408T212
434Q187 434 170 417T150 373Q150 363 140 363H59Q49 363 49 373Q54 437 100 477T214 517Q287 517 333 471ZM232 76T258 98T284 160V228Q284 232 280 232H219Q179 232 155 211T131 148Q131 112 149 94T197 76Q232 76 258 98ZM250 592T250 590Q250 584 241 584H183Q175
584 171 590L98 699L96 704Q96 711 105 711H174Q181 711 186 704L248 596Q250 592 250 590Z" />
<glyph unicode="&#xe1;" glyph-name="aacute" horiz-adv-x="423" d="M287 517T333 471T380 350V10Q380 0 370 0H294Q284 0 284 10V32Q284 34 283 35T279 34Q244 -8 176 -8Q119 -8 76 24T32 140Q32 227 84 267T222 308H280Q284 308 284 312V341Q284 383 264 408T212
434Q187 434 170 417T150 373Q150 363 140 363H59Q49 363 49 373Q54 437 100 477T214 517Q287 517 333 471ZM232 76T258 98T284 160V228Q284 232 280 232H219Q179 232 155 211T131 148Q131 112 149 94T197 76Q232 76 258 98ZM161 584T159 587T160 596L222 704Q227
711 234 711H303Q309 711 311 708T310 699L237 590Q233 584 225 584H167Q161 584 159 587Z" />
<glyph unicode="&#xe2;" glyph-name="acircumflex" horiz-adv-x="423" d="M287 517T333 471T380 350V10Q380 0 370 0H294Q284 0 284 10V32Q284 34 283 35T279 34Q244 -8 176 -8Q119 -8 76 24T32 140Q32 227 84 267T222 308H280Q284 308 284 312V341Q284 383 264
408T212 434Q187 434 170 417T150 373Q150 363 140 363H59Q49 363 49 373Q54 437 100 477T214 517Q287 517 333 471ZM232 76T258 98T284 160V228Q284 232 280 232H219Q179 232 155 211T131 148Q131 112 149 94T197 76Q232 76 258 98ZM93 578T92 581T93 590L160
695Q165 702 172 702H253Q260 702 265 695L334 590Q336 586 336 584Q336 578 328 578H267Q260 578 255 585L216 654Q215 656 213 656T210 654L171 585Q166 578 159 578H99Q93 578 92 581Z" />
<glyph unicode="&#xe3;" glyph-name="atilde" horiz-adv-x="423" d="M287 517T333 471T380 350V10Q380 0 370 0H294Q284 0 284 10V32Q284 34 283 35T279 34Q244 -8 176 -8Q119 -8 76 24T32 140Q32 227 84 267T222 308H280Q284 308 284 312V341Q284 383 264 408T212
434Q187 434 170 417T150 373Q150 363 140 363H59Q49 363 49 373Q54 437 100 477T214 517Q287 517 333 471ZM232 76T258 98T284 160V228Q284 232 280 232H219Q179 232 155 211T131 148Q131 112 149 94T197 76Q232 76 258 98ZM264 597T253 602T223 617Q218 620 210
626T195 634T180 637Q167 637 157 632T138 611Q136 607 132 606T124 608L96 628Q89 634 92 641Q106 671 127 686T173 701Q189 701 203 695T233 678Q237 676 245 670T261 661T277 658Q289 658 299 663T318 684Q322 693 332 687L359 669Q363 666 363 660Q363 656
360 650Q345 622 322 610T277 597Q264 597 253 602Z" />
<glyph unicode="&#xe4;" glyph-name="adieresis" horiz-adv-x="423" d="M287 517T333 471T380 350V10Q380 0 370 0H294Q284 0 284 10V32Q284 34 283 35T279 34Q244 -8 176 -8Q119 -8 76 24T32 140Q32 227 84 267T222 308H280Q284 308 284 312V341Q284 383 264
408T212 434Q187 434 170 417T150 373Q150 363 140 363H59Q49 363 49 373Q54 437 100 477T214 517Q287 517 333 471ZM232 76T258 98T284 160V228Q284 232 280 232H219Q179 232 155 211T131 148Q131 112 149 94T197 76Q232 76 258 98ZM121 593T106 608T90 648Q90
672 105 687T144 703Q166 703 180 688T195 648Q195 624 181 609T144 593Q121 593 106 608ZM264 593T250 608T235 648Q235 672 249 687T288 703Q311 703 325 688T340 648Q340 624 326 609T288 593Q264 593 250 608Z" />
<glyph unicode="&#xe5;" glyph-name="aring" horiz-adv-x="423" d="M287 517T333 471T380 350V10Q380 0 370 0H294Q284 0 284 10V32Q284 34 283 35T279 34Q244 -8 176 -8Q119 -8 76 24T32 140Q32 227 84 267T222 308H280Q284 308 284 312V341Q284 383 264 408T212
434Q187 434 170 417T150 373Q150 363 140 363H59Q49 363 49 373Q54 437 100 477T214 517Q287 517 333 471ZM232 76T258 98T284 160V228Q284 232 280 232H219Q179 232 155 211T131 148Q131 112 149 94T197 76Q232 76 258 98ZM171 576T141 607T110 682Q110 726 140
757T214 788Q258 788 288 757T319 682Q319 638 289 607T214 576Q171 576 141 607ZM237 624T254 641T271 682Q271 707 255 724T214 741Q191 741 175 724T158 682Q158 658 174 641T214 624Q237 624 254 641Z" />
<glyph unicode="&#xe6;" glyph-name="ae" horiz-adv-x="662" d="M32 -8T32 138Q32 224 79 260T211 297H278Q282 297 282 301V341Q282 384 263 409T209 434Q181 434 161 417T137 374Q136 364 126 364L50 367Q40 367 40 377Q45 441 92 479T207 517Q284 517 326 455Q329
452 332 455Q352 484 384 500T459 517Q533 517 578 473T624 358V226Q624 216 614 216H387Q383 216 383 212V157Q383 125 403 103T456 81Q482 81 501 97T527 139Q530 148 538 147L612 138Q622 136 621 127Q613 64 572 28T463 -8Q414 -8 378 12T330 60Q328 65 327
62Q315 32 272 12T173 -8Q32 -8 32 138ZM383 297T387 297H524Q528 297 528 301V352Q528 388 508 411T456 434Q424 434 404 411T383 352V301Q383 297 387 297ZM231 69T256 90T282 147V211Q282 215 278 215H217Q177 215 153 196T129 140Q129 105 148 87T197 69Q231
69 256 90Z" />
<glyph unicode="&#xe7;" glyph-name="ccedilla" horiz-adv-x="413" d="M380 346T370 346L294 343Q284 343 284 353V363Q284 392 263 413T211 434Q179 434 159 411T139 352V157Q139 121 159 98T211 75Q242 75 263 96T284 146V156Q284 166 294 166L370 165Q380 165
380 155V140Q380 84 345 45T250 -5Q245 -7 248 -10Q287 -50 287 -102Q287 -148 263 -166T204 -185Q188 -185 168 -181Q159 -178 160 -169L165 -137Q166 -128 177 -130Q181 -131 187 -131Q203 -131 213 -121T223 -89Q223 -49 180 -8Q179 -6 175 -6Q113 4 78 45T43
151V358Q43 429 88 473T211 517Q262 517 300 498T359 445T380 369V356Q380 346 370 346Z" />
<glyph unicode="&#xe8;" glyph-name="egrave" horiz-adv-x="417" d="M379 215T369 215H143Q139 215 139 211V157Q139 121 159 98T211 75Q239 75 258 92T282 136Q285 144 293 144L367 140Q372 140 374 137T376 130Q369 65 327 29T211 -8Q134 -8 89 35T43 150V358Q43
429 88 473T211 517Q289 517 334 473T379 358V225Q379 215 369 215ZM179 434T159 411T139 352V299Q139 295 143 295H280Q284 295 284 299V352Q284 388 264 411T211 434Q179 434 159 411ZM247 592T247 590Q247 584 238 584H180Q172 584 168 590L95 699L93 704Q93
711 102 711H171Q178 711 183 704L245 596Q247 592 247 590Z" />
<glyph unicode="&#xe9;" glyph-name="eacute" horiz-adv-x="417" d="M379 215T369 215H143Q139 215 139 211V157Q139 121 159 98T211 75Q239 75 258 92T282 136Q285 144 293 144L367 140Q372 140 374 137T376 130Q369 65 327 29T211 -8Q134 -8 89 35T43 150V358Q43
429 88 473T211 517Q289 517 334 473T379 358V225Q379 215 369 215ZM179 434T159 411T139 352V299Q139 295 143 295H280Q284 295 284 299V352Q284 388 264 411T211 434Q179 434 159 411ZM158 584T156 587T157 596L219 704Q224 711 231 711H300Q306 711 308 708T307
699L234 590Q230 584 222 584H164Q158 584 156 587Z" />
<glyph unicode="&#xea;" glyph-name="ecircumflex" horiz-adv-x="417" d="M379 215T369 215H143Q139 215 139 211V157Q139 121 159 98T211 75Q239 75 258 92T282 136Q285 144 293 144L367 140Q372 140 374 137T376 130Q369 65 327 29T211 -8Q134 -8 89 35T43 150V358Q43
429 88 473T211 517Q289 517 334 473T379 358V225Q379 215 369 215ZM179 434T159 411T139 352V299Q139 295 143 295H280Q284 295 284 299V352Q284 388 264 411T211 434Q179 434 159 411ZM90 578T89 581T90 590L157 695Q162 702 169 702H250Q257 702 262 695L331
590Q333 586 333 584Q333 578 325 578H264Q257 578 252 585L213 654Q212 656 210 656T207 654L168 585Q163 578 156 578H96Q90 578 89 581Z" />
<glyph unicode="&#xeb;" glyph-name="edieresis" horiz-adv-x="417" d="M379 215T369 215H143Q139 215 139 211V157Q139 121 159 98T211 75Q239 75 258 92T282 136Q285 144 293 144L367 140Q372 140 374 137T376 130Q369 65 327 29T211 -8Q134 -8 89 35T43 150V358Q43
429 88 473T211 517Q289 517 334 473T379 358V225Q379 215 369 215ZM179 434T159 411T139 352V299Q139 295 143 295H280Q284 295 284 299V352Q284 388 264 411T211 434Q179 434 159 411ZM118 593T103 608T87 648Q87 672 102 687T141 703Q163 703 177 688T192 648Q192
624 178 609T141 593Q118 593 103 608ZM261 593T247 608T232 648Q232 672 246 687T285 703Q308 703 322 688T337 648Q337 624 323 609T285 593Q261 593 247 608Z" />
<glyph unicode="&#xec;" glyph-name="igrave" horiz-adv-x="198" d="M50 0T50 10V499Q50 509 60 509H136Q146 509 146 499V10Q146 0 136 0H60Q50 0 50 10ZM134 595T134 593Q134 587 125 587H67Q59 587 55 593L-18 702L-20 707Q-20 714 -11 714H58Q65 714 70 707L132
599Q134 595 134 593Z" />
<glyph unicode="&#xed;" glyph-name="iacute" horiz-adv-x="198" d="M50 0T50 10V499Q50 509 60 509H136Q146 509 146 499V10Q146 0 136 0H60Q50 0 50 10ZM45 587T43 590T44 599L106 707Q111 714 118 714H187Q193 714 195 711T194 702L121 593Q117 587 109 587H51Q45
587 43 590Z" />
<glyph unicode="&#xee;" glyph-name="icircumflex" horiz-adv-x="198" d="M50 0T50 10V499Q50 509 60 509H136Q146 509 146 499V10Q146 0 136 0H60Q50 0 50 10ZM-23 581T-24 584T-23 593L44 698Q49 705 56 705H137Q144 705 149 698L218 593Q220 589 220 587Q220
581 212 581H151Q144 581 139 588L100 657Q99 659 97 659T94 657L55 588Q50 581 43 581H-17Q-23 581 -24 584Z" />
<glyph unicode="&#xef;" glyph-name="idieresis" horiz-adv-x="198" d="M50 0T50 10V499Q50 509 60 509H136Q146 509 146 499V10Q146 0 136 0H60Q50 0 50 10ZM5 596T-10 611T-26 651Q-26 675 -11 690T28 706Q50 706 64 691T79 651Q79 627 65 612T28 596Q5 596
-10 611ZM148 596T134 611T119 651Q119 675 133 690T172 706Q195 706 209 691T224 651Q224 627 210 612T172 596Q148 596 134 611Z" />
<glyph unicode="&#xf0;" glyph-name="eth" horiz-adv-x="438" d="M316 590T317 587Q378 478 381 340V310V246V151Q381 78 336 35T212 -8Q134 -8 89 35T43 151V340Q43 386 63 422T118 479T197 499Q246 499 272 470Q276 467 276 472Q266 518 240 567Q238 571 235
569L159 548L155 547Q149 547 146 555L140 579L139 583Q139 589 147 592L207 609Q212 611 209 614Q190 645 154 688Q152 690 152 694Q152 696 154 698T160 700H231Q238 700 244 694Q254 680 260 673L288 635Q290 631 293 633L374 656L378 657Q384 657 386 649L392
623V620Q392 613 385 610L319 592Q316 590 317 587ZM285 370T265 393T212 416Q180 416 160 393T139 334V157Q139 121 159 98T212 75Q245 75 265 98T285 157V334Q285 370 265 393Z" />
<glyph unicode="&#xf1;" glyph-name="ntilde" horiz-adv-x="432" d="M178 633T170 628T152 608Q150 604 146 603T138 605L114 624Q107 629 110 637Q122 667 141 682T183 697Q197 697 209 691T237 674Q241 671 248 666T263 657T277 654Q299 654 313 679Q320 689
327 683L351 665Q358 660 355 652Q341 621 320 607T277 593Q265 593 255 598T228 613Q224 616 217 622T203 630T189 633Q178 633 170 628ZM318 516T351 474T385 353V10Q385 0 375 0H299Q289 0 289 10V345Q289 387 271 410T221 433Q186 433 167 409T148 341V10Q148
0 138 0H62Q52 0 52 10V499Q52 509 62 509H138Q148 509 148 499V473Q148 471 150 471T154 472Q190 516 255 516Q318 516 351 474Z" />
<glyph unicode="&#xf2;" glyph-name="ograve" horiz-adv-x="424" d="M134 -8T89 35T43 150V358Q43 429 89 473T212 517Q290 517 335 473T381 358V150Q381 78 336 35T212 -8Q134 -8 89 35ZM244 76T264 98T285 157V352Q285 388 265 411T212 434Q180 434 160 411T139
352V157Q139 121 159 99T212 76Q244 76 264 98ZM248 592T248 590Q248 584 239 584H181Q173 584 169 590L96 699L94 704Q94 711 103 711H172Q179 711 184 704L246 596Q248 592 248 590Z" />
<glyph unicode="&#xf3;" glyph-name="oacute" horiz-adv-x="424" d="M134 -8T89 35T43 150V358Q43 429 89 473T212 517Q290 517 335 473T381 358V150Q381 78 336 35T212 -8Q134 -8 89 35ZM244 76T264 98T285 157V352Q285 388 265 411T212 434Q180 434 160 411T139
352V157Q139 121 159 99T212 76Q244 76 264 98ZM159 584T157 587T158 596L220 704Q225 711 232 711H301Q307 711 309 708T308 699L235 590Q231 584 223 584H165Q159 584 157 587Z" />
<glyph unicode="&#xf4;" glyph-name="ocircumflex" horiz-adv-x="424" d="M134 -8T89 35T43 150V358Q43 429 89 473T212 517Q290 517 335 473T381 358V150Q381 78 336 35T212 -8Q134 -8 89 35ZM244 76T264 98T285 157V352Q285 388 265 411T212 434Q180 434 160
411T139 352V157Q139 121 159 99T212 76Q244 76 264 98ZM91 578T90 581T91 590L158 695Q163 702 170 702H251Q258 702 263 695L332 590Q334 586 334 584Q334 578 326 578H265Q258 578 253 585L214 654Q213 656 211 656T208 654L169 585Q164 578 157 578H97Q91 578
90 581Z" />
<glyph unicode="&#xf5;" glyph-name="otilde" horiz-adv-x="424" d="M134 -8T89 35T43 150V358Q43 429 89 473T212 517Q290 517 335 473T381 358V150Q381 78 336 35T212 -8Q134 -8 89 35ZM244 76T264 98T285 157V352Q285 388 265 411T212 434Q180 434 160 411T139
352V157Q139 121 159 99T212 76Q244 76 264 98ZM262 597T251 602T221 617Q216 620 208 626T193 634T178 637Q165 637 155 632T136 611Q134 607 130 606T122 608L94 628Q87 634 90 641Q104 671 125 686T171 701Q187 701 201 695T231 678Q235 676 243 670T259 661T275
658Q287 658 297 663T316 684Q320 693 330 687L357 669Q361 666 361 660Q361 656 358 650Q343 622 320 610T275 597Q262 597 251 602Z" />
<glyph unicode="&#xf6;" glyph-name="odieresis" horiz-adv-x="424" d="M134 -8T89 35T43 150V358Q43 429 89 473T212 517Q290 517 335 473T381 358V150Q381 78 336 35T212 -8Q134 -8 89 35ZM244 76T264 98T285 157V352Q285 388 265 411T212 434Q180 434 160 411T139
352V157Q139 121 159 99T212 76Q244 76 264 98ZM119 593T104 608T88 648Q88 672 103 687T142 703Q164 703 178 688T193 648Q193 624 179 609T142 593Q119 593 104 608ZM262 593T248 608T233 648Q233 672 247 687T286 703Q309 703 323 688T338 648Q338 624 324 609T286
593Q262 593 248 608Z" />
<glyph unicode="&#xf7;" glyph-name="divide" horiz-adv-x="440" d="M196 421T179 438T162 479Q162 503 179 520T220 537Q244 537 261 520T279 479Q279 455 262 438T220 421Q196 421 179 438ZM29 283T29 293V347Q29 357 39 357H401Q411 357 411 347V293Q411 283
401 283H39Q29 283 29 293ZM196 107T179 124T162 165Q162 188 179 205T220 223Q243 223 261 206T279 165Q279 141 262 124T220 107Q196 107 179 124Z" />
<glyph unicode="&#xf8;" glyph-name="oslash" horiz-adv-x="448" d="M400 512T401 508T400 500L373 449Q372 446 373 443Q395 409 395 358V150Q395 78 350 35T226 -8Q177 -8 140 9Q135 11 134 8L114 -30Q108 -40 100 -34L52 -6Q48 -4 48 0T49 8L78 61Q80 64 77
67Q57 102 57 150V358Q57 429 103 473T226 517Q273 517 309 500Q314 498 315 501L334 538Q336 542 340 543T348 542L396 514Q400 512 401 508ZM153 208T154 208T158 210L268 416Q269 420 267 421Q251 434 226 434Q194 434 174 411T153 352V211Q153 208 154 208ZM299
306T298 306T294 304L182 95Q181 91 183 90Q202 76 226 76Q258 76 278 98T299 157V303Q299 306 298 306Z" />
<glyph unicode="&#xf9;" glyph-name="ugrave" horiz-adv-x="432" d="M283 509T293 509H369Q379 509 379 499V10Q379 0 369 0H293Q283 0 283 10V39Q283 42 282 42T278 40Q248 -7 182 -7Q122 -7 85 29T48 141V499Q48 509 58 509H134Q144 509 144 499V162Q144 76
212 76Q246 76 264 100T283 168V499Q283 509 293 509ZM249 584T249 582Q249 576 240 576H182Q174 576 170 582L97 691L95 696Q95 703 104 703H173Q180 703 185 696L247 588Q249 584 249 582Z" />
<glyph unicode="&#xfa;" glyph-name="uacute" horiz-adv-x="432" d="M283 509T293 509H369Q379 509 379 499V10Q379 0 369 0H293Q283 0 283 10V39Q283 42 282 42T278 40Q248 -7 182 -7Q122 -7 85 29T48 141V499Q48 509 58 509H134Q144 509 144 499V162Q144 76
212 76Q246 76 264 100T283 168V499Q283 509 293 509ZM160 576T158 579T159 588L221 696Q226 703 233 703H302Q308 703 310 700T309 691L236 582Q232 576 224 576H166Q160 576 158 579Z" />
<glyph unicode="&#xfb;" glyph-name="ucircumflex" horiz-adv-x="432" d="M283 509T293 509H369Q379 509 379 499V10Q379 0 369 0H293Q283 0 283 10V39Q283 42 282 42T278 40Q248 -7 182 -7Q122 -7 85 29T48 141V499Q48 509 58 509H134Q144 509 144 499V162Q144
76 212 76Q246 76 264 100T283 168V499Q283 509 293 509ZM92 570T91 573T92 582L159 687Q164 694 171 694H252Q259 694 264 687L333 582Q335 578 335 576Q335 570 327 570H266Q259 570 254 577L215 646Q214 648 212 648T209 646L170 577Q165 570 158 570H98Q92
570 91 573Z" />
<glyph unicode="&#xfc;" glyph-name="udieresis" horiz-adv-x="432" d="M283 509T293 509H369Q379 509 379 499V10Q379 0 369 0H293Q283 0 283 10V39Q283 42 282 42T278 40Q248 -7 182 -7Q122 -7 85 29T48 141V499Q48 509 58 509H134Q144 509 144 499V162Q144
76 212 76Q246 76 264 100T283 168V499Q283 509 293 509ZM120 585T105 600T89 640Q89 664 104 679T143 695Q165 695 179 680T194 640Q194 616 180 601T143 585Q120 585 105 600ZM263 585T249 600T234 640Q234 664 248 679T287 695Q310 695 324 680T339 640Q339
616 325 601T287 585Q263 585 249 600Z" />
<glyph unicode="&#xfd;" glyph-name="yacute" horiz-adv-x="387" d="M40 -200T38 -197T36 -190V-129Q36 -119 41 -119H46Q78 -119 96 -110T126 -76T146 -3L145 2L17 498L16 501Q16 509 26 509H108Q118 509 119 500L192 139Q193 136 194 136T196 139L268 500Q270
509 279 509L362 508Q367 508 369 505T370 497L233 -35Q214 -104 195 -138T143 -186T47 -200H42Q40 -200 38 -197ZM141 576T139 579T140 588L202 696Q207 703 214 703H283Q289 703 291 700T290 691L217 582Q213 576 205 576H147Q141 576 139 579Z" />
<glyph unicode="&#xfe;" glyph-name="thorn" horiz-adv-x="426" d="M309 516T346 474T383 358V150Q383 78 347 35T244 -8Q218 -8 193 2T149 34Q147 36 146 35T144 32V-190Q144 -200 134 -200H58Q48 -200 48 -190V690Q48 700 58 700H134Q144 700 144 690V476Q144
474 146 474T150 476Q169 497 194 506T244 516Q309 516 346 474ZM287 388T267 411T215 434Q183 434 164 411T144 352V156Q144 120 163 98T215 75Q247 75 267 97T287 156V352Q287 388 267 411Z" />
<glyph unicode="&#xff;" glyph-name="ydieresis" horiz-adv-x="387" d="M40 -200T38 -197T36 -190V-129Q36 -119 41 -119H46Q78 -119 96 -110T126 -76T146 -3L145 2L17 498L16 501Q16 509 26 509H108Q118 509 119 500L192 139Q193 136 194 136T196 139L268 500Q270
509 279 509L362 508Q367 508 369 505T370 497L233 -35Q214 -104 195 -138T143 -186T47 -200H42Q40 -200 38 -197ZM101 585T86 600T70 640Q70 664 85 679T124 695Q146 695 160 680T175 640Q175 616 161 601T124 585Q101 585 86 600ZM244 585T230 600T215 640Q215
664 229 679T268 695Q291 695 305 680T320 640Q320 616 306 601T268 585Q244 585 230 600Z" />
<glyph unicode="&#x2013;" glyph-name="endash" horiz-adv-x="375" d="M29 242T29 252V315Q29 325 39 325H336Q346 325 346 315V252Q346 242 336 242H39Q29 242 29 252Z" />
<glyph unicode="&#x2014;" glyph-name="emdash" horiz-adv-x="592" d="M29 242T29 252V315Q29 325 39 325H553Q563 325 563 315V252Q563 242 553 242H39Q29 242 29 252Z" />
<glyph unicode="&#x2018;" glyph-name="quoteleft" horiz-adv-x="146" d="M1 488T4 499L67 692Q70 700 79 700H135Q140 700 142 697T144 689L100 497Q98 488 89 488H12Q1 488 4 499Z" />
<glyph unicode="&#x2019;" glyph-name="quoteright" horiz-adv-x="146" d="M145 700T142 689L79 496Q76 488 67 488H11Q6 488 4 491T2 499L46 691Q48 700 57 700H134Q145 700 142 689Z" />
<glyph unicode="&#x201a;" glyph-name="quotesinglbase" horiz-adv-x="600" d="M40 -86T37 -83T35 -75L64 147Q65 156 74 156H140Q151 156 149 145L101 -77Q100 -86 90 -86H45Q40 -86 37 -83Z" />
<glyph unicode="&#x201c;" glyph-name="quotedblleft" horiz-adv-x="287" d="M1 488T4 499L71 692Q74 700 83 700H137Q148 700 145 689L97 497Q96 488 86 488H12Q1 488 4 499ZM141 488T144 499L209 692Q212 700 221 700H276Q287 700 284 689L237 497Q236 488 226
488H152Q141 488 144 499Z" />
<glyph unicode="&#x201d;" glyph-name="quotedblright" horiz-adv-x="287" d="M146 700T143 689L78 496Q75 488 66 488H11Q0 488 3 499L50 691Q52 700 61 700H135Q146 700 143 689ZM286 700T283 689L216 496Q213 488 204 488H150Q139 488 142 499L190 691Q192
700 201 700H275Q286 700 283 689Z" />
<glyph unicode="&#x201e;" glyph-name="quotedblbase" horiz-adv-x="277" d="M146 128T143 117L78 -76Q75 -84 66 -84H11Q0 -84 3 -73L50 119Q52 128 61 128H135Q146 128 143 117ZM286 128T283 117L216 -76Q213 -84 204 -84H150Q139 -84 142 -73L190 119Q192 128
201 128H275Q286 128 283 117Z" />
<glyph unicode="&#x2022;" glyph-name="bullet" horiz-adv-x="299" d="M100 150T65 185T29 271Q29 321 64 355T150 390Q200 390 235 356T270 271Q270 221 235 186T150 150Q100 150 65 185Z" />
<glyph unicode="&#x2039;" glyph-name="guilsinglleft" horiz-adv-x="303" d="M236 115T236 113Q236 107 227 107H157Q150 107 145 114L49 274Q47 277 47 281T49 288L145 448Q150 455 157 455H227Q233 455 235 452T234 443L138 284Q137 281 138 278L234 119Q236
115 236 113Z" />
<glyph unicode="&#x203a;" glyph-name="guilsinglright" horiz-adv-x="319" d="M70 107T68 110T69 119L165 278Q167 281 165 284L69 443Q67 447 67 449Q67 455 76 455H146Q153 455 158 448L254 288Q256 285 256 281T254 274L158 114Q153 107 146 107H76Q70 107 68 110Z" />
</font>
</defs>
</svg>
