<?xml version="1.0" standalone="no"?>
<!DOCTYPE svg PUBLIC "-//W3C//DTD SVG 1.1//EN" "http://www.w3.org/Graphics/SVG/1.1/DTD/svg11.dtd">
<svg xmlns="http://www.w3.org/2000/svg">
<defs >
<font id="BarlowCondensed" horiz-adv-x="448" ><font-face
    font-family="Barlow Condensed Black"
    units-per-em="1000"
    panose-1="0 0 10 6 0 0 0 0 0 0"
    ascent="1000"
    descent="-200"
    alphabetic="0" />
<glyph unicode=" " glyph-name="space" horiz-adv-x="200" />
<glyph unicode="!" glyph-name="exclam" horiz-adv-x="302" d="M85 248T81 252T76 263L58 685Q58 700 72 700H230Q244 700 244 685L226 263Q226 256 222 252T210 248H92Q85 248 81 252ZM104 0T75 30T45 105Q45 133 60 157T99 195T150 209Q176 209 200 195T240
157T255 105Q255 61 226 31T150 0Q104 0 75 30Z" />
<glyph unicode="&quot;" glyph-name="quotedbl" horiz-adv-x="420" d="M28 460T27 474L9 684V686Q9 700 24 700H170Q178 700 182 696T185 684L167 474Q166 460 152 460H42Q28 460 27 474ZM254 460T253 474L235 684V686Q235 700 250 700H396Q404 700 408 696T411
684L393 474Q392 460 378 460H268Q254 460 253 474Z" />
<glyph unicode="#" glyph-name="numbersign" horiz-adv-x="634" d="M614 395T610 391T599 387H542Q539 387 537 385T535 381L527 324Q526 318 532 318H563Q570 318 574 314T578 303V173Q578 166 574 162T563 158H508Q505 158 503 156T501 152L486 48Q485 34 470
34H312Q296 34 298 50L313 152Q315 158 308 158H268Q265 158 263 156T261 152L246 48Q245 34 230 34H72Q56 34 58 50L73 152Q75 158 68 158H35Q28 158 24 162T20 173V303Q20 310 24 314T35 318H92Q95 318 97 320T99 324L107 381Q109 387 102 387H71Q64 387 60 391T56
402V533Q56 540 60 544T71 548H126Q129 548 131 550T133 554L148 658Q149 672 164 672H322Q338 672 336 656L321 554Q320 548 326 548H366Q369 548 371 550T373 554L388 658Q389 672 404 672H562Q578 672 576 656L561 554Q560 548 566 548H599Q606 548 610 544T614
533V402Q614 395 610 391ZM335 318T337 320T339 324L347 381Q349 387 342 387H302Q299 387 297 385T295 381L287 324Q286 318 292 318H332Q335 318 337 320Z" />
<glyph unicode="$" glyph-name="dollar" horiz-adv-x="463" d="M449 113T406 62T289 -3Q283 -5 283 -10L285 -53Q285 -60 281 -64T270 -68H181Q174 -68 170 -64T166 -53L168 -5Q168 -1 163 1Q98 19 60 67T22 180V214Q22 221 26 225T37 229H193Q200 229 204 225T208
214V189Q208 173 216 163T236 153Q248 153 256 162T264 185Q264 202 248 218T181 271Q131 306 99 335T42 408T18 509Q18 581 57 632T165 700Q170 702 170 706L168 763Q168 770 172 774T183 778H270Q277 778 281 774T285 763L283 709Q283 704 288 702Q360 687 402
636T445 509V487Q445 480 441 476T430 472H275Q268 472 264 476T260 487V513Q260 528 252 537T231 547Q218 547 211 537T203 510Q203 490 219 472T283 418Q347 371 379 342T430 277T449 191Q449 113 406 62Z" />
<glyph unicode="%" glyph-name="percent" horiz-adv-x="756" d="M147 371T109 393T49 455T26 540Q26 586 48 624T109 685T192 708Q237 708 275 686T335 625T357 540Q357 494 335 455T275 394T192 371Q147 371 109 393ZM129 0T129 10L131 18L492 689Q498 700 510
700H610Q622 700 622 690L620 682L259 11Q254 0 241 0H141Q129 0 129 10ZM221 465T241 486T261 540Q261 571 241 592T192 614Q163 614 143 593T122 540Q122 509 142 487T192 465Q221 465 241 486ZM520 -8T482 14T422 76T399 161Q399 207 421 245T482 306T565 329Q610
329 648 307T708 246T730 161Q730 115 708 76T648 15T565 -8Q520 -8 482 14ZM594 86T614 107T634 161Q634 192 614 213T565 235Q536 235 516 214T495 161Q495 130 515 108T565 86Q594 86 614 107Z" />
<glyph unicode="&amp;" glyph-name="ampersand" horiz-adv-x="643" d="M618 14T618 9Q618 5 615 3T605 0H434Q424 0 416 9L402 25Q399 28 393 27Q320 -10 231 -10Q132 -10 75 37T18 176Q18 288 112 357Q117 362 113 366Q74 418 62 446T49 511Q49 569 75 614T149
683T259 708Q323 708 374 683T453 611T482 505Q482 444 453 400T374 321Q370 317 371 314L374 311L410 267Q412 265 414 265T418 267Q449 307 462 336Q466 346 473 346Q477 346 482 343L598 277Q610 269 605 257Q568 185 526 134Q523 130 526 126L614 18Q618 14
618 9ZM252 538T245 529T237 504Q237 491 240 482T258 454Q263 449 267 453Q294 477 294 503Q294 519 286 528T265 538Q252 538 245 529ZM266 151T281 155Q288 157 283 163L277 170Q245 208 230 224Q225 229 222 225Q207 210 207 193Q207 176 220 162T261 150Q266
151 281 155Z" />
<glyph unicode="&apos;" glyph-name="quotesingle" horiz-adv-x="204" d="M27 460T26 474L9 684V686Q9 700 24 700H180Q188 700 192 696T195 684L176 474Q175 460 161 460H41Q27 460 26 474Z" />
<glyph unicode="(" glyph-name="parenleft" horiz-adv-x="371" d="M136 -83T128 -74Q71 4 37 103T3 337Q3 579 128 747Q136 756 146 756H301Q309 756 312 751T312 739Q267 646 240 554T213 337Q213 212 240 121T312 -66Q314 -72 314 -73Q314 -83 301 -83H146Q136
-83 128 -74Z" />
<glyph unicode=")" glyph-name="parenright" horiz-adv-x="371" d="M235 -83T225 -83H70Q62 -83 59 -78T59 -66Q104 29 131 120T158 337Q158 461 131 553T59 739Q57 745 57 746Q57 756 70 756H225Q235 756 243 747Q368 579 368 337Q368 203 334 104T243 -74Q235
-83 225 -83Z" />
<glyph unicode="*" glyph-name="asterisk" horiz-adv-x="362" d="M138 397T134 401T130 412L131 468Q131 476 124 472L73 443Q69 440 65 440Q58 440 53 449L15 515Q13 518 13 523Q13 530 21 535L79 567Q86 571 79 575L21 605Q13 610 13 617Q13 619 15 625L53 694Q58
702 65 702Q70 702 73 700L124 669Q127 667 129 669T131 674L130 730Q130 737 134 741T145 745H218Q225 745 229 741T233 730L232 674Q232 671 234 670T239 669L289 700Q292 702 297 702Q304 702 309 694L347 625Q349 622 349 617Q349 610 341 605L285 575Q278
571 285 567L341 535Q353 527 347 515L309 446Q304 437 297 437Q293 437 289 440L239 471Q232 475 232 467L233 412Q233 405 229 401T218 397H145Q138 397 134 401Z" />
<glyph unicode="+" glyph-name="plus" horiz-adv-x="436" d="M410 376T414 372T418 361V251Q418 244 414 240T403 236H294Q288 236 288 230V121Q288 114 284 110T273 106H163Q156 106 152 110T148 121V230Q148 236 142 236H33Q26 236 22 240T18 251V361Q18 368
22 372T33 376H142Q148 376 148 382V491Q148 498 152 502T163 506H273Q280 506 284 502T288 491V382Q288 376 294 376H403Q410 376 414 372Z" />
<glyph unicode="," glyph-name="comma" horiz-adv-x="233" d="M24 -111T25 -96L40 145Q41 152 45 156T56 160H192Q208 160 205 143L149 -98Q146 -111 133 -111H39Q24 -111 25 -96Z" />
<glyph unicode="-" glyph-name="hyphen" horiz-adv-x="343" d="M26 205T22 209T18 220V350Q18 357 22 361T33 365H310Q317 365 321 361T325 350V220Q325 213 321 209T310 205H33Q26 205 22 209Z" />
<glyph unicode="." glyph-name="period" horiz-adv-x="308" d="M103 -8T74 22T44 97Q44 125 59 149T98 187T149 201Q175 201 199 187T239 149T254 97Q254 53 225 23T149 -8Q103 -8 74 22Z" />
<glyph unicode="/" glyph-name="slash" horiz-adv-x="458" d="M18 0T15 4T14 17L258 688Q262 700 275 700H432Q440 700 443 696T444 683L200 12Q196 0 183 0H26Q18 0 15 4Z" />
<glyph unicode="0" glyph-name="zero" horiz-adv-x="459" d="M166 -12T118 15T43 91T16 206V494Q16 559 42 608T117 685T229 712Q293 712 341 685T416 609T443 494V206Q443 141 417 92T342 15T229 -12Q166 -12 118 15ZM241 149T248 161T255 195V505Q255 526 248
538T229 551Q218 551 211 539T204 505V195Q204 174 211 162T229 149Q241 149 248 161Z" />
<glyph unicode="1" glyph-name="one" horiz-adv-x="293" d="M85 700T94 700H258Q265 700 269 696T273 685V15Q273 8 269 4T258 0H100Q93 0 89 4T85 15V523Q85 529 79 529H23Q16 529 12 533T8 544V660Q8 673 20 677L76 697Q85 700 94 700Z" />
<glyph unicode="2" glyph-name="two" horiz-adv-x="463" d="M26 0T22 4T18 15V150Q18 161 25 169L86 237Q136 292 162 323T210 385Q257 453 257 505Q257 547 231 547Q219 547 212 538T204 512V470Q204 463 200 459T189 455H29Q22 455 18 459T14 470V520Q18 576
47 618T127 684T240 708Q301 708 348 683T421 611T447 504Q447 448 431 405T378 312Q352 277 316 239T273 192L250 168Q247 165 248 163T253 161H438Q445 161 449 157T453 146V15Q453 8 449 4T438 0H33Q26 0 22 4Z" />
<glyph unicode="3" glyph-name="three" horiz-adv-x="454" d="M429 700T433 696T437 685V551Q437 540 430 532L327 424Q325 422 325 420T330 417Q376 413 406 373T437 276V172Q437 120 411 79T337 15T230 -8Q167 -8 118 15T42 79T14 172V217Q14 224 18 228T29
232H187Q194 232 198 228T202 217V190Q202 173 209 163T230 153Q243 153 251 163T259 190V303Q259 319 251 329T230 340Q214 340 195 323Q188 318 184 318Q179 318 174 323L94 406Q90 410 90 416Q90 423 95 427L205 533Q208 535 207 537T202 540H45Q38 540 34 544T30
555V685Q30 692 34 696T45 700H422Q429 700 433 696Z" />
<glyph unicode="4" glyph-name="four" horiz-adv-x="530" d="M514 337T518 333T522 322V182Q522 175 518 171T507 167H477Q471 167 471 161V15Q471 8 467 4T456 0H298Q291 0 287 4T283 15V161Q283 167 277 167H23Q16 167 12 171T8 182V293Q8 302 11 311L132 688Q136
700 149 700H318Q326 700 329 696T331 683L228 344Q227 337 233 337H277Q283 337 283 343V411Q283 418 287 422T298 426H456Q463 426 467 422T471 411V343Q471 337 477 337H507Q514 337 518 333Z" />
<glyph unicode="5" glyph-name="five" horiz-adv-x="459" d="M362 444T403 395T445 260V171Q445 87 387 40T231 -8Q141 -8 86 35T20 164L18 189Q18 204 33 204H191Q206 204 207 192Q207 183 208 180Q212 152 231 152Q243 152 250 161T257 184V250Q257 264 250
273T231 282Q215 282 208 270Q204 263 201 260T192 257H32Q25 257 21 261T17 272V685Q17 692 21 696T32 700H428Q435 700 439 696T443 685V554Q443 547 439 543T428 539H211Q205 539 205 533V419Q205 415 207 414T212 415Q228 429 248 436T291 444Q362 444 403
395Z" />
<glyph unicode="6" glyph-name="six" horiz-adv-x="460" d="M363 444T404 395T446 260V171Q446 87 388 40T232 -8Q141 -8 85 35T21 164Q19 188 19 204L17 524Q16 609 74 658T229 708Q322 708 379 658T437 524V485Q437 478 433 474T422 470H264Q257 470 253 474T249
485V511Q249 525 243 534T229 543Q219 543 213 534T206 511V419Q206 415 208 414T213 415Q229 429 249 436T292 444Q363 444 404 395ZM255 294T249 303T231 312Q220 312 213 303T206 280V184Q206 170 213 161T231 152Q242 152 248 161T255 184V280Q255 294 249
303Z" />
<glyph unicode="7" glyph-name="seven" horiz-adv-x="435" d="M76 0T73 4T71 17L229 532Q230 539 224 539H163Q157 539 157 533V505Q157 498 153 494T142 490H21Q14 490 10 494T6 505L7 685Q7 692 11 696T22 700H414Q421 700 425 696T429 685V548Q429 539 426
530L266 12Q263 0 249 0H84Q76 0 73 4Z" />
<glyph unicode="8" glyph-name="eight" horiz-adv-x="452" d="M365 362T370 357Q402 337 419 298Q436 256 436 207Q436 160 419 117Q396 60 345 26T226 -8Q158 -8 107 25T32 117Q16 158 16 207Q16 259 32 298Q47 334 80 356Q86 361 81 364Q48 389 32 427Q16 466
16 513Q16 562 32 600Q55 653 107 684T226 715Q292 715 344 686T419 600Q436 560 436 513Q436 468 419 427Q404 391 370 365Q365 362 370 357ZM201 451T208 440T226 429Q237 429 244 440T251 469V515Q251 532 244 543T226 554Q215 554 208 543T201 515V469Q201
451 208 440ZM251 266T244 277T226 288Q215 288 208 277T201 248V192Q201 175 208 164T226 153Q237 153 244 164T251 192V248Q251 266 244 277Z" />
<glyph unicode="9" glyph-name="nine" horiz-adv-x="456" d="M440 91T382 42T227 -8Q134 -8 77 42T19 176V215Q19 222 23 226T34 230H192Q199 230 203 226T207 215V189Q207 175 213 166T227 157Q237 157 243 166T250 189V281Q250 285 248 286T243 285Q208 256
164 256Q93 256 52 305T10 440V529Q10 613 68 660T224 708Q315 708 371 665T435 536Q437 512 437 496L439 176Q440 91 382 42ZM236 388T243 397T250 420V516Q250 530 243 539T225 548Q214 548 208 539T201 516V420Q201 406 207 397T225 388Q236 388 243 397Z" />
<glyph unicode=":" glyph-name="colon" horiz-adv-x="318" d="M115 321T86 351T56 426Q56 454 71 478T110 516T161 530Q187 530 211 516T251 478T266 426Q266 382 237 352T161 321Q115 321 86 351ZM115 0T86 30T56 105Q56 133 71 157T110 195T161 209Q187 209
211 195T251 157T266 105Q266 61 237 31T161 0Q115 0 86 30Z" />
<glyph unicode=";" glyph-name="semicolon" horiz-adv-x="258" d="M83 291T54 321T24 396Q24 424 39 448T78 486T129 500Q155 500 179 486T219 448T234 396Q234 352 205 322T129 291Q83 291 54 321ZM32 -111T33 -96L48 145Q49 152 53 156T64 160H200Q216 160 213
143L157 -98Q154 -111 141 -111H47Q32 -111 33 -96Z" />
<glyph unicode="&lt;" glyph-name="less" horiz-adv-x="436" d="M418 53T413 50T400 50L29 212Q18 218 18 229V365Q18 377 29 382L400 544Q406 546 407 546Q418 546 418 533V387Q418 375 406 370L208 301Q204 300 204 298T208 293L406 224Q418 220 418 207V61Q418
53 413 50Z" />
<glyph unicode="=" glyph-name="equal" horiz-adv-x="436" d="M26 320T22 324T18 335V445Q18 452 22 456T33 460H403Q410 460 414 456T418 445V335Q418 328 414 324T403 320H33Q26 320 22 324ZM26 406T22 410T18 421V531Q18 538 22 542T33 546H403Q410 546 414
542T418 531V421Q418 414 414 410T403 406H33Q26 406 22 410Z" />
<glyph unicode="&gt;" glyph-name="greater" horiz-adv-x="436" d="M30 48T29 48Q18 48 18 61V207Q18 220 30 224L228 293Q232 295 232 297T228 301L30 370Q18 375 18 387V533Q18 541 23 544T36 544L407 382Q418 377 418 365V229Q418 218 407 212L36 50Q30 48 29 48Z" />
<glyph unicode="?" glyph-name="question" horiz-adv-x="483" d="M135 236T135 250V264Q135 303 148 332T179 379T227 419Q256 441 269 457T283 494Q283 515 273 527T244 539Q222 539 210 525T198 488V484Q198 470 183 470L25 477Q19 477 15 479T10 483V488Q10
553 40 603T124 682T249 710Q317 710 367 684T445 612T473 503Q473 459 460 428T428 377T379 334Q349 311 335 294T321 252V251Q321 244 317 240T306 236H150Q135 236 135 250ZM195 -5T168 23T140 90Q140 130 168 158T236 187Q275 187 303 159T332 91Q332 51 304
23T235 -5Q195 -5 168 23Z" />
<glyph unicode="@" glyph-name="at" horiz-adv-x="760" d="M518 681T589 643T701 537T742 381Q742 357 739 333Q726 230 670 173T529 116Q458 116 420 156Q415 161 411 155Q385 118 328 118Q267 118 242 155T216 235Q216 249 217 261T219 282L222 310Q225 344
229 362Q241 431 269 458T351 486Q383 486 400 464Q402 461 404 460T407 460V465Q408 479 423 479H517Q533 479 531 463L509 311Q507 295 507 290Q507 261 518 248T547 235Q572 235 587 264T608 337Q610 361 610 371Q610 429 586 473T517 541T418 565Q351 565 294
531T199 435T151 297Q148 275 148 255Q148 186 176 141T248 74T335 52Q365 52 388 61T436 88Q440 91 445 91Q452 91 457 83L499 9Q501 3 501 0Q501 -8 494 -12Q407 -66 313 -66Q232 -66 165 -28T58 80T18 245Q18 263 22 301Q35 411 93 497T239 632T429 681Q518
681 589 643ZM364 217T369 224T377 242L384 302L391 355V360Q391 368 387 373T375 379Q366 379 360 373T352 355L344 295L337 242V239Q337 229 341 223T355 217Q364 217 369 224Z" />
<glyph unicode="A" glyph-name="A" horiz-adv-x="531" d="M326 0T325 14L316 89Q316 92 314 93T309 95H221Q216 95 214 90L202 14Q200 0 186 0H29Q13 0 16 16L158 687Q161 700 175 700H357Q371 700 374 687L516 16V12Q516 0 502 0H341Q326 0 325 14ZM238 239T245
239H290Q295 239 295 245L273 415Q272 420 270 420T266 415L239 245Q238 239 245 239Z" />
<glyph unicode="B" glyph-name="B" horiz-adv-x="484" d="M468 102T407 51T252 0H41Q34 0 30 4T26 15V685Q26 692 30 696T41 700H222Q331 700 392 651T454 503Q454 411 397 366Q392 362 395 359Q468 303 468 197Q468 102 407 51ZM214 539T214 533V433Q214 427
220 427H225Q270 427 270 483Q270 539 225 539H220Q214 539 214 533ZM256 161T268 177T280 225Q280 256 269 274T238 293H220Q214 293 214 287V167Q214 161 220 161H237Q256 161 268 177Z" />
<glyph unicode="C" glyph-name="C" horiz-adv-x="476" d="M140 -8T80 50T20 205V497Q20 594 79 651T239 708Q338 708 398 651T458 497V492Q458 485 454 481T443 476L285 471Q270 471 270 485V510Q270 527 262 537T239 547Q225 547 217 537T208 510V189Q208 172
216 163T239 153Q253 153 261 162T270 189V216Q270 230 285 230L443 225Q450 225 454 222T458 215V205Q458 141 431 93T354 18T239 -8Q140 -8 80 50Z" />
<glyph unicode="D" glyph-name="D" horiz-adv-x="483" d="M34 0T30 4T26 15V685Q26 692 30 696T41 700H238Q304 700 354 675T433 605T461 500V200Q461 141 433 96T355 25T238 0H41Q34 0 30 4ZM214 161T220 161L234 162Q250 163 261 177T273 213V488Q273 511 262
525T233 539H220Q214 539 214 533V167Q214 161 220 161Z" />
<glyph unicode="E" glyph-name="E" horiz-adv-x="444" d="M426 547T422 543T411 539H220Q214 539 214 533V437Q214 431 220 431H319Q326 431 330 427T334 416V285Q334 278 330 274T319 270H220Q214 270 214 264V167Q214 161 220 161H411Q418 161 422 157T426 146V15Q426
8 422 4T411 0H41Q34 0 30 4T26 15V685Q26 692 30 696T41 700H411Q418 700 422 696T426 685V554Q426 547 422 543Z" />
<glyph unicode="F" glyph-name="F" horiz-adv-x="432" d="M426 547T422 543T411 539H220Q214 539 214 533V437Q214 431 220 431H319Q326 431 330 427T334 416V285Q334 278 330 274T319 270H220Q214 270 214 264V15Q214 8 210 4T199 0H41Q34 0 30 4T26 15V685Q26
692 30 696T41 700H411Q418 700 422 696T426 685V554Q426 547 422 543Z" />
<glyph unicode="G" glyph-name="G" horiz-adv-x="476" d="M140 -8T80 47T20 196V505Q20 598 80 653T239 708Q304 708 353 683T430 612T458 503V470Q458 463 454 459T443 455H285Q278 455 274 459T270 470V505Q270 524 262 535T239 547Q225 547 217 536T208 505V195Q208
176 216 165T239 153Q253 153 261 164T270 195V244Q270 250 264 250H256Q249 250 245 254T241 265V380Q241 387 245 391T256 395H443Q450 395 454 391T458 380V196Q458 135 431 89T354 17T239 -8Q140 -8 80 47Z" />
<glyph unicode="H" glyph-name="H" horiz-adv-x="486" d="M272 692T276 696T287 700H445Q452 700 456 696T460 685V15Q460 8 456 4T445 0H287Q280 0 276 4T272 15V264Q272 270 266 270H220Q214 270 214 264V15Q214 8 210 4T199 0H41Q34 0 30 4T26 15V685Q26 692
30 696T41 700H199Q206 700 210 696T214 685V437Q214 431 220 431H266Q272 431 272 437V685Q272 692 276 696Z" />
<glyph unicode="I" glyph-name="I" horiz-adv-x="240" d="M34 0T30 4T26 15V685Q26 692 30 696T41 700H199Q206 700 210 696T214 685V15Q214 8 210 4T199 0H41Q34 0 30 4Z" />
<glyph unicode="J" glyph-name="J" horiz-adv-x="470" d="M161 -8T112 17T35 87T8 192V250Q8 257 12 261T23 265H181Q188 265 192 261T196 250V190Q196 174 204 164T225 153Q239 153 247 163T256 190V685Q256 692 260 696T271 700H429Q436 700 440 696T444 685V192Q444
133 417 88T340 17T225 -8Q161 -8 112 17Z" />
<glyph unicode="K" glyph-name="K" horiz-adv-x="517" d="M34 0T30 4T26 15V685Q26 692 30 696T41 700H199Q206 700 210 696T214 685V487Q214 483 216 483T221 486L305 688Q310 700 323 700H488Q496 700 500 695T500 682L359 387Q358 383 359 379L504 17Q505 14
505 10Q505 0 492 0H326Q313 0 308 12L231 217Q230 222 228 222T223 217L215 197Q214 195 214 189V15Q214 8 210 4T199 0H41Q34 0 30 4Z" />
<glyph unicode="L" glyph-name="L" horiz-adv-x="446" d="M34 0T30 4T26 15V685Q26 692 30 696T41 700H199Q206 700 210 696T214 685V167Q214 161 220 161H415Q422 161 426 157T430 146V15Q430 8 426 4T415 0H41Q34 0 30 4Z" />
<glyph unicode="M" glyph-name="M" horiz-adv-x="566" d="M29 0T25 4T21 15V685Q21 692 25 696T36 700H192Q205 700 210 689L279 562Q281 559 283 559T287 562L356 689Q362 700 374 700H530Q537 700 541 696T545 685V15Q545 8 541 4T530 0H372Q365 0 361 4T357
15V422Q357 426 355 427T350 424L293 328L283 310H282L216 426Q214 430 212 430T209 424V15Q209 8 205 4T194 0H36Q29 0 25 4Z" />
<glyph unicode="N" glyph-name="N" horiz-adv-x="528" d="M34 0T30 4T26 15V685Q26 692 30 696T41 700H217Q230 700 233 687L310 382Q311 378 314 378T317 382L316 685Q316 692 320 696T331 700H487Q494 700 498 696T502 685V15Q502 8 498 4T487 0H309Q296 0 293
13L217 320Q216 323 213 323T210 319L212 15Q212 8 208 4T197 0H41Q34 0 30 4Z" />
<glyph unicode="O" glyph-name="O" horiz-adv-x="484" d="M141 -8T81 50T20 206V494Q20 592 80 650T242 708Q343 708 403 650T464 494V206Q464 108 404 50T242 -8Q141 -8 81 50ZM258 153T267 165T276 198V502Q276 523 267 535T242 547Q226 547 217 535T208 502V198Q208
177 217 165T242 153Q258 153 267 165Z" />
<glyph unicode="P" glyph-name="P" horiz-adv-x="481" d="M324 700T370 672T443 592T469 475Q469 411 445 362T376 287T274 260H218Q212 260 212 254V15Q212 8 208 4T197 0H39Q32 0 28 4T24 15V685Q24 692 28 696T39 700H264Q324 700 370 672ZM254 405T267 421T281
471Q281 504 268 521T231 539H218Q212 539 212 533V411Q212 405 218 405H231Q254 405 267 421Z" />
<glyph unicode="Q" glyph-name="Q" horiz-adv-x="473" d="M301 708T350 680T426 602T453 485V215Q453 143 422 90T335 12Q330 11 330 5V-72Q330 -79 326 -83T315 -87H157Q150 -87 146 -83T142 -72V5Q142 11 137 12Q82 38 51 91T20 215V485Q20 551 47 601T123 680T236
708Q301 708 350 680ZM208 195Q208 176 215 165T236 153Q249 153 257 164T265 195V505Q265 524 257 535T236 547Q223 547 216 536T208 505V195Z" />
<glyph unicode="R" glyph-name="R" horiz-adv-x="490" d="M286 0T283 13L222 264Q220 269 218 269Q214 269 214 263V15Q214 8 210 4T199 0H41Q34 0 30 4T26 15V685Q26 692 30 696T41 700H266Q326 700 372 672T445 593T471 477Q471 422 452 379T397 308Q393 305
394 300L475 17Q476 15 476 12Q476 0 462 0H299Q286 0 283 13ZM220 539Q214 539 214 533V418Q214 412 220 412H233Q255 412 269 428T283 475Q283 506 270 522T233 539H220Z" />
<glyph unicode="S" glyph-name="S" horiz-adv-x="463" d="M171 -8T123 16T49 82T22 180V214Q22 221 26 225T37 229H193Q200 229 204 225T208 214V189Q208 173 216 163T236 153Q248 153 256 162T264 185Q264 202 248 218T181 271Q131 306 99 335T42 408T18 509Q18
568 44 613T119 683T231 708Q295 708 343 683T418 613T445 509V487Q445 480 441 476T430 472H275Q268 472 264 476T260 487V513Q260 528 252 537T231 547Q218 547 211 537T203 510Q203 490 219 472T283 418Q347 371 379 342T430 277T449 191Q449 100 390 46T235
-8Q171 -8 123 16Z" />
<glyph unicode="T" glyph-name="T" horiz-adv-x="499" d="M473 700T477 696T481 685V554Q481 547 477 543T466 539H348Q342 539 342 533V15Q342 8 338 4T327 0H169Q162 0 158 4T154 15V533Q154 539 148 539H33Q26 539 22 543T18 554V685Q18 692 22 696T33 700H466Q473
700 477 696Z" />
<glyph unicode="U" glyph-name="U" horiz-adv-x="481" d="M176 -8T127 19T51 95T24 208V685Q24 692 28 696T39 700H197Q204 700 208 696T212 685V190Q212 173 220 163T241 153Q254 153 261 163T269 190V685Q269 692 273 696T284 700H442Q449 700 453 696T457 685V208Q457
144 430 95T354 19T241 -8Q176 -8 127 19Z" />
<glyph unicode="V" glyph-name="V" horiz-adv-x="521" d="M158 0T155 13L15 684V688Q15 700 29 700H201Q216 700 217 686L262 332Q262 329 265 329T268 332L309 686Q310 700 325 700H492Q509 700 506 684L364 13Q361 0 347 0H172Q158 0 155 13Z" />
<glyph unicode="W" glyph-name="W" horiz-adv-x="720" d="M154 0T151 13L15 684V688Q15 700 29 700H192Q207 700 208 686L242 381Q242 379 245 379T248 381L285 686Q286 700 301 700H423Q438 700 439 686L481 380Q481 378 484 378T488 380L517 686Q518 700 532
700H691Q708 700 705 684L577 13Q574 0 560 0H422Q407 0 406 14L364 335Q364 338 361 338T357 335L323 14Q322 0 307 0H168Q154 0 151 13Z" />
<glyph unicode="X" glyph-name="X" horiz-adv-x="503" d="M23 0T20 4T19 17L150 346Q152 350 150 354L19 683Q18 686 18 690Q18 700 31 700H191Q197 700 202 697T208 687L248 550Q250 546 252 546T256 550L296 687Q297 693 302 696T313 700H472Q480 700 483 696T484
683L353 354Q351 350 353 346L484 17Q485 14 485 10Q485 0 472 0H314Q308 0 303 3T297 13L256 149Q255 153 253 153T248 149L207 13Q206 7 201 4T190 0H31Q23 0 20 4Z" />
<glyph unicode="Y" glyph-name="Y" horiz-adv-x="508" d="M167 2T163 6T159 17V247Q159 253 158 255L18 683Q17 685 17 689Q17 700 30 700H196Q210 700 213 687L250 490Q251 486 254 486T258 490L295 687Q298 700 312 700H478Q486 700 489 696T490 683L348 255Q347
253 347 247V17Q347 10 343 6T332 2H174Q167 2 163 6Z" />
<glyph unicode="Z" glyph-name="Z" horiz-adv-x="424" d="M20 0T16 4T12 15V151Q12 160 17 170L208 532Q211 539 204 539H27Q20 539 16 543T12 554V685Q12 692 16 696T27 700H395Q402 700 406 696T410 685V549Q410 540 405 530L212 168Q209 161 216 161H395Q402
161 406 157T410 146V15Q410 8 406 4T395 0H27Q20 0 16 4Z" />
<glyph unicode="[" glyph-name="bracketleft" horiz-adv-x="373" d="M38 -164T34 -160T30 -149V803Q30 810 34 814T45 818H278Q285 818 289 814T293 803V672Q293 665 289 661T278 657H224Q218 657 218 651V3Q218 -3 224 -3H278Q285 -3 289 -7T293 -18V-149Q293
-156 289 -160T278 -164H45Q38 -164 34 -160Z" />
<glyph unicode="\" glyph-name="backslash" horiz-adv-x="458" d="M445 14T445 10Q445 0 432 0H275Q262 0 258 12L14 683Q13 686 13 690Q13 700 26 700H183Q196 700 200 688L444 17Q445 14 445 10Z" />
<glyph unicode="]" glyph-name="bracketright" horiz-adv-x="373" d="M343 -156T339 -160T328 -164H95Q88 -164 84 -160T80 -149V-18Q80 -11 84 -7T95 -3H149Q155 -3 155 3V651Q155 657 149 657H95Q88 657 84 661T80 672V803Q80 810 84 814T95 818H328Q335 818
339 814T343 803V-149Q343 -156 339 -160Z" />
<glyph unicode="^" glyph-name="asciicircum" horiz-adv-x="440" d="M28 291T25 295T23 308L137 687Q138 693 143 696T154 700H283Q297 700 300 688L417 308Q418 306 418 303Q418 291 404 291H279Q265 291 262 304L224 481Q223 486 220 486T216 481L178 304Q175
291 161 291H36Q28 291 25 295Z" />
<glyph unicode="_" glyph-name="underscore" horiz-adv-x="451" d="M16 0T12 4T8 15V125Q8 132 12 136T23 140H428Q435 140 439 136T443 125V15Q443 8 439 4T428 0H23Q16 0 12 4Z" />
<glyph unicode="`" glyph-name="grave" horiz-adv-x="266" d="M250 585T250 580Q250 571 237 571H118Q107 571 100 580L23 674Q19 678 19 683Q19 687 22 689T32 692H174Q186 692 192 682L247 589Q250 585 250 580Z" />
<glyph unicode="a" glyph-name="a" horiz-adv-x="467" d="M296 528T345 507T422 448T449 360V15Q449 8 445 4T434 0H276Q269 0 265 4T261 15V36Q261 40 259 40T254 38Q220 -8 148 -8Q12 -8 12 151Q12 221 37 255T105 299T221 309H255Q261 309 261 315V337Q261
350 253 358T232 367Q215 367 208 349Q203 335 192 335L32 337Q17 337 17 351Q22 434 80 481T232 528Q296 528 345 507ZM241 127T251 134T261 154V181Q261 187 255 187H235Q221 187 213 178T204 155Q204 142 211 135T229 127Q241 127 251 134Z" />
<glyph unicode="b" glyph-name="b" horiz-adv-x="460" d="M376 528T409 484T442 350V170Q442 84 410 38T305 -8Q247 -8 217 36Q215 40 213 40T210 35V15Q210 8 206 4T195 0H37Q30 0 26 4T22 15V685Q22 692 26 696T37 700H195Q202 700 206 696T210 685V485Q210
483 212 483Q216 483 224 493Q253 528 305 528Q376 528 409 484ZM254 349T249 358T233 367Q223 367 217 358T210 335V185Q210 171 216 162T233 153Q243 153 248 162T254 185V335Q254 349 249 358Z" />
<glyph unicode="c" glyph-name="c" horiz-adv-x="455" d="M129 -8T74 38T18 170V350Q18 431 74 479T229 528Q328 528 383 480T439 350V328Q439 321 435 317T424 312L266 307Q251 307 251 321V335Q251 349 245 358T229 367Q219 367 213 358T206 335V185Q206 171
212 162T229 153Q239 153 245 162T251 185V200Q251 207 255 211T266 215L424 213Q431 213 435 209T439 198V170Q439 85 384 39T229 -8Q129 -8 74 38Z" />
<glyph unicode="d" glyph-name="d" horiz-adv-x="460" d="M250 692T254 696T265 700H423Q430 700 434 696T438 685V15Q438 8 434 4T423 0H265Q258 0 254 4T250 15V35Q250 39 248 39T243 36Q213 -8 155 -8Q83 -8 51 38T18 170V350Q18 439 51 483T155 528Q214 528
243 483Q245 479 247 480T250 485V685Q250 692 254 696ZM237 153T243 162T250 185V335Q250 349 244 358T227 367Q217 367 212 358T206 335V185Q206 171 211 162T227 153Q237 153 243 162Z" />
<glyph unicode="e" glyph-name="e" horiz-adv-x="455" d="M439 221T435 217T424 213H212Q206 213 206 207V185Q206 171 212 162T229 153Q239 153 244 160T252 178Q257 192 269 191L422 181Q437 179 436 165Q431 77 381 35T229 -8Q129 -8 74 38T18 170V350Q18 431
74 479T229 528Q328 528 383 480T439 350V228Q439 221 435 217ZM219 367T213 358T206 335V311Q206 305 212 305H245Q251 305 251 311V335Q251 349 245 358T229 367Q219 367 213 358Z" />
<glyph unicode="f" glyph-name="f" horiz-adv-x="311" d="M291 520T295 516T299 505V405Q299 398 295 394T284 390H247Q241 390 241 384V15Q241 8 237 4T226 0H68Q61 0 57 4T53 15V384Q53 390 47 390H27Q20 390 16 394T12 405V505Q12 512 16 516T27 520H47Q53
520 53 526V556Q53 638 98 669T237 701Q264 701 278 700Q281 700 283 696T285 685V590Q285 575 282 575H278Q260 573 251 563T241 539V526Q241 520 247 520H284Q291 520 295 516Z" />
<glyph unicode="g" glyph-name="g" horiz-adv-x="460" d="M250 512T254 516T265 520H423Q430 520 434 516T438 505V34Q438 -41 417 -94T337 -178T174 -210Q135 -210 113 -208Q98 -208 98 -193V-60Q98 -44 114 -46L139 -47Q195 -47 218 -32T248 14Q248 17 242 19T232
19Q204 -8 155 -8Q83 -8 51 38T18 170V350Q18 439 51 483T155 528Q213 528 243 484Q245 480 247 480T250 485V505Q250 512 254 516ZM237 153T243 162T250 185V335Q250 349 244 358T227 367Q217 367 212 358T206 335V185Q206 171 211 162T227 153Q237 153 243 162Z"
/>
<glyph unicode="h" glyph-name="h" horiz-adv-x="462" d="M442 528T442 348V15Q442 8 438 4T427 0H269Q262 0 258 4T254 15V335Q254 367 233 367Q210 367 210 335V15Q210 8 206 4T195 0H37Q30 0 26 4T22 15V685Q22 692 26 696T37 700H195Q202 700 206 696T210
685V490Q210 488 212 488Q217 488 224 497Q253 528 300 528Q442 528 442 348Z" />
<glyph unicode="i" glyph-name="i" horiz-adv-x="244" d="M75 540T47 569T18 645Q18 692 46 721T122 750Q169 750 197 721T226 645Q226 598 198 569T122 540Q75 540 47 569ZM36 0T32 4T28 15V505Q28 512 32 516T43 520H201Q208 520 212 516T216 505V15Q216 8 212
4T201 0H43Q36 0 32 4Z" />
<glyph unicode="j" glyph-name="j" horiz-adv-x="232" d="M70 542T41 572T12 647Q12 675 27 699T66 738T116 752Q142 752 166 738T205 699T220 647Q220 603 191 573T116 542Q70 542 41 572ZM-74 -201T-74 -186V-57Q-74 -42 -58 -42Q-11 -44 5 -27T22 29V505Q22
512 26 516T37 520H195Q202 520 206 516T210 505V29Q210 -60 196 -106T125 -178T-58 -201Q-74 -201 -74 -186Z" />
<glyph unicode="k" glyph-name="k" horiz-adv-x="479" d="M30 0T26 4T22 15V685Q22 692 26 696T37 700H195Q202 700 206 696T210 685V407Q210 402 213 402T217 406L263 509Q267 520 280 520H442Q448 520 451 518T455 511Q455 507 452 502L340 319Q338 316 340
311L462 17Q463 15 463 11Q463 0 450 0H288Q275 0 271 12L225 154Q224 159 222 159T218 154L212 140L210 132V15Q210 8 206 4T195 0H37Q30 0 26 4Z" />
<glyph unicode="l" glyph-name="l" horiz-adv-x="228" d="M28 0T24 4T20 15V685Q20 692 24 696T35 700H193Q200 700 204 696T208 685V15Q208 8 204 4T193 0H35Q28 0 24 4Z" />
<glyph unicode="m" glyph-name="m" horiz-adv-x="694" d="M674 528T674 348V15Q674 8 670 4T659 0H501Q494 0 490 4T486 15V335Q486 367 465 367Q442 367 442 335V15Q442 8 438 4T427 0H269Q262 0 258 4T254 15V335Q254 367 233 367Q210 367 210 335V15Q210 8
206 4T195 0H37Q30 0 26 4T22 15V505Q22 512 26 516T37 520H195Q210 520 210 506V502Q210 498 212 497T217 499Q250 528 300 528Q380 528 414 471Q416 469 417 469Q421 469 427 478Q464 528 532 528Q674 528 674 348Z" />
<glyph unicode="n" glyph-name="n" horiz-adv-x="462" d="M442 528T442 348V15Q442 8 438 4T427 0H269Q262 0 258 4T254 15V335Q254 367 233 367Q210 367 210 335V15Q210 8 206 4T195 0H37Q30 0 26 4T22 15V505Q22 512 26 516T37 520H195Q202 520 206 516T210
505V490Q210 488 212 488Q217 488 224 497Q253 528 300 528Q442 528 442 348Z" />
<glyph unicode="o" glyph-name="o" horiz-adv-x="461" d="M129 -8T74 38T18 170V350Q18 431 74 479T231 528Q331 528 387 480T443 350V170Q443 85 388 39T231 -8Q129 -8 74 38ZM242 153T248 162T255 185V335Q255 349 249 358T231 367Q220 367 213 358T206 335V185Q206
171 213 162T231 153Q242 153 248 162Z" />
<glyph unicode="p" glyph-name="p" horiz-adv-x="462" d="M379 528T411 482T444 350V170Q444 81 411 37T307 -8Q248 -8 219 37Q217 41 215 40T212 35V-165Q212 -172 208 -176T197 -180H39Q32 -180 28 -176T24 -165V505Q24 512 28 516T39 520H197Q204 520 208 516T212
505V485Q212 483 214 483Q218 483 226 493Q255 528 307 528Q379 528 411 482ZM256 349T251 358T235 367Q225 367 219 358T212 335V185Q212 171 218 162T235 153Q245 153 250 162T256 185V335Q256 349 251 358Z" />
<glyph unicode="q" glyph-name="q" horiz-adv-x="462" d="M250 512T254 516T265 520H423Q430 520 434 516T438 505V-165Q438 -172 434 -176T423 -180H265Q258 -180 254 -176T250 -165V35Q250 39 248 40T243 37Q214 -8 155 -8Q84 -8 51 36T18 170V350Q18 436 50
482T155 528Q213 528 243 484Q245 480 247 480T250 485V505Q250 512 254 516ZM237 153T243 162T250 185V335Q250 349 244 358T227 367Q217 367 212 358T206 335V185Q206 171 211 162T227 153Q237 153 243 162Z" />
<glyph unicode="r" glyph-name="r" horiz-adv-x="346" d="M317 527T334 517Q343 512 341 498L316 341Q315 333 311 331T299 331Q289 334 276 334Q255 334 241 327Q227 320 219 305T210 273V16Q210 9 206 5T195 1H37Q30 1 26 5T22 16V505Q22 512 26 516T37 520H195Q202
520 206 516T210 505V484Q210 480 212 479T216 482Q241 527 293 527Q317 527 334 517Z" />
<glyph unicode="s" glyph-name="s" horiz-adv-x="438" d="M127 -8T70 37T12 156V159Q12 166 16 170T27 174H177Q192 174 192 168V161Q192 146 201 138T221 130Q230 130 235 135T240 149Q240 164 225 171T175 189Q163 192 147 197Q94 214 57 252T19 358Q19 436
73 482T215 528Q307 528 362 478T417 346Q417 342 413 339T402 336H257Q250 336 246 339T242 347V357Q242 369 236 376T220 383Q210 383 205 375T199 357Q199 337 218 326T269 306Q341 285 385 252T429 151Q429 77 373 35T223 -8Q127 -8 70 37Z" />
<glyph unicode="t" glyph-name="t" horiz-adv-x="307" d="M295 398T291 394T280 390H238Q232 390 232 384V192Q232 174 240 168T263 162H265Q272 162 276 158T280 147V15Q280 8 276 4T265 0H217Q134 0 93 23T52 116V384Q52 390 46 390H19Q12 390 8 394T4 405V505Q4
512 8 516T19 520H46Q52 520 52 526V633Q52 640 56 644T67 648H217Q224 648 228 644T232 633V526Q232 520 238 520H280Q287 520 291 516T295 505V405Q295 398 291 394Z" />
<glyph unicode="u" glyph-name="u" horiz-adv-x="462" d="M252 512T256 516T267 520H425Q432 520 436 516T440 505V15Q440 8 436 4T425 0H267Q260 0 256 4T252 15V19Q252 23 250 24T245 22Q230 4 210 -2T162 -8Q102 -8 61 29T20 144V505Q20 512 24 516T35 520H193Q200
520 204 516T208 505V185Q208 153 229 153Q252 153 252 185V505Q252 512 256 516Z" />
<glyph unicode="v" glyph-name="v" horiz-adv-x="474" d="M133 0T130 13L12 503V507Q12 520 25 520H198Q212 520 213 506L234 288Q235 287 237 287T240 288L261 506Q262 520 276 520L449 518Q456 518 460 514T462 501L344 13Q341 0 328 0H146Q133 0 130 13Z" />
<glyph unicode="w" glyph-name="w" horiz-adv-x="653" d="M122 0T119 13L12 504V508Q12 520 25 520H175Q190 520 191 506L214 285Q214 282 217 282T220 285L245 506Q246 520 261 520H394Q409 520 410 506L437 284Q437 282 440 282T443 284L466 506Q467 520 481
520L628 518Q644 518 641 502L536 13Q533 0 519 0H366Q351 0 350 14L326 186Q325 189 323 189T320 186L298 14Q297 0 282 0H136Q122 0 119 13Z" />
<glyph unicode="x" glyph-name="x" horiz-adv-x="482" d="M12 0T12 10L14 18L123 256Q125 260 123 264L14 502L12 510Q12 520 25 520H197Q210 520 214 508L237 441Q239 437 241 437T245 441L268 508Q272 520 285 520H457Q470 520 470 510L468 502L359 264Q357
260 359 256L468 18L470 10Q470 0 457 0H285Q272 0 268 12L245 83Q244 88 242 88T237 83L214 12Q210 0 197 0H25Q12 0 12 10Z" />
<glyph unicode="y" glyph-name="y" horiz-adv-x="459" d="M28 -199T28 -184V-60Q28 -45 33 -45H37Q89 -45 112 -39T136 -10Q136 -4 135 0L10 503V507Q10 520 23 520H193Q207 520 208 506L227 288Q228 289 230 289T233 288L250 506Q251 520 265 520L436 518Q443
518 447 514T449 501L323 -2Q301 -79 275 -119T195 -179T40 -199H34Q28 -199 28 -184Z" />
<glyph unicode="z" glyph-name="z" horiz-adv-x="381" d="M16 0T12 4T8 15V160Q8 169 14 178L135 343Q137 346 136 348T131 350H30Q23 350 19 354T15 365V505Q15 512 19 516T30 520H349Q356 520 360 516T364 505V360Q364 351 358 342L228 177Q226 174 226 172T231
170H358Q365 170 369 166T373 155V15Q373 8 369 4T358 0H23Q16 0 12 4Z" />
<glyph unicode="{" glyph-name="braceleft" horiz-adv-x="392" d="M180 -164T142 -129T104 -34V166Q104 246 44 255Q30 257 30 270V388Q30 402 45 403Q104 412 104 491V688Q104 747 142 782T244 818H347Q354 818 358 814T362 803V672Q362 665 359 661T349 657H336Q319
657 306 640T292 601V462Q292 363 232 333Q227 329 232 325Q292 295 292 195V53Q292 31 305 14T336 -3H347Q354 -3 358 -7T362 -18V-149Q362 -156 358 -160T347 -164H244Q180 -164 142 -129Z" />
<glyph unicode="|" glyph-name="bar" horiz-adv-x="214" d="M21 -80T17 -76T13 -65V745Q13 752 17 756T28 760H186Q193 760 197 756T201 745V-65Q201 -72 197 -76T186 -80H28Q21 -80 17 -76Z" />
<glyph unicode="}" glyph-name="braceright" horiz-adv-x="392" d="M45 -164Q38 -164 34 -160T30 -149V-18Q30 -11 33 -7T43 -3H56Q73 -3 86 14T100 53V195Q100 295 160 325Q165 329 160 333Q100 363 100 462V601Q100 623 87 640T56 657H45Q38 657 34 661T30 672V803Q30
810 34 814T45 818H148Q212 818 250 783T288 688V491Q288 412 347 403Q362 402 362 388V270Q362 257 348 255Q288 246 288 166V-34Q288 -93 250 -128T148 -164H45Z" />
<glyph unicode="~" glyph-name="asciitilde" horiz-adv-x="509" d="M313 182T297 188T262 205Q259 207 255 209T245 216Q227 227 216 232T192 238Q177 238 162 229T135 206Q129 199 124 199Q119 199 115 202L29 253Q18 260 22 273Q39 327 81 363T174 399Q195 399
213 393T251 374Q259 369 273 361T298 348T319 343Q347 343 367 374Q373 382 380 382Q383 382 388 379L479 324Q491 316 485 304Q459 252 419 217T333 182Q313 182 297 188Z" />
<glyph unicode="&#xa0;" glyph-name="uni00A0" horiz-adv-x="200" />
<glyph unicode="&#xa1;" glyph-name="exclamdown" horiz-adv-x="302" d="M196 708T225 678T255 603Q255 575 240 551T201 513T150 499Q124 499 100 513T60 551T45 603Q45 647 74 677T150 708Q196 708 225 678ZM76 452T80 456T92 460H210Q217 460 221 456T226 445L244
23Q244 8 230 8H72Q58 8 58 23L76 445Q76 452 80 456Z" />
<glyph unicode="&#xa2;" glyph-name="cent" horiz-adv-x="455" d="M439 411T435 407T424 402L266 397Q251 397 251 411V425Q251 439 245 448T229 457Q219 457 213 448T206 425V275Q206 261 212 252T229 243Q239 243 245 252T251 275V290Q251 297 255 301T266 305L424
303Q431 303 435 299T439 288V260Q439 193 405 150T307 91Q302 89 302 85L306 17V15Q306 2 292 2H165Q150 2 151 17L155 85Q155 89 150 91Q86 107 52 150T18 260V440Q18 503 52 547T150 609Q155 611 155 615L151 683V685Q151 698 165 698H292Q308 698 306 683L302
615Q302 611 307 609Q370 591 404 547T439 440V418Q439 411 435 407Z" />
<glyph unicode="&#xa3;" glyph-name="sterling" horiz-adv-x="526" d="M260 165T261 163T266 161H499Q506 161 510 157T514 146V15Q514 8 510 4T499 0H78Q71 0 67 4T63 15V150Q63 161 70 169Q83 185 87 201T91 245V267Q91 273 85 273H41Q34 273 30 277T26 288V409Q26
416 30 420T41 424H85Q91 424 91 430V475Q91 585 147 646T300 708Q383 708 436 660T507 525L508 520Q506 508 495 507L342 491H340Q328 491 325 505Q319 547 300 547Q287 547 283 533T279 485V430Q279 424 285 424H405Q412 424 416 420T420 409V288Q420 281 416
277T405 273H285Q279 273 279 267V245Q279 196 262 168Q260 165 261 163Z" />
<glyph unicode="&#xa4;" glyph-name="currency" horiz-adv-x="604" d="M534 252T514 209Q513 203 516 200L581 135Q586 130 586 125Q586 119 580 114L483 29Q478 24 473 24Q467 24 462 29L402 88Q399 91 393 90Q350 70 299 70Q250 70 208 88Q202 89 199 86L142
29Q137 24 131 24Q126 24 121 29L24 114Q18 119 18 125Q18 130 23 135L84 195Q87 198 86 204Q63 250 63 304Q63 357 84 399Q85 405 82 408L17 472Q12 477 12 482Q12 489 18 493L115 578Q120 583 125 583Q131 583 136 578L194 520Q197 517 203 518Q248 538 299 538Q351
538 398 516Q404 515 407 518L468 578Q473 583 479 583Q484 583 489 578L586 493Q592 489 592 482Q592 477 587 472L518 403Q515 400 516 395Q534 353 534 304Q534 252 514 209ZM374 335T352 357T299 380Q268 380 246 358T223 304Q223 273 245 251T299 228Q330
228 352 250T375 304Q374 335 352 357Z" />
<glyph unicode="&#xa5;" glyph-name="yen" horiz-adv-x="536" d="M500 700T503 696T504 683L390 339Q388 332 395 332H468Q475 332 479 328T483 317V246Q483 239 479 235T468 231H367Q361 231 361 225V207Q361 201 367 201H468Q475 201 479 197T483 186V115Q483
108 479 104T468 100H367Q361 100 361 94V17Q361 10 357 6T346 2H188Q181 2 177 6T173 17V94Q173 100 167 100H62Q55 100 51 104T47 115V186Q47 193 51 197T62 201H167Q173 201 173 207V225Q173 231 167 231H62Q55 231 51 235T47 246V317Q47 324 51 328T62 332H139Q145
332 144 339L32 683Q31 685 31 689Q31 700 44 700H210Q224 700 227 687L264 490Q265 486 268 486T272 490L309 687Q312 700 326 700H492Q500 700 503 696Z" />
<glyph unicode="&#xa6;" glyph-name="brokenbar" horiz-adv-x="214" d="M21 385T17 389T13 400V745Q13 752 17 756T28 760H186Q193 760 197 756T201 745V400Q201 393 197 389T186 385H28Q21 385 17 389ZM21 -80T17 -76T13 -65V280Q13 287 17 291T28 295H186Q193
295 197 291T201 280V-65Q201 -72 197 -76T186 -80H28Q21 -80 17 -76Z" />
<glyph unicode="&#xa7;" glyph-name="section" horiz-adv-x="470" d="M173 -201T125 -180T49 -120T22 -32V-15Q22 -8 26 -4T37 0H195Q202 0 206 -2T210 -9V-18Q210 -27 218 -34T238 -41Q250 -41 258 -35T266 -19Q266 -4 241 14T157 66Q109 94 80 122T36 183Q24
212 24 248Q24 276 31 297T54 338Q71 359 98 378Q103 383 98 387Q57 428 38 459T18 533Q18 583 45 623T122 685T236 708Q300 708 349 686T425 623T452 528V519Q452 512 448 508T437 504H279Q272 504 268 506T264 512V519Q264 531 256 539T235 547Q222 547 215 539T207
522Q207 502 224 488T287 449Q343 419 376 397T428 352Q456 316 456 270Q456 223 436 188Q416 150 379 124Q373 120 378 115Q419 81 436 51T454 -25Q454 -106 394 -153T237 -201Q173 -201 125 -180ZM256 221T263 231Q268 239 268 253Q268 269 260 279Q252 287 240
287Q225 287 219 278Q212 270 212 254Q212 238 219 230Q225 221 241 221Q256 221 263 231Z" />
<glyph unicode="&#xa8;" glyph-name="dieresis" horiz-adv-x="382" d="M57 551T33 575T8 638Q8 677 32 701T95 725Q133 725 156 701T180 638Q180 599 157 575T95 551Q57 551 33 575ZM249 551T226 575T202 638Q202 677 225 701T288 725Q327 725 350 701T374 638Q374
599 351 575T288 551Q249 551 226 575Z" />
<glyph unicode="&#xa9;" glyph-name="copyright" horiz-adv-x="762" d="M278 -8T196 39T67 169T20 356Q20 455 67 535T196 662T380 708Q483 708 565 662T695 536T742 356Q742 251 695 169T566 39T380 -8Q278 -8 196 39ZM454 92T513 125T606 219T640 356Q640 427
607 484T514 575T380 608Q307 608 248 575T156 485T122 356Q122 280 155 220T247 126T380 92Q454 92 513 125ZM333 179T304 207T274 285V416Q274 464 303 492T383 520Q432 520 462 492T493 416Q493 411 489 408T478 405L414 402Q399 402 399 412V422Q399 430 395
435T383 441Q376 441 372 436T368 422V277Q368 269 372 264T383 259Q390 259 394 264T399 277V283Q399 297 414 297L478 295Q493 295 493 290V285Q493 237 463 208T383 179Q333 179 304 207Z" />
<glyph unicode="&#xaa;" glyph-name="ordfeminine" horiz-adv-x="303" d="M164 568Q170 568 170 574V584Q170 608 151 608Q142 608 137 600Q129 589 120 589L29 593Q22 593 18 597T15 609Q20 653 56 680T148 708Q210 708 249 678T288 598V376Q288 369 284 365T273
361H185Q170 361 170 366Q170 368 168 368T163 366Q147 356 121 356Q76 356 41 379T6 466Q6 527 42 547T150 568H164ZM156 450T163 455T170 469V471Q170 477 164 477H150Q139 477 133 474T126 463Q126 450 145 450Q156 450 163 455ZM6 303T10 307T21 311H279Q286
311 290 307T294 296V256Q294 249 290 245T279 241H21Q14 241 10 245T6 256V296Q6 303 10 307Z" />
<glyph unicode="&#xab;" glyph-name="guillemotleft" horiz-adv-x="450" d="M248 117Q248 107 235 107H112Q100 107 95 119L30 271Q28 279 28 281Q28 285 30 291L95 444Q99 455 112 455H235Q248 455 248 445L246 437L177 285Q175 281 177 277L246 125L248 117ZM418
117Q418 107 405 107H282Q270 107 265 119L200 271Q198 279 198 281Q198 285 200 291L265 444Q269 455 282 455H405Q418 455 418 445L416 437L347 285Q345 281 347 277L416 125L418 117Z" />
<glyph unicode="&#xac;" glyph-name="logicalnot" horiz-adv-x="436" d="M18 366T22 370T33 374H403Q410 374 414 370T418 359V170Q418 163 414 159T403 155H293Q286 155 282 159T278 170V228Q278 234 272 234H33Q26 234 22 238T18 249V359Q18 366 22 370Z" />
<glyph unicode="&#xad;" glyph-name="uni00AD" horiz-adv-x="343" d="M26 205T22 209T18 220V350Q18 357 22 361T33 365H310Q317 365 321 361T325 350V220Q325 213 321 209T310 205H33Q26 205 22 209Z" />
<glyph unicode="&#xae;" glyph-name="registered" horiz-adv-x="432" d="M275 708T322 682T397 610T424 507Q424 446 397 398T323 323T216 296Q157 296 110 323T35 398T8 507Q8 564 35 610T109 682T216 708Q275 708 322 682ZM276 364T315 404T355 507Q355 564
316 602T216 640Q156 640 117 602T78 507Q78 444 117 404T216 364Q276 364 315 404ZM292 504T270 490Q266 487 267 482L284 428Q285 426 285 422Q285 411 272 411H243Q229 411 226 424L212 473Q211 478 210 478Q208 478 208 472V426Q208 419 204 415T193 411H166Q159
411 155 415T151 426V584Q151 591 155 595T166 599H229Q257 599 274 582T292 537Q292 504 270 490ZM214 551Q208 551 208 545V526Q208 520 214 520H220Q227 520 231 525T235 536Q235 543 231 547T220 551H214Z" />
<glyph unicode="&#xaf;" glyph-name="overscore" horiz-adv-x="231" d="M8 572T4 576T0 587V682Q0 689 4 693T15 697H216Q223 697 227 693T231 682V587Q231 580 227 576T216 572H15Q8 572 4 576Z" />
<glyph unicode="&#xb0;" glyph-name="degree" horiz-adv-x="359" d="M132 460T93 483T31 547T8 635Q8 683 30 722T92 785T179 808Q226 808 265 785T328 723T351 635Q351 587 328 547T266 484T179 460Q132 460 93 483ZM201 581T215 596T230 635Q230 658 216 674T179
690Q158 690 143 674T128 635Q128 613 143 597T179 581Q201 581 215 596Z" />
<glyph unicode="&#xb1;" glyph-name="plusminus" horiz-adv-x="436" d="M410 483T414 479T418 468V358Q418 351 414 347T403 343H294Q288 343 288 337V228Q288 221 284 217T273 213H163Q156 213 152 217T148 228V337Q148 343 142 343H33Q26 343 22 347T18 358V468Q18
475 22 479T33 483H142Q148 483 148 489V598Q148 605 152 609T163 613H273Q280 613 284 609T288 598V489Q288 483 294 483H403Q410 483 414 479ZM26 0T22 4T18 15V125Q18 132 22 136T33 140H403Q410 140 414 136T418 125V15Q418 8 414 4T403 0H33Q26 0 22 4Z" />
<glyph unicode="&#xb2;" glyph-name="uni00B2" horiz-adv-x="280" d="M18 399T14 403T10 414V489Q10 500 17 508Q56 550 55 549Q104 602 126 632Q153 670 153 700Q153 723 140 723Q134 723 130 718T126 705V686Q126 679 122 675T111 671H22Q15 671 11 675T7 686V710Q11
765 46 794T143 824Q202 824 237 793T272 693Q272 662 266 640T247 596Q236 580 202 538L177 508Q172 500 180 500H260Q267 500 271 496T275 485V414Q275 407 271 403T260 399H25Q18 399 14 403Z" />
<glyph unicode="&#xb3;" glyph-name="uni00B3" horiz-adv-x="295" d="M288 454T254 424T163 393Q105 393 68 423T31 503V523Q31 530 35 534T46 538H132Q139 538 143 536T147 529V520Q147 494 163 494Q172 494 175 500T178 520V577Q178 588 175 594T163 600Q153
600 146 593Q139 588 134 588Q130 588 125 593L83 637Q79 641 79 647Q79 653 84 658L143 711Q146 713 145 715T140 718H56Q49 718 45 722T41 733V803Q41 810 45 814T56 818H269Q276 818 280 814T284 803V729Q284 718 277 710L240 671Q235 666 241 663Q262 648 274
620T287 563V503Q288 454 254 424Z" />
<glyph unicode="&#xb4;" glyph-name="acute" horiz-adv-x="266" d="M16 571T16 580Q16 585 19 589L74 682Q80 692 92 692H234Q240 692 243 690T247 683Q247 678 243 674L166 580Q159 571 148 571H29Q16 571 16 580Z" />
<glyph unicode="&#xb5;" glyph-name="uni00B5" horiz-adv-x="464" d="M254 512T258 516T269 520H427Q434 520 438 516T442 505V15Q442 8 438 4T427 0H269Q262 0 258 4T254 15V19Q254 23 252 24T247 22Q235 7 215 -1Q210 -4 210 -8V-185Q210 -192 206 -196T195
-200H37Q30 -200 26 -196T22 -185V505Q22 512 26 516T37 520H195Q202 520 206 516T210 505V185Q210 153 231 153Q254 153 254 185V505Q254 512 258 516Z" />
<glyph unicode="&#xb6;" glyph-name="paragraph" horiz-adv-x="544" d="M503 700Q510 700 514 696T518 685V-185Q518 -192 514 -196T503 -200H377Q370 -200 366 -196T362 -185V543Q362 549 356 549H332Q326 549 326 543V-185Q326 -192 322 -196T311 -200H185Q178
-200 174 -196T170 -185V250Q170 254 165 256Q94 273 53 331T12 475Q12 541 37 592T110 671T222 700H503Z" />
<glyph unicode="&#xb7;" glyph-name="middot" horiz-adv-x="210" d="M315 -8T286 22T256 97Q256 125 271 149T310 187T361 201Q387 201 411 187T451 149T466 97Q466 53 437 23T361 -8Q315 -8 286 22Z" />
<glyph unicode="&#xb8;" glyph-name="cedilla" horiz-adv-x="172" d="M8 -183T10 -169L17 -107Q18 -96 33 -96Q43 -96 49 -90T55 -72Q55 -50 22 -18Q15 -12 15 -7Q15 0 27 0H111Q122 0 130 -8Q172 -51 172 -103Q172 -118 169 -131Q160 -166 135 -180T78 -195Q53
-195 21 -186Q8 -183 10 -169Z" />
<glyph unicode="&#xb9;" glyph-name="uni00B9" horiz-adv-x="165" d="M36 819T47 819H140Q147 819 151 815T155 804V414Q155 407 151 403T140 399H52Q45 399 41 403T37 414V712Q37 718 31 718H24Q17 718 13 722T9 734V791Q9 803 19 809L28 814Q36 819 47 819Z" />
<glyph unicode="&#xba;" glyph-name="ordmasculine" horiz-adv-x="306" d="M86 355T50 385T14 471V592Q14 645 50 676T152 708Q216 708 252 677T289 592V471Q289 416 253 386T152 355Q86 355 50 385ZM160 456T165 463T171 480V582Q171 593 166 600T152 607Q143
607 138 600T132 582V480Q132 469 137 463T152 456Q160 456 165 463ZM17 241T13 245T9 256V296Q9 303 13 307T24 311H282Q289 311 293 307T297 296V256Q297 249 293 245T282 241H24Q17 241 13 245Z" />
<glyph unicode="&#xbb;" glyph-name="guillemotright" horiz-adv-x="450" d="M32 107T32 117L34 125L103 277Q105 281 103 285L34 437L32 445Q32 455 45 455H168Q180 455 185 443L250 291Q252 288 252 281Q252 275 250 271L185 118Q181 107 168 107H45Q32 107
32 117ZM202 107T202 117L204 125L273 277Q275 281 273 285L204 437L202 445Q202 455 215 455H338Q350 455 355 443L420 291Q422 288 422 281Q422 275 420 271L355 118Q351 107 338 107H215Q202 107 202 117Z" />
<glyph unicode="&#xbc;" glyph-name="onequarter" horiz-adv-x="752" d="M36 700T47 700H140Q147 700 151 696T155 685V295Q155 288 151 284T140 280H52Q45 280 41 284T37 295V593Q37 599 31 599H24Q17 599 13 603T9 615V672Q9 684 19 690L28 695Q36 700 47 700ZM57
0T57 10Q57 14 60 18L451 690Q457 700 469 700H568Q582 700 582 690Q582 687 579 682L188 10Q182 0 170 0H71Q57 0 57 10ZM740 206T744 202T748 191V114Q748 107 744 103T733 99H724Q718 99 718 93V15Q718 8 714 4T703 0H615Q608 0 604 4T600 15V93Q600 99 594
99H448Q441 99 437 103T433 114V175Q433 184 436 193L505 408Q509 420 522 420H614Q622 420 625 416T627 403L572 213Q571 206 577 206H594Q600 206 600 212V241Q600 248 604 252T615 256H703Q710 256 714 252T718 241V212Q718 206 724 206H733Q740 206 744 202Z"
/>
<glyph unicode="&#xbd;" glyph-name="onehalf" horiz-adv-x="709" d="M36 700T47 700H140Q147 700 151 696T155 685V295Q155 288 151 284T140 280H52Q45 280 41 284T37 295V593Q37 599 31 599H24Q17 599 13 603T9 615V672Q9 684 19 690L28 695Q36 700 47 700ZM57
0T57 10Q57 14 60 18L451 690Q457 700 469 700H568Q582 700 582 690Q582 687 579 682L188 10Q182 0 170 0H71Q57 0 57 10ZM447 0T443 4T439 15V90Q439 101 446 109Q485 151 484 150Q533 203 555 233Q582 271 582 301Q582 324 569 324Q563 324 559 319T555 306V287Q555
280 551 276T540 272H451Q444 272 440 276T436 287V311Q440 366 475 395T572 425Q631 425 666 394T701 294Q701 263 695 241T676 197Q665 181 631 139L606 109Q601 101 609 101H689Q696 101 700 97T704 86V15Q704 8 700 4T689 0H454Q447 0 443 4Z" />
<glyph unicode="&#xbe;" glyph-name="threequarters" horiz-adv-x="834" d="M288 336T254 306T163 275Q105 275 68 305T31 385V405Q31 412 35 416T46 420H132Q139 420 143 418T147 411V402Q147 376 163 376Q172 376 175 382T178 402V459Q178 470 175 476T163 482Q153
482 146 475Q139 470 134 470Q130 470 125 475L83 519Q79 523 79 529Q79 535 84 540L143 593Q146 595 145 597T140 600H56Q49 600 45 604T41 615V685Q41 692 45 696T56 700H269Q276 700 280 696T284 685V611Q284 600 277 592L240 553Q235 548 241 545Q262 530 274
502T287 445V385Q288 336 254 306ZM139 0T139 10Q139 14 142 18L533 690Q539 700 551 700H650Q664 700 664 690Q664 687 661 682L270 10Q264 0 252 0H153Q139 0 139 10ZM822 206T826 202T830 191V114Q830 107 826 103T815 99H806Q800 99 800 93V15Q800 8 796 4T785
0H697Q690 0 686 4T682 15V93Q682 99 676 99H530Q523 99 519 103T515 114V175Q515 184 518 193L587 408Q591 420 604 420H696Q704 420 707 416T709 403L654 213Q653 206 659 206H676Q682 206 682 212V241Q682 248 686 252T697 256H785Q792 256 796 252T800 241V212Q800
206 806 206H815Q822 206 826 202Z" />
<glyph unicode="&#xbf;" glyph-name="questiondown" horiz-adv-x="483" d="M288 505T315 477T343 410Q343 370 315 342T247 313Q208 313 180 341T151 409Q151 449 179 477T248 505Q288 505 315 477ZM348 264T348 250V236Q348 197 335 168T304 121T256 81Q227 59
214 43T200 6Q200 -15 210 -27T239 -39Q261 -39 273 -25T285 12V16Q285 30 300 30L458 23Q465 23 469 21T473 17V12Q473 -53 443 -103T359 -182T234 -210Q166 -210 116 -184T38 -112T10 -3Q10 41 23 72T55 123T104 166Q134 189 148 206T162 248V249Q162 256 166
260T177 264H333Q348 264 348 250Z" />
<glyph unicode="&#xc0;" glyph-name="Agrave" horiz-adv-x="531" d="M326 0T325 14L316 89Q316 92 314 93T309 95H221Q216 95 214 90L202 14Q200 0 186 0H29Q13 0 16 16L158 687Q161 700 175 700H357Q371 700 374 687L516 16V12Q516 0 502 0H341Q326 0 325 14ZM238
239T245 239H290Q295 239 295 245L273 415Q272 420 270 420T266 415L239 245Q238 239 245 239ZM335 765T335 760Q335 751 322 751H203Q192 751 185 760L108 854Q104 858 104 863Q104 867 107 869T117 872H259Q271 872 277 862L332 769Q335 765 335 760Z" />
<glyph unicode="&#xc1;" glyph-name="Aacute" horiz-adv-x="531" d="M326 0T325 14L316 89Q316 92 314 93T309 95H221Q216 95 214 90L202 14Q200 0 186 0H29Q13 0 16 16L158 687Q161 700 175 700H357Q371 700 374 687L516 16V12Q516 0 502 0H341Q326 0 325 14ZM238
239T245 239H290Q295 239 295 245L273 415Q272 420 270 420T266 415L239 245Q238 239 245 239ZM178 751T178 760Q178 765 181 769L236 862Q242 872 254 872H396Q402 872 405 870T409 863Q409 858 405 854L328 760Q321 751 310 751H191Q178 751 178 760Z" />
<glyph unicode="&#xc2;" glyph-name="Acircumflex" horiz-adv-x="531" d="M326 0T325 14L316 89Q316 92 314 93T309 95H221Q216 95 214 90L202 14Q200 0 186 0H29Q13 0 16 16L158 687Q161 700 175 700H357Q371 700 374 687L516 16V12Q516 0 502 0H341Q326 0 325
14ZM238 239T245 239H290Q295 239 295 245L273 415Q272 420 270 420T266 415L239 245Q238 239 245 239ZM104 751T101 753T97 760Q97 765 100 769L164 870Q170 880 182 880H343Q355 880 361 870L427 769Q430 765 430 760Q430 751 417 751H305Q293 751 288 762L268
805Q266 808 264 808T260 805L240 762Q235 751 223 751H110Q104 751 101 753Z" />
<glyph unicode="&#xc3;" glyph-name="Atilde" horiz-adv-x="531" d="M326 0T325 14L316 89Q316 92 314 93T309 95H221Q216 95 214 90L202 14Q200 0 186 0H29Q13 0 16 16L158 687Q161 700 175 700H357Q371 700 374 687L516 16V12Q516 0 502 0H341Q326 0 325 14ZM238
239T245 239H290Q295 239 295 245L273 415Q272 420 270 420T266 415L239 245Q238 239 245 239ZM312 751T281 766Q272 770 261 776T241 783Q224 783 212 765Q206 757 199 757Q195 757 191 760L136 800Q126 807 129 819Q142 859 167 878T225 898Q258 898 292 876Q295
874 302 869T316 862T331 859Q350 859 362 874Q368 882 374 882Q378 882 382 879L435 842Q441 838 441 829Q441 821 436 813Q418 780 392 766T336 751Q312 751 281 766Z" />
<glyph unicode="&#xc4;" glyph-name="Adieresis" horiz-adv-x="531" d="M326 0T325 14L316 89Q316 92 314 93T309 95H221Q216 95 214 90L202 14Q200 0 186 0H29Q13 0 16 16L158 687Q161 700 175 700H357Q371 700 374 687L516 16V12Q516 0 502 0H341Q326 0 325
14ZM238 239T245 239H290Q295 239 295 245L273 415Q272 420 270 420T266 415L239 245Q238 239 245 239ZM134 731T110 755T85 818Q85 857 109 881T172 905Q210 905 233 881T257 818Q257 779 234 755T172 731Q134 731 110 755ZM326 731T303 755T279 818Q279 857 302
881T365 905Q404 905 427 881T451 818Q451 779 428 755T365 731Q326 731 303 755Z" />
<glyph unicode="&#xc5;" glyph-name="Aring" horiz-adv-x="531" d="M326 0T325 14L316 89Q316 92 314 93T309 95H221Q216 95 214 90L202 14Q200 0 186 0H29Q13 0 16 16L158 687Q161 700 175 700H357Q371 700 374 687L516 16V12Q516 0 502 0H341Q326 0 325 14ZM238
239T245 239H290Q295 239 295 245L273 415Q272 420 270 420T266 415L239 245Q238 239 245 239ZM216 734T183 768T149 851Q149 900 183 933T266 967Q315 967 349 934T383 851Q383 802 349 768T266 734Q216 734 183 768ZM281 815T291 825T302 851Q302 867 292 877T266
888Q251 888 241 878T230 851Q230 836 240 826T266 815Q281 815 291 825Z" />
<glyph unicode="&#xc6;" glyph-name="AE" horiz-adv-x="793" d="M775 547T771 543T760 539H569Q563 539 563 533V437Q563 431 569 431H668Q675 431 679 427T683 416V285Q683 278 679 274T668 270H569Q563 270 563 264V167Q563 161 569 161H760Q767 161 771 157T775
146V15Q775 8 771 4T760 0H390Q383 0 379 4T375 15V89Q375 95 369 95H248Q242 95 241 90L214 12Q210 0 197 0H31Q23 0 20 4T19 17L288 688Q293 700 306 700H760Q767 700 771 696T775 685V554Q775 547 771 543ZM294 239T301 239H369Q375 239 375 245V448Q375 452
372 452T368 449L296 246Q294 239 301 239Z" />
<glyph unicode="&#xc7;" glyph-name="Ccedilla" horiz-adv-x="476" d="M458 482T454 479T443 476L285 471Q270 471 270 485V510Q270 527 262 537T239 547Q225 547 217 537T208 510V189Q208 172 216 163T239 153Q253 153 261 162T270 189V216Q270 230 285 230L443
225Q450 225 454 222T458 215V205Q458 126 417 72T304 0Q296 -2 301 -8Q335 -48 335 -94Q335 -109 332 -122Q323 -157 298 -171T241 -186Q216 -186 184 -177Q171 -174 173 -160L180 -98Q181 -87 196 -87Q206 -87 212 -81T218 -64Q218 -39 178 -4Q175 -1 171 0Q100
18 60 72T20 205V497Q20 594 79 651T239 708Q338 708 398 651T458 497V487Q458 482 454 479Z" />
<glyph unicode="&#xc8;" glyph-name="Egrave" horiz-adv-x="444" d="M426 547T422 543T411 539H220Q214 539 214 533V437Q214 431 220 431H319Q326 431 330 427T334 416V285Q334 278 330 274T319 270H220Q214 270 214 264V167Q214 161 220 161H411Q418 161 422
157T426 146V15Q426 8 422 4T411 0H41Q34 0 30 4T26 15V685Q26 692 30 696T41 700H411Q418 700 422 696T426 685V554Q426 547 422 543ZM296 778T296 773Q296 764 283 764H164Q153 764 146 773L69 867Q65 871 65 876Q65 880 68 882T78 885H220Q232 885 238 875L293
782Q296 778 296 773Z" />
<glyph unicode="&#xc9;" glyph-name="Eacute" horiz-adv-x="444" d="M426 547T422 543T411 539H220Q214 539 214 533V437Q214 431 220 431H319Q326 431 330 427T334 416V285Q334 278 330 274T319 270H220Q214 270 214 264V167Q214 161 220 161H411Q418 161 422
157T426 146V15Q426 8 422 4T411 0H41Q34 0 30 4T26 15V685Q26 692 30 696T41 700H411Q418 700 422 696T426 685V554Q426 547 422 543ZM139 764T139 773Q139 778 142 782L197 875Q203 885 215 885H357Q363 885 366 883T370 876Q370 871 366 867L289 773Q282 764
271 764H152Q139 764 139 773Z" />
<glyph unicode="&#xca;" glyph-name="Ecircumflex" horiz-adv-x="444" d="M426 547T422 543T411 539H220Q214 539 214 533V437Q214 431 220 431H319Q326 431 330 427T334 416V285Q334 278 330 274T319 270H220Q214 270 214 264V167Q214 161 220 161H411Q418 161
422 157T426 146V15Q426 8 422 4T411 0H41Q34 0 30 4T26 15V685Q26 692 30 696T41 700H411Q418 700 422 696T426 685V554Q426 547 422 543ZM65 764T62 766T58 773Q58 778 61 782L125 883Q131 893 143 893H304Q316 893 322 883L388 782Q391 778 391 773Q391 764
378 764H266Q254 764 249 775L229 818Q227 821 225 821T221 818L201 775Q196 764 184 764H71Q65 764 62 766Z" />
<glyph unicode="&#xcb;" glyph-name="Edieresis" horiz-adv-x="444" d="M426 547T422 543T411 539H220Q214 539 214 533V437Q214 431 220 431H319Q326 431 330 427T334 416V285Q334 278 330 274T319 270H220Q214 270 214 264V167Q214 161 220 161H411Q418 161
422 157T426 146V15Q426 8 422 4T411 0H41Q34 0 30 4T26 15V685Q26 692 30 696T41 700H411Q418 700 422 696T426 685V554Q426 547 422 543ZM95 744T71 768T46 831Q46 870 70 894T133 918Q171 918 194 894T218 831Q218 792 195 768T133 744Q95 744 71 768ZM287 744T264
768T240 831Q240 870 263 894T326 918Q365 918 388 894T412 831Q412 792 389 768T326 744Q287 744 264 768Z" />
<glyph unicode="&#xcc;" glyph-name="Igrave" horiz-adv-x="240" d="M34 0T30 4T26 15V685Q26 692 30 696T41 700H199Q206 700 210 696T214 685V15Q214 8 210 4T199 0H41Q34 0 30 4ZM189 778T189 773Q189 764 176 764H57Q46 764 39 773L-38 867Q-42 871 -42 876Q-42
880 -39 882T-29 885H113Q125 885 131 875L186 782Q189 778 189 773Z" />
<glyph unicode="&#xcd;" glyph-name="Iacute" horiz-adv-x="240" d="M34 0T30 4T26 15V685Q26 692 30 696T41 700H199Q206 700 210 696T214 685V15Q214 8 210 4T199 0H41Q34 0 30 4ZM32 764T32 773Q32 778 35 782L90 875Q96 885 108 885H250Q256 885 259 883T263
876Q263 871 259 867L182 773Q175 764 164 764H45Q32 764 32 773Z" />
<glyph unicode="&#xce;" glyph-name="Icircumflex" horiz-adv-x="240" d="M34 0T30 4T26 15V685Q26 692 30 696T41 700H199Q206 700 210 696T214 685V15Q214 8 210 4T199 0H41Q34 0 30 4ZM-42 764T-45 766T-49 773Q-49 778 -46 782L18 883Q24 893 36 893H197Q209
893 215 883L281 782Q284 778 284 773Q284 764 271 764H159Q147 764 142 775L122 818Q120 821 118 821T114 818L94 775Q89 764 77 764H-36Q-42 764 -45 766Z" />
<glyph unicode="&#xcf;" glyph-name="Idieresis" horiz-adv-x="240" d="M34 0T30 4T26 15V685Q26 692 30 696T41 700H199Q206 700 210 696T214 685V15Q214 8 210 4T199 0H41Q34 0 30 4ZM-12 744T-36 768T-61 831Q-61 870 -37 894T26 918Q64 918 87 894T111 831Q111
792 88 768T26 744Q-12 744 -36 768ZM180 744T157 768T133 831Q133 870 156 894T219 918Q258 918 281 894T305 831Q305 792 282 768T219 744Q180 744 157 768Z" />
<glyph unicode="&#xd0;" glyph-name="Eth" horiz-adv-x="505" d="M326 700T376 675T455 605T483 500V200Q483 141 455 96T377 25T260 0H63Q56 0 52 4T48 15V308Q48 314 45 314H41Q34 314 30 318T26 329V404Q26 419 37 419H42Q48 419 48 425V685Q48 692 52 696T63
700H260Q326 700 376 675ZM295 488Q295 511 284 525T255 539H242Q236 539 236 533V425Q236 419 242 419H252Q259 419 263 415T267 404V329Q267 322 263 318T252 314H242Q236 314 236 308V167Q236 161 242 161L256 162Q272 163 283 177T295 213V488Z" />
<glyph unicode="&#xd1;" glyph-name="Ntilde" horiz-adv-x="528" d="M34 0T30 4T26 15V685Q26 692 30 696T41 700H217Q230 700 233 687L310 382Q311 378 314 378T317 382L316 685Q316 692 320 696T331 700H487Q494 700 498 696T502 685V15Q502 8 498 4T487 0H309Q296
0 293 13L217 320Q216 323 213 323T210 319L212 15Q212 8 208 4T197 0H41Q34 0 30 4ZM308 764T277 779Q268 783 257 789T237 796Q220 796 208 778Q202 770 195 770Q191 770 187 773L132 813Q122 820 125 832Q138 872 163 891T221 911Q254 911 288 889Q291 887 298
882T312 875T327 872Q346 872 358 887Q364 895 370 895Q374 895 378 892L431 855Q437 851 437 842Q437 834 432 826Q414 793 388 779T332 764Q308 764 277 779Z" />
<glyph unicode="&#xd2;" glyph-name="Ograve" horiz-adv-x="484" d="M141 -8T81 50T20 206V494Q20 592 80 650T242 708Q343 708 403 650T464 494V206Q464 108 404 50T242 -8Q141 -8 81 50ZM258 153T267 165T276 198V502Q276 523 267 535T242 547Q226 547 217 535T208
502V198Q208 177 217 165T242 153Q258 153 267 165ZM311 773T311 768Q311 759 298 759H179Q168 759 161 768L84 862Q80 866 80 871Q80 875 83 877T93 880H235Q247 880 253 870L308 777Q311 773 311 768Z" />
<glyph unicode="&#xd3;" glyph-name="Oacute" horiz-adv-x="484" d="M141 -8T81 50T20 206V494Q20 592 80 650T242 708Q343 708 403 650T464 494V206Q464 108 404 50T242 -8Q141 -8 81 50ZM258 153T267 165T276 198V502Q276 523 267 535T242 547Q226 547 217 535T208
502V198Q208 177 217 165T242 153Q258 153 267 165ZM154 759T154 768Q154 773 157 777L212 870Q218 880 230 880H372Q378 880 381 878T385 871Q385 866 381 862L304 768Q297 759 286 759H167Q154 759 154 768Z" />
<glyph unicode="&#xd4;" glyph-name="Ocircumflex" horiz-adv-x="484" d="M141 -8T81 50T20 206V494Q20 592 80 650T242 708Q343 708 403 650T464 494V206Q464 108 404 50T242 -8Q141 -8 81 50ZM258 153T267 165T276 198V502Q276 523 267 535T242 547Q226 547
217 535T208 502V198Q208 177 217 165T242 153Q258 153 267 165ZM80 759T77 761T73 768Q73 773 76 777L140 878Q146 888 158 888H319Q331 888 337 878L403 777Q406 773 406 768Q406 759 393 759H281Q269 759 264 770L244 813Q242 816 240 816T236 813L216 770Q211
759 199 759H86Q80 759 77 761Z" />
<glyph unicode="&#xd5;" glyph-name="Otilde" horiz-adv-x="484" d="M141 -8T81 50T20 206V494Q20 592 80 650T242 708Q343 708 403 650T464 494V206Q464 108 404 50T242 -8Q141 -8 81 50ZM258 153T267 165T276 198V502Q276 523 267 535T242 547Q226 547 217 535T208
502V198Q208 177 217 165T242 153Q258 153 267 165ZM288 759T257 774Q248 778 237 784T217 791Q200 791 188 773Q182 765 175 765Q171 765 167 768L112 808Q102 815 105 827Q118 867 143 886T201 906Q234 906 268 884Q271 882 278 877T292 870T307 867Q326 867
338 882Q344 890 350 890Q354 890 358 887L411 850Q417 846 417 837Q417 829 412 821Q394 788 368 774T312 759Q288 759 257 774Z" />
<glyph unicode="&#xd6;" glyph-name="Odieresis" horiz-adv-x="484" d="M141 -8T81 50T20 206V494Q20 592 80 650T242 708Q343 708 403 650T464 494V206Q464 108 404 50T242 -8Q141 -8 81 50ZM258 153T267 165T276 198V502Q276 523 267 535T242 547Q226 547 217
535T208 502V198Q208 177 217 165T242 153Q258 153 267 165ZM110 739T86 763T61 826Q61 865 85 889T148 913Q186 913 209 889T233 826Q233 787 210 763T148 739Q110 739 86 763ZM302 739T279 763T255 826Q255 865 278 889T341 913Q380 913 403 889T427 826Q427
787 404 763T341 739Q302 739 279 763Z" />
<glyph unicode="&#xd7;" glyph-name="multiply" horiz-adv-x="418" d="M394 408T394 401Q394 395 389 390L312 314Q310 312 310 310T312 306L389 229Q394 225 394 218Q394 212 389 207L312 130Q307 125 301 125Q297 125 290 130L213 207Q211 209 209 209T205 207L128
130Q123 125 117 125Q113 125 106 130L29 207Q24 214 24 218Q24 224 29 229L106 306Q108 308 108 310T106 314L29 390Q24 397 24 401Q24 407 29 412L106 489Q111 494 117 494Q124 494 128 489L205 412Q207 410 209 410T213 412L290 489Q295 494 301 494Q308 494
312 489L389 412Q394 408 394 401Z" />
<glyph unicode="&#xd8;" glyph-name="Oslash" horiz-adv-x="484" d="M412 641T415 637Q464 582 464 494V206Q464 108 404 50T242 -8Q182 -8 133 14Q131 15 129 14T126 11L112 -19Q108 -30 95 -30H50Q37 -30 37 -20L39 -12L69 54Q71 59 68 63Q20 119 20 206V494Q20
592 80 650T242 708Q303 708 349 687Q351 686 353 687T357 690L370 719Q375 730 387 730H433Q446 730 446 720L444 712L414 646Q412 641 415 637ZM208 378Q208 374 210 373T215 376L274 506Q276 510 275 514Q270 547 242 547Q226 547 217 535T208 502V378ZM258
153T267 165T276 198V325Q276 329 274 330T269 327L210 197Q209 196 209 191Q209 174 218 164T242 153Q258 153 267 165Z" />
<glyph unicode="&#xd9;" glyph-name="Ugrave" horiz-adv-x="481" d="M176 -8T127 19T51 95T24 208V685Q24 692 28 696T39 700H197Q204 700 208 696T212 685V190Q212 173 220 163T241 153Q254 153 261 163T269 190V685Q269 692 273 696T284 700H442Q449 700 453
696T457 685V208Q457 144 430 95T354 19T241 -8Q176 -8 127 19ZM310 778T310 773Q310 764 297 764H178Q167 764 160 773L83 867Q79 871 79 876Q79 880 82 882T92 885H234Q246 885 252 875L307 782Q310 778 310 773Z" />
<glyph unicode="&#xda;" glyph-name="Uacute" horiz-adv-x="481" d="M176 -8T127 19T51 95T24 208V685Q24 692 28 696T39 700H197Q204 700 208 696T212 685V190Q212 173 220 163T241 153Q254 153 261 163T269 190V685Q269 692 273 696T284 700H442Q449 700 453
696T457 685V208Q457 144 430 95T354 19T241 -8Q176 -8 127 19ZM153 764T153 773Q153 778 156 782L211 875Q217 885 229 885H371Q377 885 380 883T384 876Q384 871 380 867L303 773Q296 764 285 764H166Q153 764 153 773Z" />
<glyph unicode="&#xdb;" glyph-name="Ucircumflex" horiz-adv-x="481" d="M176 -8T127 19T51 95T24 208V685Q24 692 28 696T39 700H197Q204 700 208 696T212 685V190Q212 173 220 163T241 153Q254 153 261 163T269 190V685Q269 692 273 696T284 700H442Q449 700
453 696T457 685V208Q457 144 430 95T354 19T241 -8Q176 -8 127 19ZM79 764T76 766T72 773Q72 778 75 782L139 883Q145 893 157 893H318Q330 893 336 883L402 782Q405 778 405 773Q405 764 392 764H280Q268 764 263 775L243 818Q241 821 239 821T235 818L215 775Q210
764 198 764H85Q79 764 76 766Z" />
<glyph unicode="&#xdc;" glyph-name="Udieresis" horiz-adv-x="481" d="M176 -8T127 19T51 95T24 208V685Q24 692 28 696T39 700H197Q204 700 208 696T212 685V190Q212 173 220 163T241 153Q254 153 261 163T269 190V685Q269 692 273 696T284 700H442Q449 700
453 696T457 685V208Q457 144 430 95T354 19T241 -8Q176 -8 127 19ZM109 744T85 768T60 831Q60 870 84 894T147 918Q185 918 208 894T232 831Q232 792 209 768T147 744Q109 744 85 768ZM301 744T278 768T254 831Q254 870 277 894T340 918Q379 918 402 894T426 831Q426
792 403 768T340 744Q301 744 278 768Z" />
<glyph unicode="&#xdd;" glyph-name="Yacute" horiz-adv-x="508" d="M167 2T163 6T159 17V247Q159 253 158 255L18 683Q17 685 17 689Q17 700 30 700H196Q210 700 213 687L250 490Q251 486 254 486T258 490L295 687Q298 700 312 700H478Q486 700 489 696T490 683L348
255Q347 253 347 247V17Q347 10 343 6T332 2H174Q167 2 163 6ZM166 750T166 759Q166 764 169 768L224 861Q230 871 242 871H384Q390 871 393 869T397 862Q397 857 393 853L316 759Q309 750 298 750H179Q166 750 166 759Z" />
<glyph unicode="&#xde;" glyph-name="Thorn" horiz-adv-x="480" d="M323 571T369 543T442 463T468 346Q468 281 444 232T375 156T273 129H218Q212 129 212 123V15Q212 8 208 4T197 0H39Q32 0 28 4T24 15V685Q24 692 28 696T39 700H197Q204 700 208 696T212 685V577Q212
571 218 571H263Q323 571 369 543ZM253 276T266 292T280 342Q280 375 267 392T230 410H218Q212 410 212 404V282Q212 276 218 276H230Q253 276 266 292Z" />
<glyph unicode="&#xdf;" glyph-name="germandbls" horiz-adv-x="481" d="M30 1T26 5T22 16V467Q22 582 77 645T233 708Q334 708 391 656T449 515Q449 470 434 440T388 388Q383 385 388 380Q424 355 443 312T463 212Q463 111 404 56T235 0Q235 1 235 5T234 15V146Q234
152 234 155T235 160Q255 160 267 179T279 233Q279 268 267 287T235 306Q235 307 235 310T234 320V447Q234 451 239 453Q245 455 252 460Q265 473 265 501Q265 523 257 535T235 548Q223 548 217 535T210 498V15Q210 8 206 4T195 0L37 1Q30 1 26 5Z" />
<glyph unicode="&#xe0;" glyph-name="agrave" horiz-adv-x="467" d="M296 528T345 507T422 448T449 360V15Q449 8 445 4T434 0H276Q269 0 265 4T261 15V36Q261 40 259 40T254 38Q220 -8 148 -8Q12 -8 12 151Q12 221 37 255T105 299T221 309H255Q261 309 261 315V337Q261
350 253 358T232 367Q215 367 208 349Q203 335 192 335L32 337Q17 337 17 351Q22 434 80 481T232 528Q296 528 345 507ZM241 127T251 134T261 154V181Q261 187 255 187H235Q221 187 213 178T204 155Q204 142 211 135T229 127Q241 127 251 134ZM301 593T301 588Q301
579 288 579H169Q158 579 151 588L74 682Q70 686 70 691Q70 695 73 697T83 700H225Q237 700 243 690L298 597Q301 593 301 588Z" />
<glyph unicode="&#xe1;" glyph-name="aacute" horiz-adv-x="467" d="M296 528T345 507T422 448T449 360V15Q449 8 445 4T434 0H276Q269 0 265 4T261 15V36Q261 40 259 40T254 38Q220 -8 148 -8Q12 -8 12 151Q12 221 37 255T105 299T221 309H255Q261 309 261 315V337Q261
350 253 358T232 367Q215 367 208 349Q203 335 192 335L32 337Q17 337 17 351Q22 434 80 481T232 528Q296 528 345 507ZM241 127T251 134T261 154V181Q261 187 255 187H235Q221 187 213 178T204 155Q204 142 211 135T229 127Q241 127 251 134ZM144 579T144 588Q144
593 147 597L202 690Q208 700 220 700H362Q368 700 371 698T375 691Q375 686 371 682L294 588Q287 579 276 579H157Q144 579 144 588Z" />
<glyph unicode="&#xe2;" glyph-name="acircumflex" horiz-adv-x="467" d="M296 528T345 507T422 448T449 360V15Q449 8 445 4T434 0H276Q269 0 265 4T261 15V36Q261 40 259 40T254 38Q220 -8 148 -8Q12 -8 12 151Q12 221 37 255T105 299T221 309H255Q261 309 261
315V337Q261 350 253 358T232 367Q215 367 208 349Q203 335 192 335L32 337Q17 337 17 351Q22 434 80 481T232 528Q296 528 345 507ZM241 127T251 134T261 154V181Q261 187 255 187H235Q221 187 213 178T204 155Q204 142 211 135T229 127Q241 127 251 134ZM70 579T67
581T63 588Q63 593 66 597L130 698Q136 708 148 708H309Q321 708 327 698L393 597Q396 593 396 588Q396 579 383 579H271Q259 579 254 590L234 633Q232 636 230 636T226 633L206 590Q201 579 189 579H76Q70 579 67 581Z" />
<glyph unicode="&#xe3;" glyph-name="atilde" horiz-adv-x="467" d="M296 528T345 507T422 448T449 360V15Q449 8 445 4T434 0H276Q269 0 265 4T261 15V36Q261 40 259 40T254 38Q220 -8 148 -8Q12 -8 12 151Q12 221 37 255T105 299T221 309H255Q261 309 261 315V337Q261
350 253 358T232 367Q215 367 208 349Q203 335 192 335L32 337Q17 337 17 351Q22 434 80 481T232 528Q296 528 345 507ZM241 127T251 134T261 154V181Q261 187 255 187H235Q221 187 213 178T204 155Q204 142 211 135T229 127Q241 127 251 134ZM278 579T247 594Q238
598 227 604T207 611Q190 611 178 593Q172 585 165 585Q161 585 157 588L102 628Q92 635 95 647Q108 687 133 706T191 726Q224 726 258 704Q261 702 268 697T282 690T297 687Q316 687 328 702Q334 710 340 710Q344 710 348 707L401 670Q407 666 407 657Q407 649
402 641Q384 608 358 594T302 579Q278 579 247 594Z" />
<glyph unicode="&#xe4;" glyph-name="adieresis" horiz-adv-x="467" d="M296 528T345 507T422 448T449 360V15Q449 8 445 4T434 0H276Q269 0 265 4T261 15V36Q261 40 259 40T254 38Q220 -8 148 -8Q12 -8 12 151Q12 221 37 255T105 299T221 309H255Q261 309 261
315V337Q261 350 253 358T232 367Q215 367 208 349Q203 335 192 335L32 337Q17 337 17 351Q22 434 80 481T232 528Q296 528 345 507ZM241 127T251 134T261 154V181Q261 187 255 187H235Q221 187 213 178T204 155Q204 142 211 135T229 127Q241 127 251 134ZM100
559T76 583T51 646Q51 685 75 709T138 733Q176 733 199 709T223 646Q223 607 200 583T138 559Q100 559 76 583ZM292 559T269 583T245 646Q245 685 268 709T331 733Q370 733 393 709T417 646Q417 607 394 583T331 559Q292 559 269 583Z" />
<glyph unicode="&#xe5;" glyph-name="aring" horiz-adv-x="467" d="M296 528T345 507T422 448T449 360V15Q449 8 445 4T434 0H276Q269 0 265 4T261 15V36Q261 40 259 40T254 38Q220 -8 148 -8Q12 -8 12 151Q12 221 37 255T105 299T221 309H255Q261 309 261 315V337Q261
350 253 358T232 367Q215 367 208 349Q203 335 192 335L32 337Q17 337 17 351Q22 434 80 481T232 528Q296 528 345 507ZM241 127T251 134T261 154V181Q261 187 255 187H235Q221 187 213 178T204 155Q204 142 211 135T229 127Q241 127 251 134ZM182 562T149 596T115
679Q115 728 149 761T232 795Q281 795 315 762T349 679Q349 630 315 596T232 562Q182 562 149 596ZM247 643T257 653T268 679Q268 695 258 705T232 716Q217 716 207 706T196 679Q196 664 206 654T232 643Q247 643 257 653Z" />
<glyph unicode="&#xe6;" glyph-name="ae" horiz-adv-x="709" d="M110 -8T61 23T12 153Q12 218 37 251T106 294T221 305H255Q261 305 261 311V337Q261 350 253 358T233 367Q216 367 208 351Q203 337 192 337L32 341Q17 341 18 356Q23 436 81 482T227 528Q264 528
292 519T350 492Q354 489 358 492Q415 528 490 528Q582 528 637 479T693 350V213Q693 206 689 202T678 198H466Q460 198 460 192V185Q460 171 466 162T483 153Q497 153 505 169Q510 182 521 181L676 172Q691 170 690 156Q684 76 636 34T499 -8Q443 -8 403 7T355
42L354 46Q347 26 297 9T179 -8Q110 -8 61 23ZM460 305T466 305H499Q505 305 505 311V335Q505 349 499 358T483 367Q473 367 467 358T460 335V311Q460 305 466 305ZM241 125T251 132T261 152V192Q261 198 255 198H235Q221 198 213 188T204 158Q204 141 211 133T229
125Q241 125 251 132Z" />
<glyph unicode="&#xe7;" glyph-name="ccedilla" horiz-adv-x="455" d="M439 321T435 317T424 312L266 307Q251 307 251 321V335Q251 349 245 358T229 367Q219 367 213 358T206 335V185Q206 171 212 162T229 153Q239 153 245 162T251 185V200Q251 207 255 211T266
215L424 213Q431 213 435 209T439 198V170Q439 100 402 56T295 -2Q291 -2 291 -4T292 -9Q325 -48 325 -94Q325 -109 322 -122Q313 -157 288 -171T231 -186Q206 -186 174 -177Q161 -174 163 -160L170 -98Q171 -87 186 -87Q196 -87 202 -81T208 -64Q208 -39 170 -6Q168
-4 163 -2Q93 12 56 56T18 170V350Q18 431 74 479T229 528Q328 528 383 480T439 350V328Q439 321 435 317Z" />
<glyph unicode="&#xe8;" glyph-name="egrave" horiz-adv-x="455" d="M439 221T435 217T424 213H212Q206 213 206 207V185Q206 171 212 162T229 153Q239 153 244 160T252 178Q257 192 269 191L422 181Q437 179 436 165Q431 77 381 35T229 -8Q129 -8 74 38T18 170V350Q18
431 74 479T229 528Q328 528 383 480T439 350V228Q439 221 435 217ZM219 367T213 358T206 335V311Q206 305 212 305H245Q251 305 251 311V335Q251 349 245 358T229 367Q219 367 213 358ZM298 593T298 588Q298 579 285 579H166Q155 579 148 588L71 682Q67 686 67
691Q67 695 70 697T80 700H222Q234 700 240 690L295 597Q298 593 298 588Z" />
<glyph unicode="&#xe9;" glyph-name="eacute" horiz-adv-x="455" d="M439 221T435 217T424 213H212Q206 213 206 207V185Q206 171 212 162T229 153Q239 153 244 160T252 178Q257 192 269 191L422 181Q437 179 436 165Q431 77 381 35T229 -8Q129 -8 74 38T18 170V350Q18
431 74 479T229 528Q328 528 383 480T439 350V228Q439 221 435 217ZM219 367T213 358T206 335V311Q206 305 212 305H245Q251 305 251 311V335Q251 349 245 358T229 367Q219 367 213 358ZM141 579T141 588Q141 593 144 597L199 690Q205 700 217 700H359Q365 700
368 698T372 691Q372 686 368 682L291 588Q284 579 273 579H154Q141 579 141 588Z" />
<glyph unicode="&#xea;" glyph-name="ecircumflex" horiz-adv-x="455" d="M439 221T435 217T424 213H212Q206 213 206 207V185Q206 171 212 162T229 153Q239 153 244 160T252 178Q257 192 269 191L422 181Q437 179 436 165Q431 77 381 35T229 -8Q129 -8 74 38T18
170V350Q18 431 74 479T229 528Q328 528 383 480T439 350V228Q439 221 435 217ZM219 367T213 358T206 335V311Q206 305 212 305H245Q251 305 251 311V335Q251 349 245 358T229 367Q219 367 213 358ZM67 579T64 581T60 588Q60 593 63 597L127 698Q133 708 145 708H306Q318
708 324 698L390 597Q393 593 393 588Q393 579 380 579H268Q256 579 251 590L231 633Q229 636 227 636T223 633L203 590Q198 579 186 579H73Q67 579 64 581Z" />
<glyph unicode="&#xeb;" glyph-name="edieresis" horiz-adv-x="455" d="M439 221T435 217T424 213H212Q206 213 206 207V185Q206 171 212 162T229 153Q239 153 244 160T252 178Q257 192 269 191L422 181Q437 179 436 165Q431 77 381 35T229 -8Q129 -8 74 38T18
170V350Q18 431 74 479T229 528Q328 528 383 480T439 350V228Q439 221 435 217ZM219 367T213 358T206 335V311Q206 305 212 305H245Q251 305 251 311V335Q251 349 245 358T229 367Q219 367 213 358ZM97 559T73 583T48 646Q48 685 72 709T135 733Q173 733 196 709T220
646Q220 607 197 583T135 559Q97 559 73 583ZM289 559T266 583T242 646Q242 685 265 709T328 733Q367 733 390 709T414 646Q414 607 391 583T328 559Q289 559 266 583Z" />
<glyph unicode="&#xec;" glyph-name="igrave" horiz-adv-x="237" d="M31 0T27 4T23 15V505Q23 512 27 516T38 520H196Q203 520 207 516T211 505V15Q211 8 207 4T196 0H38Q31 0 27 4ZM186 598T186 593Q186 584 173 584H54Q43 584 36 593L-41 687Q-45 691 -45 696Q-45
700 -42 702T-32 705H110Q122 705 128 695L183 602Q186 598 186 593Z" />
<glyph unicode="&#xed;" glyph-name="iacute" horiz-adv-x="237" d="M31 0T27 4T23 15V505Q23 512 27 516T38 520H196Q203 520 207 516T211 505V15Q211 8 207 4T196 0H38Q31 0 27 4ZM29 584T29 593Q29 598 32 602L87 695Q93 705 105 705H247Q253 705 256 703T260
696Q260 691 256 687L179 593Q172 584 161 584H42Q29 584 29 593Z" />
<glyph unicode="&#xee;" glyph-name="icircumflex" horiz-adv-x="237" d="M31 0T27 4T23 15V505Q23 512 27 516T38 520H196Q203 520 207 516T211 505V15Q211 8 207 4T196 0H38Q31 0 27 4ZM-45 584T-48 586T-52 593Q-52 598 -49 602L15 703Q21 713 33 713H194Q206
713 212 703L278 602Q281 598 281 593Q281 584 268 584H156Q144 584 139 595L119 638Q117 641 115 641T111 638L91 595Q86 584 74 584H-39Q-45 584 -48 586Z" />
<glyph unicode="&#xef;" glyph-name="idieresis" horiz-adv-x="237" d="M31 0T27 4T23 15V505Q23 512 27 516T38 520H196Q203 520 207 516T211 505V15Q211 8 207 4T196 0H38Q31 0 27 4ZM-15 564T-39 588T-64 651Q-64 690 -40 714T23 738Q61 738 84 714T108 651Q108
612 85 588T23 564Q-15 564 -39 588ZM177 564T154 588T130 651Q130 690 153 714T216 738Q255 738 278 714T302 651Q302 612 279 588T216 564Q177 564 154 588Z" />
<glyph unicode="&#xf0;" glyph-name="eth" horiz-adv-x="461" d="M379 568T382 562Q414 496 428 435T443 310V170Q443 85 388 39T231 -8Q129 -8 74 38T18 170V310Q18 362 42 402T107 465T197 488Q219 488 232 483Q240 481 237 488Q234 497 228 506L219 526Q217
532 212 530L137 513L132 512Q122 512 119 524L108 570L107 575Q107 586 119 589L171 601Q178 603 175 609Q149 652 130 682Q127 687 127 691Q127 695 130 697T140 700H287Q299 700 306 690Q326 660 335 645Q338 640 343 642L409 658H413Q424 658 427 646L438 597V593Q438
582 426 579L386 570Q379 568 382 562ZM255 309T249 318T231 327Q220 327 213 318T206 295V185Q206 171 213 162T231 153Q242 153 248 162T255 185V295Q255 309 249 318Z" />
<glyph unicode="&#xf1;" glyph-name="ntilde" horiz-adv-x="462" d="M442 528T442 348V15Q442 8 438 4T427 0H269Q262 0 258 4T254 15V335Q254 367 233 367Q210 367 210 335V15Q210 8 206 4T195 0H37Q30 0 26 4T22 15V505Q22 512 26 516T37 520H195Q202 520 206
516T210 505V490Q210 488 212 488Q217 488 224 497Q253 528 300 528Q442 528 442 348ZM279 571T248 586Q239 590 228 596T208 603Q191 603 179 585Q173 577 166 577Q162 577 158 580L103 620Q93 627 96 639Q109 679 134 698T192 718Q225 718 259 696Q262 694 269
689T283 682T298 679Q317 679 329 694Q335 702 341 702Q345 702 349 699L402 662Q408 658 408 649Q408 641 403 633Q385 600 359 586T303 571Q279 571 248 586Z" />
<glyph unicode="&#xf2;" glyph-name="ograve" horiz-adv-x="461" d="M129 -8T74 38T18 170V350Q18 431 74 479T231 528Q331 528 387 480T443 350V170Q443 85 388 39T231 -8Q129 -8 74 38ZM242 153T248 162T255 185V335Q255 349 249 358T231 367Q220 367 213 358T206
335V185Q206 171 213 162T231 153Q242 153 248 162ZM300 593T300 588Q300 579 287 579H168Q157 579 150 588L73 682Q69 686 69 691Q69 695 72 697T82 700H224Q236 700 242 690L297 597Q300 593 300 588Z" />
<glyph unicode="&#xf3;" glyph-name="oacute" horiz-adv-x="461" d="M129 -8T74 38T18 170V350Q18 431 74 479T231 528Q331 528 387 480T443 350V170Q443 85 388 39T231 -8Q129 -8 74 38ZM242 153T248 162T255 185V335Q255 349 249 358T231 367Q220 367 213 358T206
335V185Q206 171 213 162T231 153Q242 153 248 162ZM143 579T143 588Q143 593 146 597L201 690Q207 700 219 700H361Q367 700 370 698T374 691Q374 686 370 682L293 588Q286 579 275 579H156Q143 579 143 588Z" />
<glyph unicode="&#xf4;" glyph-name="ocircumflex" horiz-adv-x="461" d="M129 -8T74 38T18 170V350Q18 431 74 479T231 528Q331 528 387 480T443 350V170Q443 85 388 39T231 -8Q129 -8 74 38ZM242 153T248 162T255 185V335Q255 349 249 358T231 367Q220 367 213
358T206 335V185Q206 171 213 162T231 153Q242 153 248 162ZM69 579T66 581T62 588Q62 593 65 597L129 698Q135 708 147 708H308Q320 708 326 698L392 597Q395 593 395 588Q395 579 382 579H270Q258 579 253 590L233 633Q231 636 229 636T225 633L205 590Q200 579
188 579H75Q69 579 66 581Z" />
<glyph unicode="&#xf5;" glyph-name="otilde" horiz-adv-x="461" d="M129 -8T74 38T18 170V350Q18 431 74 479T231 528Q331 528 387 480T443 350V170Q443 85 388 39T231 -8Q129 -8 74 38ZM242 153T248 162T255 185V335Q255 349 249 358T231 367Q220 367 213 358T206
335V185Q206 171 213 162T231 153Q242 153 248 162ZM277 579T246 594Q237 598 226 604T206 611Q189 611 177 593Q171 585 164 585Q160 585 156 588L101 628Q91 635 94 647Q107 687 132 706T190 726Q223 726 257 704Q260 702 267 697T281 690T296 687Q315 687 327
702Q333 710 339 710Q343 710 347 707L400 670Q406 666 406 657Q406 649 401 641Q383 608 357 594T301 579Q277 579 246 594Z" />
<glyph unicode="&#xf6;" glyph-name="odieresis" horiz-adv-x="461" d="M129 -8T74 38T18 170V350Q18 431 74 479T231 528Q331 528 387 480T443 350V170Q443 85 388 39T231 -8Q129 -8 74 38ZM242 153T248 162T255 185V335Q255 349 249 358T231 367Q220 367 213
358T206 335V185Q206 171 213 162T231 153Q242 153 248 162ZM99 559T75 583T50 646Q50 685 74 709T137 733Q175 733 198 709T222 646Q222 607 199 583T137 559Q99 559 75 583ZM291 559T268 583T244 646Q244 685 267 709T330 733Q369 733 392 709T416 646Q416 607
393 583T330 559Q291 559 268 583Z" />
<glyph unicode="&#xf7;" glyph-name="divide" horiz-adv-x="436" d="M186 402T163 425T139 482Q139 514 162 537T219 561Q251 561 274 538T298 482Q298 449 275 426T219 402Q186 402 163 425ZM26 232T22 236T18 247V357Q18 364 22 368T33 372H403Q410 372 414
368T418 357V247Q418 240 414 236T403 232H33Q26 232 22 236ZM186 48T163 71T139 128Q139 160 162 183T219 207Q251 207 274 184T298 128Q298 95 275 72T219 48Q186 48 163 71Z" />
<glyph unicode="&#xf8;" glyph-name="oslash" horiz-adv-x="461" d="M390 477T394 473Q443 427 443 350V170Q443 85 388 39T231 -8Q170 -8 128 8Q122 10 120 5L106 -19Q101 -27 94 -27Q90 -27 85 -24L61 -6Q54 0 54 6L56 14L68 36Q71 41 67 45Q18 89 18 170V350Q18
431 74 479T231 528Q289 528 334 511Q340 509 342 514L356 539Q361 547 368 547Q372 547 377 544L402 526Q409 520 409 515Q409 511 406 506L393 482Q390 477 394 473ZM206 291Q206 286 208 286T213 290L248 351Q251 355 248 359Q240 367 231 367Q220 367 213 358T206
335V291ZM242 153T248 162T255 185V227Q255 232 253 232T248 229L213 169Q211 164 214 161Q220 153 231 153Q242 153 248 162Z" />
<glyph unicode="&#xf9;" glyph-name="ugrave" horiz-adv-x="462" d="M252 512T256 516T267 520H425Q432 520 436 516T440 505V15Q440 8 436 4T425 0H267Q260 0 256 4T252 15V19Q252 23 250 24T245 22Q230 4 210 -2T162 -8Q102 -8 61 29T20 144V505Q20 512 24 516T35
520H193Q200 520 204 516T208 505V185Q208 153 229 153Q252 153 252 185V505Q252 512 256 516ZM298 585T298 580Q298 571 285 571H166Q155 571 148 580L71 674Q67 678 67 683Q67 687 70 689T80 692H222Q234 692 240 682L295 589Q298 585 298 580Z" />
<glyph unicode="&#xfa;" glyph-name="uacute" horiz-adv-x="462" d="M252 512T256 516T267 520H425Q432 520 436 516T440 505V15Q440 8 436 4T425 0H267Q260 0 256 4T252 15V19Q252 23 250 24T245 22Q230 4 210 -2T162 -8Q102 -8 61 29T20 144V505Q20 512 24 516T35
520H193Q200 520 204 516T208 505V185Q208 153 229 153Q252 153 252 185V505Q252 512 256 516ZM141 571T141 580Q141 585 144 589L199 682Q205 692 217 692H359Q365 692 368 690T372 683Q372 678 368 674L291 580Q284 571 273 571H154Q141 571 141 580Z" />
<glyph unicode="&#xfb;" glyph-name="ucircumflex" horiz-adv-x="462" d="M252 512T256 516T267 520H425Q432 520 436 516T440 505V15Q440 8 436 4T425 0H267Q260 0 256 4T252 15V19Q252 23 250 24T245 22Q230 4 210 -2T162 -8Q102 -8 61 29T20 144V505Q20 512
24 516T35 520H193Q200 520 204 516T208 505V185Q208 153 229 153Q252 153 252 185V505Q252 512 256 516ZM67 571T64 573T60 580Q60 585 63 589L127 690Q133 700 145 700H306Q318 700 324 690L390 589Q393 585 393 580Q393 571 380 571H268Q256 571 251 582L231
625Q229 628 227 628T223 625L203 582Q198 571 186 571H73Q67 571 64 573Z" />
<glyph unicode="&#xfc;" glyph-name="udieresis" horiz-adv-x="462" d="M252 512T256 516T267 520H425Q432 520 436 516T440 505V15Q440 8 436 4T425 0H267Q260 0 256 4T252 15V19Q252 23 250 24T245 22Q230 4 210 -2T162 -8Q102 -8 61 29T20 144V505Q20 512 24
516T35 520H193Q200 520 204 516T208 505V185Q208 153 229 153Q252 153 252 185V505Q252 512 256 516ZM97 551T73 575T48 638Q48 677 72 701T135 725Q173 725 196 701T220 638Q220 599 197 575T135 551Q97 551 73 575ZM289 551T266 575T242 638Q242 677 265 701T328
725Q367 725 390 701T414 638Q414 599 391 575T328 551Q289 551 266 575Z" />
<glyph unicode="&#xfd;" glyph-name="yacute" horiz-adv-x="459" d="M28 -199T28 -184V-60Q28 -45 33 -45H37Q89 -45 112 -39T136 -10Q136 -4 135 0L10 503V507Q10 520 23 520H193Q207 520 208 506L227 288Q228 289 230 289T233 288L250 506Q251 520 265 520L436
518Q443 518 447 514T449 501L323 -2Q301 -79 275 -119T195 -179T40 -199H34Q28 -199 28 -184ZM141 571T141 580Q141 585 144 589L199 682Q205 692 217 692H359Q365 692 368 690T372 683Q372 678 368 674L291 580Q284 571 273 571H154Q141 571 141 580Z" />
<glyph unicode="&#xfe;" glyph-name="thorn" horiz-adv-x="459" d="M375 528T408 484T441 350V170Q441 84 409 38T304 -8Q245 -8 215 38Q213 42 211 42T208 37V-185Q208 -192 204 -196T193 -200H35Q28 -200 24 -196T20 -185V685Q20 692 24 696T35 700H193Q200
700 204 696T208 685V483Q208 480 210 480Q213 480 222 491Q251 528 304 528Q375 528 408 484ZM253 349T248 358T232 367Q222 367 216 358T209 335V185Q209 171 215 162T232 153Q242 153 247 162T253 185V335Q253 349 248 358Z" />
<glyph unicode="&#xff;" glyph-name="ydieresis" horiz-adv-x="459" d="M28 -199T28 -184V-60Q28 -45 33 -45H37Q89 -45 112 -39T136 -10Q136 -4 135 0L10 503V507Q10 520 23 520H193Q207 520 208 506L227 288Q228 289 230 289T233 288L250 506Q251 520 265 520L436
518Q443 518 447 514T449 501L323 -2Q301 -79 275 -119T195 -179T40 -199H34Q28 -199 28 -184ZM97 551T73 575T48 638Q48 677 72 701T135 725Q173 725 196 701T220 638Q220 599 197 575T135 551Q97 551 73 575ZM289 551T266 575T242 638Q242 677 265 701T328 725Q367
725 390 701T414 638Q414 599 391 575T328 551Q289 551 266 575Z" />
<glyph unicode="&#x2013;" glyph-name="endash" horiz-adv-x="386" d="M26 206T22 210T18 221V351Q18 358 22 362T33 366H353Q360 366 364 362T368 351V221Q368 214 364 210T353 206H33Q26 206 22 210Z" />
<glyph unicode="&#x2014;" glyph-name="emdash" horiz-adv-x="593" d="M26 206T22 210T18 221V351Q18 358 22 362T33 366H560Q567 366 571 362T575 351V221Q575 214 571 210T560 206H33Q26 206 22 210Z" />
<glyph unicode="&#x2018;" glyph-name="quoteleft" horiz-adv-x="231" d="M10 460T7 464T6 477L79 688Q83 700 96 700H214Q231 700 228 684L190 474Q187 460 174 460H18Q10 460 7 464Z" />
<glyph unicode="&#x2019;" glyph-name="quoteright" horiz-adv-x="231" d="M221 700T224 696T225 683L152 472Q148 460 135 460H17Q0 460 3 476L41 686Q44 700 57 700H213Q221 700 224 696Z" />
<glyph unicode="&#x201a;" glyph-name="quotesinglbase" horiz-adv-x="600" d="M24 -111T25 -96L40 145Q41 152 45 156T56 160H192Q208 160 205 143L149 -98Q146 -111 133 -111H39Q24 -111 25 -96Z" />
<glyph unicode="&#x201c;" glyph-name="quotedblleft" horiz-adv-x="421" d="M10 460T7 464T6 477L78 688Q82 700 95 700H207Q224 700 221 684L183 474Q180 460 167 460H18Q10 460 7 464ZM209 460T206 464T205 477L275 688Q279 700 292 700H405Q421 700 418 684L382
474Q380 460 366 460H217Q209 460 206 464Z" />
<glyph unicode="&#x201d;" glyph-name="quotedblright" horiz-adv-x="421" d="M212 700T215 696T216 683L146 472Q142 460 129 460H16Q0 460 3 476L39 686Q41 700 55 700H204Q212 700 215 696ZM411 700T414 696T415 683L343 472Q339 460 326 460H214Q197 460 200
476L238 686Q241 700 254 700H403Q411 700 414 696Z" />
<glyph unicode="&#x201e;" glyph-name="quotedblbase" horiz-adv-x="423" d="M212 129T215 125T216 112L146 -99Q142 -111 129 -111H16Q0 -111 3 -95L39 115Q41 129 55 129H204Q212 129 215 125ZM411 129T414 125T415 112L343 -99Q339 -111 326 -111H214Q197 -111
200 -95L238 115Q241 129 254 129H403Q411 129 414 125Z" />
<glyph unicode="&#x2022;" glyph-name="bullet" horiz-adv-x="314" d="M120 143T88 162T37 213T18 283Q18 321 36 353T87 403T158 422Q195 422 227 404T277 353T296 283Q296 245 278 213T227 162T158 143Q120 143 88 162Z" />
<glyph unicode="&#x2039;" glyph-name="guilsinglleft" horiz-adv-x="280" d="M248 117Q248 107 235 107H112Q100 107 95 119L30 271Q28 279 28 281Q28 285 30 291L95 444Q99 455 112 455H235Q248 455 248 445L246 437L177 285Q175 281 177 277L246 125L248 117Z" />
<glyph unicode="&#x203a;" glyph-name="guilsinglright" horiz-adv-x="280" d="M32 107T32 117L34 125L103 277Q105 281 103 285L34 437L32 445Q32 455 45 455H168Q180 455 185 443L250 291Q252 288 252 281Q252 275 250 271L185 118Q181 107 168 107H45Q32 107 32 117Z" />
</font>
</defs>
</svg>
