<?xml version="1.0" standalone="no"?>
<!DOCTYPE svg PUBLIC "-//W3C//DTD SVG 1.1//EN" "http://www.w3.org/Graphics/SVG/1.1/DTD/svg11.dtd">
<svg xmlns="http://www.w3.org/2000/svg">
<defs >
<font id="BarlowSemiCondensed" horiz-adv-x="475" ><font-face
    font-family="Barlow Semi Condensed"
    units-per-em="1000"
    panose-1="0 0 8 6 0 0 0 0 0 0"
    ascent="1000"
    descent="-200"
    alphabetic="0" />
<glyph unicode=" " glyph-name="space" horiz-adv-x="200" />
<glyph unicode="!" glyph-name="exclam" horiz-adv-x="315" d="M108 240T105 243T101 252L87 688Q87 693 90 696T99 700H216Q221 700 224 697T228 688L213 252Q213 247 210 244T201 240H113Q108 240 105 243ZM118 1T93 26T68 88Q68 123 95 148T156 174Q190 174
217 149T244 88Q244 52 219 27T156 1Q118 1 93 26Z" />
<glyph unicode="&quot;" glyph-name="quotedbl" horiz-adv-x="352" d="M36 471T32 474T28 483L15 686Q15 698 26 698H137Q150 698 148 686L135 483Q135 477 132 474T122 471H41Q36 471 32 474ZM226 471T222 474T218 483L205 686Q205 698 216 698H327Q340 698 338
686L325 483Q325 477 322 474T312 471H231Q226 471 222 474Z" />
<glyph unicode="#" glyph-name="numbersign" horiz-adv-x="651" d="M611 411T608 408T599 404H531Q525 404 525 399L510 300Q510 295 514 295H563Q568 295 571 292T575 283V187Q575 182 572 179T563 175H496Q490 175 490 170L471 38Q470 27 458 27H341Q329 27
330 40L349 170Q349 175 345 175H253Q247 175 247 170L228 38Q227 27 215 27H98Q86 27 87 40L106 170Q106 175 102 175H53Q48 175 45 178T41 187V283Q41 288 44 291T53 295H121Q127 295 127 300L141 399Q141 404 137 404H88Q83 404 80 407T76 416V513Q76 518 79
521T88 525H156Q162 525 162 530L181 662Q182 673 194 673H311Q323 673 322 660L303 530Q303 525 307 525H398Q404 525 404 530L423 662Q424 673 436 673H553Q565 673 564 660L545 530Q545 525 549 525H599Q604 525 607 522T611 513V416Q611 411 608 408ZM369 295T369
300L384 399Q384 404 380 404H288Q282 404 282 399L268 300Q268 295 272 295H363Q369 295 369 300Z" />
<glyph unicode="$" glyph-name="dollar" horiz-adv-x="500" d="M468 111T423 59T297 -4Q292 -6 292 -10L293 -62Q293 -67 290 -70T281 -74H213Q208 -74 205 -71T201 -62L203 -9Q203 -5 198 -3Q123 10 81 57T38 175V215Q38 220 41 223T50 227H165Q170 227 173 224T177
215V195Q177 159 198 136T255 113Q290 113 309 133T329 185Q329 211 309 228T242 270Q196 294 167 314Q105 356 71 401T36 514Q36 590 79 640T197 703Q202 705 202 709L201 770Q201 775 204 778T213 782H279Q284 782 287 779T291 770L290 711Q290 707 295 705Q374
694 419 644T464 516V485Q464 480 461 477T452 473H337Q332 473 329 476T325 485V503Q325 539 305 563T247 587Q215 587 195 568T175 517Q175 488 195 471T267 426Q276 421 288 415T314 400Q396 352 432 306T468 191Q468 111 423 59Z" />
<glyph unicode="%" glyph-name="percent" horiz-adv-x="795" d="M167 393T131 414T74 471T53 551Q53 594 74 630T131 687T210 709Q253 709 289 688T346 630T367 551Q367 508 346 472T289 414T210 393Q167 393 131 414ZM163 0T161 4T162 14L532 692Q537 700 547
700H622Q629 700 631 696T630 686L260 8Q255 0 245 0H170Q163 0 161 4ZM244 466T268 491T292 551Q292 586 268 610T210 635Q176 635 152 611T128 551Q128 515 151 491T210 466Q244 466 268 491ZM546 -9T510 12T453 70T432 150Q432 193 453 229T510 286T589 307Q632
307 668 286T725 229T746 150Q746 107 725 71T668 13T589 -9Q546 -9 510 12ZM623 65T647 90T671 150Q671 185 647 209T589 234Q555 234 531 210T507 150Q507 114 530 90T589 65Q623 65 647 90Z" />
<glyph unicode="&amp;" glyph-name="ampersand" horiz-adv-x="655" d="M616 9T616 7Q616 0 605 0H476Q467 0 461 7L445 25L429 43Q426 47 422 44Q338 -9 240 -9Q148 -9 92 36T35 168Q35 234 66 279T153 363Q156 366 154 370Q107 431 92 461T77 526Q77 608 130
658T271 708Q329 708 375 685T447 621T473 525Q473 463 441 420T351 340Q348 337 350 333L435 232Q437 228 442 233Q474 273 493 307Q496 312 500 313T510 312L597 263Q607 256 601 246Q562 180 522 132Q519 129 522 126L557 83L612 15Q616 9 616 7ZM249 580T234
565T218 523Q218 507 226 491T264 437Q267 433 271 436Q301 457 316 477T332 523Q332 549 316 564T275 580Q249 580 234 565ZM289 110T339 140Q344 144 341 147L300 195Q271 228 241 265Q238 269 234 266Q206 244 191 223T176 176Q176 147 195 129T249 110Q289
110 339 140Z" />
<glyph unicode="&apos;" glyph-name="quotesingle" horiz-adv-x="169" d="M36 473T32 476T28 485L15 687Q15 699 26 699H144Q157 699 155 687L142 485Q142 479 139 476T129 473H41Q36 473 32 476Z" />
<glyph unicode="(" glyph-name="parenleft" horiz-adv-x="329" d="M124 -91T120 -84Q66 -8 33 97T0 332Q0 463 33 569T121 752Q125 759 135 759H249Q256 759 258 755T258 745Q158 553 158 333Q158 115 257 -77Q259 -81 259 -84Q259 -91 249 -91H134Q124 -91 120 -84Z" />
<glyph unicode=")" glyph-name="parenright" horiz-adv-x="329" d="M205 -91T195 -91H80Q73 -91 71 -87T72 -77Q171 115 171 333Q171 553 71 745Q69 749 69 751Q69 759 80 759H194Q204 759 208 752Q263 676 296 570T329 332Q329 202 296 97T209 -84Q205 -91 195 -91Z" />
<glyph unicode="*" glyph-name="asterisk" horiz-adv-x="380" d="M157 394T154 397T150 406L151 493Q151 496 149 497T145 496L67 450Q63 448 61 448Q54 448 50 455L22 506Q20 510 20 513Q20 519 26 523L108 568Q113 571 108 574L27 617Q22 619 21 624T22 634L50
686Q53 691 57 692T67 691L145 645Q147 643 149 644T151 648L150 734Q150 739 153 742T162 746H218Q223 746 226 743T230 734V648Q230 645 232 644T236 645L313 691Q317 693 319 693Q326 693 330 686L358 634Q360 630 360 627Q360 620 353 617L272 574Q267 571
272 568L354 523Q359 520 360 515T358 506L330 454Q327 449 323 448T313 449L236 496Q234 498 232 497T230 493V406Q230 401 227 398T218 394H162Q157 394 154 397Z" />
<glyph unicode="+" glyph-name="plus" horiz-adv-x="462" d="M429 362T432 359T436 350V261Q436 256 433 253T424 249H293Q288 249 288 244V114Q288 109 285 106T276 102H186Q181 102 178 105T174 114V244Q174 249 169 249H38Q33 249 30 252T26 261V350Q26 355
29 358T38 362H169Q174 362 174 367V499Q174 504 177 507T186 511H276Q281 511 284 508T288 499V367Q288 362 293 362H424Q429 362 432 359Z" />
<glyph unicode="," glyph-name="comma" horiz-adv-x="238" d="M34 -98T36 -85L64 147Q65 158 76 158H177Q191 158 188 145L131 -88Q128 -98 117 -98H47Q34 -98 36 -85Z" />
<glyph unicode="-" glyph-name="hyphen" horiz-adv-x="370" d="M33 235T30 238T26 247V344Q26 349 29 352T38 356H332Q337 356 340 353T344 344V247Q344 242 341 239T332 235H38Q33 235 30 238Z" />
<glyph unicode="." glyph-name="period" horiz-adv-x="268" d="M93 -4T68 21T43 83Q43 118 70 143T131 169Q166 169 193 144T220 83Q220 47 195 22T131 -4Q93 -4 68 21Z" />
<glyph unicode="/" glyph-name="slash" horiz-adv-x="420" d="M25 0T22 3T21 14L260 690Q263 700 273 700H388Q394 700 397 697T398 686L160 10Q157 0 147 0H31Q25 0 22 3Z" />
<glyph unicode="0" glyph-name="zero" horiz-adv-x="505" d="M153 -11T94 47T35 205V495Q35 593 94 651T252 710Q351 710 410 652T470 495V205Q470 106 411 48T252 -11Q153 -11 94 47ZM287 110T308 133T329 197V502Q329 542 308 565T252 588Q217 588 197 565T176
502V197Q176 157 196 134T252 110Q287 110 308 133Z" />
<glyph unicode="1" glyph-name="one" horiz-adv-x="307" d="M122 700T129 700H250Q255 700 258 697T262 688V12Q262 7 259 4T250 0H133Q128 0 125 3T121 12V563Q121 565 120 567T116 568L34 552L30 551Q21 551 21 562V647Q21 657 30 661L114 697Q122 700 129 700Z" />
<glyph unicode="2" glyph-name="two" horiz-adv-x="499" d="M43 0T40 3T36 12V109Q36 117 42 123Q163 262 243 364Q315 457 315 511Q315 546 296 566T245 587Q214 587 195 567T175 513V480Q175 475 172 472T163 468H44Q39 468 36 471T32 480V527Q37 609 97 658T248
708Q311 708 358 683T432 613T458 512Q458 465 439 420T381 322Q352 283 312 236T232 143L218 127Q216 125 217 123T221 121H458Q463 121 466 118T470 109V12Q470 7 467 4T458 0H48Q43 0 40 3Z" />
<glyph unicode="3" glyph-name="three" horiz-adv-x="499" d="M462 280T462 225Q462 165 442 117Q421 58 370 25T246 -8Q164 -8 108 34T37 146Q30 172 28 214Q28 226 40 226H157Q169 226 169 214Q171 189 175 172Q181 145 200 129T246 113Q272 113 290 128T316
168Q324 198 324 234Q324 272 316 301Q308 328 290 343T246 358Q227 358 206 343Q203 341 199 341Q193 341 189 345L130 411Q126 415 126 420Q126 424 130 428L279 573Q281 575 280 577T276 579H53Q48 579 45 582T41 591V688Q41 693 44 696T53 700H444Q449 700
452 697T456 688V588Q456 581 450 573L326 442Q322 438 328 436Q372 429 403 400T448 324Q462 280 462 225Z" />
<glyph unicode="4" glyph-name="four" horiz-adv-x="542" d="M504 305T507 302T511 293V190Q511 185 508 182T499 178H463Q458 178 458 173V12Q458 7 455 4T446 0H329Q324 0 321 3T317 12V173Q317 178 312 178H35Q30 178 27 181T23 190V271Q23 277 26 286L183
691Q186 700 197 700H322Q337 700 332 686L188 311Q187 305 192 305H312Q317 305 317 310V424Q317 429 320 432T329 436H446Q451 436 454 433T458 424V310Q458 305 463 305H499Q504 305 507 302Z" />
<glyph unicode="5" glyph-name="five" horiz-adv-x="488" d="M461 303T461 221Q461 148 430 92Q405 44 359 19T248 -7Q170 -7 117 31T46 140Q39 161 38 183V185Q38 195 49 195H168Q180 195 181 183Q183 171 185 167Q192 141 208 128T248 114Q272 114 289 128T311
168Q318 189 318 220Q318 252 311 276Q304 300 288 312T248 324Q201 324 184 285Q181 275 171 275H50Q45 275 42 278T38 287V688Q38 693 41 696T50 700H432Q437 700 440 697T444 688V591Q444 586 441 583T432 579H184Q179 579 179 574L178 418Q178 414 180 414T184
415Q224 446 280 446Q331 446 368 425T428 363Q461 303 461 221Z" />
<glyph unicode="6" glyph-name="six" horiz-adv-x="488" d="M461 297T461 221Q461 152 433 102Q411 49 364 21T249 -7Q184 -7 137 20T67 100Q67 101 67 102T64 106Q38 150 38 215L37 528Q37 610 94 659T245 708Q335 708 391 659T447 529V500Q447 495 444 492T435
488H318Q313 488 310 491T306 500V515Q306 546 289 565T245 585Q216 585 198 565T179 514V416Q179 413 181 413T185 414Q221 447 276 447Q329 447 368 422T427 351Q461 297 461 221ZM318 192T318 224Q318 264 308 291Q292 333 248 333Q205 333 189 291Q179 266
179 223Q179 189 186 164Q200 114 248 114Q295 114 311 165Q318 192 318 224Z" />
<glyph unicode="7" glyph-name="seven" horiz-adv-x="451" d="M102 0T100 3T99 14L289 573Q291 579 285 579H136Q131 579 131 574V534Q131 529 128 526T119 522H28Q23 522 20 525T16 534L17 688Q17 693 20 696T29 700H427Q432 700 435 697T439 688V587Q439 578
437 572L246 10Q243 0 233 0H108Q102 0 100 3Z" />
<glyph unicode="8" glyph-name="eight" horiz-adv-x="491" d="M456 259T456 203Q456 149 436 106Q412 53 362 23T244 -8Q178 -8 128 22T53 107Q34 149 34 204Q34 262 54 305Q71 342 105 365Q110 368 105 371Q73 393 57 426Q36 465 36 518Q36 578 61 619Q87 663
135 688T245 713Q311 713 360 687T434 610Q455 568 455 517Q455 467 433 428Q414 394 383 373Q379 369 383 366Q418 344 435 306Q456 259 456 203ZM175 527T175 503Q175 473 185 453Q192 434 208 423T245 412Q266 412 282 423T307 455Q316 475 316 503Q316 529
308 548Q300 569 284 580T245 592Q223 592 207 581T183 549Q175 527 175 503ZM316 181T316 215Q316 243 308 267Q300 290 284 302T245 315Q199 315 183 266Q175 242 175 215Q175 184 185 157Q193 136 208 124T245 112Q266 112 281 124T305 156Q316 181 316 215Z"
/>
<glyph unicode="9" glyph-name="nine" horiz-adv-x="479" d="M442 172Q442 90 385 41T234 -8Q144 -8 88 41T32 171V200Q32 205 35 208T44 212H161Q166 212 169 209T173 200V185Q173 154 190 135T234 115Q263 115 281 135T300 186V284Q300 287 298 287T294 286Q258
253 203 253Q150 253 111 278T52 349Q18 403 18 479Q18 548 46 598Q68 651 115 679T230 707Q295 707 342 680T412 600L414 595Q441 550 441 485L442 172ZM300 434T300 477Q300 511 293 536Q279 586 231 586Q184 586 168 535Q161 508 161 476Q161 436 171 409Q187
367 231 367Q274 367 290 409Q300 434 300 477Z" />
<glyph unicode=":" glyph-name="colon" horiz-adv-x="319" d="M123 331T98 356T73 418Q73 453 100 478T161 504Q195 504 222 479T249 418Q249 382 224 357T161 331Q123 331 98 356ZM123 4T98 29T73 91Q73 126 100 151T161 177Q195 177 222 152T249 91Q249 55 224
30T161 4Q123 4 98 29Z" />
<glyph unicode=";" glyph-name="semicolon" horiz-adv-x="274" d="M100 313T75 338T50 400Q50 435 77 460T138 486Q172 486 199 461T226 400Q226 364 201 339T138 313Q100 313 75 338ZM62 -97T59 -94T56 -84L77 145Q79 156 89 156H191Q205 156 202 143L151 -86Q149
-97 138 -97H68Q62 -97 59 -94Z" />
<glyph unicode="&lt;" glyph-name="less" horiz-adv-x="462" d="M436 44T432 42T422 42L35 217Q26 222 26 231V332Q26 342 35 346L422 521Q426 523 428 523Q436 523 436 512V402Q436 393 427 388L173 284Q167 281 173 278L427 175Q436 171 436 161V51Q436 44 432 42Z" />
<glyph unicode="=" glyph-name="equal" horiz-adv-x="462" d="M33 343T30 346T26 355V444Q26 449 29 452T38 456H424Q429 456 432 453T436 444V355Q436 350 433 347T424 343H38Q33 343 30 346ZM33 411T30 414T26 423V512Q26 517 29 520T38 524H424Q429 524 432
521T436 512V423Q436 418 433 415T424 411H38Q33 411 30 414Z" />
<glyph unicode="&gt;" glyph-name="greater" horiz-adv-x="462" d="M36 40T34 40Q26 40 26 51V161Q26 171 35 175L289 278Q295 281 289 284L35 388Q26 393 26 402V512Q26 519 30 521T40 521L427 346Q436 342 436 332V231Q436 222 427 217L40 42Q36 40 34 40Z" />
<glyph unicode="?" glyph-name="question" horiz-adv-x="479" d="M161 222T158 225T154 234V266Q154 316 177 347T244 411Q279 438 296 459T313 510Q313 542 294 561T241 581Q206 581 185 561T164 506V490Q164 479 152 479L35 484Q23 484 23 495V506Q23 566 51
612T129 684T245 710Q341 710 398 657T456 515Q456 471 442 440T408 388T357 344Q324 319 309 301T294 257V234Q294 229 291 226T282 222H166Q161 222 158 225ZM196 -2T173 21T149 78Q149 111 173 134T230 158Q263 158 287 135T312 78Q312 45 288 22T230 -2Q196
-2 173 21Z" />
<glyph unicode="@" glyph-name="at" horiz-adv-x="786" d="M529 656T600 619T711 515T751 358Q751 332 748 305Q735 206 685 152T556 97Q486 97 451 137Q447 140 444 137Q409 97 341 97Q292 97 262 125T228 204Q226 226 232 285Q238 326 247 356Q261 409 293 437T373
466Q416 466 441 442Q443 441 445 441T447 444L448 450Q449 461 460 461H531Q543 461 542 448L518 269Q517 263 517 252Q517 221 530 204T568 186Q600 186 620 218T648 304Q651 328 651 350Q651 454 592 511T429 569Q355 569 291 533T184 430T133 279Q130 257 130
236Q130 165 159 113T237 34T346 7Q390 7 426 18T487 47Q490 49 495 49Q502 49 504 44L539 -6Q542 -11 542 -14Q542 -20 537 -23Q499 -50 445 -66T331 -83Q246 -83 179 -44T74 67T35 232Q35 258 38 285Q51 395 108 479T251 610T437 656Q529 656 600 619ZM381 177T394
188T413 219Q421 248 425 281Q427 301 428 318T429 343Q429 362 419 373T389 384Q371 384 357 373T338 343Q330 318 326 279Q322 251 322 229Q322 204 332 191T363 177Q381 177 394 188Z" />
<glyph unicode="A" glyph-name="A" horiz-adv-x="586" d="M417 0T414 10L391 108Q390 112 386 112H199Q195 112 194 108L171 10Q168 0 157 0H36Q23 0 26 13L206 690Q209 700 220 700H365Q376 700 379 690L560 13L561 9Q561 0 550 0H427Q417 0 414 10ZM221 224T223
223T227 221H359Q361 221 363 222T364 227L297 511Q296 515 294 515T291 511L222 227Q221 224 223 223Z" />
<glyph unicode="B" glyph-name="B" horiz-adv-x="545" d="M509 99T448 50T289 0H65Q60 0 57 3T53 12V688Q53 693 56 696T65 700H274Q381 700 440 653T499 508Q499 409 422 365Q417 362 421 359Q509 309 509 194Q509 99 448 50ZM194 579T194 574V417Q194 412 199
412H275Q315 412 338 434T361 495Q361 535 339 557T275 579H199Q194 579 194 574ZM323 122T345 145T368 212Q368 255 346 279T283 304H199Q194 304 194 299V127Q194 122 199 122H283Q323 122 345 145Z" />
<glyph unicode="C" glyph-name="C" horiz-adv-x="536" d="M202 -8T150 19T70 96T41 212V490Q41 555 69 604T150 681T270 708Q338 708 390 682T470 607T499 495V490Q499 485 496 481T487 477L370 472Q358 472 358 483V496Q358 537 334 562T270 587Q230 587 206
562T182 496V203Q182 162 206 138T270 113Q310 113 334 137T358 203V216Q358 227 370 227L487 222Q499 222 499 215V207Q499 143 471 94T390 19T270 -8Q202 -8 150 19Z" />
<glyph unicode="D" glyph-name="D" horiz-adv-x="547" d="M60 0T57 3T53 12V688Q53 693 56 696T65 700H280Q347 700 398 675T478 604T506 497V203Q506 142 478 96T399 25T280 0H65Q60 0 57 3ZM194 121T199 121L281 122Q318 122 341 148T365 219V481Q365 526 342
552T281 579H199Q194 579 194 574V126Q194 121 199 121Z" />
<glyph unicode="E" glyph-name="E" horiz-adv-x="511" d="M479 586T476 583T467 579H199Q194 579 194 574V418Q194 413 199 413H366Q371 413 374 410T378 401V304Q378 299 375 296T366 292H199Q194 292 194 287V126Q194 121 199 121H467Q472 121 475 118T479 109V12Q479
7 476 4T467 0H65Q60 0 57 3T53 12V688Q53 693 56 696T65 700H467Q472 700 475 697T479 688V591Q479 586 476 583Z" />
<glyph unicode="F" glyph-name="F" horiz-adv-x="490" d="M478 586T475 583T466 579H199Q194 579 194 574V418Q194 413 199 413H365Q370 413 373 410T377 401V304Q377 299 374 296T365 292H199Q194 292 194 287V12Q194 7 191 4T182 0H65Q60 0 57 3T53 12V688Q53
693 56 696T65 700H466Q471 700 474 697T478 688V591Q478 586 475 583Z" />
<glyph unicode="G" glyph-name="G" horiz-adv-x="535" d="M202 -8T150 19T70 95T41 210V491Q41 556 69 605T150 681T270 708Q337 708 389 682T470 608T499 500V478Q499 473 496 470T487 466H370Q365 466 362 469T358 478V499Q358 537 334 562T270 587Q230 587
206 561T181 493V207Q181 165 206 139T273 113Q312 113 335 136T359 199V261Q359 266 354 266H276Q271 266 268 269T264 278V369Q264 374 267 377T276 381H487Q492 381 495 378T499 369V210Q499 110 437 51T270 -8Q202 -8 150 19Z" />
<glyph unicode="H" glyph-name="H" horiz-adv-x="554" d="M364 693T367 696T376 700H493Q498 700 501 697T505 688V12Q505 7 502 4T493 0H376Q371 0 368 3T364 12V286Q364 291 359 291H199Q194 291 194 286V12Q194 7 191 4T182 0H65Q60 0 57 3T53 12V688Q53 693
56 696T65 700H182Q187 700 190 697T194 688V418Q194 413 199 413H359Q364 413 364 418V688Q364 693 367 696Z" />
<glyph unicode="I" glyph-name="I" horiz-adv-x="246" d="M60 0T57 3T53 12V688Q53 693 56 696T65 700H182Q187 700 190 697T194 688V12Q194 7 191 4T182 0H65Q60 0 57 3Z" />
<glyph unicode="J" glyph-name="J" horiz-adv-x="521" d="M175 -8T124 18T45 91T16 200V254Q16 259 19 262T28 266H145Q150 266 153 263T157 254V199Q157 161 180 137T242 113Q280 113 304 137T328 199V688Q328 693 331 696T340 700H456Q461 700 464 697T468 688V200Q468
138 440 91T360 18T242 -8Q175 -8 124 18Z" />
<glyph unicode="K" glyph-name="K" horiz-adv-x="558" d="M60 0T57 3T53 12V688Q53 693 56 696T65 700H182Q187 700 190 697T194 688V422Q194 419 196 418T200 420L379 692Q384 700 393 700H522Q529 700 531 696T530 686L345 399Q344 396 345 392L541 14Q543 10
543 8Q543 0 532 0H404Q395 0 390 9L248 283Q247 286 245 286T241 283L196 218Q194 214 194 212V12Q194 7 191 4T182 0H65Q60 0 57 3Z" />
<glyph unicode="L" glyph-name="L" horiz-adv-x="499" d="M60 0T57 3T53 12V688Q53 693 56 696T65 700H182Q187 700 190 697T194 688V126Q194 121 199 121H467Q472 121 475 118T479 109V12Q479 7 476 4T467 0H65Q60 0 57 3Z" />
<glyph unicode="M" glyph-name="M" horiz-adv-x="624" d="M60 0T57 3T53 12V688Q53 693 56 696T65 700H180Q190 700 195 692L309 483Q312 479 315 483L430 692Q435 700 445 700H560Q565 700 568 697T572 688V12Q572 7 569 4T560 0H443Q438 0 435 3T431 12V446Q431
450 429 450T425 447L344 299Q339 291 329 291H295Q284 291 280 299L200 448Q198 451 196 451T194 446V12Q194 7 191 4T182 0H65Q60 0 57 3Z" />
<glyph unicode="N" glyph-name="N" horiz-adv-x="586" d="M60 0T57 3T53 12V688Q53 693 56 696T65 700H183Q193 700 197 691L389 292Q391 289 393 289T395 294L394 688Q394 693 397 696T406 700H522Q527 700 530 697T534 688V12Q534 7 531 4T522 0H403Q394 0 389
9L197 411Q195 414 193 414T191 409L193 12Q193 7 190 4T181 0H65Q60 0 57 3Z" />
<glyph unicode="O" glyph-name="O" horiz-adv-x="547" d="M204 -9T152 19T70 98T41 217V483Q41 550 70 601T151 680T273 708Q342 708 395 680T477 601T506 483V217Q506 149 477 98T395 19T273 -9Q204 -9 152 19ZM315 112T340 139T365 211V487Q365 532 340 559T273
587Q232 587 207 560T182 487V211Q182 167 207 140T273 112Q315 112 340 139Z" />
<glyph unicode="P" glyph-name="P" horiz-adv-x="531" d="M364 701T410 674T482 598T508 486Q508 424 483 377T411 303T304 277H196Q191 277 191 272V12Q191 7 188 4T179 0H62Q57 0 54 3T50 12V689Q50 694 53 697T62 701H304Q364 701 410 674ZM320 389T343 414T367
483Q367 527 344 553T281 579H196Q191 579 191 574V394Q191 389 196 389H281Q320 389 343 414Z" />
<glyph unicode="Q" glyph-name="Q" horiz-adv-x="527" d="M330 708T381 680T461 600T490 480V215Q490 135 450 79T338 2Q334 1 334 -3V-86Q334 -91 331 -94T322 -98H205Q200 -98 197 -95T193 -86V-3Q193 1 189 2Q119 22 79 78T38 215V480Q38 548 66 599T145 679T263
708Q330 708 381 680ZM349 491Q349 534 326 560T263 587Q226 587 203 561T179 491V209Q179 166 202 140T263 113Q302 113 325 139T349 209V491Z" />
<glyph unicode="R" glyph-name="R" horiz-adv-x="543" d="M371 0T368 10L267 286Q265 290 262 290H199Q194 290 194 285V12Q194 7 191 4T182 0H65Q60 0 57 3T53 12V689Q53 694 56 697T65 701H309Q368 701 414 675T485 600T510 490Q510 426 482 379T402 308Q398
306 400 301L514 14Q515 12 515 9Q515 0 504 0H382Q371 0 368 10ZM194 579T194 574V404Q194 399 199 399H286Q323 399 346 423T369 488Q369 530 346 554T286 579H199Q194 579 194 574Z" />
<glyph unicode="S" glyph-name="S" horiz-adv-x="520" d="M195 -8T144 16T64 85T36 188V215Q36 220 39 223T48 227H163Q168 227 171 224T175 215V195Q175 160 201 137T269 113Q308 113 328 133T349 184Q349 207 336 223T300 254T227 294Q167 324 129 350T64 417T37
516Q37 604 97 656T255 708Q322 708 374 683T455 611T484 505V485Q484 480 481 477T472 473H357Q352 473 349 476T345 485V503Q345 539 320 563T253 587Q217 587 197 569T176 517Q176 494 188 477T225 445T300 404L322 392Q380 359 412 336T467 277T489 190Q489
100 427 46T263 -8Q195 -8 144 16Z" />
<glyph unicode="T" glyph-name="T" horiz-adv-x="526" d="M493 700T496 697T500 688V590Q500 585 497 582T488 578H336Q331 578 331 573V12Q331 7 328 4T319 0H202Q197 0 194 3T190 12V573Q190 578 185 578H38Q33 578 30 581T26 590V688Q26 693 29 696T38 700H488Q493
700 496 697Z" />
<glyph unicode="U" glyph-name="U" horiz-adv-x="554" d="M209 -8T157 20T77 98T48 215V688Q48 693 51 696T60 700H177Q182 700 185 697T189 688V208Q189 165 213 139T277 113Q317 113 341 139T365 208V688Q365 693 368 696T377 700H494Q499 700 502 697T506 688V215Q506
149 478 99T397 20T277 -8Q209 -8 157 20Z" />
<glyph unicode="V" glyph-name="V" horiz-adv-x="555" d="M202 0T199 10L25 687V691Q25 700 36 700H163Q174 700 176 689L277 224Q278 220 280 220T283 224L383 689Q385 700 396 700H519Q533 700 530 687L354 10Q351 0 340 0H213Q202 0 199 10Z" />
<glyph unicode="W" glyph-name="W" horiz-adv-x="776" d="M179 0T176 10L19 687V691Q19 700 30 700H153Q165 700 166 689L242 305Q243 302 245 302T248 305L321 689Q322 700 334 700H445Q456 700 458 689L538 305Q539 302 541 302T544 305L615 689Q616 700 628
700H747Q760 700 757 687L611 11Q609 0 598 0H485Q474 0 472 11L391 413Q390 416 388 416T385 413L311 11Q310 0 298 0H189Q179 0 176 10Z" />
<glyph unicode="X" glyph-name="X" horiz-adv-x="553" d="M31 0T29 3T29 14L194 347Q195 350 194 353L29 686Q27 690 27 692Q27 700 38 700H161Q171 700 175 691L274 480Q277 474 280 480L378 691Q382 700 392 700H515Q522 700 524 697T524 686L360 353Q359 350
360 347L524 14Q526 10 526 8Q526 0 515 0H393Q383 0 379 9L280 219Q277 225 274 219L175 9Q171 0 161 0H38Q31 0 29 3Z" />
<glyph unicode="Y" glyph-name="Y" horiz-adv-x="546" d="M209 1T206 4T202 13V269L201 275L28 686Q27 688 27 692Q27 700 37 700H163Q174 700 177 690L270 437Q271 434 273 434T276 437L369 690Q372 700 383 700H509Q516 700 518 696T518 686L344 275L343 269V13Q343
8 340 5T331 1H214Q209 1 206 4Z" />
<glyph unicode="Z" glyph-name="Z" horiz-adv-x="485" d="M33 0T30 3T26 12V117Q26 125 30 132L298 573Q301 579 295 579H38Q33 579 30 582T26 591V688Q26 693 29 696T38 700H442Q447 700 450 697T454 688V583Q454 575 450 568L182 127Q179 121 185 121H442Q447
121 450 118T454 109V12Q454 7 451 4T442 0H38Q33 0 30 3Z" />
<glyph unicode="[" glyph-name="bracketleft" horiz-adv-x="381" d="M38 -147T35 -144T31 -135V788Q31 793 34 796T43 800H264Q269 800 272 797T276 788V691Q276 686 273 683T264 679H177Q172 679 172 674V-20Q172 -25 177 -25H265Q270 -25 273 -28T277 -37V-135Q277
-140 274 -143T265 -147H43Q38 -147 35 -144Z" />
<glyph unicode="\" glyph-name="backslash" horiz-adv-x="420" d="M400 12T400 9Q400 0 389 0H273Q263 0 260 10L22 686Q21 688 21 691Q21 700 32 700H147Q157 700 160 690L399 14Q400 12 400 9Z" />
<glyph unicode="]" glyph-name="bracketright" horiz-adv-x="381" d="M350 -140T347 -143T338 -147H116Q111 -147 108 -144T104 -135V-37Q104 -32 107 -29T116 -25H204Q209 -25 209 -20V674Q209 679 204 679H117Q112 679 109 682T105 691V788Q105 793 108 796T117
800H338Q343 800 346 797T350 788V-135Q350 -140 347 -143Z" />
<glyph unicode="^" glyph-name="asciicircum" horiz-adv-x="448" d="M34 298T32 301T31 312L161 690Q164 700 174 700H272Q282 700 285 690L416 312Q417 310 417 307Q417 298 406 298H312Q302 298 299 308L227 545Q226 549 224 549T221 545L149 308Q146 298 136
298H40Q34 298 32 301Z" />
<glyph unicode="_" glyph-name="underscore" horiz-adv-x="472" d="M23 0T20 3T16 12V95Q16 100 19 103T28 107H444Q449 107 452 104T456 95V12Q456 7 453 4T444 0H28Q23 0 20 3Z" />
<glyph unicode="`" glyph-name="grave" horiz-adv-x="239" d="M217 582Q217 574 206 574H114Q105 574 100 581L27 682Q24 687 24 690Q24 697 34 697H143Q153 697 158 689L215 588L217 582Z" />
<glyph unicode="a" glyph-name="a" horiz-adv-x="486" d="M301 522T348 501T421 441T448 353V12Q448 7 445 4T436 0H319Q314 0 311 3T307 12V39Q307 42 305 43T301 41Q261 -8 181 -8Q114 -8 69 27T24 144Q24 307 228 307H302Q307 307 307 312V335Q307 365 290
383T241 401Q218 401 202 390T182 360Q179 350 168 350L47 357Q42 357 39 360T36 368Q41 437 97 479T240 522Q301 522 348 501ZM259 99T283 118T307 168V210Q307 215 302 215H245Q209 215 188 199T167 153Q167 127 183 113T225 99Q259 99 283 118Z" />
<glyph unicode="b" glyph-name="b" horiz-adv-x="501" d="M466 316T466 262Q466 199 455 151Q422 -8 299 -8Q230 -8 193 35Q191 38 189 37T187 33V12Q187 7 184 4T175 0H58Q53 0 50 3T46 12V688Q46 693 49 696T58 700H175Q180 700 183 697T187 688V482Q187 479
189 478T193 480Q212 503 237 512T297 522Q426 522 457 367Q466 316 466 262ZM324 207T324 258Q324 318 315 347Q299 401 254 401Q231 401 216 387T196 346Q188 316 188 258Q188 200 195 171Q208 113 255 113Q302 113 317 172Q324 207 324 258Z" />
<glyph unicode="c" glyph-name="c" horiz-adv-x="486" d="M165 -8T111 34T43 151Q35 192 35 259Q35 309 43 365Q56 437 111 479T249 522Q330 522 385 481T454 373Q456 364 458 344Q458 333 446 331L331 320H329Q320 320 318 331Q318 338 317 341Q315 349 313 355Q307
375 290 388T248 401Q221 401 204 385T182 341Q176 308 176 258Q176 203 183 172Q188 145 204 129T248 113Q277 113 294 129T315 169L317 181Q318 186 321 189T330 192L446 182Q457 180 457 169Q457 163 455 149Q445 76 390 34T249 -8Q165 -8 111 34Z" />
<glyph unicode="d" glyph-name="d" horiz-adv-x="501" d="M314 693T317 696T326 700H443Q448 700 451 697T455 688V12Q455 7 452 4T443 0H326Q321 0 318 3T314 12V33Q314 36 312 37T308 35Q271 -8 202 -8Q79 -8 46 151Q35 199 35 262Q35 316 44 367Q75 522 204
522Q239 522 264 513T308 480Q310 477 312 478T314 482V688Q314 693 317 696ZM313 200T313 258Q313 316 305 346Q300 372 285 386T247 401Q202 401 186 347Q177 318 177 258Q177 207 184 172Q199 113 246 113Q293 113 306 171Q313 200 313 258Z" />
<glyph unicode="e" glyph-name="e" horiz-adv-x="492" d="M286 113T304 126T332 160Q337 171 347 168L442 148Q454 145 451 133Q431 67 380 30T252 -8Q173 -8 120 32T51 140Q37 190 37 265Q37 315 41 347Q51 429 104 476T248 523Q344 523 395 473T456 329Q461
276 461 226Q461 214 449 214H183Q178 214 178 209Q178 188 181 173Q186 145 207 129T259 112Q286 113 304 126ZM193 401T182 343Q180 333 178 307Q178 302 183 302H313Q318 302 318 307Q318 319 314 341Q310 369 293 385T247 401Q193 401 182 343Z" />
<glyph unicode="f" glyph-name="f" horiz-adv-x="342" d="M310 514T313 511T317 502V417Q317 412 314 409T305 405H229Q224 405 224 400V12Q224 7 221 4T212 0H95Q90 0 87 3T83 12V400Q83 405 78 405H34Q29 405 26 408T22 417V502Q22 507 25 510T34 514H78Q83
514 83 519V544Q83 605 103 640T165 689T278 701H298Q303 701 306 698T310 689V609Q310 604 307 601T298 597H280Q250 596 237 582T224 534V519Q224 514 229 514H305Q310 514 313 511Z" />
<glyph unicode="g" glyph-name="g" horiz-adv-x="498" d="M316 507T319 510T328 514H445Q450 514 453 511T457 502V35Q457 -85 391 -143T200 -202Q173 -202 143 -199Q131 -198 131 -186L134 -85Q134 -74 147 -74Q162 -76 189 -76Q256 -76 286 -48T316 43V43Q316
46 314 47T310 45Q273 2 208 2Q143 2 98 40T41 153Q34 179 34 259Q34 339 43 371Q54 442 96 482T205 522Q271 522 310 477Q312 474 314 475T316 479V502Q316 507 319 510ZM316 209T316 259Q316 310 312 342Q307 369 290 385T247 401Q222 401 205 385T182 342Q176
306 176 259Q176 215 181 178Q186 151 203 135T248 119Q274 119 291 135T312 177Q316 209 316 259Z" />
<glyph unicode="h" glyph-name="h" horiz-adv-x="497" d="M372 522T413 476T455 346V12Q455 7 452 4T443 0H326Q321 0 318 3T314 12V326Q314 361 297 381T251 401Q221 401 204 381T186 325V12Q186 7 183 4T174 0H57Q52 0 49 3T45 12V688Q45 693 48 696T57 700H174Q179
700 182 697T186 688V475Q186 472 188 472T193 474Q230 522 299 522Q372 522 413 476Z" />
<glyph unicode="i" glyph-name="i" horiz-adv-x="244" d="M85 563T62 586T38 647Q38 684 61 707T122 730Q159 730 182 707T206 647Q206 610 183 587T122 563Q85 563 62 586ZM58 0T55 3T51 12V502Q51 507 54 510T63 514H180Q185 514 188 511T192 502V12Q192 7 189
4T180 0H63Q58 0 55 3Z" />
<glyph unicode="j" glyph-name="j" horiz-adv-x="234" d="M82 562T59 586T35 646Q35 681 60 705T119 729Q152 729 177 705T203 646Q203 610 179 586T119 562Q82 562 59 586ZM-58 -204T-58 -192V-96Q-58 -83 -45 -85Q7 -86 27 -66T48 -1V502Q48 507 51 510T60 514H177Q182
514 185 511T189 502V0Q189 -77 171 -120T103 -184T-46 -204Q-58 -204 -58 -192Z" />
<glyph unicode="k" glyph-name="k" horiz-adv-x="491" d="M52 0T49 3T45 12V688Q45 693 48 696T57 700H174Q179 700 182 697T186 688V354Q186 351 188 350T192 352L304 507Q309 514 318 514H445Q455 514 455 507Q455 504 452 499L334 335Q332 332 334 328L470
14Q471 12 471 8Q471 0 461 0H338Q327 0 324 10L243 225Q242 228 240 228T236 226L188 160Q186 156 186 154V12Q186 7 183 4T174 0H57Q52 0 49 3Z" />
<glyph unicode="l" glyph-name="l" horiz-adv-x="229" d="M51 0T48 3T44 12V688Q44 693 47 696T56 700H173Q178 700 181 697T185 688V12Q185 7 182 4T173 0H56Q51 0 48 3Z" />
<glyph unicode="m" glyph-name="m" horiz-adv-x="755" d="M637 522T675 476T714 345V12Q714 7 711 4T702 0H586Q581 0 578 3T574 12V325Q574 360 558 380T513 401Q484 401 467 381T450 326V12Q450 7 447 4T438 0H322Q317 0 314 3T310 12V325Q310 360 293 380T248
401Q219 401 202 381T185 326V12Q185 7 182 4T173 0H57Q52 0 49 3T45 12V502Q45 507 48 510T57 514H173Q178 514 181 511T185 502V476Q185 473 187 472T191 474Q212 499 240 510T300 522Q345 522 377 504T428 450Q429 448 431 448T435 452Q457 489 491 505T564
522Q637 522 675 476Z" />
<glyph unicode="n" glyph-name="n" horiz-adv-x="497" d="M372 522T413 476T455 346V12Q455 7 452 4T443 0H326Q321 0 318 3T314 12V326Q314 361 297 381T251 401Q221 401 204 381T186 325V12Q186 7 183 4T174 0H57Q52 0 49 3T45 12V502Q45 507 48 510T57 514H174Q179
514 182 511T186 502V475Q186 472 188 472T193 474Q230 522 299 522Q372 522 413 476Z" />
<glyph unicode="o" glyph-name="o" horiz-adv-x="500" d="M163 -8T108 36T42 158Q35 207 35 258Q35 320 42 359Q54 434 109 478T251 522Q336 522 391 478T457 360Q465 314 465 259Q465 209 458 160Q447 81 392 37T250 -8Q163 -8 108 36ZM278 113T296 131T319 179Q323
211 323 258Q323 305 319 336Q314 366 296 383T250 401Q222 401 204 384T181 336Q176 298 176 258Q176 227 180 179Q185 149 204 131T250 113Q278 113 296 131Z" />
<glyph unicode="p" glyph-name="p" horiz-adv-x="504" d="M469 315T469 252Q469 198 460 147Q429 -8 300 -8Q265 -8 240 1T196 34Q194 37 192 36T190 32V-174Q190 -179 187 -182T178 -186H61Q56 -186 53 -183T49 -174V502Q49 507 52 510T61 514H178Q183 514 186
511T190 502V481Q190 478 192 477T196 479Q233 522 302 522Q425 522 458 363Q469 315 469 252ZM327 196T327 256Q327 307 320 342Q305 401 258 401Q211 401 198 343Q191 314 191 256Q191 198 199 168Q204 142 219 128T257 113Q302 113 318 167Q327 196 327 256Z"
/>
<glyph unicode="q" glyph-name="q" horiz-adv-x="504" d="M314 507T317 510T326 514H443Q448 514 451 511T455 502V-174Q455 -179 452 -182T443 -186H326Q321 -186 318 -183T314 -174V32Q314 35 312 36T308 34Q289 11 264 2T204 -8Q75 -8 44 147Q35 198 35 252Q35
315 46 363Q79 522 202 522Q271 522 308 479Q310 476 312 477T314 481V502Q314 507 317 510ZM313 198T313 256Q313 314 306 343Q293 401 246 401Q199 401 184 342Q177 307 177 256Q177 196 186 167Q202 113 247 113Q270 113 285 127T305 168Q313 198 313 256Z"
/>
<glyph unicode="r" glyph-name="r" horiz-adv-x="354" d="M317 521T337 509Q345 504 343 494L324 378Q323 366 310 371Q294 375 280 375Q268 375 254 372Q225 368 206 344T186 286V12Q186 7 183 4T174 0H57Q52 0 49 3T45 12V502Q45 507 48 510T57 514H174Q179
514 182 511T186 502V463Q186 459 187 459T191 461Q226 521 288 521Q317 521 337 509Z" />
<glyph unicode="s" glyph-name="s" horiz-adv-x="457" d="M141 -7T86 34T30 142V150Q30 155 33 158T42 162H153Q158 162 161 160T165 155V148Q165 126 184 112T233 98Q260 98 276 110T293 142Q293 161 275 171T218 194Q189 202 170 210Q110 230 73 264T35 362Q35
435 88 478T228 521Q318 521 371 477T425 358Q425 347 413 347H306Q301 347 298 349T294 355V362Q294 383 277 397T230 411Q203 411 187 398T170 366Q170 345 190 334T251 310Q260 307 268 305T284 299Q352 276 393 244T434 147Q434 75 380 34T234 -7Q141 -7 86
34Z" />
<glyph unicode="t" glyph-name="t" horiz-adv-x="335" d="M310 415T307 412T298 408H221Q216 408 216 403V180Q216 149 228 136T267 123H287Q292 123 295 120T299 111V14Q299 2 287 2Q270 1 237 1Q158 1 120 27T81 125V403Q81 408 76 408H30Q25 408 22 411T18
420V502Q18 507 21 510T30 514H76Q81 514 81 519V634Q81 639 84 642T93 646H204Q209 646 212 643T216 634V519Q216 514 221 514H298Q303 514 306 511T310 502V420Q310 415 307 412Z" />
<glyph unicode="u" glyph-name="u" horiz-adv-x="496" d="M310 507T313 510T322 514H439Q444 514 447 511T451 502V12Q451 7 448 4T439 0H322Q317 0 314 3T310 12V37Q310 40 308 40T304 39Q270 -7 197 -7Q129 -7 85 34T41 155V502Q41 507 44 510T53 514H170Q175
514 178 511T182 502V188Q182 153 198 133T245 113Q275 113 292 134T310 190V502Q310 507 313 510Z" />
<glyph unicode="v" glyph-name="v" horiz-adv-x="478" d="M162 0T159 10L20 501L19 505Q19 514 30 514H159Q170 514 172 503L236 203Q237 199 239 199T242 203L306 503Q308 514 319 514L448 513Q461 513 458 500L319 10Q316 0 305 0H173Q162 0 159 10Z" />
<glyph unicode="w" glyph-name="w" horiz-adv-x="698" d="M148 0T145 10L19 501V505Q19 514 30 514H146Q158 514 159 503L216 204Q217 201 219 201T222 204L282 503Q284 514 295 514H398Q409 514 411 503L474 204Q475 200 477 200T480 204L540 503Q542 514 553
514L668 513Q682 513 679 500L553 10Q550 0 539 0H422Q412 0 409 10L348 272Q347 276 345 276T342 272L287 11Q285 0 274 0H159Q148 0 145 10Z" />
<glyph unicode="x" glyph-name="x" horiz-adv-x="488" d="M22 0T19 4T20 14L158 254Q160 257 158 260L20 500L18 506Q18 514 29 514H155Q165 514 170 506L239 380Q242 376 245 380L314 506Q319 514 329 514H459Q466 514 469 510T468 500L330 260Q329 257 330 254L468
14L470 8Q470 0 459 0H334Q324 0 319 8L249 136Q246 141 243 136L174 8Q170 0 159 0H29Q22 0 19 4Z" />
<glyph unicode="y" glyph-name="y" horiz-adv-x="463" d="M41 -199T39 -196T37 -187V-95Q37 -90 39 -87T43 -83H48Q104 -83 128 -67T161 -3L160 3L16 500L15 504Q15 514 26 514H151Q162 514 164 503L230 202Q231 198 233 198T236 202L298 503Q300 514 311 514H437Q443
514 446 510T447 500L295 -19Q273 -92 249 -128T179 -182T50 -199H44Q41 -199 39 -196Z" />
<glyph unicode="z" glyph-name="z" horiz-adv-x="416" d="M28 0T25 3T21 12V120Q21 128 26 135L216 381Q218 383 217 385T213 387H39Q34 387 31 390T27 399V502Q27 507 30 510T39 514H377Q382 514 385 511T389 502V395Q389 387 384 380L187 134Q185 132 186 130T190
128H382Q387 128 390 125T394 116V12Q394 7 391 4T382 0H33Q28 0 25 3Z" />
<glyph unicode="{" glyph-name="braceleft" horiz-adv-x="360" d="M168 -147T135 -115T102 -23V184Q102 266 43 273Q31 275 31 286V373Q31 385 43 386Q73 390 87 411T102 474V677Q102 737 134 768T229 800H317Q322 800 325 797T329 788V691Q329 686 326 683T317
679H294Q271 679 257 662T243 616V455Q243 407 230 377T187 333Q181 330 186 327Q215 312 229 282T243 203V38Q243 9 257 -8T294 -25H317Q322 -25 325 -28T329 -37V-135Q329 -140 326 -143T317 -147H229Q168 -147 135 -115Z" />
<glyph unicode="|" glyph-name="bar" horiz-adv-x="194" d="M34 -80T31 -77T27 -68V748Q27 753 30 756T39 760H156Q161 760 164 757T168 748V-68Q168 -73 165 -76T156 -80H39Q34 -80 31 -77Z" />
<glyph unicode="}" glyph-name="braceright" horiz-adv-x="360" d="M43 -147Q38 -147 35 -144T31 -135V-37Q31 -32 34 -29T43 -25H66Q89 -25 103 -8T117 38V203Q117 251 131 281T174 327Q179 330 173 333Q144 347 131 377T117 455V616Q117 645 103 662T66 679H43Q38
679 35 682T31 691V788Q31 793 34 796T43 800H131Q193 800 225 769T258 677V474Q258 433 272 412T317 386Q329 385 329 373V286Q329 275 317 273Q258 266 258 184V-23Q258 -83 225 -115T131 -147H43Z" />
<glyph unicode="~" glyph-name="asciitilde" horiz-adv-x="512" d="M318 201T300 208T257 229Q253 232 238 240T208 254T180 259Q142 259 116 223Q109 213 100 219L35 260Q26 266 29 276Q46 321 85 350T172 380Q195 380 213 374T253 355Q260 351 276 342T305 328T332
323Q364 323 388 358Q395 368 405 362L476 318Q485 313 482 305Q482 303 480 299Q459 256 422 229T342 201Q318 201 300 208Z" />
<glyph unicode="&#xa0;" glyph-name="uni00A0" horiz-adv-x="200" />
<glyph unicode="&#xa1;" glyph-name="exclamdown" horiz-adv-x="315" d="M194 708T219 683T244 621Q244 586 217 561T156 535Q122 535 95 560T68 621Q68 658 93 683T156 708Q194 708 219 683ZM101 462T104 465T113 469H201Q206 469 209 466T213 457L228 21Q228
16 225 13T216 9H99Q94 9 91 12T87 21L101 457Q101 462 104 465Z" />
<glyph unicode="&#xa2;" glyph-name="cent" horiz-adv-x="486" d="M317 271Q318 276 321 279T330 282L446 272Q457 270 457 259Q457 253 455 239Q446 179 407 140T305 87Q300 85 300 81L303 13Q303 1 292 1H197Q186 1 186 13L189 83Q189 88 185 89Q127 103 91
142T43 241Q35 282 35 349Q35 399 43 455Q54 512 90 551T185 604Q189 605 189 610L186 681Q186 693 197 693H292Q303 693 303 681L300 612Q300 608 305 606Q364 593 404 556T454 463Q456 454 458 434Q458 423 446 421L331 410H329Q320 410 318 421Q318 428 317
431Q315 439 313 445Q307 465 290 478T248 491Q221 491 204 475T182 431Q176 398 176 348Q176 293 183 262Q188 235 204 219T248 203Q277 203 294 219T315 259L317 271Z" />
<glyph unicode="&#xa3;" glyph-name="sterling" horiz-adv-x="565" d="M237 125T238 123T242 121H527Q532 121 535 118T539 109V12Q539 7 536 4T527 0H97Q92 0 89 3T85 12V112Q85 120 92 127Q112 143 120 166T128 222V282Q128 287 123 287H65Q60 287 57 290T53
299V389Q53 394 56 397T65 401H123Q128 401 128 406V490Q128 593 184 650T337 708Q415 708 465 666T535 547L536 543Q536 535 526 533L415 517H412Q404 517 401 526Q392 558 376 572T338 587Q269 587 269 495V406Q269 401 274 401H431Q436 401 439 398T443 389V299Q443
294 440 291T431 287H274Q269 287 269 282V222Q269 162 239 127Q237 125 238 123Z" />
<glyph unicode="&#xa4;" glyph-name="currency" horiz-adv-x="570" d="M503 247T477 200Q476 196 478 193L543 128Q547 124 547 119Q547 115 543 111L470 48Q466 44 461 44Q457 44 453 48L392 108Q389 111 385 109Q337 84 282 84Q229 84 183 107Q179 109 176 106L117
48Q113 44 109 44Q104 44 100 48L27 111Q23 114 23 119Q23 124 27 128L88 189Q91 192 89 196Q61 246 61 303Q61 360 87 406Q89 411 86 413L21 478Q17 482 17 487Q17 491 21 495L94 558Q98 562 103 562Q108 562 111 558L171 498Q174 496 178 497Q225 523 282 523Q341
523 390 494Q395 493 397 495L460 558Q464 562 469 562Q474 562 477 558L549 495Q553 491 553 487Q553 482 549 478L480 409Q478 407 479 402Q503 357 503 303Q503 247 477 200ZM182 262T211 233T282 203Q323 203 352 232T382 303Q382 345 353 374T282 404Q241
404 212 375T182 303Q182 262 211 233Z" />
<glyph unicode="&#xa5;" glyph-name="yen" horiz-adv-x="608" d="M548 700T550 696T550 686L404 341Q403 339 404 337T408 335H500Q505 335 508 332T512 323V269Q512 264 509 261T500 257H380Q375 257 375 252V208Q375 203 380 203H500Q505 203 508 200T512 191V137Q512
132 509 129T500 125H380Q375 125 375 120V13Q375 8 372 5T363 1H246Q241 1 238 4T234 13V120Q234 125 229 125H109Q104 125 101 128T97 137V191Q97 196 100 199T109 203H229Q234 203 234 208V252Q234 257 229 257H109Q104 257 101 260T97 269V323Q97 328 100 331T109
335H202Q204 335 205 337T206 341L60 686Q59 688 59 692Q59 700 69 700H195Q206 700 209 690L302 437Q303 434 305 434T308 437L401 690Q404 700 415 700H541Q548 700 550 696Z" />
<glyph unicode="&#xa6;" glyph-name="brokenbar" horiz-adv-x="194" d="M34 394T31 397T27 406V748Q27 753 30 756T39 760H156Q161 760 164 757T168 748V406Q168 401 165 398T156 394H39Q34 394 31 397ZM34 -80T31 -77T27 -68V273Q27 278 30 281T39 285H156Q161
285 164 282T168 273V-68Q168 -73 165 -76T156 -80H39Q34 -80 31 -77Z" />
<glyph unicode="&#xa7;" glyph-name="section" horiz-adv-x="469" d="M146 -205T95 -160T41 -39L40 -12Q40 -7 43 -4T52 0H169Q181 0 181 -11V-22Q181 -50 196 -67T237 -85Q261 -85 277 -69T293 -28Q293 3 266 22T177 68Q130 89 102 110T56 163Q37 197 37 244Q37
299 65 339Q86 369 122 387Q124 389 124 391T122 394Q37 450 37 538Q37 585 62 624T133 685T236 708Q292 708 336 686T406 625T431 535V517Q431 512 428 509T419 505H302Q297 505 294 508T290 515V524Q290 552 275 569T234 587Q210 587 195 570T179 527Q179 496
202 477T278 437Q323 418 352 401T403 360Q437 319 437 261Q437 209 413 170Q391 128 351 111Q348 110 348 109T350 105Q392 78 413 45T434 -36Q434 -113 378 -159T233 -205Q146 -205 95 -160ZM271 185T286 211Q296 225 296 251Q296 277 283 295Q267 316 237 316Q221
316 208 309T188 289Q178 273 178 250Q178 225 189 210Q196 198 208 192T237 185Q271 185 286 211Z" />
<glyph unicode="&#xa8;" glyph-name="dieresis" horiz-adv-x="352" d="M55 569T36 589T16 640Q16 672 35 691T87 711Q118 711 136 692T155 640Q155 608 137 589T87 569Q55 569 36 589ZM235 569T216 589T196 640Q196 671 215 691T266 711Q297 711 316 692T336 640Q336
608 317 589T266 569Q235 569 216 589Z" />
<glyph unicode="&#xa9;" glyph-name="copyright" horiz-adv-x="804" d="M299 -8T217 39T88 168T41 353Q41 453 88 534T217 661T401 708Q504 708 586 662T716 534T763 353Q763 250 716 168T587 39T401 -8Q299 -8 217 39ZM481 70T546 106T647 208T684 353Q684 431
648 494T546 594T401 630Q321 630 257 594T157 495T120 353Q120 273 156 208T257 107T401 70Q481 70 546 106ZM353 177T323 205T292 282V419Q292 467 322 495T403 523Q454 523 484 496T515 422Q515 418 512 415T503 412L453 410Q441 410 441 416V423Q441 440 431
450T403 460Q387 460 377 450T367 423V277Q367 261 377 251T403 241Q420 241 430 251T441 277V279Q441 284 444 287T453 291L503 289Q515 289 515 284V279Q515 233 484 205T403 177Q353 177 323 205Z" />
<glyph unicode="&#xaa;" glyph-name="ordfeminine" horiz-adv-x="310" d="M194 566Q199 566 199 571V586Q199 608 186 622T150 636Q134 636 122 629T106 609Q103 598 93 599L32 603Q20 605 21 616Q25 656 61 682T149 708Q208 708 245 677T283 597V376Q283 371
280 368T271 364H211Q206 364 203 367T199 376V380Q199 383 197 384T193 383Q168 359 124 359Q76 359 45 382T13 459Q13 514 49 540T149 566H194ZM165 426T182 439T199 474V496Q199 501 194 501H155Q97 501 97 462Q97 426 140 426Q165 426 182 439ZM12 306T15 309T24
313H279Q284 313 287 310T291 301V252Q291 247 288 244T279 240H24Q19 240 16 243T12 252V301Q12 306 15 309Z" />
<glyph unicode="&#xab;" glyph-name="guillemotleft" horiz-adv-x="484" d="M261 115Q261 107 250 107H154Q144 107 139 115L51 273Q49 279 49 281Q49 285 51 289L139 447Q144 455 154 455H250Q257 455 260 451T259 441L168 284Q167 281 168 278L259 121L261 115ZM428
115Q428 107 417 107H321Q311 107 306 115L218 273Q216 279 216 281Q216 285 218 289L306 447Q311 455 321 455H417Q424 455 427 451T426 441L335 284Q334 281 335 278L426 121L428 115Z" />
<glyph unicode="&#xac;" glyph-name="logicalnot" horiz-adv-x="462" d="M429 361T432 358T436 349V255V248H435V158Q435 153 432 150T423 146H334Q329 146 326 149T322 158V243Q322 248 317 248H38Q33 248 30 251T26 260V349Q26 354 29 357T38 361H424Q429 361 432 358Z" />
<glyph unicode="&#xad;" glyph-name="uni00AD" horiz-adv-x="370" d="M33 235T30 238T26 247V344Q26 349 29 352T38 356H332Q337 356 340 353T344 344V247Q344 242 341 239T332 235H38Q33 235 30 238Z" />
<glyph unicode="&#xae;" glyph-name="registered" horiz-adv-x="439" d="M277 710T323 684T396 613T423 512Q423 454 397 407T324 334T220 307Q163 307 116 333T43 407T16 512Q16 568 42 613T116 684T220 710Q277 710 323 684ZM283 362T325 404T367 512Q367 552
348 585T295 637T220 656Q179 656 145 637T92 585T73 512Q73 447 115 405T220 362Q283 362 325 404ZM291 511T267 497Q263 496 265 491L285 432Q286 430 286 427Q286 418 275 418H251Q241 418 238 428L219 484Q217 488 214 488H212Q207 488 207 483V430Q207 425
204 422T195 418H172Q167 418 164 421T160 430V591Q160 596 163 599T172 603H232Q258 603 274 586T291 544Q291 511 267 497ZM207 563T207 558V528Q207 523 212 523H225Q233 523 238 529T244 543Q244 552 239 557T225 563H212Q207 563 207 558Z" />
<glyph unicode="&#xaf;" glyph-name="overscore" horiz-adv-x="315" d="M36 580T33 583T29 592V663Q29 668 32 671T41 675H274Q279 675 282 672T286 663V592Q286 587 283 584T274 580H41Q36 580 33 583Z" />
<glyph unicode="&#xb0;" glyph-name="degree" horiz-adv-x="367" d="M137 471T99 493T39 555T16 640Q16 686 38 724T99 785T183 808Q229 808 267 786T328 725T351 640Q351 594 329 555T268 494T183 471Q137 471 99 493ZM215 564T236 586T258 640Q258 673 237 695T183
717Q152 717 130 695T108 640Q108 608 130 586T183 564Q215 564 236 586Z" />
<glyph unicode="&#xb1;" glyph-name="plusminus" horiz-adv-x="462" d="M429 448T432 445T436 436V347Q436 342 433 339T424 335H293Q288 335 288 330V200Q288 195 285 192T276 188H186Q181 188 178 191T174 200V330Q174 335 169 335H38Q33 335 30 338T26 347V436Q26
441 29 444T38 448H169Q174 448 174 453V585Q174 590 177 593T186 597H276Q281 597 284 594T288 585V453Q288 448 293 448H424Q429 448 432 445ZM33 5T30 8T26 17V106Q26 111 29 114T38 118H424Q429 118 432 115T436 106V17Q436 12 433 9T424 5H38Q33 5 30 8Z"
/>
<glyph unicode="&#xb2;" glyph-name="uni00B2" horiz-adv-x="305" d="M30 416T27 419T23 428V485Q23 494 29 500Q97 576 147 636Q190 691 190 721Q190 740 179 751T151 763Q134 763 123 752T112 722V707Q112 702 109 699T100 695H32Q27 695 24 698T20 707V731Q23
782 59 811T152 841Q211 841 246 809T282 719Q282 692 273 667T243 613Q218 579 150 500Q148 498 149 496T153 494H276Q281 494 284 491T288 482V428Q288 423 285 420T276 416H35Q30 416 27 419Z" />
<glyph unicode="&#xb3;" glyph-name="uni00B3" horiz-adv-x="303" d="M283 585T283 551Q283 523 277 500Q266 457 235 434T155 410Q106 410 73 435T30 504Q26 520 24 540Q24 552 36 552H103Q115 552 116 540Q116 530 119 521Q123 506 132 498T155 489Q180 489
189 514Q195 531 195 557Q195 587 188 604Q179 627 155 627Q144 627 134 620Q131 618 127 618Q121 618 117 622L85 659Q81 663 81 668Q81 672 85 676L165 752Q167 754 166 756T162 758H45Q40 758 37 761T33 770V823Q33 828 36 831T45 835H267Q272 835 275 832T279
823V767Q279 758 273 752L211 687Q208 682 212 681Q256 668 274 612Q283 585 283 551Z" />
<glyph unicode="&#xb4;" glyph-name="acute" horiz-adv-x="239" d="M26 574T23 578T24 588L81 689Q86 697 96 697H205Q215 697 215 690Q215 687 212 682L139 581Q134 574 125 574H33Q26 574 23 578Z" />
<glyph unicode="&#xb5;" glyph-name="uni00B5" horiz-adv-x="501" d="M314 507T317 510T326 514H443Q448 514 451 511T455 502V12Q455 7 452 4T443 0H326Q321 0 318 3T314 12V37Q314 40 312 40T308 39Q274 -7 201 -7H191Q186 -5 186 -11V-188Q186 -193 183 -196T174
-200H57Q52 -200 49 -197T45 -188V502Q45 507 48 510T57 514H174Q179 514 182 511T186 502V188Q186 153 202 133T249 113Q279 113 296 134T314 190V502Q314 507 317 510Z" />
<glyph unicode="&#xb6;" glyph-name="paragraph" horiz-adv-x="569" d="M508 700Q513 700 516 697T520 688V-188Q520 -193 517 -196T508 -200H422Q417 -200 414 -197T410 -188V588Q410 593 405 593H333Q328 593 328 588V-188Q328 -193 325 -196T316 -200H229Q224
-200 221 -197T217 -188V246Q217 250 212 252Q126 263 75 323T23 475Q23 540 50 591T127 671T244 700H508Z" />
<glyph unicode="&#xb7;" glyph-name="middot" horiz-adv-x="177" d="M302 -4T277 21T252 83Q252 118 279 143T340 169Q375 169 402 144T429 83Q429 47 404 22T340 -4Q302 -4 277 21Z" />
<glyph unicode="&#xb8;" glyph-name="cedilla" horiz-adv-x="160" d="M1 -180T3 -168L10 -120Q11 -114 14 -112T25 -112Q33 -114 37 -114Q49 -114 57 -108T67 -90Q68 -87 68 -80Q68 -49 26 -15Q21 -10 21 -6Q21 0 31 0H95Q103 0 107 -4Q110 -5 111 -8Q160 -53
160 -104Q160 -117 157 -129Q149 -163 125 -177T67 -192Q37 -192 12 -183Q1 -180 3 -168Z" />
<glyph unicode="&#xb9;" glyph-name="uni00B9" horiz-adv-x="175" d="M58 836T68 836H139Q144 836 147 833T151 824V428Q151 423 148 420T139 416H72Q67 416 64 419T60 428V751Q60 755 55 755L35 753H33Q22 753 22 765V808Q22 818 31 822L53 833Q58 836 68 836Z" />
<glyph unicode="&#xba;" glyph-name="ordmasculine" horiz-adv-x="326" d="M109 360T74 387T30 464Q23 492 23 534Q23 577 29 605Q37 653 72 680T163 708Q215 708 250 681T294 606Q301 569 301 535Q301 501 294 464Q285 415 251 388T163 360Q109 360 74 387ZM179
438T190 448T206 478Q210 501 210 534Q210 567 206 590Q202 609 190 620T162 631Q146 631 134 620T118 590Q114 567 114 534Q114 501 118 478Q121 459 133 449T163 438Q179 438 190 448ZM28 240T25 243T21 252V302Q21 307 24 310T33 314H295Q300 314 303 311T307
302V252Q307 247 304 244T295 240H33Q28 240 25 243Z" />
<glyph unicode="&#xbb;" glyph-name="guillemotright" horiz-adv-x="484" d="M63 107T60 111T61 121L152 278Q154 281 152 284L61 441L59 447Q59 455 70 455H166Q176 455 181 447L269 289Q271 287 271 281Q271 276 269 273L181 115Q176 107 166 107H70Q63 107
60 111ZM230 107T227 111T228 121L319 278Q321 281 319 284L228 441L226 447Q226 455 237 455H333Q343 455 348 447L436 289Q438 287 438 281Q438 276 436 273L348 115Q343 107 333 107H237Q230 107 227 111Z" />
<glyph unicode="&#xbc;" glyph-name="onequarter" horiz-adv-x="770" d="M58 700T68 700H139Q144 700 147 697T151 688V292Q151 287 148 284T139 280H72Q67 280 64 283T60 292V615Q60 619 55 619L35 617H33Q22 617 22 629V672Q22 682 31 686L53 697Q58 700 68
700ZM86 0T84 3T85 14L486 692Q490 700 500 700H576Q583 700 585 697T584 686L183 8Q179 0 169 0H93Q86 0 84 3ZM746 187T749 184T753 175V117Q753 112 750 109T741 105H726Q721 105 721 100V12Q721 7 718 4T709 0H642Q637 0 634 3T630 12V100Q630 105 625 105H464Q459
105 456 108T452 117V163Q452 169 455 178L544 411Q547 420 558 420H629Q644 420 639 406L559 193Q558 187 563 187H625Q630 187 630 192V250Q630 255 633 258T642 262H709Q714 262 717 259T721 250V192Q721 187 726 187H741Q746 187 749 184Z" />
<glyph unicode="&#xbd;" glyph-name="onehalf" horiz-adv-x="745" d="M58 700T68 700H139Q144 700 147 697T151 688V292Q151 287 148 284T139 280H72Q67 280 64 283T60 292V615Q60 619 55 619L35 617H33Q22 617 22 629V672Q22 682 31 686L53 697Q58 700 68 700ZM86
0T84 3T85 14L486 692Q490 700 500 700H576Q583 700 585 697T584 686L183 8Q179 0 169 0H93Q86 0 84 3ZM470 0T467 3T463 12V69Q463 78 469 84Q537 160 587 220Q630 275 630 305Q630 324 619 335T591 347Q574 347 563 336T552 306V291Q552 286 549 283T540 279H472Q467
279 464 282T460 291V315Q463 366 499 395T592 425Q651 425 686 393T722 303Q722 276 713 251T683 197Q658 163 590 84Q588 82 589 80T593 78H716Q721 78 724 75T728 66V12Q728 7 725 4T716 0H475Q470 0 467 3Z" />
<glyph unicode="&#xbe;" glyph-name="threequarters" horiz-adv-x="854" d="M283 451T283 417Q283 389 277 366Q266 323 235 300T155 276Q106 276 73 301T30 370Q26 386 24 406Q24 418 36 418H103Q115 418 116 406Q116 396 119 387Q123 372 132 364T155 355Q180
355 189 380Q195 397 195 423Q195 453 188 470Q179 493 155 493Q144 493 134 486Q131 484 127 484Q121 484 117 488L85 525Q81 529 81 534Q81 538 85 542L165 618Q167 620 166 622T162 624H45Q40 624 37 627T33 636V689Q33 694 36 697T45 701H267Q272 701 275 698T279
689V633Q279 624 273 618L211 553Q208 548 212 547Q256 534 274 478Q283 451 283 417ZM170 0T168 3T169 14L570 692Q574 700 584 700H660Q667 700 669 697T668 686L267 8Q263 0 253 0H177Q170 0 168 3ZM830 187T833 184T837 175V117Q837 112 834 109T825 105H810Q805
105 805 100V12Q805 7 802 4T793 0H726Q721 0 718 3T714 12V100Q714 105 709 105H548Q543 105 540 108T536 117V163Q536 169 539 178L628 411Q631 420 642 420H713Q728 420 723 406L643 193Q642 187 647 187H709Q714 187 714 192V250Q714 255 717 258T726 262H793Q798
262 801 259T805 250V192Q805 187 810 187H825Q830 187 833 184Z" />
<glyph unicode="&#xbf;" glyph-name="questiondown" horiz-adv-x="479" d="M283 502T306 479T330 422Q330 389 306 366T249 342Q216 342 192 365T167 422Q167 455 191 478T249 502Q283 502 306 479ZM318 278T321 275T325 266V234Q325 184 302 153T235 89Q200 62
183 41T166 -10Q166 -42 185 -61T238 -81Q274 -81 294 -61T315 -6V10Q315 21 327 21L444 16Q456 16 456 5V-6Q456 -66 428 -112T350 -184T234 -210Q138 -210 81 -157T23 -15Q23 29 37 60T71 112T122 156Q155 181 170 199T185 243V266Q185 271 188 274T197 278H313Q318
278 321 275Z" />
<glyph unicode="&#xc0;" glyph-name="Agrave" horiz-adv-x="586" d="M417 0T414 10L391 108Q390 112 386 112H199Q195 112 194 108L171 10Q168 0 157 0H36Q23 0 26 13L206 690Q209 700 220 700H365Q376 700 379 690L560 13L561 9Q561 0 550 0H427Q417 0 414 10ZM221
224T223 223T227 221H359Q361 221 363 222T364 227L297 511Q296 515 294 515T291 511L222 227Q221 224 223 223ZM348 768Q348 760 337 760H245Q236 760 231 767L158 868Q155 873 155 876Q155 883 165 883H274Q284 883 289 875L346 774L348 768Z" />
<glyph unicode="&#xc1;" glyph-name="Aacute" horiz-adv-x="586" d="M417 0T414 10L391 108Q390 112 386 112H199Q195 112 194 108L171 10Q168 0 157 0H36Q23 0 26 13L206 690Q209 700 220 700H365Q376 700 379 690L560 13L561 9Q561 0 550 0H427Q417 0 414 10ZM221
224T223 223T227 221H359Q361 221 363 222T364 227L297 511Q296 515 294 515T291 511L222 227Q221 224 223 223ZM227 760T224 764T225 774L282 875Q287 883 297 883H406Q416 883 416 876Q416 873 413 868L340 767Q335 760 326 760H234Q227 760 224 764Z" />
<glyph unicode="&#xc2;" glyph-name="Acircumflex" horiz-adv-x="586" d="M417 0T414 10L391 108Q390 112 386 112H199Q195 112 194 108L171 10Q168 0 157 0H36Q23 0 26 13L206 690Q209 700 220 700H365Q376 700 379 690L560 13L561 9Q561 0 550 0H427Q417 0 414
10ZM221 224T223 223T227 221H359Q361 221 363 222T364 227L297 511Q296 515 294 515T291 511L222 227Q221 224 223 223ZM146 757T144 761T145 772L216 876Q221 884 230 884H349Q358 884 363 876L437 772Q440 768 440 765Q440 757 429 757H344Q333 757 329 765L294
824Q291 830 288 824L253 765Q249 757 238 757H153Q146 757 144 761Z" />
<glyph unicode="&#xc3;" glyph-name="Atilde" horiz-adv-x="586" d="M417 0T414 10L391 108Q390 112 386 112H199Q195 112 194 108L171 10Q168 0 157 0H36Q23 0 26 13L206 690Q209 700 220 700H365Q376 700 379 690L560 13L561 9Q561 0 550 0H427Q417 0 414 10ZM221
224T223 223T227 221H359Q361 221 363 222T364 227L297 511Q296 515 294 515T291 511L222 227Q221 224 223 223ZM333 763T299 784Q295 786 286 791T271 799T258 802Q235 802 221 780Q214 770 204 776L162 806Q153 813 157 822Q171 857 195 874T248 892Q265 892
279 887T312 869Q327 860 336 856T356 851Q380 851 393 872Q399 883 409 876L452 847Q457 844 457 837Q457 831 453 824Q436 793 410 778T359 763Q333 763 299 784Z" />
<glyph unicode="&#xc4;" glyph-name="Adieresis" horiz-adv-x="586" d="M417 0T414 10L391 108Q390 112 386 112H199Q195 112 194 108L171 10Q168 0 157 0H36Q23 0 26 13L206 690Q209 700 220 700H365Q376 700 379 690L560 13L561 9Q561 0 550 0H427Q417 0 414
10ZM221 224T223 223T227 221H359Q361 221 363 222T364 227L297 511Q296 515 294 515T291 511L222 227Q221 224 223 223ZM172 755T153 775T133 826Q133 858 152 877T204 897Q235 897 253 878T272 826Q272 794 254 775T204 755Q172 755 153 775ZM352 755T333 775T313
826Q313 857 332 877T383 897Q414 897 433 878T453 826Q453 794 434 775T383 755Q352 755 333 775Z" />
<glyph unicode="&#xc5;" glyph-name="Aring" horiz-adv-x="586" d="M417 0T414 10L391 108Q390 112 386 112H199Q195 112 194 108L171 10Q168 0 157 0H36Q23 0 26 13L206 690Q209 700 220 700H365Q376 700 379 690L560 13L561 9Q561 0 550 0H427Q417 0 414 10ZM221
224T223 223T227 221H359Q361 221 363 222T364 227L297 511Q296 515 294 515T291 511L222 227Q221 224 223 223ZM245 747T213 779T181 858Q181 905 213 937T292 969Q339 969 371 937T403 858Q403 811 371 779T292 747Q245 747 213 779ZM312 811T325 824T339 858Q339
878 326 892T292 906Q272 906 259 892T245 858Q245 838 258 825T292 811Q312 811 325 824Z" />
<glyph unicode="&#xc6;" glyph-name="AE" horiz-adv-x="862" d="M830 586T827 583T818 579H554Q549 579 549 574V418Q549 413 554 413H717Q722 413 725 410T729 401V304Q729 299 726 296T717 292H554Q549 292 549 287V126Q549 121 554 121H818Q823 121 826 118T830
109V12Q830 7 827 4T818 0H420Q415 0 412 3T408 12V107Q408 112 403 112H227Q223 112 221 108L178 9Q174 0 164 0H38Q31 0 28 3T28 14L340 691Q344 700 354 700H818Q823 700 826 697T830 688V591Q830 586 827 583ZM273 225T274 223T277 221H403Q408 221 408 226V517Q408
521 406 521T402 518L274 227Q273 225 274 223Z" />
<glyph unicode="&#xc7;" glyph-name="Ccedilla" horiz-adv-x="536" d="M499 483T496 480T487 477L370 472Q358 472 358 483V496Q358 537 334 562T270 587Q230 587 206 562T182 496V203Q182 162 206 138T270 113Q310 113 334 137T358 203V216Q358 227 370 227L487
222Q499 222 499 215V207Q499 120 449 64T313 -5Q307 -7 311 -11Q351 -52 351 -97Q351 -105 347 -123Q339 -157 315 -171T257 -186Q227 -186 202 -177Q192 -174 193 -162L200 -114Q201 -108 204 -106T215 -106Q223 -108 227 -108Q239 -108 247 -102T257 -84Q258
-81 258 -75Q258 -42 211 -4L205 -1Q129 17 85 73T41 212V490Q41 555 69 604T150 681T270 708Q338 708 390 682T470 607T499 495V487Q499 483 496 480Z" />
<glyph unicode="&#xc8;" glyph-name="Egrave" horiz-adv-x="511" d="M479 586T476 583T467 579H199Q194 579 194 574V418Q194 413 199 413H366Q371 413 374 410T378 401V304Q378 299 375 296T366 292H199Q194 292 194 287V126Q194 121 199 121H467Q472 121 475
118T479 109V12Q479 7 476 4T467 0H65Q60 0 57 3T53 12V688Q53 693 56 696T65 700H467Q472 700 475 697T479 688V591Q479 586 476 583ZM321 780Q321 772 310 772H218Q209 772 204 779L131 880Q128 885 128 888Q128 895 138 895H247Q257 895 262 887L319 786L321
780Z" />
<glyph unicode="&#xc9;" glyph-name="Eacute" horiz-adv-x="511" d="M479 586T476 583T467 579H199Q194 579 194 574V418Q194 413 199 413H366Q371 413 374 410T378 401V304Q378 299 375 296T366 292H199Q194 292 194 287V126Q194 121 199 121H467Q472 121 475
118T479 109V12Q479 7 476 4T467 0H65Q60 0 57 3T53 12V688Q53 693 56 696T65 700H467Q472 700 475 697T479 688V591Q479 586 476 583ZM200 772T197 776T198 786L255 887Q260 895 270 895H379Q389 895 389 888Q389 885 386 880L313 779Q308 772 299 772H207Q200
772 197 776Z" />
<glyph unicode="&#xca;" glyph-name="Ecircumflex" horiz-adv-x="511" d="M479 586T476 583T467 579H199Q194 579 194 574V418Q194 413 199 413H366Q371 413 374 410T378 401V304Q378 299 375 296T366 292H199Q194 292 194 287V126Q194 121 199 121H467Q472 121
475 118T479 109V12Q479 7 476 4T467 0H65Q60 0 57 3T53 12V688Q53 693 56 696T65 700H467Q472 700 475 697T479 688V591Q479 586 476 583ZM119 769T117 773T118 784L189 888Q194 896 203 896H322Q331 896 336 888L410 784Q413 780 413 777Q413 769 402 769H317Q306
769 302 777L267 836Q264 842 261 836L226 777Q222 769 211 769H126Q119 769 117 773Z" />
<glyph unicode="&#xcb;" glyph-name="Edieresis" horiz-adv-x="511" d="M479 586T476 583T467 579H199Q194 579 194 574V418Q194 413 199 413H366Q371 413 374 410T378 401V304Q378 299 375 296T366 292H199Q194 292 194 287V126Q194 121 199 121H467Q472 121
475 118T479 109V12Q479 7 476 4T467 0H65Q60 0 57 3T53 12V688Q53 693 56 696T65 700H467Q472 700 475 697T479 688V591Q479 586 476 583ZM145 767T126 787T106 838Q106 870 125 889T177 909Q208 909 226 890T245 838Q245 806 227 787T177 767Q145 767 126 787ZM325
767T306 787T286 838Q286 869 305 889T356 909Q387 909 406 890T426 838Q426 806 407 787T356 767Q325 767 306 787Z" />
<glyph unicode="&#xcc;" glyph-name="Igrave" horiz-adv-x="246" d="M60 0T57 3T53 12V688Q53 693 56 696T65 700H182Q187 700 190 697T194 688V12Q194 7 191 4T182 0H65Q60 0 57 3ZM179 780Q179 772 168 772H76Q67 772 62 779L-11 880Q-14 885 -14 888Q-14 895
-4 895H105Q115 895 120 887L177 786L179 780Z" />
<glyph unicode="&#xcd;" glyph-name="Iacute" horiz-adv-x="246" d="M60 0T57 3T53 12V688Q53 693 56 696T65 700H182Q187 700 190 697T194 688V12Q194 7 191 4T182 0H65Q60 0 57 3ZM58 772T55 776T56 786L113 887Q118 895 128 895H237Q247 895 247 888Q247 885
244 880L171 779Q166 772 157 772H65Q58 772 55 776Z" />
<glyph unicode="&#xce;" glyph-name="Icircumflex" horiz-adv-x="246" d="M60 0T57 3T53 12V688Q53 693 56 696T65 700H182Q187 700 190 697T194 688V12Q194 7 191 4T182 0H65Q60 0 57 3ZM-23 769T-25 773T-24 784L47 888Q52 896 61 896H180Q189 896 194 888L268
784Q271 780 271 777Q271 769 260 769H175Q164 769 160 777L125 836Q122 842 119 836L84 777Q80 769 69 769H-16Q-23 769 -25 773Z" />
<glyph unicode="&#xcf;" glyph-name="Idieresis" horiz-adv-x="246" d="M60 0T57 3T53 12V688Q53 693 56 696T65 700H182Q187 700 190 697T194 688V12Q194 7 191 4T182 0H65Q60 0 57 3ZM3 767T-16 787T-36 838Q-36 870 -17 889T35 909Q66 909 84 890T103 838Q103
806 85 787T35 767Q3 767 -16 787ZM183 767T164 787T144 838Q144 869 163 889T214 909Q245 909 264 890T284 838Q284 806 265 787T214 767Q183 767 164 787Z" />
<glyph unicode="&#xd0;" glyph-name="Eth" horiz-adv-x="588" d="M388 700T439 675T519 604T547 497V203Q547 142 519 96T440 25T321 0H106Q101 0 98 3T94 12V314Q94 319 89 319H65Q60 319 57 322T53 331V396Q53 401 56 404T65 408H89Q94 408 94 413V688Q94 693
97 696T106 700H321Q388 700 439 675ZM406 481Q406 526 383 552T322 579H240Q235 579 235 574V413Q235 408 240 408H298Q303 408 306 405T310 396V331Q310 326 307 323T298 319H240Q235 319 235 314V126Q235 121 240 121L322 122Q359 122 382 148T406 219V481Z"
/>
<glyph unicode="&#xd1;" glyph-name="Ntilde" horiz-adv-x="586" d="M60 0T57 3T53 12V688Q53 693 56 696T65 700H183Q193 700 197 691L389 292Q391 289 393 289T395 294L394 688Q394 693 397 696T406 700H522Q527 700 530 697T534 688V12Q534 7 531 4T522 0H403Q394
0 389 9L197 411Q195 414 193 414T191 409L193 12Q193 7 190 4T181 0H65Q60 0 57 3ZM330 776T296 797Q292 799 283 804T268 812T255 815Q232 815 218 793Q211 783 201 789L159 819Q150 826 154 835Q168 870 192 887T245 905Q262 905 276 900T309 882Q324 873 333
869T353 864Q377 864 390 885Q396 896 406 889L449 860Q454 857 454 850Q454 844 450 837Q433 806 407 791T356 776Q330 776 296 797Z" />
<glyph unicode="&#xd2;" glyph-name="Ograve" horiz-adv-x="547" d="M204 -9T152 19T70 98T41 217V483Q41 550 70 601T151 680T273 708Q342 708 395 680T477 601T506 483V217Q506 149 477 98T395 19T273 -9Q204 -9 152 19ZM315 112T340 139T365 211V487Q365 532
340 559T273 587Q232 587 207 560T182 487V211Q182 167 207 140T273 112Q315 112 340 139ZM329 775Q329 767 318 767H226Q217 767 212 774L139 875Q136 880 136 883Q136 890 146 890H255Q265 890 270 882L327 781L329 775Z" />
<glyph unicode="&#xd3;" glyph-name="Oacute" horiz-adv-x="547" d="M204 -9T152 19T70 98T41 217V483Q41 550 70 601T151 680T273 708Q342 708 395 680T477 601T506 483V217Q506 149 477 98T395 19T273 -9Q204 -9 152 19ZM315 112T340 139T365 211V487Q365 532
340 559T273 587Q232 587 207 560T182 487V211Q182 167 207 140T273 112Q315 112 340 139ZM208 767T205 771T206 781L263 882Q268 890 278 890H387Q397 890 397 883Q397 880 394 875L321 774Q316 767 307 767H215Q208 767 205 771Z" />
<glyph unicode="&#xd4;" glyph-name="Ocircumflex" horiz-adv-x="547" d="M204 -9T152 19T70 98T41 217V483Q41 550 70 601T151 680T273 708Q342 708 395 680T477 601T506 483V217Q506 149 477 98T395 19T273 -9Q204 -9 152 19ZM315 112T340 139T365 211V487Q365
532 340 559T273 587Q232 587 207 560T182 487V211Q182 167 207 140T273 112Q315 112 340 139ZM127 764T125 768T126 779L197 883Q202 891 211 891H330Q339 891 344 883L418 779Q421 775 421 772Q421 764 410 764H325Q314 764 310 772L275 831Q272 837 269 831L234
772Q230 764 219 764H134Q127 764 125 768Z" />
<glyph unicode="&#xd5;" glyph-name="Otilde" horiz-adv-x="547" d="M204 -9T152 19T70 98T41 217V483Q41 550 70 601T151 680T273 708Q342 708 395 680T477 601T506 483V217Q506 149 477 98T395 19T273 -9Q204 -9 152 19ZM315 112T340 139T365 211V487Q365 532
340 559T273 587Q232 587 207 560T182 487V211Q182 167 207 140T273 112Q315 112 340 139ZM314 770T280 791Q276 793 267 798T252 806T239 809Q216 809 202 787Q195 777 185 783L143 813Q134 820 138 829Q152 864 176 881T229 899Q246 899 260 894T293 876Q308
867 317 863T337 858Q361 858 374 879Q380 890 390 883L433 854Q438 851 438 844Q438 838 434 831Q417 800 391 785T340 770Q314 770 280 791Z" />
<glyph unicode="&#xd6;" glyph-name="Odieresis" horiz-adv-x="547" d="M204 -9T152 19T70 98T41 217V483Q41 550 70 601T151 680T273 708Q342 708 395 680T477 601T506 483V217Q506 149 477 98T395 19T273 -9Q204 -9 152 19ZM315 112T340 139T365 211V487Q365
532 340 559T273 587Q232 587 207 560T182 487V211Q182 167 207 140T273 112Q315 112 340 139ZM153 762T134 782T114 833Q114 865 133 884T185 904Q216 904 234 885T253 833Q253 801 235 782T185 762Q153 762 134 782ZM333 762T314 782T294 833Q294 864 313 884T364
904Q395 904 414 885T434 833Q434 801 415 782T364 762Q333 762 314 782Z" />
<glyph unicode="&#xd7;" glyph-name="multiply" horiz-adv-x="422" d="M392 422T392 417Q392 413 388 409L296 317Q294 315 294 313T296 309L388 217Q392 214 392 209Q392 205 388 201L323 136Q319 132 315 132Q313 132 307 136L215 228Q213 230 211 230T207 228L114
135Q110 131 106 131Q104 131 98 135L34 199Q30 205 30 207Q30 211 34 215L127 308Q129 310 129 312T127 316L34 409Q30 415 30 417Q30 420 34 426L98 490Q102 494 107 494Q111 494 115 490L208 397Q210 395 212 395T216 397L308 489Q312 493 316 493Q321 493 324
489L388 425Q392 422 392 417Z" />
<glyph unicode="&#xd8;" glyph-name="Oslash" horiz-adv-x="560" d="M451 642T454 639Q481 609 495 569T510 483V217Q510 149 481 98T399 19T277 -9Q212 -9 160 17Q155 19 153 14L133 -28Q129 -37 119 -37H68Q61 -37 59 -34T59 -23L97 59Q99 63 96 66Q45 125 45
217V483Q45 550 74 601T155 680T277 708Q338 708 388 686Q393 684 394 688L415 731Q420 740 429 740H481Q488 740 490 737T490 726L453 646Q451 642 454 639ZM186 261Q186 257 188 257T192 259L335 562Q337 566 334 569Q312 587 277 587Q236 587 211 560T186 487V261ZM319
112T344 139T369 211V456Q369 460 367 460T363 458L214 142Q212 138 215 135Q240 112 277 112Q319 112 344 139Z" />
<glyph unicode="&#xd9;" glyph-name="Ugrave" horiz-adv-x="554" d="M209 -8T157 20T77 98T48 215V688Q48 693 51 696T60 700H177Q182 700 185 697T189 688V208Q189 165 213 139T277 113Q317 113 341 139T365 208V688Q365 693 368 696T377 700H494Q499 700 502
697T506 688V215Q506 149 478 99T397 20T277 -8Q209 -8 157 20ZM333 780Q333 772 322 772H230Q221 772 216 779L143 880Q140 885 140 888Q140 895 150 895H259Q269 895 274 887L331 786L333 780Z" />
<glyph unicode="&#xda;" glyph-name="Uacute" horiz-adv-x="554" d="M209 -8T157 20T77 98T48 215V688Q48 693 51 696T60 700H177Q182 700 185 697T189 688V208Q189 165 213 139T277 113Q317 113 341 139T365 208V688Q365 693 368 696T377 700H494Q499 700 502
697T506 688V215Q506 149 478 99T397 20T277 -8Q209 -8 157 20ZM212 772T209 776T210 786L267 887Q272 895 282 895H391Q401 895 401 888Q401 885 398 880L325 779Q320 772 311 772H219Q212 772 209 776Z" />
<glyph unicode="&#xdb;" glyph-name="Ucircumflex" horiz-adv-x="554" d="M209 -8T157 20T77 98T48 215V688Q48 693 51 696T60 700H177Q182 700 185 697T189 688V208Q189 165 213 139T277 113Q317 113 341 139T365 208V688Q365 693 368 696T377 700H494Q499 700
502 697T506 688V215Q506 149 478 99T397 20T277 -8Q209 -8 157 20ZM131 769T129 773T130 784L201 888Q206 896 215 896H334Q343 896 348 888L422 784Q425 780 425 777Q425 769 414 769H329Q318 769 314 777L279 836Q276 842 273 836L238 777Q234 769 223 769H138Q131
769 129 773Z" />
<glyph unicode="&#xdc;" glyph-name="Udieresis" horiz-adv-x="554" d="M209 -8T157 20T77 98T48 215V688Q48 693 51 696T60 700H177Q182 700 185 697T189 688V208Q189 165 213 139T277 113Q317 113 341 139T365 208V688Q365 693 368 696T377 700H494Q499 700
502 697T506 688V215Q506 149 478 99T397 20T277 -8Q209 -8 157 20ZM157 767T138 787T118 838Q118 870 137 889T189 909Q220 909 238 890T257 838Q257 806 239 787T189 767Q157 767 138 787ZM337 767T318 787T298 838Q298 869 317 889T368 909Q399 909 418 890T438
838Q438 806 419 787T368 767Q337 767 318 787Z" />
<glyph unicode="&#xdd;" glyph-name="Yacute" horiz-adv-x="546" d="M209 1T206 4T202 13V269L201 275L28 686Q27 688 27 692Q27 700 37 700H163Q174 700 177 690L270 437Q271 434 273 434T276 437L369 690Q372 700 383 700H509Q516 700 518 696T518 686L344 275L343
269V13Q343 8 340 5T331 1H214Q209 1 206 4ZM208 760T205 764T206 774L263 875Q268 883 278 883H387Q397 883 397 876Q397 873 394 868L321 767Q316 760 307 760H215Q208 760 205 764Z" />
<glyph unicode="&#xde;" glyph-name="Thorn" horiz-adv-x="523" d="M355 561T401 534T474 459T500 348Q500 287 474 240T402 166T296 140H196Q191 140 191 135V12Q191 7 188 4T179 0H62Q57 0 54 3T50 12V688Q50 693 53 696T62 700H179Q184 700 187 697T191 688V566Q191
561 196 561H295Q355 561 401 534ZM312 253T335 277T359 345Q359 389 336 414T273 439H196Q191 439 191 434V258Q191 253 196 253H273Q312 253 335 277Z" />
<glyph unicode="&#xdf;" glyph-name="germandbls" horiz-adv-x="535" d="M53 1T50 4T46 13V484Q46 590 103 649T262 708Q366 708 426 657T488 516Q488 424 420 382Q414 379 420 376Q457 353 478 309T499 205Q499 107 437 54T256 0H236Q231 0 228 3T224 12V108Q224
113 227 116T236 120L266 121Q310 121 334 147T359 220Q359 268 337 294T273 321H244Q239 321 236 324T232 333V419Q232 424 235 427T244 431H274Q308 431 328 452T348 508Q348 544 328 566T268 588Q233 588 210 565T187 502V12Q187 7 184 4T175 0L58 1Q53 1 50
4Z" />
<glyph unicode="&#xe0;" glyph-name="agrave" horiz-adv-x="486" d="M301 522T348 501T421 441T448 353V12Q448 7 445 4T436 0H319Q314 0 311 3T307 12V39Q307 42 305 43T301 41Q261 -8 181 -8Q114 -8 69 27T24 144Q24 307 228 307H302Q307 307 307 312V335Q307
365 290 383T241 401Q218 401 202 390T182 360Q179 350 168 350L47 357Q42 357 39 360T36 368Q41 437 97 479T240 522Q301 522 348 501ZM259 99T283 118T307 168V210Q307 215 302 215H245Q209 215 188 199T167 153Q167 127 183 113T225 99Q259 99 283 118ZM297
590Q297 582 286 582H194Q185 582 180 589L107 690Q104 695 104 698Q104 705 114 705H223Q233 705 238 697L295 596L297 590Z" />
<glyph unicode="&#xe1;" glyph-name="aacute" horiz-adv-x="486" d="M301 522T348 501T421 441T448 353V12Q448 7 445 4T436 0H319Q314 0 311 3T307 12V39Q307 42 305 43T301 41Q261 -8 181 -8Q114 -8 69 27T24 144Q24 307 228 307H302Q307 307 307 312V335Q307
365 290 383T241 401Q218 401 202 390T182 360Q179 350 168 350L47 357Q42 357 39 360T36 368Q41 437 97 479T240 522Q301 522 348 501ZM259 99T283 118T307 168V210Q307 215 302 215H245Q209 215 188 199T167 153Q167 127 183 113T225 99Q259 99 283 118ZM176
582T173 586T174 596L231 697Q236 705 246 705H355Q365 705 365 698Q365 695 362 690L289 589Q284 582 275 582H183Q176 582 173 586Z" />
<glyph unicode="&#xe2;" glyph-name="acircumflex" horiz-adv-x="486" d="M301 522T348 501T421 441T448 353V12Q448 7 445 4T436 0H319Q314 0 311 3T307 12V39Q307 42 305 43T301 41Q261 -8 181 -8Q114 -8 69 27T24 144Q24 307 228 307H302Q307 307 307 312V335Q307
365 290 383T241 401Q218 401 202 390T182 360Q179 350 168 350L47 357Q42 357 39 360T36 368Q41 437 97 479T240 522Q301 522 348 501ZM259 99T283 118T307 168V210Q307 215 302 215H245Q209 215 188 199T167 153Q167 127 183 113T225 99Q259 99 283 118ZM95 579T93
583T94 594L165 698Q170 706 179 706H298Q307 706 312 698L386 594Q389 590 389 587Q389 579 378 579H293Q282 579 278 587L243 646Q240 652 237 646L202 587Q198 579 187 579H102Q95 579 93 583Z" />
<glyph unicode="&#xe3;" glyph-name="atilde" horiz-adv-x="486" d="M301 522T348 501T421 441T448 353V12Q448 7 445 4T436 0H319Q314 0 311 3T307 12V39Q307 42 305 43T301 41Q261 -8 181 -8Q114 -8 69 27T24 144Q24 307 228 307H302Q307 307 307 312V335Q307
365 290 383T241 401Q218 401 202 390T182 360Q179 350 168 350L47 357Q42 357 39 360T36 368Q41 437 97 479T240 522Q301 522 348 501ZM259 99T283 118T307 168V210Q307 215 302 215H245Q209 215 188 199T167 153Q167 127 183 113T225 99Q259 99 283 118ZM282
585T248 606Q244 608 235 613T220 621T207 624Q184 624 170 602Q163 592 153 598L111 628Q102 635 106 644Q120 679 144 696T197 714Q214 714 228 709T261 691Q276 682 285 678T305 673Q329 673 342 694Q348 705 358 698L401 669Q406 666 406 659Q406 653 402 646Q385
615 359 600T308 585Q282 585 248 606Z" />
<glyph unicode="&#xe4;" glyph-name="adieresis" horiz-adv-x="486" d="M301 522T348 501T421 441T448 353V12Q448 7 445 4T436 0H319Q314 0 311 3T307 12V39Q307 42 305 43T301 41Q261 -8 181 -8Q114 -8 69 27T24 144Q24 307 228 307H302Q307 307 307 312V335Q307
365 290 383T241 401Q218 401 202 390T182 360Q179 350 168 350L47 357Q42 357 39 360T36 368Q41 437 97 479T240 522Q301 522 348 501ZM259 99T283 118T307 168V210Q307 215 302 215H245Q209 215 188 199T167 153Q167 127 183 113T225 99Q259 99 283 118ZM121
577T102 597T82 648Q82 680 101 699T153 719Q184 719 202 700T221 648Q221 616 203 597T153 577Q121 577 102 597ZM301 577T282 597T262 648Q262 679 281 699T332 719Q363 719 382 700T402 648Q402 616 383 597T332 577Q301 577 282 597Z" />
<glyph unicode="&#xe5;" glyph-name="aring" horiz-adv-x="486" d="M301 522T348 501T421 441T448 353V12Q448 7 445 4T436 0H319Q314 0 311 3T307 12V39Q307 42 305 43T301 41Q261 -8 181 -8Q114 -8 69 27T24 144Q24 307 228 307H302Q307 307 307 312V335Q307
365 290 383T241 401Q218 401 202 390T182 360Q179 350 168 350L47 357Q42 357 39 360T36 368Q41 437 97 479T240 522Q301 522 348 501ZM259 99T283 118T307 168V210Q307 215 302 215H245Q209 215 188 199T167 153Q167 127 183 113T225 99Q259 99 283 118ZM194
569T162 601T130 680Q130 727 162 759T241 791Q288 791 320 759T352 680Q352 633 320 601T241 569Q194 569 162 601ZM261 633T274 646T288 680Q288 700 275 714T241 728Q221 728 208 714T194 680Q194 660 207 647T241 633Q261 633 274 646Z" />
<glyph unicode="&#xe6;" glyph-name="ae" horiz-adv-x="762" d="M122 -8T73 26T24 144Q24 302 225 302H301Q306 302 306 307V333Q306 364 289 382T239 401Q215 401 198 390T176 360Q173 348 162 350L44 359Q32 361 33 372Q37 416 64 450T136 503T233 522Q279 522
316 505T377 459Q380 456 383 459Q405 486 442 504T526 522Q602 522 657 479T724 364Q731 305 731 221Q731 209 719 209H458Q453 209 453 204Q453 189 454 177Q458 148 480 132T534 116Q585 116 610 158Q617 168 626 164L712 129Q723 124 720 114Q701 57 653 25T534
-8Q478 -8 436 12T380 61Q376 67 375 64Q359 33 311 13T197 -8Q122 -8 73 26ZM452 302T457 302H584Q589 302 589 307Q589 319 587 341Q582 368 565 384T521 401Q494 401 477 385T455 341Q454 337 452 307Q452 302 457 302ZM258 95T282 113T306 163V204Q306 209
301 209H244Q208 209 187 194T166 151Q166 125 182 110T227 95Q258 95 282 113Z" />
<glyph unicode="&#xe7;" glyph-name="ccedilla" horiz-adv-x="486" d="M317 181Q318 186 321 189T330 192L446 182Q457 180 457 169Q457 163 455 149Q446 88 405 48T300 -4Q294 -6 298 -10Q339 -51 339 -97Q339 -105 335 -123Q327 -157 303 -171T245 -186Q215
-186 190 -177Q179 -174 181 -162L188 -114Q189 -108 192 -106T203 -106Q211 -108 215 -108Q227 -108 235 -102T245 -84Q246 -81 246 -75Q246 -42 201 -6L195 -3Q133 9 94 49T43 151Q35 192 35 259Q35 309 43 365Q56 437 111 479T249 522Q330 522 385 481T454 373Q456
364 458 344Q458 333 446 331L331 320H329Q320 320 318 331Q318 338 317 341Q315 349 313 355Q307 375 290 388T248 401Q221 401 204 385T182 341Q176 308 176 258Q176 203 183 172Q188 145 204 129T248 113Q277 113 294 129T315 169L317 181Z" />
<glyph unicode="&#xe8;" glyph-name="egrave" horiz-adv-x="492" d="M286 113T304 126T332 160Q337 171 347 168L442 148Q454 145 451 133Q431 67 380 30T252 -8Q173 -8 120 32T51 140Q37 190 37 265Q37 315 41 347Q51 429 104 476T248 523Q344 523 395 473T456
329Q461 276 461 226Q461 214 449 214H183Q178 214 178 209Q178 188 181 173Q186 145 207 129T259 112Q286 113 304 126ZM193 401T182 343Q180 333 178 307Q178 302 183 302H313Q318 302 318 307Q318 319 314 341Q310 369 293 385T247 401Q193 401 182 343ZM303
591Q303 583 292 583H200Q191 583 186 590L113 691Q110 696 110 699Q110 706 120 706H229Q239 706 244 698L301 597L303 591Z" />
<glyph unicode="&#xe9;" glyph-name="eacute" horiz-adv-x="492" d="M286 113T304 126T332 160Q337 171 347 168L442 148Q454 145 451 133Q431 67 380 30T252 -8Q173 -8 120 32T51 140Q37 190 37 265Q37 315 41 347Q51 429 104 476T248 523Q344 523 395 473T456
329Q461 276 461 226Q461 214 449 214H183Q178 214 178 209Q178 188 181 173Q186 145 207 129T259 112Q286 113 304 126ZM193 401T182 343Q180 333 178 307Q178 302 183 302H313Q318 302 318 307Q318 319 314 341Q310 369 293 385T247 401Q193 401 182 343ZM182
583T179 587T180 597L237 698Q242 706 252 706H361Q371 706 371 699Q371 696 368 691L295 590Q290 583 281 583H189Q182 583 179 587Z" />
<glyph unicode="&#xea;" glyph-name="ecircumflex" horiz-adv-x="492" d="M286 113T304 126T332 160Q337 171 347 168L442 148Q454 145 451 133Q431 67 380 30T252 -8Q173 -8 120 32T51 140Q37 190 37 265Q37 315 41 347Q51 429 104 476T248 523Q344 523 395 473T456
329Q461 276 461 226Q461 214 449 214H183Q178 214 178 209Q178 188 181 173Q186 145 207 129T259 112Q286 113 304 126ZM193 401T182 343Q180 333 178 307Q178 302 183 302H313Q318 302 318 307Q318 319 314 341Q310 369 293 385T247 401Q193 401 182 343ZM101
580T99 584T100 595L171 699Q176 707 185 707H304Q313 707 318 699L392 595Q395 591 395 588Q395 580 384 580H299Q288 580 284 588L249 647Q246 653 243 647L208 588Q204 580 193 580H108Q101 580 99 584Z" />
<glyph unicode="&#xeb;" glyph-name="edieresis" horiz-adv-x="492" d="M286 113T304 126T332 160Q337 171 347 168L442 148Q454 145 451 133Q431 67 380 30T252 -8Q173 -8 120 32T51 140Q37 190 37 265Q37 315 41 347Q51 429 104 476T248 523Q344 523 395 473T456
329Q461 276 461 226Q461 214 449 214H183Q178 214 178 209Q178 188 181 173Q186 145 207 129T259 112Q286 113 304 126ZM193 401T182 343Q180 333 178 307Q178 302 183 302H313Q318 302 318 307Q318 319 314 341Q310 369 293 385T247 401Q193 401 182 343ZM127
578T108 598T88 649Q88 681 107 700T159 720Q190 720 208 701T227 649Q227 617 209 598T159 578Q127 578 108 598ZM307 578T288 598T268 649Q268 680 287 700T338 720Q369 720 388 701T408 649Q408 617 389 598T338 578Q307 578 288 598Z" />
<glyph unicode="&#xec;" glyph-name="igrave" horiz-adv-x="229" d="M50 0T47 3T43 12V502Q43 507 46 510T55 514H172Q177 514 180 511T184 502V12Q184 7 181 4T172 0H55Q50 0 47 3ZM168 594Q168 586 157 586H65Q56 586 51 593L-22 694Q-25 699 -25 702Q-25 709
-15 709H94Q104 709 109 701L166 600L168 594Z" />
<glyph unicode="&#xed;" glyph-name="iacute" horiz-adv-x="229" d="M50 0T47 3T43 12V502Q43 507 46 510T55 514H172Q177 514 180 511T184 502V12Q184 7 181 4T172 0H55Q50 0 47 3ZM47 586T44 590T45 600L102 701Q107 709 117 709H226Q236 709 236 702Q236 699
233 694L160 593Q155 586 146 586H54Q47 586 44 590Z" />
<glyph unicode="&#xee;" glyph-name="icircumflex" horiz-adv-x="229" d="M50 0T47 3T43 12V502Q43 507 46 510T55 514H172Q177 514 180 511T184 502V12Q184 7 181 4T172 0H55Q50 0 47 3ZM-34 583T-36 587T-35 598L36 702Q41 710 50 710H169Q178 710 183 702L257
598Q260 594 260 591Q260 583 249 583H164Q153 583 149 591L114 650Q111 656 108 650L73 591Q69 583 58 583H-27Q-34 583 -36 587Z" />
<glyph unicode="&#xef;" glyph-name="idieresis" horiz-adv-x="229" d="M50 0T47 3T43 12V502Q43 507 46 510T55 514H172Q177 514 180 511T184 502V12Q184 7 181 4T172 0H55Q50 0 47 3ZM-8 581T-27 601T-47 652Q-47 684 -28 703T24 723Q55 723 73 704T92 652Q92
620 74 601T24 581Q-8 581 -27 601ZM172 581T153 601T133 652Q133 683 152 703T203 723Q234 723 253 704T273 652Q273 620 254 601T203 581Q172 581 153 601Z" />
<glyph unicode="&#xf0;" glyph-name="eth" horiz-adv-x="495" d="M453 298T453 239Q453 187 445 144Q433 74 379 33T242 -8Q159 -8 105 32T38 144Q30 183 30 238Q30 287 38 333Q45 388 82 425T174 467Q199 472 220 472Q260 472 286 458Q293 455 290 462Q277 500
254 538Q253 540 252 541T248 541L160 518L156 517Q148 517 145 527L134 570L133 574Q133 582 143 585L205 601Q210 603 207 608Q179 645 145 685Q141 689 141 693Q141 700 151 700H268Q277 700 283 693L326 636Q327 634 328 634T332 634L412 655L416 656Q424 656
427 646L437 602L438 598Q438 590 428 587L375 573Q369 571 372 567Q405 513 423 460T446 346Q453 298 453 239ZM311 193T311 236Q311 280 306 307Q301 334 284 349T242 365Q216 365 199 350T177 307Q172 278 172 236Q172 202 177 164Q182 137 199 122T242 106Q267
106 284 121T306 164Q311 193 311 236Z" />
<glyph unicode="&#xf1;" glyph-name="ntilde" horiz-adv-x="497" d="M198 617T184 595Q176 584 167 591L126 621Q118 627 121 637Q135 672 158 689T211 707Q227 707 240 702T273 684Q275 683 283 678T300 669T316 666Q338 666 352 687Q358 698 368 691L409 662Q418
656 414 646Q397 611 371 595T319 578Q303 578 290 583T260 599Q257 601 249 606T234 614T220 617Q198 617 184 595ZM372 522T413 476T455 346V12Q455 7 452 4T443 0H326Q321 0 318 3T314 12V326Q314 361 297 381T251 401Q221 401 204 381T186 325V12Q186 7 183
4T174 0H57Q52 0 49 3T45 12V502Q45 507 48 510T57 514H174Q179 514 182 511T186 502V475Q186 472 188 472T193 474Q230 522 299 522Q372 522 413 476Z" />
<glyph unicode="&#xf2;" glyph-name="ograve" horiz-adv-x="500" d="M163 -8T108 36T42 158Q35 207 35 258Q35 320 42 359Q54 434 109 478T251 522Q336 522 391 478T457 360Q465 314 465 259Q465 209 458 160Q447 81 392 37T250 -8Q163 -8 108 36ZM278 113T296
131T319 179Q323 211 323 258Q323 305 319 336Q314 366 296 383T250 401Q222 401 204 384T181 336Q176 298 176 258Q176 227 180 179Q185 149 204 131T250 113Q278 113 296 131ZM306 590Q306 582 295 582H203Q194 582 189 589L116 690Q113 695 113 698Q113 705
123 705H232Q242 705 247 697L304 596L306 590Z" />
<glyph unicode="&#xf3;" glyph-name="oacute" horiz-adv-x="500" d="M163 -8T108 36T42 158Q35 207 35 258Q35 320 42 359Q54 434 109 478T251 522Q336 522 391 478T457 360Q465 314 465 259Q465 209 458 160Q447 81 392 37T250 -8Q163 -8 108 36ZM278 113T296
131T319 179Q323 211 323 258Q323 305 319 336Q314 366 296 383T250 401Q222 401 204 384T181 336Q176 298 176 258Q176 227 180 179Q185 149 204 131T250 113Q278 113 296 131ZM185 582T182 586T183 596L240 697Q245 705 255 705H364Q374 705 374 698Q374 695
371 690L298 589Q293 582 284 582H192Q185 582 182 586Z" />
<glyph unicode="&#xf4;" glyph-name="ocircumflex" horiz-adv-x="500" d="M163 -8T108 36T42 158Q35 207 35 258Q35 320 42 359Q54 434 109 478T251 522Q336 522 391 478T457 360Q465 314 465 259Q465 209 458 160Q447 81 392 37T250 -8Q163 -8 108 36ZM278 113T296
131T319 179Q323 211 323 258Q323 305 319 336Q314 366 296 383T250 401Q222 401 204 384T181 336Q176 298 176 258Q176 227 180 179Q185 149 204 131T250 113Q278 113 296 131ZM104 579T102 583T103 594L174 698Q179 706 188 706H307Q316 706 321 698L395 594Q398
590 398 587Q398 579 387 579H302Q291 579 287 587L252 646Q249 652 246 646L211 587Q207 579 196 579H111Q104 579 102 583Z" />
<glyph unicode="&#xf5;" glyph-name="otilde" horiz-adv-x="500" d="M163 -8T108 36T42 158Q35 207 35 258Q35 320 42 359Q54 434 109 478T251 522Q336 522 391 478T457 360Q465 314 465 259Q465 209 458 160Q447 81 392 37T250 -8Q163 -8 108 36ZM278 113T296
131T319 179Q323 211 323 258Q323 305 319 336Q314 366 296 383T250 401Q222 401 204 384T181 336Q176 298 176 258Q176 227 180 179Q185 149 204 131T250 113Q278 113 296 131ZM291 585T257 606Q253 608 244 613T229 621T216 624Q193 624 179 602Q172 592 162
598L120 628Q111 635 115 644Q129 679 153 696T206 714Q223 714 237 709T270 691Q285 682 294 678T314 673Q338 673 351 694Q357 705 367 698L410 669Q415 666 415 659Q415 653 411 646Q394 615 368 600T317 585Q291 585 257 606Z" />
<glyph unicode="&#xf6;" glyph-name="odieresis" horiz-adv-x="500" d="M163 -8T108 36T42 158Q35 207 35 258Q35 320 42 359Q54 434 109 478T251 522Q336 522 391 478T457 360Q465 314 465 259Q465 209 458 160Q447 81 392 37T250 -8Q163 -8 108 36ZM278 113T296
131T319 179Q323 211 323 258Q323 305 319 336Q314 366 296 383T250 401Q222 401 204 384T181 336Q176 298 176 258Q176 227 180 179Q185 149 204 131T250 113Q278 113 296 131ZM130 577T111 597T91 648Q91 680 110 699T162 719Q193 719 211 700T230 648Q230 616
212 597T162 577Q130 577 111 597ZM310 577T291 597T271 648Q271 679 290 699T341 719Q372 719 391 700T411 648Q411 616 392 597T341 577Q310 577 291 597Z" />
<glyph unicode="&#xf7;" glyph-name="divide" horiz-adv-x="462" d="M203 414T183 434T162 483Q162 511 182 531T231 551Q259 551 279 531T300 483Q300 455 280 435T231 414Q203 414 183 434ZM33 255T30 258T26 267V356Q26 361 29 364T38 368H424Q429 368 432
365T436 356V267Q436 262 433 259T424 255H38Q33 255 30 258ZM203 78T183 98T162 147Q162 175 182 195T231 215Q259 215 279 195T300 147Q300 119 280 99T231 78Q203 78 183 98Z" />
<glyph unicode="&#xf8;" glyph-name="oslash" horiz-adv-x="509" d="M471 314T471 259Q471 209 464 160Q453 81 398 37T256 -8Q194 -8 150 14Q145 16 143 12L117 -30Q110 -40 101 -33L61 -6Q51 1 57 11L87 57Q89 61 86 64Q57 104 48 158Q41 207 41 258Q41 320
48 359Q60 434 115 478T257 522Q315 522 358 502Q362 501 364 504L390 545Q393 551 399 551Q402 551 407 548L447 521Q457 514 451 504L422 460Q420 456 423 453Q454 415 463 360Q471 314 471 259ZM183 224Q183 220 185 220T189 222L291 386Q295 390 290 393Q274
401 256 401Q228 401 210 384T187 336Q182 298 182 258L183 224ZM329 211T329 258V296Q328 300 326 300T322 298L218 130Q216 125 219 123Q236 113 256 113Q284 113 302 131T325 179Q329 211 329 258Z" />
<glyph unicode="&#xf9;" glyph-name="ugrave" horiz-adv-x="496" d="M310 507T313 510T322 514H439Q444 514 447 511T451 502V12Q451 7 448 4T439 0H322Q317 0 314 3T310 12V37Q310 40 308 40T304 39Q270 -7 197 -7Q129 -7 85 34T41 155V502Q41 507 44 510T53
514H170Q175 514 178 511T182 502V188Q182 153 198 133T245 113Q275 113 292 134T310 190V502Q310 507 313 510ZM301 582Q301 574 290 574H198Q189 574 184 581L111 682Q108 687 108 690Q108 697 118 697H227Q237 697 242 689L299 588L301 582Z" />
<glyph unicode="&#xfa;" glyph-name="uacute" horiz-adv-x="496" d="M310 507T313 510T322 514H439Q444 514 447 511T451 502V12Q451 7 448 4T439 0H322Q317 0 314 3T310 12V37Q310 40 308 40T304 39Q270 -7 197 -7Q129 -7 85 34T41 155V502Q41 507 44 510T53
514H170Q175 514 178 511T182 502V188Q182 153 198 133T245 113Q275 113 292 134T310 190V502Q310 507 313 510ZM180 574T177 578T178 588L235 689Q240 697 250 697H359Q369 697 369 690Q369 687 366 682L293 581Q288 574 279 574H187Q180 574 177 578Z" />
<glyph unicode="&#xfb;" glyph-name="ucircumflex" horiz-adv-x="496" d="M310 507T313 510T322 514H439Q444 514 447 511T451 502V12Q451 7 448 4T439 0H322Q317 0 314 3T310 12V37Q310 40 308 40T304 39Q270 -7 197 -7Q129 -7 85 34T41 155V502Q41 507 44 510T53
514H170Q175 514 178 511T182 502V188Q182 153 198 133T245 113Q275 113 292 134T310 190V502Q310 507 313 510ZM99 571T97 575T98 586L169 690Q174 698 183 698H302Q311 698 316 690L390 586Q393 582 393 579Q393 571 382 571H297Q286 571 282 579L247 638Q244
644 241 638L206 579Q202 571 191 571H106Q99 571 97 575Z" />
<glyph unicode="&#xfc;" glyph-name="udieresis" horiz-adv-x="496" d="M310 507T313 510T322 514H439Q444 514 447 511T451 502V12Q451 7 448 4T439 0H322Q317 0 314 3T310 12V37Q310 40 308 40T304 39Q270 -7 197 -7Q129 -7 85 34T41 155V502Q41 507 44 510T53
514H170Q175 514 178 511T182 502V188Q182 153 198 133T245 113Q275 113 292 134T310 190V502Q310 507 313 510ZM125 569T106 589T86 640Q86 672 105 691T157 711Q188 711 206 692T225 640Q225 608 207 589T157 569Q125 569 106 589ZM305 569T286 589T266 640Q266
671 285 691T336 711Q367 711 386 692T406 640Q406 608 387 589T336 569Q305 569 286 589Z" />
<glyph unicode="&#xfd;" glyph-name="yacute" horiz-adv-x="463" d="M41 -199T39 -196T37 -187V-95Q37 -90 39 -87T43 -83H48Q104 -83 128 -67T161 -3L160 3L16 500L15 504Q15 514 26 514H151Q162 514 164 503L230 202Q231 198 233 198T236 202L298 503Q300 514
311 514H437Q443 514 446 510T447 500L295 -19Q273 -92 249 -128T179 -182T50 -199H44Q41 -199 39 -196ZM166 579T163 583T164 593L221 694Q226 702 236 702H345Q355 702 355 695Q355 692 352 687L279 586Q274 579 265 579H173Q166 579 163 583Z" />
<glyph unicode="&#xfe;" glyph-name="thorn" horiz-adv-x="493" d="M458 316T458 262Q458 199 447 151Q414 -8 291 -8Q227 -8 191 29Q189 31 187 30T185 26V-188Q185 -193 182 -196T173 -200H56Q51 -200 48 -197T44 -188V688Q44 693 47 696T56 700H173Q178 700
181 697T185 688V489Q185 486 187 485T191 487Q225 522 289 522Q418 522 449 367Q458 316 458 262ZM316 207T316 258Q316 318 307 347Q291 401 246 401Q223 401 208 387T188 346L186 336L185 330V183Q185 179 186 177Q186 173 187 171Q200 113 247 113Q294 113
309 172Q316 207 316 258Z" />
<glyph unicode="&#xff;" glyph-name="ydieresis" horiz-adv-x="463" d="M41 -199T39 -196T37 -187V-95Q37 -90 39 -87T43 -83H48Q104 -83 128 -67T161 -3L160 3L16 500L15 504Q15 514 26 514H151Q162 514 164 503L230 202Q231 198 233 198T236 202L298 503Q300
514 311 514H437Q443 514 446 510T447 500L295 -19Q273 -92 249 -128T179 -182T50 -199H44Q41 -199 39 -196ZM111 574T92 594T72 645Q72 677 91 696T143 716Q174 716 192 697T211 645Q211 613 193 594T143 574Q111 574 92 594ZM291 574T272 594T252 645Q252 676
271 696T322 716Q353 716 372 697T392 645Q392 613 373 594T322 574Q291 574 272 594Z" />
<glyph unicode="&#x2013;" glyph-name="endash" horiz-adv-x="428" d="M33 224T30 227T26 236V333Q26 338 29 341T38 345H390Q395 345 398 342T402 333V236Q402 231 399 228T390 224H38Q33 224 30 227Z" />
<glyph unicode="&#x2014;" glyph-name="emdash" horiz-adv-x="626" d="M33 224T30 227T26 236V333Q26 338 29 341T38 345H588Q593 345 596 342T600 333V236Q600 231 597 228T588 224H38Q33 224 30 227Z" />
<glyph unicode="&#x2018;" glyph-name="quoteleft" horiz-adv-x="196" d="M0 474T5 488L80 690Q83 700 94 700H182Q196 700 193 687L144 484Q141 474 131 474H15Q0 474 5 488Z" />
<glyph unicode="&#x2019;" glyph-name="quoteright" horiz-adv-x="196" d="M196 700T191 686L116 484Q113 474 102 474H14Q0 474 3 487L52 690Q55 700 65 700H181Q196 700 191 686Z" />
<glyph unicode="&#x201a;" glyph-name="quotesinglbase" horiz-adv-x="600" d="M34 -98T36 -85L64 147Q65 158 76 158H177Q191 158 188 145L131 -88Q128 -98 117 -98H47Q34 -98 36 -85Z" />
<glyph unicode="&#x201c;" glyph-name="quotedblleft" horiz-adv-x="358" d="M9 474T6 477T5 488L76 690Q79 700 89 700H173Q186 700 183 687L139 485Q137 474 126 474H15Q9 474 6 477ZM181 474T179 477T178 488L247 690Q250 700 260 700H345Q358 700 355 687L312
485Q310 474 299 474H187Q181 474 179 477Z" />
<glyph unicode="&#x201d;" glyph-name="quotedblright" horiz-adv-x="358" d="M177 700T179 697T180 686L111 484Q108 474 98 474H13Q0 474 3 487L46 689Q48 700 59 700H171Q177 700 179 697ZM349 700T352 697T353 686L282 484Q279 474 269 474H185Q172 474 175
487L219 689Q221 700 232 700H343Q349 700 352 697Z" />
<glyph unicode="&#x201e;" glyph-name="quotedblbase" horiz-adv-x="366" d="M177 128T179 125T180 114L111 -88Q108 -98 98 -98H13Q0 -98 3 -85L46 117Q48 128 59 128H171Q177 128 179 125ZM349 128T352 125T353 114L282 -88Q279 -98 269 -98H185Q172 -98 175
-85L219 117Q221 128 232 128H343Q349 128 352 125Z" />
<glyph unicode="&#x2022;" glyph-name="bullet" horiz-adv-x="311" d="M121 146T91 163T44 211T26 277Q26 331 64 368T157 406Q192 406 221 389T267 342T285 277Q285 242 268 212T221 164T157 146Q121 146 91 163Z" />
<glyph unicode="&#x2039;" glyph-name="guilsinglleft" horiz-adv-x="313" d="M254 115Q254 107 243 107H147Q137 107 132 115L44 273Q42 279 42 281Q42 285 44 289L132 447Q137 455 147 455H243Q250 455 253 451T252 441L161 284Q160 281 161 278L252 121L254 115Z" />
<glyph unicode="&#x203a;" glyph-name="guilsinglright" horiz-adv-x="324" d="M63 107T60 111T61 121L152 278Q154 281 152 284L61 441L59 447Q59 455 70 455H166Q176 455 181 447L269 289Q271 287 271 281Q271 276 269 273L181 115Q176 107 166 107H70Q63 107 60 111Z" />
</font>
</defs>
</svg>
