<?xml version="1.0" standalone="no"?>
<!DOCTYPE svg PUBLIC "-//W3C//DTD SVG 1.1//EN" "http://www.w3.org/Graphics/SVG/1.1/DTD/svg11.dtd">
<svg xmlns="http://www.w3.org/2000/svg">
<defs >
<font id="BarlowSemiCondensed" horiz-adv-x="428" ><font-face
    font-family="Barlow Semi Condensed Thin"
    units-per-em="1000"
    panose-1="0 0 3 6 0 0 0 0 0 0"
    ascent="1000"
    descent="-200"
    alphabetic="0" />
<glyph unicode=" " glyph-name="space" horiz-adv-x="194" />
<glyph unicode="!" glyph-name="exclam" horiz-adv-x="265" d="M127 221T128 231L184 690Q184 694 187 697T195 700H204Q213 700 213 690L155 231Q155 221 145 221H137Q127 221 128 231ZM97 5T88 15T78 42Q78 62 92 77T123 92Q137 92 147 81T157 54Q157 34 144
20T112 5Q97 5 88 15Z" />
<glyph unicode="&quot;" glyph-name="quotedbl" horiz-adv-x="182" d="M77 498T78 508L96 682Q98 692 107 692H120Q130 692 128 682L103 508Q102 498 92 498H86Q77 498 78 508ZM163 498T164 508L183 682Q183 686 186 689T194 692H206Q215 692 215 682L189 508Q189
498 179 498H173Q163 498 164 508Z" />
<glyph unicode="#" glyph-name="numbersign" horiz-adv-x="590" d="M550 444T540 444H474Q469 444 468 440L416 246Q416 242 419 242H483Q493 242 491 232L490 224Q488 214 479 214H410Q405 214 405 210L353 19Q352 11 342 11H333Q329 11 327 14T326 22L376 210Q376
214 374 214H192Q187 214 187 210L135 19Q133 11 124 11H115Q111 11 109 14T107 22L158 210Q158 214 155 214H91Q81 214 83 224L84 232Q85 242 96 242H163Q168 242 168 246L220 440Q220 444 217 444H152Q148 444 146 447T144 454L145 462Q147 472 156 472H225Q230
472 230 476L282 668Q284 676 293 676H302Q306 676 308 673T310 665L259 476Q259 472 262 472H444Q449 472 449 476L501 668Q503 676 513 676H521Q526 676 528 673T529 665L478 476Q478 472 481 472H544Q553 472 551 462L550 454Q550 444 540 444ZM386 242T386
246L438 440Q438 444 436 444H254Q249 444 249 440L197 246Q197 242 199 242H381Q386 242 386 246Z" />
<glyph unicode="$" glyph-name="dollar" horiz-adv-x="463" d="M410 106T360 51T226 -8Q222 -8 222 -12L215 -77Q213 -87 204 -87H198Q189 -87 189 -77L197 -11Q199 -7 194 -7Q132 -1 97 37T62 137Q62 145 64 165L67 193Q69 203 78 203H86Q95 203 95 193L91 167Q89
151 89 143Q89 86 124 53T220 19Q285 19 328 58T379 162Q380 169 380 183Q380 217 365 243T323 292T244 349Q196 381 170 402T129 452T114 518Q114 526 116 546Q125 618 167 660T277 708Q281 708 281 712L290 781Q292 791 301 791H306Q310 791 312 788T314 781L306
712Q304 708 309 708Q376 704 413 666T450 562Q450 554 448 534L445 508Q444 504 441 501T434 498H424Q415 498 415 508L418 531Q420 549 420 556Q420 614 387 647T292 681Q231 681 192 646T145 546Q143 530 143 523Q143 491 157 468T195 426T270 374Q346 324 378
286T410 193Q410 106 360 51Z" />
<glyph unicode="%" glyph-name="percent" horiz-adv-x="801" d="M212 443T180 476T148 560Q148 600 168 634T222 689T294 710Q342 710 374 677T406 594Q406 554 386 520T333 464T261 443Q212 443 180 476ZM190 0T188 3T190 12L634 693Q638 700 647 700H651Q657
700 659 697T657 688L212 7Q209 0 200 0H195Q190 0 188 3ZM295 468T322 485T365 530T382 592Q382 632 356 658T291 685Q260 685 233 668T190 623T173 562Q173 521 198 495T264 468Q295 468 322 485ZM507 -10T475 23T442 107Q442 147 462 181T516 236T588 257Q636
257 668 224T700 141Q700 101 680 67T627 11T556 -10Q507 -10 475 23ZM589 15T616 32T659 77T676 138Q676 178 650 205T585 232Q554 232 527 216T483 171T466 110Q466 69 492 42T559 15Q589 15 616 32Z" />
<glyph unicode="&amp;" glyph-name="ampersand" horiz-adv-x="561" d="M481 7Q481 0 471 0H461Q454 0 449 6Q418 54 397 91Q396 96 391 91Q342 37 300 15T205 -8Q137 -8 98 25T59 120Q59 176 82 221T139 299T226 374Q230 376 228 379Q188 448 174 482T160 546Q160
618 202 663T308 708Q361 708 393 677T425 594Q425 547 404 509T353 441T271 371Q267 369 269 365L338 249Q362 211 400 149Q403 145 406 149Q437 184 473 234Q479 242 487 236L493 231Q500 225 495 217Q453 163 420 124Q418 122 419 117Q459 49 479 12L481 7ZM260
679T229 650T190 568Q189 561 189 549Q189 524 201 493T250 398Q251 394 256 397Q325 449 360 492T396 590Q396 631 372 655T306 679Q260 679 229 650ZM255 20T293 41T378 115Q380 118 378 121Q349 170 325 214L245 348Q245 351 240 348Q174 297 136 252T90 147Q89
140 89 126Q89 76 120 48T208 20Q255 20 293 41Z" />
<glyph unicode="&apos;" glyph-name="quotesingle" horiz-adv-x="97" d="M78 505T79 515L97 687Q99 697 108 697H121Q125 697 127 694T129 687L104 515Q103 505 93 505H87Q78 505 79 515Z" />
<glyph unicode="(" glyph-name="parenleft" horiz-adv-x="184" d="M48 -112T45 -105Q26 -55 16 17T5 171Q5 246 14 321Q30 445 68 564T153 759Q159 766 166 766H174Q179 766 181 763T179 754Q135 679 99 562T48 323Q39 245 39 168Q39 90 48 20T74 -100L75 -104Q75
-112 66 -112H55Q48 -112 45 -105Z" />
<glyph unicode=")" glyph-name="parenright" horiz-adv-x="184" d="M71 -112T63 -112H52Q47 -112 46 -109T47 -100Q91 -26 126 89T176 323Q186 402 186 488Q186 567 177 636T152 754L151 758Q151 766 160 766H168Q175 766 178 759Q198 707 209 634T220 477Q220
395 210 321Q195 200 158 84T75 -105Q71 -112 63 -112Z" />
<glyph unicode="*" glyph-name="asterisk" horiz-adv-x="367" d="M199 393T201 403L218 542Q218 544 217 545T213 545L89 474L84 472Q78 472 76 478L75 482Q74 484 74 487Q74 493 79 496L203 567Q205 568 205 570T204 573L98 644Q94 646 94 650T96 658L99 662Q105
672 113 666L220 595Q221 594 222 595T225 598L242 737Q244 747 253 747H259Q263 747 265 744T267 737L250 598Q250 593 254 595L379 666L384 668Q388 668 392 662L393 658Q394 656 394 653Q394 647 389 644L264 573Q263 572 263 570T264 567L370 496Q374 494 374
490T372 482L369 478Q367 474 363 473T355 474L248 545Q246 546 245 545T243 542L226 403Q224 393 215 393H209Q199 393 201 403Z" />
<glyph unicode="+" glyph-name="plus" horiz-adv-x="462" d="M444 335T442 325V319Q440 309 431 309H266Q262 309 262 305L241 137Q239 127 230 127H224Q214 127 216 137L236 305Q237 306 236 307T233 309H68Q58 309 60 319V325Q62 335 71 335H236Q240 335 240
339L262 511Q262 515 265 518T273 521H278Q283 521 285 518T287 511L266 339Q265 338 266 337T269 335H434Q444 335 442 325Z" />
<glyph unicode="," glyph-name="comma" horiz-adv-x="205" d="M32 -68T35 -57L101 144Q104 153 113 153H122Q126 153 128 150T129 142L60 -59Q56 -68 48 -68H42Q32 -68 35 -57Z" />
<glyph unicode="-" glyph-name="hyphen" horiz-adv-x="334" d="M63 306T61 309T59 316L60 324Q62 334 71 334H306Q316 334 314 324L313 316Q313 312 310 309T302 306H68Q63 306 61 309Z" />
<glyph unicode="." glyph-name="period" horiz-adv-x="218" d="M74 6T65 17T55 44Q55 64 68 78T100 93Q114 93 124 83T134 56Q134 36 120 21T89 6Q74 6 65 17Z" />
<glyph unicode="/" glyph-name="slash" horiz-adv-x="268" d="M17 0T15 3T15 11L272 691Q276 700 284 700H293Q298 700 300 697T300 689L43 9Q39 0 31 0H22Q17 0 15 3Z" />
<glyph unicode="0" glyph-name="zero" horiz-adv-x="464" d="M141 -9T101 31T61 139Q61 147 63 167L108 533Q118 612 170 660T299 709Q368 709 409 669T450 561Q450 553 448 533L403 167Q393 88 340 40T210 -9Q141 -9 101 31ZM278 19T321 59T373 164L419 536Q421
552 421 560Q421 615 387 648T295 681Q233 681 189 641T138 536L92 164Q90 148 90 140Q90 85 123 52T214 19Q278 19 321 59Z" />
<glyph unicode="1" glyph-name="one" horiz-adv-x="281" d="M231 700T236 700H249Q259 700 257 690L174 10Q172 0 163 0H153Q143 0 145 10L224 657Q225 659 224 660T220 659L113 604L108 602Q105 602 103 604T102 611L103 617Q104 624 111 629L223 696Q231 700 236 700Z" />
<glyph unicode="2" glyph-name="two" horiz-adv-x="437" d="M41 0T39 3T37 10L38 20Q40 28 44 33L276 337Q382 476 382 565Q382 618 353 649T272 680Q216 680 178 642T133 542L128 508Q128 504 125 501T117 498H107Q98 498 98 508L103 543Q113 617 160 662T275
708Q339 708 376 670T413 568Q413 560 411 542Q401 455 301 323L265 276Q79 33 79 33Q77 31 78 30T81 28H363Q368 28 370 25T372 18L371 10Q369 0 360 0H46Q41 0 39 3Z" />
<glyph unicode="3" glyph-name="three" horiz-adv-x="433" d="M373 305T373 267Q373 250 369 206Q361 144 344 104Q297 -8 186 -8Q129 -8 95 24T54 115Q52 135 52 148Q52 172 55 194Q57 204 66 204H75Q85 204 84 194Q82 166 82 151Q82 134 83 127Q87 76 114 48T190
20Q279 20 317 112Q333 151 341 207Q344 236 344 260Q344 298 337 323Q319 404 237 404Q226 404 215 401H211Q206 401 203 405L200 409Q195 415 200 423L386 667Q388 668 387 670T384 672H125Q115 672 117 682L118 690Q118 694 121 697T129 700H419Q423 700 425
697T427 690L426 679Q424 671 420 666L242 431Q240 429 241 428T245 426Q341 426 365 337Q373 305 373 267Z" />
<glyph unicode="4" glyph-name="four" horiz-adv-x="425" d="M386 228T386 218L385 210Q383 200 374 200H340Q337 200 335 196L313 10Q312 6 309 3T302 0H292Q283 0 283 10L306 196Q307 197 306 198T303 200H57Q52 200 50 203T48 210L49 220Q51 229 53 232L293
692Q296 700 304 700H314Q319 700 321 697T320 688L84 233Q83 231 83 230T86 228H306Q308 228 309 229T311 232L333 413Q335 423 344 423H354Q358 423 360 420T362 413L340 232Q340 228 343 228H377Q386 228 386 218Z" />
<glyph unicode="5" glyph-name="five" horiz-adv-x="433" d="M392 302T392 275Q392 251 388 211Q381 156 369 121Q347 59 305 26T205 -8Q145 -8 111 26T71 122L69 155Q70 159 73 162T80 165H90Q99 165 99 155V130Q103 78 131 49T208 20Q256 20 291 49T343 132Q353
159 359 211Q363 253 363 276Q363 293 362 301Q359 350 331 375T255 401Q208 401 173 379T120 314Q117 305 108 305H98Q93 305 91 308T89 315L135 690Q137 700 146 700H413Q423 700 421 690L420 682Q420 678 417 675T409 672H166Q162 672 162 668L124 371Q124 369
125 368T128 369Q151 398 185 413T260 429Q316 429 350 401T390 317Q392 302 392 275Z" />
<glyph unicode="6" glyph-name="six" horiz-adv-x="434" d="M394 297T394 270Q394 241 390 210Q382 151 370 122Q348 60 308 26T208 -8Q150 -8 116 24T75 117Q73 129 73 156Q73 187 76 211L116 536Q126 615 174 661T292 708Q351 708 385 671T420 569Q420 561 418
541L417 536Q415 526 406 526H396Q392 526 390 528T388 535L389 543Q390 551 390 566Q390 618 362 649T288 680Q233 680 193 641T146 538L123 354Q123 351 124 351T127 353Q174 429 261 429Q373 429 390 312Q394 297 394 270ZM355 169T361 211Q364 246 364 269Q364
291 363 299Q359 347 332 374T256 402Q208 402 174 374T123 295Q112 266 105 211Q101 174 101 146Q101 88 128 54T209 20Q256 20 292 49T345 135Q355 169 361 211Z" />
<glyph unicode="7" glyph-name="seven" horiz-adv-x="389" d="M111 0T116 11L396 667Q397 669 396 670T393 672H130Q126 672 126 668L120 625Q120 621 117 618T109 615H102Q97 615 95 618T93 625L102 690Q103 700 113 700H423Q427 700 429 697T431 690L430 678L426
666L146 8Q143 0 134 0H122Q111 0 116 11Z" />
<glyph unicode="8" glyph-name="eight" horiz-adv-x="445" d="M315 378T318 374Q362 351 375 301Q385 272 385 234Q385 214 382 191Q375 125 346 80Q323 37 286 15T201 -8Q153 -8 122 15T76 83Q67 113 67 153Q67 178 69 192Q76 254 102 298Q130 352 179 373Q184
376 180 378Q146 396 127 430Q109 462 109 508Q109 582 147 634Q171 669 208 688T289 708Q335 708 366 690T413 635Q427 604 427 563Q427 485 384 431Q358 397 319 379Q315 378 318 374ZM166 419T191 405T250 390Q285 390 315 406T365 450Q397 496 397 563Q397
595 386 620Q374 649 348 665T284 681Q248 681 219 664T169 617Q139 574 139 509Q139 471 152 446Q166 419 191 405ZM344 130T352 192Q355 215 355 235Q355 265 348 286Q339 323 313 343T246 363Q166 363 125 286Q106 251 98 191Q95 170 95 153Q95 119 105 93Q116
58 141 39T204 20Q243 20 273 39T322 94Q344 130 352 192Z" />
<glyph unicode="9" glyph-name="nine" horiz-adv-x="437" d="M412 571T412 546Q412 523 408 489L368 164Q358 85 310 39T193 -8Q134 -8 100 29T65 131Q65 139 67 159L68 164Q68 168 71 171T79 174H88Q93 174 95 172T97 166L96 157Q95 149 95 134Q95 82 122 51T196
20Q251 20 291 59T339 162L362 346Q362 349 360 349T357 347Q311 271 223 271Q111 271 94 388Q90 410 90 428Q90 450 95 490Q103 549 115 578Q137 640 177 674T277 708Q335 708 369 676T410 583Q412 571 412 546ZM277 298T311 326T362 405Q373 436 379 489Q385
531 383 569Q380 620 353 650T276 680Q229 680 193 651T139 565Q129 530 124 489Q120 461 120 435Q120 419 122 401Q126 353 153 326T229 298Q277 298 311 326Z" />
<glyph unicode=":" glyph-name="colon" horiz-adv-x="242" d="M129 355T120 365T110 393Q110 413 123 427T155 442Q170 442 180 431T191 404Q191 384 177 370T144 355Q129 355 120 365ZM87 13T78 23T68 51Q68 71 81 85T113 100Q128 100 138 89T149 62Q149 42 135
28T102 13Q87 13 78 23Z" />
<glyph unicode=";" glyph-name="semicolon" horiz-adv-x="232" d="M128 366T119 377T109 404Q109 424 122 438T154 453Q168 453 178 442T189 415Q189 396 175 381T143 366Q128 366 119 377ZM57 -62T55 -59T54 -51L102 139Q105 148 113 148H124Q128 148 130 145T131
137L78 -53Q75 -62 67 -62H62Q57 -62 55 -59Z" />
<glyph unicode="&lt;" glyph-name="less" horiz-adv-x="462" d="M410 65T407 63T399 63L58 249Q52 251 52 261L54 275Q56 283 62 287L449 472L454 474Q457 474 459 472T460 465L458 454Q458 447 450 442L87 271Q81 268 86 265L407 94Q413 90 413 82L411 70Q410
65 407 63Z" />
<glyph unicode="=" glyph-name="equal" horiz-adv-x="462" d="M59 429T59 439L60 445Q62 455 71 455H434Q444 455 442 445V439Q441 435 438 432T431 429H68Q59 429 59 439ZM59 467T59 477L60 483Q62 493 71 493H434Q444 493 442 483V477Q441 473 438 470T431 467H68Q59
467 59 477Z" />
<glyph unicode="&gt;" glyph-name="greater" horiz-adv-x="462" d="M36 61T34 61Q31 61 30 63T29 70L30 82Q32 90 39 94L402 265Q407 268 403 271L81 442Q76 446 76 454L77 465Q78 470 82 472T90 472L431 287Q437 282 436 275L435 261Q433 252 426 249L40 63Q36
61 34 61Z" />
<glyph unicode="?" glyph-name="question" horiz-adv-x="366" d="M161 187T159 190T157 197L166 271Q171 310 190 335T247 394Q289 430 312 462T343 546Q345 564 345 571Q345 621 319 651T247 681Q196 681 160 644T116 547L111 509Q109 499 100 499H90Q86 499
84 502T82 509L87 547Q95 620 140 664T251 709Q307 709 340 673T373 575Q373 566 371 544Q366 500 351 468T316 415T266 368Q233 340 217 320T197 270L188 197Q186 187 177 187H166Q161 187 159 190ZM137 5T127 15T117 42Q117 62 130 76T162 91Q176 91 186 81T196
54Q196 34 183 20T151 5Q137 5 127 15Z" />
<glyph unicode="@" glyph-name="at" horiz-adv-x="775" d="M556 594T612 565T699 481T729 356Q729 311 717 261Q695 172 646 122T535 71Q502 71 481 86T451 130Q451 132 450 132T447 131Q428 102 400 86T338 70Q298 70 276 92T253 151Q253 166 257 186T266 229L271
251Q284 304 295 335Q310 379 344 405T423 432Q449 432 468 421T495 390Q496 388 498 388T500 391L507 418Q510 427 518 427H524Q529 427 531 424T532 416L478 196Q474 181 474 166Q474 134 492 115T543 96Q591 96 630 138T689 259Q702 307 702 351Q702 451 640
509T473 568Q394 568 316 529T181 415T105 237Q97 194 97 160Q97 56 155 -6T318 -68Q367 -68 415 -55T490 -22Q498 -16 503 -24L506 -28Q508 -32 508 -34Q508 -39 503 -42Q470 -64 418 -78T311 -93Q197 -93 134 -26T71 155Q71 200 79 239Q99 349 161 429T308 552T480
594Q556 594 612 565ZM380 95T406 117T445 174Q453 198 463 238L466 251Q479 306 484 329Q486 341 486 346Q486 373 469 390T423 408Q389 408 361 386T319 329Q309 298 298 252Q284 192 281 174Q280 168 280 158Q280 129 297 112T346 95Q380 95 406 117Z" />
<glyph unicode="A" glyph-name="A" horiz-adv-x="484" d="M397 0T397 8L376 149Q376 152 372 152H111Q107 152 106 149L50 8Q48 0 39 0H30Q18 0 23 11L289 692Q291 700 300 700H315Q323 700 325 692L425 11V9Q425 0 415 0H406Q397 0 397 8ZM117 182T118 181T122
179H367Q369 179 370 180T372 183L305 648Q304 650 303 650T300 648L118 183Q117 182 118 181Z" />
<glyph unicode="B" glyph-name="B" horiz-adv-x="518" d="M379 363T379 362T381 360Q420 343 441 307T462 220Q462 199 460 187Q450 100 397 50T263 0H88Q78 0 80 10L163 690Q165 700 174 700H345Q418 700 458 661T499 552Q499 483 468 434T381 364Q379 363 379
362ZM190 672T190 668L154 380Q154 376 158 376H305Q379 376 424 423T470 548Q470 606 436 639T342 672H194Q190 672 190 668ZM333 29T377 71T431 188Q433 208 433 218Q433 279 399 314T303 349H154Q150 349 150 345L112 33Q111 32 112 31T115 29H265Q333 29 377
71Z" />
<glyph unicode="C" glyph-name="C" horiz-adv-x="505" d="M162 -8T119 34T75 147Q75 156 77 176L120 525Q130 608 186 658T324 708Q398 708 441 667T485 554Q485 544 483 526L481 515Q481 511 478 508T470 505H461Q451 505 452 514L454 527Q455 535 455 550Q455
609 419 644T320 680Q252 680 205 638T149 527L106 174Q104 156 104 149Q104 90 140 55T239 19Q307 19 354 61T410 174L412 185Q412 189 415 192T423 195L432 194Q443 194 441 185L440 175Q430 93 374 43T236 -8Q162 -8 119 34Z" />
<glyph unicode="D" glyph-name="D" horiz-adv-x="523" d="M78 0T80 10L163 690Q165 700 174 700H351Q420 700 458 661T497 552Q497 542 495 518L454 182Q444 97 393 49T265 0H88Q78 0 80 10ZM111 31T112 30T115 28H269Q333 28 374 69T425 182L466 517Q468 537
468 547Q468 606 437 639T348 672H194Q190 672 190 668L112 32Q111 31 112 30Z" />
<glyph unicode="E" glyph-name="E" horiz-adv-x="505" d="M512 678T509 675T502 672H194Q190 672 190 668L153 368Q153 364 156 364H370Q374 364 376 361T378 354L377 347Q377 343 374 340T366 337H153Q149 337 149 333L112 32Q111 31 112 30T115 28H422Q427 28
429 25T431 18L430 10Q428 0 419 0H88Q78 0 80 10L163 690Q165 700 174 700H505Q515 700 513 690L512 682Q512 678 509 675Z" />
<glyph unicode="F" glyph-name="F" horiz-adv-x="469" d="M510 678T507 675T500 672H194Q190 672 190 668L153 368Q153 364 156 364H369Q373 364 375 361T377 354L376 347Q376 343 373 340T365 337H153Q149 337 149 333L109 10Q107 0 98 0H88Q78 0 80 10L163 690Q165
700 174 700H503Q512 700 512 690L511 682Q510 678 507 675Z" />
<glyph unicode="G" glyph-name="G" horiz-adv-x="504" d="M161 -8T118 33T74 145Q74 154 76 172L120 528Q130 609 186 658T324 708Q398 708 441 667T484 556Q484 547 482 529L478 498Q478 494 475 491T467 488H458Q453 488 451 491T449 498L453 530Q454 538 454
553Q454 611 418 645T320 680Q252 680 205 639T149 529L105 171Q104 163 104 148Q104 89 140 55T239 20Q307 20 354 61T409 170L426 306Q426 310 422 310H291Q281 310 283 320L284 328Q284 332 287 335T295 338H449Q459 338 457 328L438 172Q428 90 373 41T236
-8Q161 -8 118 33Z" />
<glyph unicode="H" glyph-name="H" horiz-adv-x="551" d="M492 700T501 700H511Q521 700 519 690L436 10Q434 0 425 0H415Q405 0 407 10L446 333Q447 334 446 335T443 337H153Q149 337 149 333L109 10Q107 0 98 0H88Q78 0 80 10L163 690Q165 700 174 700H184Q194
700 192 690L153 368Q153 364 156 364H446Q449 364 451 368L490 690Q492 700 501 700Z" />
<glyph unicode="I" glyph-name="I" horiz-adv-x="224" d="M78 0T80 10L163 690Q165 700 174 700H184Q194 700 192 690L109 10Q107 0 98 0H88Q78 0 80 10Z" />
<glyph unicode="J" glyph-name="J" horiz-adv-x="477" d="M113 -8T72 32T30 141Q30 150 32 170L40 242Q42 252 51 252H61Q71 252 69 242L61 169Q59 153 59 145Q59 88 93 54T188 20Q253 20 299 61T352 169L416 690Q417 694 420 697T427 700H437Q446 700 446 690L382
170Q372 90 318 41T184 -8Q113 -8 72 32Z" />
<glyph unicode="K" glyph-name="K" horiz-adv-x="501" d="M78 0T80 10L163 690Q165 700 174 700H184Q194 700 192 690L147 322Q147 320 149 319T152 320L485 694Q490 700 498 700H510Q516 700 517 697T514 688L280 422Q278 418 279 416L453 12L455 7Q455 0 445
0H431Q424 0 420 7L255 390Q255 392 254 392T251 390L143 274Q141 270 141 269L109 10Q107 0 98 0H88Q78 0 80 10Z" />
<glyph unicode="L" glyph-name="L" horiz-adv-x="458" d="M78 0T80 10L163 690Q165 700 174 700H184Q194 700 192 690L112 32Q111 31 112 30T115 28H408Q418 28 416 18L415 10Q415 6 412 3T404 0H88Q78 0 80 10Z" />
<glyph unicode="M" glyph-name="M" horiz-adv-x="592" d="M78 0T80 10L163 690Q165 700 174 700H185Q193 700 196 693L318 369Q318 367 320 367T324 369L527 693Q531 700 540 700H552Q556 700 558 697T560 690L477 10Q476 6 473 3T466 0H456Q447 0 447 10L523
627Q524 630 522 630T518 628L333 331Q329 324 320 324H314Q305 324 304 331L190 629Q188 631 187 631T185 628L109 10Q107 0 98 0H88Q78 0 80 10Z" />
<glyph unicode="N" glyph-name="N" horiz-adv-x="565" d="M78 0T80 10L163 690Q165 700 174 700H185Q193 700 196 693L422 74Q424 72 425 72T427 76L503 690Q505 700 514 700H523Q528 700 530 697T532 690L448 10Q448 6 445 3T437 0H426Q416 0 415 7L188 626Q187
628 186 628T183 624L109 10Q107 0 98 0H88Q78 0 80 10Z" />
<glyph unicode="O" glyph-name="O" horiz-adv-x="518" d="M164 -8T120 36T76 152Q76 162 78 182L119 517Q129 602 186 655T326 708Q400 708 444 664T489 547Q489 537 487 517L446 182Q436 97 378 45T238 -8Q164 -8 120 36ZM311 20T359 64T417 181L458 518Q460
536 460 544Q460 606 423 643T322 680Q253 680 205 636T148 518L107 181Q105 163 105 155Q105 94 142 57T241 20Q311 20 359 64Z" />
<glyph unicode="P" glyph-name="P" horiz-adv-x="494" d="M425 702T462 661T499 551Q499 540 497 518Q487 436 438 386T316 336H148Q144 336 144 332L104 10Q102 0 93 0H83Q79 0 77 3T75 10L159 692Q159 696 162 699T170 702H361Q425 702 462 661ZM361 363T395
386T450 451T470 547Q470 605 440 639T356 674H189Q188 674 187 673T185 670L148 367Q148 363 151 363H318Q361 363 395 386Z" />
<glyph unicode="Q" glyph-name="Q" horiz-adv-x="485" d="M382 708T424 665T466 550Q466 541 464 521L422 179Q412 100 363 50T241 -8Q236 -8 236 -12L224 -115Q223 -119 220 -122T213 -125H203Q194 -125 194 -115L207 -12Q207 -8 204 -8Q140 -2 104 40T67 149Q67
159 69 179L111 521Q121 604 176 656T310 708Q382 708 424 665ZM435 523Q436 531 436 548Q436 608 402 644T307 680Q240 680 194 637T140 523L97 177Q96 169 96 152Q96 92 131 56T226 20Q292 20 338 63T392 177L435 523Z" />
<glyph unicode="R" glyph-name="R" horiz-adv-x="503" d="M412 0T411 8L315 337Q314 340 311 340H153Q149 340 149 336L109 10Q107 0 98 0H88Q78 0 80 10L164 692Q164 696 167 699T174 702H360Q424 702 461 662T499 553Q499 542 497 520Q489 449 449 402T348 343Q342
341 344 338L439 12L440 9Q440 0 430 0H421Q412 0 411 8ZM190 674T190 670L153 371Q153 367 157 367H319Q362 367 396 390T450 454T470 549Q470 606 439 640T356 674H194Q190 674 190 670Z" />
<glyph unicode="S" glyph-name="S" horiz-adv-x="482" d="M150 -8T106 32T61 140Q61 148 63 166L66 193Q68 203 77 203H86Q95 203 95 193L91 167Q90 159 90 145Q90 87 127 53T230 19Q306 19 352 64T399 184Q399 232 367 267T257 348Q204 381 176 402T132 452T115
519Q115 609 167 658T306 708Q384 708 426 669T469 561Q469 553 467 533L464 508Q462 498 453 498H443Q439 498 437 501T435 508L438 531Q439 539 439 555Q439 613 403 647T302 681Q231 681 187 640T143 524Q143 492 157 469T198 426T278 374Q360 323 395 285T430
191Q430 184 428 166Q418 87 364 40T226 -8Q150 -8 106 32Z" />
<glyph unicode="T" glyph-name="T" horiz-adv-x="464" d="M486 700T484 690L483 682Q483 678 480 675T472 672H309Q307 672 306 671T304 668L223 10Q223 6 220 3T212 0H203Q194 0 194 10L275 668Q275 672 272 672H117Q113 672 111 675T109 682L110 690Q112 700
121 700H476Q486 700 484 690Z" />
<glyph unicode="U" glyph-name="U" horiz-adv-x="550" d="M179 -8T136 37T92 160Q92 170 94 192L156 690Q156 694 159 697T166 700H176Q185 700 185 690L123 188Q121 170 121 161Q121 97 158 59T258 20Q328 20 376 66T434 188L496 690Q498 700 507 700H517Q521
700 523 697T525 690L464 192Q453 102 395 47T254 -8Q179 -8 136 37Z" />
<glyph unicode="V" glyph-name="V" horiz-adv-x="475" d="M208 0T206 2T203 9L106 689V691Q106 700 116 700H126Q135 700 135 691L223 58Q224 56 225 56T228 58L472 691Q473 695 476 697T484 700H492Q497 700 499 697T500 689L236 9Q232 0 224 0H212Q208 0 206 2Z" />
<glyph unicode="W" glyph-name="W" horiz-adv-x="709" d="M173 0T173 9L97 689V691Q97 700 106 700H116Q124 700 126 691L194 68Q194 65 195 65T198 68L404 691Q407 700 416 700H426Q436 700 436 691L491 68Q492 65 493 65T496 68L714 691Q718 700 726 700H737Q748
700 743 689L502 9Q498 0 490 0H478Q469 0 469 9L415 634Q415 637 414 637T412 634L205 9Q202 0 193 0H182Q173 0 173 9Z" />
<glyph unicode="X" glyph-name="X" horiz-adv-x="472" d="M26 0T24 3T26 12L243 347Q246 350 244 353L109 688Q108 689 108 692Q108 700 118 700H129Q138 700 139 693L261 380Q262 378 264 378T267 380L464 693Q468 700 477 700H488Q493 700 495 697T494 688L276
352Q275 350 275 346L411 12Q412 11 412 8Q412 4 409 2T402 0H391Q381 0 380 7L259 319Q259 321 257 321T254 319L55 7Q52 0 43 0H32Q26 0 24 3Z" />
<glyph unicode="Y" glyph-name="Y" horiz-adv-x="452" d="M193 0T193 10L233 332Q233 336 232 337L109 688L108 692Q108 700 117 700H127Q136 700 137 693L249 369Q250 367 252 367T255 369L446 693Q449 700 458 700H468Q473 700 474 697T473 688L264 337Q262
336 262 332L222 10Q222 6 219 3T211 0H202Q193 0 193 10Z" />
<glyph unicode="Z" glyph-name="Z" horiz-adv-x="450" d="M27 0T27 10L29 21Q29 24 33 34L427 667Q430 672 425 672H118Q114 672 112 675T110 682L111 690Q113 700 122 700H455Q459 700 461 697T463 690L462 679Q460 671 457 666L64 33Q62 28 66 28H372Q381 28
381 18L380 10Q379 6 376 3T369 0H36Q27 0 27 10Z" />
<glyph unicode="[" glyph-name="bracketleft" horiz-adv-x="308" d="M0 -106T-2 -103T-4 -96L100 749Q100 753 103 756T111 759H250Q255 759 257 756T259 749L258 741Q256 731 247 731H130Q129 731 128 730T126 727L28 -74Q28 -78 31 -78H149Q153 -78 155 -81T157
-88L156 -96Q154 -106 145 -106H4Q0 -106 -2 -103Z" />
<glyph unicode="\" glyph-name="backslash" horiz-adv-x="268" d="M217 9Q217 5 214 3T207 0H198Q190 0 188 9L98 689V691Q98 700 108 700H117Q125 700 127 691L217 11V9Z" />
<glyph unicode="]" glyph-name="bracketright" horiz-adv-x="308" d="M248 -106T239 -106H99Q94 -106 92 -103T90 -96L91 -88Q93 -78 102 -78H219Q222 -78 224 -74L322 727Q322 731 319 731H202Q192 731 194 741L195 749Q197 759 206 759H345Q350 759 352 756T354
749L250 -96Q248 -106 239 -106Z" />
<glyph unicode="^" glyph-name="asciicircum" horiz-adv-x="397" d="M65 313T63 316T64 325L246 692Q250 700 258 700H271Q280 700 281 692L374 325V322Q374 318 371 316T364 313H356Q347 313 346 321L263 664Q262 667 261 667T257 664L90 321Q86 313 78 313H70Q65
313 63 316Z" />
<glyph unicode="_" glyph-name="underscore" horiz-adv-x="394" d="M16 0T14 3T12 10L13 18Q15 28 24 28H338Q347 28 347 18L346 10Q345 6 342 3T335 0H20Q16 0 14 3Z" />
<glyph unicode="`" glyph-name="grave" horiz-adv-x="161" d="M179 590T179 587Q179 580 170 580H164Q158 580 154 587L104 698L103 702Q103 710 112 710H122Q132 710 133 703L178 592Q179 590 179 587Z" />
<glyph unicode="a" glyph-name="a" horiz-adv-x="457" d="M388 501T397 501H407Q417 501 415 491L356 10Q356 6 353 3T345 0H336Q331 0 329 3T327 10L334 62Q334 65 332 65T329 63Q307 29 274 11T199 -8Q138 -8 103 30T67 130Q68 173 78 250Q89 336 96 371Q111
433 156 471T262 509Q304 509 332 491T375 438Q376 436 377 436T380 439L386 491Q388 501 397 501ZM348 182T357 250Q365 314 368 365Q370 416 342 448T264 481Q212 481 174 449T124 365Q116 322 107 251Q99 184 96 136Q94 84 124 52T207 20Q257 20 293 52T340
136Q348 182 357 250Z" />
<glyph unicode="b" glyph-name="b" horiz-adv-x="457" d="M412 334T401 250L398 229Q391 164 383 130Q368 68 323 30T217 -8Q176 -8 147 10T105 63Q104 66 102 66T100 62L93 10Q93 6 90 3T82 0H73Q64 0 64 10L148 690Q150 700 159 700H168Q173 700 175 697T177
690L146 439Q146 436 147 436T150 438Q172 472 205 490T281 509Q342 509 378 471T413 371Q412 334 401 250ZM364 179T372 251Q377 292 380 320T383 369Q383 418 353 449T272 481Q223 481 187 449T140 365Q132 325 123 250Q112 171 112 129Q112 81 140 51T216 20Q268
20 306 52T355 136Q364 179 372 251Z" />
<glyph unicode="c" glyph-name="c" horiz-adv-x="434" d="M143 -8T106 30T69 130Q70 181 78 251Q83 291 99 371Q114 433 160 471T269 509Q330 509 368 474T408 387V383Q409 379 409 371Q409 367 406 364T398 361H390Q380 361 380 368V378Q381 421 349 451T266
481Q213 481 175 449T126 363Q118 324 108 251L105 223Q98 162 98 135Q98 83 127 52T209 20Q261 20 300 50T349 123V127Q352 136 361 136H371Q381 136 378 125L376 118Q375 117 375 114Q363 63 316 28T206 -8Q143 -8 106 30Z" />
<glyph unicode="d" glyph-name="d" horiz-adv-x="457" d="M411 694T414 697T422 700H431Q440 700 440 690L356 10Q356 6 353 3T345 0H336Q331 0 329 3T327 10L334 62Q334 65 332 65T329 63Q307 29 274 11T199 -8Q138 -8 103 30T67 130Q68 173 78 250Q89 336 96
371Q111 433 156 471T262 509Q304 509 332 491T375 438Q376 436 377 436T380 439L411 690Q411 694 414 697ZM348 182T357 250Q365 314 368 365Q370 416 342 448T264 481Q212 481 174 449T124 365Q116 322 107 251Q99 184 96 136Q94 84 124 52T207 20Q257 20 293
52T340 136Q348 182 357 250Z" />
<glyph unicode="e" glyph-name="e" horiz-adv-x="445" d="M254 20T288 43T341 107Q345 115 354 115H361Q371 115 368 103Q347 53 304 23T204 -8Q141 -8 105 30T68 129Q69 164 76 225L79 251Q89 331 97 370Q112 432 158 470T267 509Q330 509 367 472T405 373Q405
351 402 322T394 254Q392 244 383 244H111Q107 244 107 240Q106 227 102 203Q96 149 96 133Q96 82 126 51T208 20Q254 20 288 43ZM211 481T173 449T124 364Q118 335 111 274Q111 270 115 270H363Q367 270 367 274Q376 348 376 368Q376 419 346 450T264 481Q211
481 173 449Z" />
<glyph unicode="f" glyph-name="f" horiz-adv-x="292" d="M233 677T210 645T178 543L174 505Q173 504 174 503T177 501H279Q289 501 287 491L286 484Q286 480 283 477T275 474H174Q171 474 169 470L113 10Q111 0 102 0H92Q82 0 84 10L140 470Q140 474 137 474H83Q79
474 77 477T75 484L76 491Q78 501 87 501H140Q144 501 144 505L149 544Q159 626 190 665T290 705H309Q319 705 317 695L316 687Q315 677 304 677H288Q233 677 210 645Z" />
<glyph unicode="g" glyph-name="g" horiz-adv-x="446" d="M389 501T398 501H408Q418 501 416 491L356 2Q344 -99 288 -150T131 -200Q120 -200 122 -190L123 -182Q125 -172 134 -172Q222 -173 269 -129T327 3L335 63Q335 66 333 66T330 64Q309 30 275 12T200 -7Q138
-7 103 31T67 131Q69 185 77 250Q88 331 97 371Q112 432 157 470T263 509Q304 509 333 491T376 438Q377 435 378 435T381 439L387 491Q389 501 398 501ZM350 187T358 250Q366 320 369 363Q371 415 343 448T264 481Q212 481 174 448T124 363Q117 329 106 251Q102
219 96 138Q95 87 125 54T207 20Q258 20 294 53T341 138Q350 187 358 250Z" />
<glyph unicode="h" glyph-name="h" horiz-adv-x="459" d="M343 508T376 473T409 377Q409 368 407 348L366 10Q364 0 355 0H345Q341 0 339 3T337 10L378 344Q379 352 379 368Q379 420 352 450T275 480Q220 480 183 444T136 347L135 341L134 339L93 10Q93 6 90 3T82
0H73Q64 0 64 10L148 690Q150 700 159 700H168Q173 700 175 697T177 690L146 438Q145 435 146 435T150 436Q173 471 207 489T285 508Q343 508 376 473Z" />
<glyph unicode="i" glyph-name="i" horiz-adv-x="206" d="M147 616T139 624T131 646Q131 661 142 671T168 682Q180 682 187 674T194 654Q194 638 184 627T160 616Q147 616 139 624ZM75 0T73 3T71 10L130 491Q132 501 141 501H151Q161 501 159 491L100 10Q98 0
89 0H80Q75 0 73 3Z" />
<glyph unicode="j" glyph-name="j" horiz-adv-x="194" d="M141 616T134 624T126 646Q126 662 136 672T161 682Q190 682 190 656Q190 638 180 627T153 616Q141 616 134 624ZM-61 -211T-61 -201L-60 -193Q-58 -183 -49 -183Q-6 -179 21 -150T55 -69L123 491Q125
501 134 501H144Q154 501 152 491L84 -69Q76 -134 41 -171T-52 -211Q-61 -211 -61 -201Z" />
<glyph unicode="k" glyph-name="k" horiz-adv-x="417" d="M64 0T64 10L148 690Q150 700 159 700H168Q173 700 175 697T177 690L122 244Q122 242 124 242T127 243L371 495Q377 501 384 501H396Q402 501 403 498T400 489L278 362Q276 359 277 357L365 12L366 9Q366
0 356 0H344Q336 0 335 8L254 332Q254 334 252 334T248 333L118 198Q116 194 116 193L93 10Q93 6 90 3T82 0H73Q64 0 64 10Z" />
<glyph unicode="l" glyph-name="l" horiz-adv-x="188" d="M61 0T61 10L145 690Q147 700 156 700H165Q170 700 172 697T174 690L90 10Q90 6 87 3T80 0H70Q61 0 61 10Z" />
<glyph unicode="m" glyph-name="m" horiz-adv-x="708" d="M595 508T627 473T659 376Q659 367 657 347L615 10Q615 6 612 3T604 0H595Q590 0 588 3T586 10L627 343Q628 352 628 368Q628 420 602 450T530 480Q476 480 440 444T395 345L354 10Q354 6 351 3T343 0H334Q329
0 327 3T325 10L366 343Q368 361 368 370Q368 421 342 450T270 480Q216 480 179 444T135 345L93 10Q93 6 90 3T82 0H73Q64 0 64 10L123 491Q125 501 134 501H144Q154 501 152 491L147 443Q146 440 147 440T151 441Q173 474 206 491T280 508Q324 508 353 485T393
420Q393 417 394 417T397 420Q418 463 455 485T540 508Q595 508 627 473Z" />
<glyph unicode="n" glyph-name="n" horiz-adv-x="459" d="M343 508T376 473T409 377Q409 368 407 348L366 10Q364 0 355 0H345Q341 0 339 3T337 10L378 344Q379 352 379 368Q379 420 352 450T275 480Q220 480 183 444T136 347L135 341L134 339L93 10Q93 6 90 3T82
0H73Q64 0 64 10L123 491Q125 501 134 501H144Q154 501 152 491L146 438Q145 435 146 435T150 436Q173 471 207 489T285 508Q343 508 376 473Z" />
<glyph unicode="o" glyph-name="o" horiz-adv-x="450" d="M141 -8T105 30T68 130Q68 162 75 218L79 251Q90 335 98 371Q112 433 158 471T268 509Q330 509 367 473T405 377Q405 350 397 272Q397 265 395 251Q385 167 376 130Q362 69 315 31T205 -8Q141 -8 105 30ZM261
20T299 52T350 138Q356 175 365 251L368 278Q377 343 377 368Q377 419 347 450T265 481Q212 481 174 449T124 363Q122 353 113 287L108 251Q104 214 103 204Q97 152 96 138Q95 85 125 53T208 20Q261 20 299 52Z" />
<glyph unicode="p" glyph-name="p" horiz-adv-x="465" d="M419 328T409 251L406 224Q396 155 391 130Q377 68 332 30T225 -8Q183 -8 155 10T112 63Q111 65 110 65T108 62L77 -189Q75 -199 66 -199H56Q46 -199 48 -189L131 491Q133 501 142 501H152Q162 501 160
491L154 439Q153 436 155 436T158 438Q180 472 213 490T289 509Q350 509 385 471T420 371Q419 328 409 251ZM371 179T380 250Q388 317 391 365Q393 416 363 448T280 481Q230 481 195 449T148 365Q140 324 131 251Q120 172 120 129Q120 81 148 51T224 20Q275 20
313 52T363 136Q371 179 380 250Z" />
<glyph unicode="q" glyph-name="q" horiz-adv-x="465" d="M388 501T397 501H407Q417 501 415 491L332 -189Q330 -199 321 -199H311Q301 -199 303 -189L334 62Q334 65 333 65T329 63Q307 29 274 11T199 -8Q137 -8 102 30T66 130Q69 167 75 221L78 251Q88 332 97
371Q112 433 156 471T262 509Q304 509 332 491T375 438Q376 435 377 435T380 439L386 491Q388 501 397 501ZM347 179T357 251Q365 317 368 365Q370 416 342 448T264 481Q212 481 174 449T124 365Q116 315 107 250Q99 184 96 136Q95 85 125 53T207 20Q257 20 293
52T340 136Q347 179 357 251Z" />
<glyph unicode="r" glyph-name="r" horiz-adv-x="304" d="M304 505T323 494Q326 493 327 489T326 481L320 469Q317 459 307 464Q291 472 267 472Q216 471 178 427T131 317L93 10Q93 6 90 3T82 0H73Q64 0 64 10L123 491Q125 501 134 501H144Q154 501 152 491L144
420Q143 417 144 417T148 419Q170 460 202 482T275 505Q304 505 323 494Z" />
<glyph unicode="s" glyph-name="s" horiz-adv-x="400" d="M126 -4T90 27T53 105Q53 115 54 120L55 130Q55 134 58 137T66 140H74Q85 140 83 131L82 121Q81 117 81 110Q81 73 110 48T190 22Q246 22 283 56T320 141Q320 169 305 187T269 215T208 241Q168 256 144
269T103 304T86 360Q86 425 131 465T247 505Q307 505 342 475T378 395Q378 384 377 378V375Q375 365 366 365H357Q348 365 348 372L349 378Q350 382 350 390Q350 428 321 453T243 478Q187 478 151 447T115 365Q115 329 141 309T220 269Q264 252 288 239T331 204T349
146Q349 80 304 38T187 -4Q126 -4 90 27Z" />
<glyph unicode="t" glyph-name="t" horiz-adv-x="294" d="M284 480T281 477T274 474H173Q170 474 168 470L126 127Q124 107 124 100Q124 60 143 44T203 28H219Q229 28 227 18L226 10Q226 6 223 3T215 0H197Q147 0 121 20T95 92Q95 112 97 124L139 470Q139 474
136 474H86Q82 474 80 477T78 484L79 491Q79 495 82 498T90 501H139Q143 501 143 505L157 617Q159 627 168 627H178Q188 627 186 617L173 505Q172 504 173 503T176 501H277Q287 501 285 491L284 484Q284 480 281 477Z" />
<glyph unicode="u" glyph-name="u" horiz-adv-x="458" d="M389 501T398 501H408Q418 501 416 491L357 10Q355 0 346 0H337Q332 0 330 3T328 10L334 58Q335 61 333 61T330 59Q308 27 274 10T199 -7Q140 -7 106 26T71 120Q71 128 73 148L116 491Q116 495 119 498T127
501H136Q145 501 145 491L103 154Q102 145 102 130Q102 78 129 50T205 21Q262 21 300 58T347 160L387 491Q389 501 398 501Z" />
<glyph unicode="v" glyph-name="v" horiz-adv-x="385" d="M159 0T156 8L74 490V492Q74 501 84 501H96Q104 501 106 493L177 52Q178 50 180 50T183 52L362 493Q367 501 374 501H385Q390 501 392 498T393 490L193 8Q188 0 180 0H167Q159 0 156 8Z" />
<glyph unicode="w" glyph-name="w" horiz-adv-x="584" d="M133 0T133 9L74 490V492Q74 501 83 501H93Q102 501 102 492L152 48Q153 45 154 45T156 48L316 492Q318 501 327 501H338Q347 501 348 492L400 48Q400 45 401 45T404 48L564 492Q567 501 576 501H585Q597
501 592 490L413 9Q412 0 402 0H390Q382 0 380 9L327 439Q327 441 326 441T324 439L166 9Q163 0 154 0H143Q133 0 133 9Z" />
<glyph unicode="x" glyph-name="x" horiz-adv-x="378" d="M11 0T10 3T12 12L184 247Q186 250 184 253L71 489Q70 491 70 495Q70 501 78 501H90Q97 501 100 494L201 279Q202 278 204 278T207 279L360 494Q367 501 373 501H385Q390 501 392 498T390 489L218 253Q217
250 218 247L330 12Q331 10 331 6Q331 0 323 0H311Q305 0 301 7L201 222Q200 224 198 224T195 222L41 7Q34 0 28 0H16Q11 0 10 3Z" />
<glyph unicode="y" glyph-name="y" horiz-adv-x="373" d="M7 -200T5 -197T4 -190L5 -183Q5 -179 7 -176T13 -173H19Q51 -172 69 -159T105 -113T153 -3Q154 -1 154 3L67 490V492Q67 501 76 501H86Q94 501 96 493L172 46Q172 44 174 44T177 46L360 493Q365 501 372
501H382Q387 501 389 498T389 490L159 -59Q133 -121 113 -150T72 -190T15 -200H9Q7 -200 5 -197Z" />
<glyph unicode="z" glyph-name="z" horiz-adv-x="383" d="M20 0T22 10L23 21Q23 24 28 34L347 468Q349 469 348 471T345 473H90Q80 473 82 483L83 491Q83 495 86 498T94 501H378Q388 501 386 491L385 480Q383 472 379 467L59 33Q58 32 59 30T62 28H318Q328 28
326 18L325 10Q323 0 314 0H30Q20 0 22 10Z" />
<glyph unicode="{" glyph-name="braceleft" horiz-adv-x="238" d="M93 -106T76 -89T59 -30Q59 -22 61 2L89 225Q91 247 91 254Q91 281 82 295T55 315Q47 318 48 326L49 335Q50 343 59 346Q83 351 96 372T115 435L141 651Q148 709 170 734T238 759H276Q280 759
282 756T284 749L283 741Q281 731 272 731H236Q206 731 191 712T170 650L144 438Q139 394 126 369T89 333Q84 331 89 328Q120 309 120 257Q120 242 117 222L91 3Q89 -17 89 -25Q89 -53 100 -65T137 -78H173Q183 -78 181 -88L180 -96Q180 -100 177 -103T169 -106H132Q93
-106 76 -89Z" />
<glyph unicode="|" glyph-name="bar" horiz-adv-x="128" d="M21 -80T21 -70L122 750Q124 760 133 760H143Q153 760 151 750L51 -70Q50 -74 47 -77T40 -80H30Q21 -80 21 -70Z" />
<glyph unicode="}" glyph-name="braceright" horiz-adv-x="238" d="M3 -106Q-1 -106 -3 -103T-5 -96L-4 -88Q-2 -78 7 -78H43Q73 -78 88 -59T109 3L136 222Q141 265 154 290T191 328Q196 331 191 333Q175 342 168 359T160 404Q160 425 162 438L188 650Q190 670
190 678Q190 706 179 718T142 731H106Q96 731 98 741L99 749Q99 753 102 756T110 759H148Q186 759 203 742T220 684Q220 675 218 651L191 435Q189 415 189 407Q189 380 198 366T225 346Q233 343 232 335L231 326Q230 318 221 315Q197 310 184 289T165 225L138 2Q131
-56 109 -81T41 -106H3Z" />
<glyph unicode="~" glyph-name="asciitilde" horiz-adv-x="449" d="M298 250T278 258T228 287Q211 298 195 304T159 310Q132 310 113 300T78 268Q72 260 66 264L63 266L61 267Q53 272 59 281Q77 308 103 323T162 339Q186 339 203 332T242 312Q268 294 286 286T333
278Q354 278 369 288T404 319Q411 326 416 322L420 320L421 319Q428 313 422 305Q401 278 379 264T328 250Q298 250 278 258Z" />
<glyph unicode="&#xa0;" glyph-name="uni00A0" horiz-adv-x="194" />
<glyph unicode="&#xa1;" glyph-name="exclamdown" horiz-adv-x="265" d="M213 708T223 697T233 670Q233 650 219 636T188 621Q173 621 163 631T153 658Q153 679 166 693T198 708Q213 708 223 697ZM160 492T170 492H178Q187 492 186 482L131 23Q129 13 120 13H110Q100
13 102 23L159 482Q160 492 170 492Z" />
<glyph unicode="&#xa2;" glyph-name="cent" horiz-adv-x="434" d="M360 217Q363 226 372 226H382Q392 226 389 215L387 208Q386 207 386 204Q374 156 330 121T227 82Q223 82 223 78L216 10Q215 6 212 3T205 0H196Q187 0 187 10L196 79Q196 83 193 83Q140 91 110
128T80 220Q81 271 89 341Q94 381 110 461Q123 516 162 553T256 598Q260 598 260 602L269 671Q269 675 272 678T280 681H288Q297 681 297 671L287 603Q287 599 291 599Q348 595 383 561T419 477Q419 474 420 473V461Q420 457 417 454T409 451H401Q391 451 391 458V468Q392
511 361 541T277 571Q224 571 186 539T137 453Q129 414 119 341L116 313Q109 252 109 225Q109 173 138 142T220 110Q272 110 311 140T360 213V217Z" />
<glyph unicode="&#xa3;" glyph-name="sterling" horiz-adv-x="533" d="M148 30T149 29T152 27H469Q479 27 477 17V10Q476 6 473 3T466 0H113Q109 0 107 3T105 10L106 19Q108 27 114 31Q138 46 156 83T180 166L199 317Q199 321 196 321H128Q123 321 121 324T119
331L120 337Q122 347 131 347H199Q203 347 203 351L224 524Q234 610 283 659T410 708Q463 708 495 678T535 591V589Q535 582 527 579L519 577L515 576Q508 576 508 584Q492 681 406 681Q341 681 301 640T253 525L231 351Q231 347 235 347H402Q407 347 409 344T411
337L410 331Q408 321 399 321H231Q230 321 229 320T227 317L209 169Q204 126 188 90T150 32Q148 30 149 29Z" />
<glyph unicode="&#xa4;" glyph-name="currency" horiz-adv-x="469" d="M431 244T375 183Q371 180 374 177L428 113Q430 109 430 108Q430 103 425 99L419 94Q416 91 412 91Q409 91 405 95L352 157Q349 160 346 158Q320 138 289 127T226 116Q163 116 121 155Q119
156 115 154L49 95Q40 87 35 94L30 99Q23 106 30 113L97 173Q100 176 98 179Q66 222 66 276Q66 317 81 353T124 419Q126 424 124 425L70 488Q68 490 68 493Q68 498 72 502L79 507Q86 514 92 507L146 444Q148 442 151 443Q207 486 271 486Q304 486 333 474T385 441Q388
438 391 441L463 507Q470 514 476 507L482 502Q485 499 485 496Q485 492 481 488L407 421Q405 420 405 419T405 415Q431 375 431 322Q431 244 375 183ZM94 222T132 183T229 143Q273 143 313 167T378 232T403 319Q403 378 365 418T268 458Q223 458 183 434T118 368T94
280Q94 222 132 183Z" />
<glyph unicode="&#xa5;" glyph-name="yen" horiz-adv-x="586" d="M538 700T539 697T538 688L335 348Q332 343 337 343H470Q480 343 478 333V329Q476 319 467 319H329Q325 319 325 315L314 224Q313 223 314 222T317 220H455Q465 220 463 210V206Q461 196 452 196H314Q310
196 310 192L287 10Q287 6 284 3T276 0H267Q258 0 258 10L281 192Q281 196 277 196H140Q136 196 134 199T132 206V210Q133 214 136 217T143 220H280Q283 220 285 224L296 315Q296 319 292 319H156Q151 319 149 322T147 329L148 333Q148 337 151 340T159 343H290Q296
343 294 348L174 688L173 692Q173 700 182 700H192Q201 700 202 693L314 369Q315 367 317 367T320 369L511 693Q514 700 523 700H533Q538 700 539 697Z" />
<glyph unicode="&#xa6;" glyph-name="brokenbar" horiz-adv-x="128" d="M83 390T81 393T79 400L122 750Q124 760 133 760H143Q153 760 151 750L108 400Q108 396 105 393T97 390H88Q83 390 81 393ZM21 -80T21 -70L64 275Q66 285 75 285H84Q89 285 91 282T93 275L51
-70Q50 -74 47 -77T40 -80H30Q21 -80 21 -70Z" />
<glyph unicode="&#xa7;" glyph-name="section" horiz-adv-x="391" d="M103 -207T74 -174T45 -81Q45 -73 47 -51L48 -38Q48 -34 51 -31T59 -28H68Q73 -28 75 -31T77 -38L75 -50Q74 -58 74 -73Q74 -123 96 -151T158 -180Q189 -180 216 -161T259 -108T275 -36Q275
-1 260 22T224 56T174 79Q138 92 115 108T80 157Q72 181 72 214Q72 225 74 245Q80 296 108 340Q142 390 191 403Q194 403 194 404T192 406Q158 421 138 455T118 535Q118 581 137 620T191 684T266 708Q317 708 346 673T376 581Q376 564 375 556L373 544Q373 540
370 537T362 534H353Q348 534 346 537T344 544L346 555Q347 563 347 578Q347 624 324 652T264 680Q231 680 204 660T162 607T146 534Q146 490 171 463T247 416Q276 404 296 392T332 352Q349 318 349 279Q349 209 313 152Q282 102 231 91Q227 90 231 88Q264 73 284
42T304 -32Q304 -80 285 -120T231 -183T154 -207Q103 -207 74 -174ZM256 112T291 168Q304 189 311 216T319 271Q319 310 303 337Q291 358 271 370T225 382Q196 382 170 365T128 320Q108 287 103 244Q101 224 101 214Q101 187 109 168Q131 112 192 112Q256 112 291
168Z" />
<glyph unicode="&#xa8;" glyph-name="dieresis" horiz-adv-x="248" d="M105 613T98 621T91 642Q91 656 101 666T126 677Q137 677 144 669T152 650Q152 635 142 624T118 613Q105 613 98 621ZM233 613T226 621T219 642Q219 656 229 666T254 677Q265 677 272 669T280
650Q280 635 270 624T246 613Q233 613 226 621Z" />
<glyph unicode="&#xa9;" glyph-name="copyright" horiz-adv-x="854" d="M315 -8T244 32T134 142T95 299Q95 323 98 347Q110 448 166 530T308 660T493 708Q585 708 655 668T765 557T804 397Q804 373 801 347Q789 249 734 168T592 39T405 -8Q315 -8 244 32ZM501
17T581 60T712 179T775 347Q778 371 778 393Q778 476 742 542T641 645T490 683Q398 683 319 639T187 518T123 347Q120 325 120 303Q120 221 156 156T258 54T409 17Q501 17 581 60ZM392 175T372 194T351 247Q351 255 352 259L374 437Q379 475 405 497T471 520Q508
520 529 501T550 449L549 437V432Q547 422 538 422H532Q523 422 523 431L524 439L525 448Q525 470 510 483T468 496Q440 496 421 481T398 439L376 256Q373 230 388 215T432 199Q460 199 479 214T502 256L503 263Q503 267 506 270T514 273H519Q530 273 528 267L527
259Q523 222 496 199T429 175Q392 175 372 194Z" />
<glyph unicode="&#xaa;" glyph-name="ordfeminine" horiz-adv-x="285" d="M259 561Q263 561 263 565L267 598Q268 604 268 617Q268 648 252 666T202 685Q174 685 152 671T122 633Q121 628 118 626T111 624L104 625Q94 627 97 636Q108 668 137 688T206 708Q250
708 272 685T295 619Q295 605 294 598L267 381Q265 371 256 371H249Q239 371 241 381L244 404Q244 406 243 407T239 406Q208 366 147 366Q111 366 87 383T63 440Q63 499 99 530T194 561H259ZM188 390T217 410T252 470L259 533Q260 534 259 535T256 537H192Q146
537 118 514T89 446Q89 418 106 404T152 390Q188 390 217 410ZM43 295T46 298T53 301H258Q267 301 267 291L266 286Q264 276 255 276H50Q46 276 44 279T42 286L43 291Q43 295 46 298Z" />
<glyph unicode="&#xab;" glyph-name="guillemotleft" horiz-adv-x="503" d="M251 115T251 113Q251 107 243 107H235Q228 107 224 113L116 274Q114 278 114 280Q114 285 118 288L266 449Q271 455 278 455H285Q291 455 292 452T289 443L143 284Q140 281 142 278L249
119Q251 115 251 113ZM393 115T393 113Q393 107 385 107H377Q369 107 366 113L258 274Q255 277 255 280Q255 284 259 288L407 449Q413 455 420 455H426Q432 455 433 452T431 443L284 284Q283 282 283 278L391 119Q393 115 393 113Z" />
<glyph unicode="&#xac;" glyph-name="logicalnot" horiz-adv-x="462" d="M444 334T442 324L441 314L440 308L439 306L425 193Q425 189 422 186T414 183H407Q402 183 400 186T398 193L412 304Q412 308 408 308H68Q59 308 59 318L60 324Q62 334 71 334H434Q444 334
442 324Z" />
<glyph unicode="&#xad;" glyph-name="uni00AD" horiz-adv-x="334" d="M63 306T61 309T59 316L60 324Q62 334 71 334H306Q316 334 314 324L313 316Q313 312 310 309T302 306H68Q63 306 61 309Z" />
<glyph unicode="&#xae;" glyph-name="registered" horiz-adv-x="434" d="M333 716T370 694T429 634T450 549Q450 492 421 443T343 364T239 334Q192 334 154 356T95 416T74 501Q74 558 103 607T182 686T286 716Q333 716 370 694ZM290 357T332 383T400 453T426 547Q426
609 386 650T283 692Q235 692 192 667T123 598T97 504Q97 463 115 430T167 377T242 357Q290 357 332 383ZM325 550T316 536T291 516Q288 515 289 511L308 448L309 444Q309 436 300 436H296Q289 436 286 444L265 510Q265 513 262 513H240Q239 513 238 512T236 509L228
446Q228 442 225 439T217 436H216Q211 436 209 439T207 446L226 601Q228 611 237 611H283Q302 611 313 600T325 569Q325 550 316 536ZM246 592T246 588L239 534Q239 530 243 530H271Q284 530 293 540T303 566Q303 578 297 585T278 592H250Q246 592 246 588Z" />
<glyph unicode="&#xaf;" glyph-name="overscore" horiz-adv-x="405" d="M154 603T152 606T150 613L151 619Q151 623 154 626T162 629H359Q363 629 365 626T367 619L366 613Q366 609 363 606T355 603H158Q154 603 152 606Z" />
<glyph unicode="&#xb0;" glyph-name="degree" horiz-adv-x="360" d="M164 498T127 536T90 632Q90 679 113 719T176 784T259 808Q317 808 354 770T392 672Q392 625 368 585T305 522T221 498Q164 498 127 536ZM261 524T293 544T345 598T365 671Q365 719 335 750T256
782Q219 782 187 763T136 710T116 636Q116 588 147 556T224 524Q261 524 293 544Z" />
<glyph unicode="&#xb1;" glyph-name="plusminus" horiz-adv-x="462" d="M444 341T442 331V325Q440 315 431 315H266Q262 315 262 311L241 143Q239 133 230 133H224Q214 133 216 143L236 311Q237 312 236 313T233 315H68Q58 315 60 325V331Q62 341 71 341H236Q240
341 240 345L262 517Q262 521 265 524T273 527H278Q283 527 285 524T287 517L266 345Q265 344 266 343T269 341H434Q444 341 442 331ZM59 19T59 29L60 35Q62 45 71 45H434Q444 45 442 35V29Q441 25 438 22T431 19H68Q59 19 59 29Z" />
<glyph unicode="&#xb2;" glyph-name="uni00B2" horiz-adv-x="266" d="M17 457T15 460T13 467L14 474Q14 479 19 487Q67 546 157 662Q219 744 219 793Q219 822 202 839T156 857Q125 857 104 836T78 780L76 763Q76 759 73 756T65 753H58Q53 753 51 756T49 763L51
781Q57 826 87 854T160 882Q199 882 222 859T245 797Q245 737 181 651L148 609L52 486Q49 481 54 481H212Q217 481 219 478T221 471L220 467Q220 463 217 460T210 457H21Q17 457 15 460Z" />
<glyph unicode="&#xb3;" glyph-name="uni00B3" horiz-adv-x="278" d="M230 633T230 612Q230 603 228 581Q224 542 207 508Q192 480 168 466T112 451Q75 451 53 473T28 533Q27 538 27 549Q27 564 28 570Q29 580 39 580H46Q54 580 54 572Q54 566 53 557T53 542Q55
512 71 494T115 476Q160 476 183 518Q198 546 202 583Q204 593 204 610Q204 625 200 647Q188 694 141 694Q134 694 131 693H127Q121 693 117 697L116 699Q114 703 114 706Q114 709 117 713L224 847Q226 849 225 850T222 852H73Q69 852 67 855T65 862V866Q66 870
69 873T76 876H252Q262 876 260 866V859Q258 850 254 846L154 721Q152 719 153 718T156 716Q209 712 225 655Q230 633 230 612Z" />
<glyph unicode="&#xb4;" glyph-name="acute" horiz-adv-x="161" d="M89 580T88 583T90 592L163 703Q166 710 175 710H185Q190 710 192 707T190 698L113 587Q108 580 101 580H95Q89 580 88 583Z" />
<glyph unicode="&#xb5;" glyph-name="uni00B5" horiz-adv-x="466" d="M397 501T406 501H416Q420 501 422 498T424 491L365 10Q363 0 354 0H344Q340 0 338 3T336 10L342 58Q342 61 340 61T337 59Q315 27 282 10T207 -7Q134 -7 102 40Q100 42 99 41T97 38L69 -190Q67
-200 58 -200H48Q38 -200 40 -190L123 491Q125 501 134 501H144Q154 501 152 491L111 154Q109 136 109 129Q109 78 136 50T213 21Q270 21 308 58T354 160L395 491Q397 501 406 501Z" />
<glyph unicode="&#xb6;" glyph-name="paragraph" horiz-adv-x="481" d="M441 700Q451 700 449 690L341 -190Q341 -194 338 -197T330 -200H325Q320 -200 318 -197T316 -190L422 669Q422 673 418 673H301Q297 673 297 669L191 -190Q189 -200 180 -200H172Q168 -200
166 -197T164 -190L217 246Q219 250 214 250Q153 253 116 305T78 436Q78 462 80 475Q87 537 116 588T188 670T281 700H441Z" />
<glyph unicode="&#xb7;" glyph-name="middot" horiz-adv-x="80" d="M249 6T240 17T230 44Q230 64 243 78T275 93Q289 93 299 83T309 56Q309 36 295 21T264 6Q249 6 240 17Z" />
<glyph unicode="&#xb8;" glyph-name="cedilla" horiz-adv-x="110" d="M-41 -178T-37 -168V-167L-35 -163Q-32 -156 -23 -157Q-11 -159 -5 -159Q37 -159 49 -116Q52 -104 52 -93Q52 -51 18 -12Q14 -8 15 -4T20 0H26Q34 0 38 -4Q78 -43 78 -90Q78 -110 73 -124Q63
-155 41 -169T-8 -183Q-20 -183 -32 -180Q-41 -178 -37 -168Z" />
<glyph unicode="&#xb9;" glyph-name="uni00B9" horiz-adv-x="154" d="M115 877T121 877H132Q141 877 141 867L91 467Q91 463 88 460T81 457H73Q64 457 64 467L110 842Q111 844 110 845T106 845L75 835L71 834Q68 834 66 836T65 842V845Q67 855 73 857L108 874Q115
877 121 877Z" />
<glyph unicode="&#xba;" glyph-name="ordmasculine" horiz-adv-x="294" d="M131 367T107 392T83 459Q81 478 84 503T88 537Q95 595 101 616Q110 657 141 682T215 708Q257 708 282 683T307 616Q307 602 303 562L300 537Q292 476 288 459Q278 418 247 393T173 367Q131
367 107 392ZM208 390T232 410T264 465Q271 508 274 537Q276 548 282 610Q282 643 263 663T212 684Q180 684 157 664T125 610Q124 606 117 558L114 537Q108 477 108 463Q108 430 126 410T176 390Q208 390 232 410ZM48 275T50 285V291Q52 301 61 301H268Q278 301
276 291V285Q275 281 272 278T265 275H58Q48 275 50 285Z" />
<glyph unicode="&#xbb;" glyph-name="guillemotright" horiz-adv-x="503" d="M99 107T99 111Q99 115 103 119L249 278Q252 281 250 284L143 443Q141 447 141 449Q141 455 149 455H157Q164 455 168 449L276 288Q278 284 278 282Q278 277 274 274L126 113Q122 107
114 107H106Q99 107 99 111ZM245 107T245 111Q245 115 249 119L395 278Q398 281 396 284L289 443Q287 447 287 449Q287 455 295 455H303Q310 455 314 449L422 288Q424 284 424 282Q424 277 420 274L272 113Q268 107 260 107H252Q245 107 245 111Z" />
<glyph unicode="&#xbc;" glyph-name="onequarter" horiz-adv-x="684" d="M115 700T121 700H132Q141 700 141 690L91 290Q91 286 88 283T81 280H73Q64 280 64 290L110 665Q111 667 110 668T106 668L75 658L71 657Q68 657 66 659T65 665V668Q67 678 73 680L108 697Q115
700 121 700ZM69 0T76 12L590 693Q595 700 602 700H608Q614 700 615 697T612 688L100 7Q95 0 88 0H81Q69 0 76 12ZM668 143T668 133L667 128Q665 118 656 118H641Q639 118 638 117T636 114L623 10Q623 6 620 3T612 0H606Q601 0 599 3T597 10L610 114Q610 118 607
118H462Q452 118 454 128V134Q456 143 458 146L596 412Q600 420 608 420H616Q621 420 623 417T622 408L487 148Q486 146 486 145T489 143H610Q614 143 614 147L626 245Q628 255 637 255H644Q654 255 652 245L640 147Q640 143 644 143H659Q668 143 668 133Z" />
<glyph unicode="&#xbd;" glyph-name="onehalf" horiz-adv-x="692" d="M115 700T121 700H132Q141 700 141 690L91 290Q91 286 88 283T81 280H73Q64 280 64 290L110 665Q111 667 110 668T106 668L75 658L71 657Q68 657 66 659T65 665V668Q67 678 73 680L108 697Q115
700 121 700ZM69 0T76 12L590 693Q595 700 602 700H608Q614 700 615 697T612 688L100 7Q95 0 88 0H81Q69 0 76 12ZM456 0T454 3T452 10L453 17Q453 22 458 30Q506 89 596 205Q658 287 658 336Q658 365 641 382T595 400Q564 400 543 379T517 323L515 306Q515 302
512 299T504 296H497Q492 296 490 299T488 306L490 324Q496 369 526 397T599 425Q638 425 661 402T684 340Q684 280 620 194L587 152L491 29Q488 24 493 24H651Q656 24 658 21T660 14L659 10Q659 6 656 3T649 0H460Q456 0 454 3Z" />
<glyph unicode="&#xbe;" glyph-name="threequarters" horiz-adv-x="765" d="M230 460T230 439Q230 430 228 408Q224 369 207 335Q192 307 168 293T112 278Q75 278 53 300T28 360Q27 365 27 376Q27 391 28 397Q29 407 39 407H46Q54 407 54 399Q54 393 53 384T53
369Q55 339 71 321T115 303Q160 303 183 345Q198 373 202 410Q204 420 204 437Q204 452 200 474Q188 521 141 521Q134 521 131 520H127Q121 520 117 524L116 526Q114 530 114 533Q114 536 117 540L224 674Q226 676 225 677T222 679H73Q69 679 67 682T65 689V693Q66
697 69 700T76 703H252Q262 703 260 693V686Q258 677 254 673L154 548Q152 546 153 545T156 543Q209 539 225 482Q230 460 230 439ZM153 0T160 12L674 693Q679 700 686 700H692Q698 700 699 697T696 688L184 7Q179 0 172 0H165Q153 0 160 12ZM752 143T752 133L751
128Q749 118 740 118H725Q723 118 722 117T720 114L707 10Q707 6 704 3T696 0H690Q685 0 683 3T681 10L694 114Q694 118 691 118H546Q536 118 538 128V134Q540 143 542 146L680 412Q684 420 692 420H700Q705 420 707 417T706 408L571 148Q570 146 570 145T573 143H694Q698
143 698 147L710 245Q712 255 721 255H728Q738 255 736 245L724 147Q724 143 728 143H743Q752 143 752 133Z" />
<glyph unicode="&#xbf;" glyph-name="questiondown" horiz-adv-x="366" d="M252 495T261 485T271 458Q271 438 258 424T227 409Q212 409 202 419T192 446Q192 466 205 480T237 495Q252 495 261 485ZM233 313T231 303L222 229Q217 190 198 165T141 106Q98 69 75
38T46 -46Q44 -64 44 -71Q44 -121 70 -151T142 -181Q193 -181 229 -144T273 -47L277 -9Q279 1 288 1H298Q308 1 306 -9L302 -47Q293 -120 248 -164T137 -209Q81 -209 48 -173T15 -73Q15 -64 17 -44Q23 0 38 32T73 84T122 132Q155 160 171 180T191 230L200 303Q202
313 211 313H223Q233 313 231 303Z" />
<glyph unicode="&#xc0;" glyph-name="Agrave" horiz-adv-x="484" d="M397 0T397 8L376 149Q376 152 372 152H111Q107 152 106 149L50 8Q48 0 39 0H30Q18 0 23 11L289 692Q291 700 300 700H315Q323 700 325 692L425 11V9Q425 0 415 0H406Q397 0 397 8ZM117 182T118
181T122 179H367Q369 179 370 180T372 183L305 648Q304 650 303 650T300 648L118 183Q117 182 118 181ZM305 789T305 786Q305 779 296 779H290Q284 779 280 786L230 897L229 901Q229 909 238 909H248Q258 909 259 902L304 791Q305 789 305 786Z" />
<glyph unicode="&#xc1;" glyph-name="Aacute" horiz-adv-x="484" d="M397 0T397 8L376 149Q376 152 372 152H111Q107 152 106 149L50 8Q48 0 39 0H30Q18 0 23 11L289 692Q291 700 300 700H315Q323 700 325 692L425 11V9Q425 0 415 0H406Q397 0 397 8ZM117 182T118
181T122 179H367Q369 179 370 180T372 183L305 648Q304 650 303 650T300 648L118 183Q117 182 118 181ZM273 779T272 782T274 791L347 902Q350 909 359 909H369Q374 909 376 906T374 897L297 786Q292 779 285 779H279Q273 779 272 782Z" />
<glyph unicode="&#xc2;" glyph-name="Acircumflex" horiz-adv-x="484" d="M397 0T397 8L376 149Q376 152 372 152H111Q107 152 106 149L50 8Q48 0 39 0H30Q18 0 23 11L289 692Q291 700 300 700H315Q323 700 325 692L425 11V9Q425 0 415 0H406Q397 0 397 8ZM117
182T118 181T122 179H367Q369 179 370 180T372 183L305 648Q304 650 303 650T300 648L118 183Q117 182 118 181ZM204 769T203 773T206 781L290 885Q295 891 303 891H317Q326 891 328 885L389 781L391 776Q391 769 382 769H370Q363 769 359 775L311 863Q310 865
308 865T305 863L233 775Q229 769 221 769H210Q204 769 203 773Z" />
<glyph unicode="&#xc3;" glyph-name="Atilde" horiz-adv-x="484" d="M397 0T397 8L376 149Q376 152 372 152H111Q107 152 106 149L50 8Q48 0 39 0H30Q18 0 23 11L289 692Q291 700 300 700H315Q323 700 325 692L425 11V9Q425 0 415 0H406Q397 0 397 8ZM117 182T118
181T122 179H367Q369 179 370 180T372 183L305 648Q304 650 303 650T300 648L118 183Q117 182 118 181ZM343 801T332 807T307 825Q293 837 285 842T264 847Q248 847 236 841T211 818Q202 810 197 815L193 818Q190 821 190 824Q190 828 193 832Q226 873 267 873Q282
873 292 868T319 850Q321 848 330 842T348 832T363 828Q378 828 390 834T417 859Q419 863 423 864T431 863L433 862Q436 861 436 855Q436 848 431 842Q415 821 395 811T358 801Q343 801 332 807Z" />
<glyph unicode="&#xc4;" glyph-name="Adieresis" horiz-adv-x="484" d="M397 0T397 8L376 149Q376 152 372 152H111Q107 152 106 149L50 8Q48 0 39 0H30Q18 0 23 11L289 692Q291 700 300 700H315Q323 700 325 692L425 11V9Q425 0 415 0H406Q397 0 397 8ZM117 182T118
181T122 179H367Q369 179 370 180T372 183L305 648Q304 650 303 650T300 648L118 183Q117 182 118 181ZM226 812T219 820T212 841Q212 855 222 865T247 876Q258 876 265 868T273 849Q273 834 263 823T239 812Q226 812 219 820ZM354 812T347 820T340 841Q340 855
350 865T375 876Q386 876 393 868T401 849Q401 834 391 823T367 812Q354 812 347 820Z" />
<glyph unicode="&#xc5;" glyph-name="Aring" horiz-adv-x="484" d="M397 0T397 8L376 149Q376 152 372 152H111Q107 152 106 149L50 8Q48 0 39 0H30Q18 0 23 11L289 692Q291 700 300 700H315Q323 700 325 692L425 11V9Q425 0 415 0H406Q397 0 397 8ZM117 182T118
181T122 179H367Q369 179 370 180T372 183L305 648Q304 650 303 650T300 648L118 183Q117 182 118 181ZM261 775T238 800T214 861Q214 906 246 938T321 971Q358 971 382 947T406 885Q406 841 374 808T297 775Q261 775 238 800ZM332 799T356 823T381 883Q381 911
363 929T319 947Q287 947 263 922T238 862Q238 835 256 817T300 799Q332 799 356 823Z" />
<glyph unicode="&#xc6;" glyph-name="AE" horiz-adv-x="774" d="M779 672T770 672H480Q476 672 476 668L439 368Q439 364 442 364H638Q643 364 645 361T647 354L646 347Q644 337 635 337H439Q435 337 435 333L398 32Q398 28 401 28H691Q700 28 700 18L699 10Q697
0 688 0H374Q370 0 368 3T366 10L383 148Q383 150 382 151T380 152H144Q142 152 140 149L54 7Q51 0 42 0H31Q26 0 25 3T26 12L435 693Q439 700 448 700H774Q778 700 780 697T782 690L781 682Q779 672 770 672ZM157 179T162 179H383Q387 179 387 183L445 652Q445
655 444 655T440 653L159 184Q157 179 162 179Z" />
<glyph unicode="&#xc7;" glyph-name="Ccedilla" horiz-adv-x="505" d="M481 511T478 508T470 505H461Q451 505 452 514L454 527Q455 535 455 550Q455 609 419 644T320 680Q252 680 205 638T149 527L106 174Q104 156 104 149Q104 90 140 55T239 19Q307 19 354 61T410
174L412 185Q412 189 415 192T423 195L432 194Q443 194 441 185L440 175Q430 93 374 43T236 -8Q233 -8 236 -13Q271 -51 271 -94Q271 -109 266 -127Q256 -158 234 -172T185 -186Q173 -186 161 -183Q151 -182 156 -171V-170L158 -166Q161 -158 169 -160Q181 -162
187 -162Q212 -162 228 -146T244 -94Q244 -51 204 -7Q203 -5 200 -5Q142 5 109 45T75 147Q75 156 77 176L120 525Q130 608 186 658T324 708Q398 708 441 667T485 554Q485 544 483 526L481 515Q481 511 478 508Z" />
<glyph unicode="&#xc8;" glyph-name="Egrave" horiz-adv-x="505" d="M512 678T509 675T502 672H194Q190 672 190 668L153 368Q153 364 156 364H370Q374 364 376 361T378 354L377 347Q377 343 374 340T366 337H153Q149 337 149 333L112 32Q111 31 112 30T115 28H422Q427
28 429 25T431 18L430 10Q428 0 419 0H88Q78 0 80 10L163 690Q165 700 174 700H505Q515 700 513 690L512 682Q512 678 509 675ZM335 799T335 796Q335 789 326 789H320Q314 789 310 796L260 907L259 911Q259 919 268 919H278Q288 919 289 912L334 801Q335 799 335
796Z" />
<glyph unicode="&#xc9;" glyph-name="Eacute" horiz-adv-x="505" d="M512 678T509 675T502 672H194Q190 672 190 668L153 368Q153 364 156 364H370Q374 364 376 361T378 354L377 347Q377 343 374 340T366 337H153Q149 337 149 333L112 32Q111 31 112 30T115 28H422Q427
28 429 25T431 18L430 10Q428 0 419 0H88Q78 0 80 10L163 690Q165 700 174 700H505Q515 700 513 690L512 682Q512 678 509 675ZM303 789T302 792T304 801L377 912Q380 919 389 919H399Q404 919 406 916T404 907L327 796Q322 789 315 789H309Q303 789 302 792Z"
/>
<glyph unicode="&#xca;" glyph-name="Ecircumflex" horiz-adv-x="505" d="M512 678T509 675T502 672H194Q190 672 190 668L153 368Q153 364 156 364H370Q374 364 376 361T378 354L377 347Q377 343 374 340T366 337H153Q149 337 149 333L112 32Q111 31 112 30T115
28H422Q427 28 429 25T431 18L430 10Q428 0 419 0H88Q78 0 80 10L163 690Q165 700 174 700H505Q515 700 513 690L512 682Q512 678 509 675ZM234 779T233 783T236 791L320 895Q325 901 333 901H347Q356 901 358 895L419 791L421 786Q421 779 412 779H400Q393 779
389 785L341 873Q340 875 338 875T335 873L263 785Q259 779 251 779H240Q234 779 233 783Z" />
<glyph unicode="&#xcb;" glyph-name="Edieresis" horiz-adv-x="505" d="M512 678T509 675T502 672H194Q190 672 190 668L153 368Q153 364 156 364H370Q374 364 376 361T378 354L377 347Q377 343 374 340T366 337H153Q149 337 149 333L112 32Q111 31 112 30T115
28H422Q427 28 429 25T431 18L430 10Q428 0 419 0H88Q78 0 80 10L163 690Q165 700 174 700H505Q515 700 513 690L512 682Q512 678 509 675ZM256 822T249 830T242 851Q242 865 252 875T277 886Q288 886 295 878T303 859Q303 844 293 833T269 822Q256 822 249 830ZM384
822T377 830T370 851Q370 865 380 875T405 886Q416 886 423 878T431 859Q431 844 421 833T397 822Q384 822 377 830Z" />
<glyph unicode="&#xcc;" glyph-name="Igrave" horiz-adv-x="224" d="M78 0T80 10L163 690Q165 700 174 700H184Q194 700 192 690L109 10Q107 0 98 0H88Q78 0 80 10ZM172 799T172 796Q172 789 163 789H157Q151 789 147 796L97 907L96 911Q96 919 105 919H115Q125
919 126 912L171 801Q172 799 172 796Z" />
<glyph unicode="&#xcd;" glyph-name="Iacute" horiz-adv-x="224" d="M78 0T80 10L163 690Q165 700 174 700H184Q194 700 192 690L109 10Q107 0 98 0H88Q78 0 80 10ZM140 789T139 792T141 801L214 912Q217 919 226 919H236Q241 919 243 916T241 907L164 796Q159
789 152 789H146Q140 789 139 792Z" />
<glyph unicode="&#xce;" glyph-name="Icircumflex" horiz-adv-x="224" d="M78 0T80 10L163 690Q165 700 174 700H184Q194 700 192 690L109 10Q107 0 98 0H88Q78 0 80 10ZM71 779T70 783T73 791L157 895Q162 901 170 901H184Q193 901 195 895L256 791L258 786Q258
779 249 779H237Q230 779 226 785L178 873Q177 875 175 875T172 873L100 785Q96 779 88 779H77Q71 779 70 783Z" />
<glyph unicode="&#xcf;" glyph-name="Idieresis" horiz-adv-x="224" d="M78 0T80 10L163 690Q165 700 174 700H184Q194 700 192 690L109 10Q107 0 98 0H88Q78 0 80 10ZM93 822T86 830T79 851Q79 865 89 875T114 886Q125 886 132 878T140 859Q140 844 130 833T106
822Q93 822 86 830ZM221 822T214 830T207 851Q207 865 217 875T242 886Q253 886 260 878T268 859Q268 844 258 833T234 822Q221 822 214 830Z" />
<glyph unicode="&#xd0;" glyph-name="Eth" horiz-adv-x="583" d="M480 700T518 661T557 552Q557 542 555 518L514 182Q504 97 453 49T325 0H148Q144 0 142 3T140 10L182 349Q182 353 178 353H132Q127 353 125 356T123 363L124 369Q126 379 135 379H181Q184 379
186 383L223 690Q224 694 227 697T234 700H411Q480 700 518 661ZM526 517Q528 537 528 547Q528 606 497 639T408 672H254Q250 672 250 668L215 383Q215 379 218 379H332Q342 379 340 369L339 363Q339 359 336 356T329 353H215Q211 353 211 349L172 32Q171 31 172
30T175 28H329Q393 28 434 69T485 182L526 517Z" />
<glyph unicode="&#xd1;" glyph-name="Ntilde" horiz-adv-x="565" d="M78 0T80 10L163 690Q165 700 174 700H185Q193 700 196 693L422 74Q424 72 425 72T427 76L503 690Q505 700 514 700H523Q528 700 530 697T532 690L448 10Q448 6 445 3T437 0H426Q416 0 415 7L188
626Q187 628 186 628T183 624L109 10Q107 0 98 0H88Q78 0 80 10ZM386 811T375 817T350 835Q336 847 328 852T307 857Q291 857 279 851T254 828Q245 820 240 825L236 828Q233 831 233 834Q233 838 236 842Q269 883 310 883Q325 883 335 878T362 860Q364 858 373
852T391 842T406 838Q421 838 433 844T460 869Q462 873 466 874T474 873L476 872Q479 871 479 865Q479 858 474 852Q458 831 438 821T401 811Q386 811 375 817Z" />
<glyph unicode="&#xd2;" glyph-name="Ograve" horiz-adv-x="518" d="M164 -8T120 36T76 152Q76 162 78 182L119 517Q129 602 186 655T326 708Q400 708 444 664T489 547Q489 537 487 517L446 182Q436 97 378 45T238 -8Q164 -8 120 36ZM311 20T359 64T417 181L458
518Q460 536 460 544Q460 606 423 643T322 680Q253 680 205 636T148 518L107 181Q105 163 105 155Q105 94 142 57T241 20Q311 20 359 64ZM322 793T322 790Q322 783 313 783H307Q301 783 297 790L247 901L246 905Q246 913 255 913H265Q275 913 276 906L321 795Q322
793 322 790Z" />
<glyph unicode="&#xd3;" glyph-name="Oacute" horiz-adv-x="518" d="M164 -8T120 36T76 152Q76 162 78 182L119 517Q129 602 186 655T326 708Q400 708 444 664T489 547Q489 537 487 517L446 182Q436 97 378 45T238 -8Q164 -8 120 36ZM311 20T359 64T417 181L458
518Q460 536 460 544Q460 606 423 643T322 680Q253 680 205 636T148 518L107 181Q105 163 105 155Q105 94 142 57T241 20Q311 20 359 64ZM290 783T289 786T291 795L364 906Q367 913 376 913H386Q391 913 393 910T391 901L314 790Q309 783 302 783H296Q290 783 289
786Z" />
<glyph unicode="&#xd4;" glyph-name="Ocircumflex" horiz-adv-x="518" d="M164 -8T120 36T76 152Q76 162 78 182L119 517Q129 602 186 655T326 708Q400 708 444 664T489 547Q489 537 487 517L446 182Q436 97 378 45T238 -8Q164 -8 120 36ZM311 20T359 64T417 181L458
518Q460 536 460 544Q460 606 423 643T322 680Q253 680 205 636T148 518L107 181Q105 163 105 155Q105 94 142 57T241 20Q311 20 359 64ZM221 773T220 777T223 785L307 889Q312 895 320 895H334Q343 895 345 889L406 785L408 780Q408 773 399 773H387Q380 773 376
779L328 867Q327 869 325 869T322 867L250 779Q246 773 238 773H227Q221 773 220 777Z" />
<glyph unicode="&#xd5;" glyph-name="Otilde" horiz-adv-x="518" d="M164 -8T120 36T76 152Q76 162 78 182L119 517Q129 602 186 655T326 708Q400 708 444 664T489 547Q489 537 487 517L446 182Q436 97 378 45T238 -8Q164 -8 120 36ZM311 20T359 64T417 181L458
518Q460 536 460 544Q460 606 423 643T322 680Q253 680 205 636T148 518L107 181Q105 163 105 155Q105 94 142 57T241 20Q311 20 359 64ZM360 805T349 811T324 829Q310 841 302 846T281 851Q265 851 253 845T228 822Q219 814 214 819L210 822Q207 825 207 828Q207
832 210 836Q243 877 284 877Q299 877 309 872T336 854Q338 852 347 846T365 836T380 832Q395 832 407 838T434 863Q436 867 440 868T448 867L450 866Q453 865 453 859Q453 852 448 846Q432 825 412 815T375 805Q360 805 349 811Z" />
<glyph unicode="&#xd6;" glyph-name="Odieresis" horiz-adv-x="518" d="M164 -8T120 36T76 152Q76 162 78 182L119 517Q129 602 186 655T326 708Q400 708 444 664T489 547Q489 537 487 517L446 182Q436 97 378 45T238 -8Q164 -8 120 36ZM311 20T359 64T417 181L458
518Q460 536 460 544Q460 606 423 643T322 680Q253 680 205 636T148 518L107 181Q105 163 105 155Q105 94 142 57T241 20Q311 20 359 64ZM243 816T236 824T229 845Q229 859 239 869T264 880Q275 880 282 872T290 853Q290 838 280 827T256 816Q243 816 236 824ZM371
816T364 824T357 845Q357 859 367 869T392 880Q403 880 410 872T418 853Q418 838 408 827T384 816Q371 816 364 824Z" />
<glyph unicode="&#xd7;" glyph-name="multiply" horiz-adv-x="370" d="M361 451T361 448Q361 444 357 440L226 320Q222 317 225 314L326 195Q328 191 328 190Q328 185 324 181L319 177Q310 170 305 177L205 296Q202 299 199 296L67 175Q64 172 60 172T53 175L50
180Q48 184 48 186Q48 190 52 194L183 314Q187 318 184 320L81 441Q79 445 79 446Q79 449 83 455L87 459Q91 463 95 463T101 460L204 338Q207 335 210 338L341 458Q345 461 349 461T355 458L358 454Q361 451 361 448Z" />
<glyph unicode="&#xd8;" glyph-name="Oslash" horiz-adv-x="532" d="M455 660T457 657Q495 614 495 547Q495 537 493 517L452 182Q442 97 384 45T243 -8Q208 -8 179 2T129 33Q128 34 126 34T123 32L94 -23Q90 -31 83 -31H75Q70 -31 68 -28T68 -19L108 54Q109 57
107 59Q81 97 81 153Q81 162 83 182L125 517Q135 602 192 655T331 708Q395 708 432 678Q436 677 439 680L466 732Q470 740 478 740H486Q491 740 493 737T492 728L457 662Q455 660 457 657ZM110 163T110 156Q110 124 123 93Q126 88 128 94L421 646Q422 649 420 651Q383
680 328 680Q259 680 211 636T154 518L112 181Q110 163 110 156ZM464 518Q466 536 466 544Q466 592 443 626Q440 630 438 625L142 67Q141 64 143 62Q180 20 247 20Q317 20 365 64T423 181L464 518Z" />
<glyph unicode="&#xd9;" glyph-name="Ugrave" horiz-adv-x="550" d="M179 -8T136 37T92 160Q92 170 94 192L156 690Q156 694 159 697T166 700H176Q185 700 185 690L123 188Q121 170 121 161Q121 97 158 59T258 20Q328 20 376 66T434 188L496 690Q498 700 507 700H517Q521
700 523 697T525 690L464 192Q453 102 395 47T254 -8Q179 -8 136 37ZM339 800T339 797Q339 790 330 790H324Q318 790 314 797L264 908L263 912Q263 920 272 920H282Q292 920 293 913L338 802Q339 800 339 797Z" />
<glyph unicode="&#xda;" glyph-name="Uacute" horiz-adv-x="550" d="M179 -8T136 37T92 160Q92 170 94 192L156 690Q156 694 159 697T166 700H176Q185 700 185 690L123 188Q121 170 121 161Q121 97 158 59T258 20Q328 20 376 66T434 188L496 690Q498 700 507 700H517Q521
700 523 697T525 690L464 192Q453 102 395 47T254 -8Q179 -8 136 37ZM307 790T306 793T308 802L381 913Q384 920 393 920H403Q408 920 410 917T408 908L331 797Q326 790 319 790H313Q307 790 306 793Z" />
<glyph unicode="&#xdb;" glyph-name="Ucircumflex" horiz-adv-x="550" d="M179 -8T136 37T92 160Q92 170 94 192L156 690Q156 694 159 697T166 700H176Q185 700 185 690L123 188Q121 170 121 161Q121 97 158 59T258 20Q328 20 376 66T434 188L496 690Q498 700
507 700H517Q521 700 523 697T525 690L464 192Q453 102 395 47T254 -8Q179 -8 136 37ZM238 780T237 784T240 792L324 896Q329 902 337 902H351Q360 902 362 896L423 792L425 787Q425 780 416 780H404Q397 780 393 786L345 874Q344 876 342 876T339 874L267 786Q263
780 255 780H244Q238 780 237 784Z" />
<glyph unicode="&#xdc;" glyph-name="Udieresis" horiz-adv-x="550" d="M179 -8T136 37T92 160Q92 170 94 192L156 690Q156 694 159 697T166 700H176Q185 700 185 690L123 188Q121 170 121 161Q121 97 158 59T258 20Q328 20 376 66T434 188L496 690Q498 700 507
700H517Q521 700 523 697T525 690L464 192Q453 102 395 47T254 -8Q179 -8 136 37ZM260 823T253 831T246 852Q246 866 256 876T281 887Q292 887 299 879T307 860Q307 845 297 834T273 823Q260 823 253 831ZM388 823T381 831T374 852Q374 866 384 876T409 887Q420
887 427 879T435 860Q435 845 425 834T401 823Q388 823 381 831Z" />
<glyph unicode="&#xdd;" glyph-name="Yacute" horiz-adv-x="452" d="M193 0T193 10L233 332Q233 336 232 337L109 688L108 692Q108 700 117 700H127Q136 700 137 693L249 369Q250 367 252 367T255 369L446 693Q449 700 458 700H468Q473 700 474 697T473 688L264
337Q262 336 262 332L222 10Q222 6 219 3T211 0H202Q193 0 193 10ZM257 779T256 782T258 791L331 902Q334 909 343 909H353Q358 909 360 906T358 897L281 786Q276 779 269 779H263Q257 779 256 782Z" />
<glyph unicode="&#xde;" glyph-name="Thorn" horiz-adv-x="479" d="M390 534T427 493T464 383Q464 374 462 350Q452 268 403 218T281 168H127Q123 168 123 164L104 10Q102 0 93 0H83Q79 0 77 3T75 10L158 690Q159 694 162 697T169 700H179Q188 700 188 690L169
538Q169 534 172 534H326Q390 534 427 493ZM342 195T383 237T433 350Q435 370 435 378Q435 437 405 471T321 506H169Q166 506 164 502L127 199Q127 195 131 195H283Q342 195 383 237Z" />
<glyph unicode="&#xdf;" glyph-name="germandbls" horiz-adv-x="480" d="M64 0T64 10L128 525Q139 610 188 659T308 709Q379 709 416 670T454 558Q454 488 426 438T353 370Q351 369 351 368T352 366Q384 350 401 315T419 228Q419 209 416 188Q405 100 353 50T212
0H149Q145 0 143 3T141 10L142 17Q144 27 153 27H217Q292 28 334 69T387 189Q390 210 390 228Q390 289 362 321T279 355H217Q207 355 209 365L210 372Q210 376 213 379T221 382H284Q352 382 388 427T425 556Q425 617 395 649T305 682Q247 682 207 641T157 526L93
10Q93 6 90 3T82 0H73Q64 0 64 10Z" />
<glyph unicode="&#xe0;" glyph-name="agrave" horiz-adv-x="457" d="M388 501T397 501H407Q417 501 415 491L356 10Q356 6 353 3T345 0H336Q331 0 329 3T327 10L334 62Q334 65 332 65T329 63Q307 29 274 11T199 -8Q138 -8 103 30T67 130Q68 173 78 250Q89 336
96 371Q111 433 156 471T262 509Q304 509 332 491T375 438Q376 436 377 436T380 439L386 491Q388 501 397 501ZM348 182T357 250Q365 314 368 365Q370 416 342 448T264 481Q212 481 174 449T124 365Q116 322 107 251Q99 184 96 136Q94 84 124 52T207 20Q257 20
293 52T340 136Q348 182 357 250ZM290 599T290 596Q290 589 281 589H275Q269 589 265 596L215 707L214 711Q214 719 223 719H233Q243 719 244 712L289 601Q290 599 290 596Z" />
<glyph unicode="&#xe1;" glyph-name="aacute" horiz-adv-x="457" d="M388 501T397 501H407Q417 501 415 491L356 10Q356 6 353 3T345 0H336Q331 0 329 3T327 10L334 62Q334 65 332 65T329 63Q307 29 274 11T199 -8Q138 -8 103 30T67 130Q68 173 78 250Q89 336
96 371Q111 433 156 471T262 509Q304 509 332 491T375 438Q376 436 377 436T380 439L386 491Q388 501 397 501ZM348 182T357 250Q365 314 368 365Q370 416 342 448T264 481Q212 481 174 449T124 365Q116 322 107 251Q99 184 96 136Q94 84 124 52T207 20Q257 20
293 52T340 136Q348 182 357 250ZM258 589T257 592T259 601L332 712Q335 719 344 719H354Q359 719 361 716T359 707L282 596Q277 589 270 589H264Q258 589 257 592Z" />
<glyph unicode="&#xe2;" glyph-name="acircumflex" horiz-adv-x="457" d="M388 501T397 501H407Q417 501 415 491L356 10Q356 6 353 3T345 0H336Q331 0 329 3T327 10L334 62Q334 65 332 65T329 63Q307 29 274 11T199 -8Q138 -8 103 30T67 130Q68 173 78 250Q89
336 96 371Q111 433 156 471T262 509Q304 509 332 491T375 438Q376 436 377 436T380 439L386 491Q388 501 397 501ZM348 182T357 250Q365 314 368 365Q370 416 342 448T264 481Q212 481 174 449T124 365Q116 322 107 251Q99 184 96 136Q94 84 124 52T207 20Q257
20 293 52T340 136Q348 182 357 250ZM189 579T188 583T191 591L275 695Q280 701 288 701H302Q311 701 313 695L374 591L376 586Q376 579 367 579H355Q348 579 344 585L296 673Q295 675 293 675T290 673L218 585Q214 579 206 579H195Q189 579 188 583Z" />
<glyph unicode="&#xe3;" glyph-name="atilde" horiz-adv-x="457" d="M388 501T397 501H407Q417 501 415 491L356 10Q356 6 353 3T345 0H336Q331 0 329 3T327 10L334 62Q334 65 332 65T329 63Q307 29 274 11T199 -8Q138 -8 103 30T67 130Q68 173 78 250Q89 336
96 371Q111 433 156 471T262 509Q304 509 332 491T375 438Q376 436 377 436T380 439L386 491Q388 501 397 501ZM348 182T357 250Q365 314 368 365Q370 416 342 448T264 481Q212 481 174 449T124 365Q116 322 107 251Q99 184 96 136Q94 84 124 52T207 20Q257 20
293 52T340 136Q348 182 357 250ZM328 611T317 617T292 635Q278 647 270 652T249 657Q233 657 221 651T196 628Q187 620 182 625L178 628Q175 631 175 634Q175 638 178 642Q211 683 252 683Q267 683 277 678T304 660Q306 658 315 652T333 642T348 638Q363 638 375
644T402 669Q404 673 408 674T416 673L418 672Q421 671 421 665Q421 658 416 652Q400 631 380 621T343 611Q328 611 317 617Z" />
<glyph unicode="&#xe4;" glyph-name="adieresis" horiz-adv-x="457" d="M388 501T397 501H407Q417 501 415 491L356 10Q356 6 353 3T345 0H336Q331 0 329 3T327 10L334 62Q334 65 332 65T329 63Q307 29 274 11T199 -8Q138 -8 103 30T67 130Q68 173 78 250Q89 336
96 371Q111 433 156 471T262 509Q304 509 332 491T375 438Q376 436 377 436T380 439L386 491Q388 501 397 501ZM348 182T357 250Q365 314 368 365Q370 416 342 448T264 481Q212 481 174 449T124 365Q116 322 107 251Q99 184 96 136Q94 84 124 52T207 20Q257 20
293 52T340 136Q348 182 357 250ZM211 622T204 630T197 651Q197 665 207 675T232 686Q243 686 250 678T258 659Q258 644 248 633T224 622Q211 622 204 630ZM339 622T332 630T325 651Q325 665 335 675T360 686Q371 686 378 678T386 659Q386 644 376 633T352 622Q339
622 332 630Z" />
<glyph unicode="&#xe5;" glyph-name="aring" horiz-adv-x="457" d="M388 501T397 501H407Q417 501 415 491L356 10Q356 6 353 3T345 0H336Q331 0 329 3T327 10L334 62Q334 65 332 65T329 63Q307 29 274 11T199 -8Q138 -8 103 30T67 130Q68 173 78 250Q89 336 96
371Q111 433 156 471T262 509Q304 509 332 491T375 438Q376 436 377 436T380 439L386 491Q388 501 397 501ZM348 182T357 250Q365 314 368 365Q370 416 342 448T264 481Q212 481 174 449T124 365Q116 322 107 251Q99 184 96 136Q94 84 124 52T207 20Q257 20 293
52T340 136Q348 182 357 250ZM246 585T223 610T199 671Q199 716 231 748T306 781Q343 781 367 757T391 695Q391 651 359 618T282 585Q246 585 223 610ZM317 609T341 633T366 693Q366 721 348 739T304 757Q272 757 248 732T223 672Q223 645 241 627T285 609Q317
609 341 633Z" />
<glyph unicode="&#xe6;" glyph-name="ae" horiz-adv-x="709" d="M119 -8T83 18T47 103Q47 191 100 234T243 277H346Q349 277 351 281L358 344Q360 364 360 373Q360 423 335 452T256 481Q210 481 174 457T127 394Q124 384 115 385L106 387Q97 389 98 398Q112 448
157 478T260 509Q361 509 382 421Q384 416 387 421Q409 462 447 485T534 509Q595 509 632 471T669 373Q669 351 667 324T660 260Q659 256 656 253T649 250H381Q378 250 376 246L364 141Q363 135 363 122Q363 75 394 48T475 20Q518 20 552 43T605 106L607 110Q609
116 618 116H626Q636 116 633 104Q613 54 570 23T471 -8Q420 -8 386 16T342 83Q341 85 340 85T338 83Q317 39 271 16T172 -8Q119 -8 83 18ZM380 277T384 277H629Q633 277 633 281Q635 295 641 363Q643 415 613 448T530 481Q479 481 442 448T393 363Q389 346 381
281Q380 277 384 277ZM235 19T280 51T334 144L346 246Q347 247 346 248T343 250H240Q166 250 122 215T77 109Q77 64 104 42T177 19Q235 19 280 51Z" />
<glyph unicode="&#xe7;" glyph-name="ccedilla" horiz-adv-x="434" d="M349 127Q352 136 361 136H371Q381 136 378 125L376 118Q375 117 375 114Q363 66 320 31T219 -8Q216 -8 216 -9T217 -12Q253 -48 253 -92Q253 -111 247 -127Q238 -158 216 -172T166 -186Q154
-186 142 -183Q133 -181 137 -171V-170L139 -166Q142 -159 151 -160Q163 -162 169 -162Q211 -162 223 -119Q226 -107 226 -95Q226 -72 215 -50T186 -9Q185 -7 182 -7Q130 0 100 37T69 130Q70 181 78 251Q83 291 99 371Q114 433 160 471T269 509Q330 509 368 474T408
387V383Q409 379 409 371Q409 367 406 364T398 361H390Q380 361 380 368V378Q381 421 349 451T266 481Q213 481 175 449T126 363Q118 324 108 251L105 223Q98 162 98 135Q98 83 127 52T209 20Q261 20 300 50T349 123V127Z" />
<glyph unicode="&#xe8;" glyph-name="egrave" horiz-adv-x="445" d="M254 20T288 43T341 107Q345 115 354 115H361Q371 115 368 103Q347 53 304 23T204 -8Q141 -8 105 30T68 129Q69 164 76 225L79 251Q89 331 97 370Q112 432 158 470T267 509Q330 509 367 472T405
373Q405 351 402 322T394 254Q392 244 383 244H111Q107 244 107 240Q106 227 102 203Q96 149 96 133Q96 82 126 51T208 20Q254 20 288 43ZM211 481T173 449T124 364Q118 335 111 274Q111 270 115 270H363Q367 270 367 274Q376 348 376 368Q376 419 346 450T264
481Q211 481 173 449ZM287 598T287 595Q287 588 278 588H272Q266 588 262 595L212 706L211 710Q211 718 220 718H230Q240 718 241 711L286 600Q287 598 287 595Z" />
<glyph unicode="&#xe9;" glyph-name="eacute" horiz-adv-x="445" d="M254 20T288 43T341 107Q345 115 354 115H361Q371 115 368 103Q347 53 304 23T204 -8Q141 -8 105 30T68 129Q69 164 76 225L79 251Q89 331 97 370Q112 432 158 470T267 509Q330 509 367 472T405
373Q405 351 402 322T394 254Q392 244 383 244H111Q107 244 107 240Q106 227 102 203Q96 149 96 133Q96 82 126 51T208 20Q254 20 288 43ZM211 481T173 449T124 364Q118 335 111 274Q111 270 115 270H363Q367 270 367 274Q376 348 376 368Q376 419 346 450T264
481Q211 481 173 449ZM255 588T254 591T256 600L329 711Q332 718 341 718H351Q356 718 358 715T356 706L279 595Q274 588 267 588H261Q255 588 254 591Z" />
<glyph unicode="&#xea;" glyph-name="ecircumflex" horiz-adv-x="445" d="M254 20T288 43T341 107Q345 115 354 115H361Q371 115 368 103Q347 53 304 23T204 -8Q141 -8 105 30T68 129Q69 164 76 225L79 251Q89 331 97 370Q112 432 158 470T267 509Q330 509 367
472T405 373Q405 351 402 322T394 254Q392 244 383 244H111Q107 244 107 240Q106 227 102 203Q96 149 96 133Q96 82 126 51T208 20Q254 20 288 43ZM211 481T173 449T124 364Q118 335 111 274Q111 270 115 270H363Q367 270 367 274Q376 348 376 368Q376 419 346
450T264 481Q211 481 173 449ZM186 578T185 582T188 590L272 694Q277 700 285 700H299Q308 700 310 694L371 590L373 585Q373 578 364 578H352Q345 578 341 584L293 672Q292 674 290 674T287 672L215 584Q211 578 203 578H192Q186 578 185 582Z" />
<glyph unicode="&#xeb;" glyph-name="edieresis" horiz-adv-x="445" d="M254 20T288 43T341 107Q345 115 354 115H361Q371 115 368 103Q347 53 304 23T204 -8Q141 -8 105 30T68 129Q69 164 76 225L79 251Q89 331 97 370Q112 432 158 470T267 509Q330 509 367 472T405
373Q405 351 402 322T394 254Q392 244 383 244H111Q107 244 107 240Q106 227 102 203Q96 149 96 133Q96 82 126 51T208 20Q254 20 288 43ZM211 481T173 449T124 364Q118 335 111 274Q111 270 115 270H363Q367 270 367 274Q376 348 376 368Q376 419 346 450T264
481Q211 481 173 449ZM208 621T201 629T194 650Q194 664 204 674T229 685Q240 685 247 677T255 658Q255 643 245 632T221 621Q208 621 201 629ZM336 621T329 629T322 650Q322 664 332 674T357 685Q368 685 375 677T383 658Q383 643 373 632T349 621Q336 621 329
629Z" />
<glyph unicode="&#xec;" glyph-name="igrave" horiz-adv-x="184" d="M57 0T57 10L117 491Q117 495 120 498T127 501H137Q146 501 146 491L87 10Q86 6 83 3T76 0H66Q57 0 57 10ZM149 599T149 596Q149 589 140 589H134Q128 589 124 596L74 707L73 711Q73 719 82
719H92Q102 719 103 712L148 601Q149 599 149 596Z" />
<glyph unicode="&#xed;" glyph-name="iacute" horiz-adv-x="184" d="M57 0T57 10L117 491Q117 495 120 498T127 501H137Q146 501 146 491L87 10Q86 6 83 3T76 0H66Q57 0 57 10ZM117 589T116 592T118 601L191 712Q194 719 203 719H213Q218 719 220 716T218 707L141
596Q136 589 129 589H123Q117 589 116 592Z" />
<glyph unicode="&#xee;" glyph-name="icircumflex" horiz-adv-x="184" d="M57 0T57 10L117 491Q117 495 120 498T127 501H137Q146 501 146 491L87 10Q86 6 83 3T76 0H66Q57 0 57 10ZM48 579T47 583T50 591L134 695Q139 701 147 701H161Q170 701 172 695L233 591L235
586Q235 579 226 579H214Q207 579 203 585L155 673Q154 675 152 675T149 673L77 585Q73 579 65 579H54Q48 579 47 583Z" />
<glyph unicode="&#xef;" glyph-name="idieresis" horiz-adv-x="184" d="M57 0T57 10L117 491Q117 495 120 498T127 501H137Q146 501 146 491L87 10Q86 6 83 3T76 0H66Q57 0 57 10ZM70 622T63 630T56 651Q56 665 66 675T91 686Q102 686 109 678T117 659Q117 644
107 633T83 622Q70 622 63 630ZM198 622T191 630T184 651Q184 665 194 675T219 686Q230 686 237 678T245 659Q245 644 235 633T211 622Q198 622 191 630Z" />
<glyph unicode="&#xf0;" glyph-name="eth" horiz-adv-x="456" d="M399 340T393 290Q391 279 390 269T388 249L385 227Q378 162 370 130Q356 69 310 31T201 -8Q139 -8 103 29T67 128Q67 158 74 216L78 250L82 279Q88 334 97 368Q110 429 154 467T259 505Q294 506
322 494T369 459Q370 457 371 457T372 461Q368 528 325 595Q325 596 324 597T321 597L244 571L240 570Q234 570 232 578L231 581V583Q231 590 239 593L306 615Q308 616 309 618T309 621Q290 645 250 688Q246 692 246 694Q246 696 249 698T256 700H266Q273 700 278
695Q284 689 302 670T337 629Q339 625 342 627L416 652L420 653Q425 653 427 645L428 642V639Q428 633 421 630L356 609Q352 607 352 605Q402 521 402 404Q402 390 400 356Q399 340 393 290ZM350 176T358 249Q370 332 370 368Q370 417 341 448T261 479Q210 479
172 446T123 361Q117 334 107 249L101 200Q95 148 95 132Q95 81 124 50T204 19Q256 19 294 52T343 137Q350 176 358 249Z" />
<glyph unicode="&#xf1;" glyph-name="ntilde" horiz-adv-x="459" d="M241 651T230 645T206 623Q198 614 192 620V620L188 623Q186 625 186 628T189 635Q219 677 258 677Q271 677 280 672T304 654Q308 651 316 645T331 635T345 632Q358 632 369 638T394 663Q396
667 400 668T408 667L410 666Q417 661 412 652Q396 628 377 617T340 605Q318 605 294 629Q291 632 284 638T270 648T255 651Q241 651 230 645ZM343 508T376 473T409 377Q409 368 407 348L366 10Q364 0 355 0H345Q341 0 339 3T337 10L378 344Q379 352 379 368Q379
420 352 450T275 480Q220 480 183 444T136 347L135 341L134 339L93 10Q93 6 90 3T82 0H73Q64 0 64 10L123 491Q125 501 134 501H144Q154 501 152 491L146 438Q145 435 146 435T150 436Q173 471 207 489T285 508Q343 508 376 473Z" />
<glyph unicode="&#xf2;" glyph-name="ograve" horiz-adv-x="450" d="M141 -8T105 30T68 130Q68 162 75 218L79 251Q90 335 98 371Q112 433 158 471T268 509Q330 509 367 473T405 377Q405 350 397 272Q397 265 395 251Q385 167 376 130Q362 69 315 31T205 -8Q141
-8 105 30ZM261 20T299 52T350 138Q356 175 365 251L368 278Q377 343 377 368Q377 419 347 450T265 481Q212 481 174 449T124 363Q122 353 113 287L108 251Q104 214 103 204Q97 152 96 138Q95 85 125 53T208 20Q261 20 299 52ZM288 598T288 595Q288 588 279 588H273Q267
588 263 595L213 706L212 710Q212 718 221 718H231Q241 718 242 711L287 600Q288 598 288 595Z" />
<glyph unicode="&#xf3;" glyph-name="oacute" horiz-adv-x="450" d="M141 -8T105 30T68 130Q68 162 75 218L79 251Q90 335 98 371Q112 433 158 471T268 509Q330 509 367 473T405 377Q405 350 397 272Q397 265 395 251Q385 167 376 130Q362 69 315 31T205 -8Q141
-8 105 30ZM261 20T299 52T350 138Q356 175 365 251L368 278Q377 343 377 368Q377 419 347 450T265 481Q212 481 174 449T124 363Q122 353 113 287L108 251Q104 214 103 204Q97 152 96 138Q95 85 125 53T208 20Q261 20 299 52ZM256 588T255 591T257 600L330 711Q333
718 342 718H352Q357 718 359 715T357 706L280 595Q275 588 268 588H262Q256 588 255 591Z" />
<glyph unicode="&#xf4;" glyph-name="ocircumflex" horiz-adv-x="450" d="M141 -8T105 30T68 130Q68 162 75 218L79 251Q90 335 98 371Q112 433 158 471T268 509Q330 509 367 473T405 377Q405 350 397 272Q397 265 395 251Q385 167 376 130Q362 69 315 31T205
-8Q141 -8 105 30ZM261 20T299 52T350 138Q356 175 365 251L368 278Q377 343 377 368Q377 419 347 450T265 481Q212 481 174 449T124 363Q122 353 113 287L108 251Q104 214 103 204Q97 152 96 138Q95 85 125 53T208 20Q261 20 299 52ZM187 578T186 582T189 590L273
694Q278 700 286 700H300Q309 700 311 694L372 590L374 585Q374 578 365 578H353Q346 578 342 584L294 672Q293 674 291 674T288 672L216 584Q212 578 204 578H193Q187 578 186 582Z" />
<glyph unicode="&#xf5;" glyph-name="otilde" horiz-adv-x="450" d="M141 -8T105 30T68 130Q68 162 75 218L79 251Q90 335 98 371Q112 433 158 471T268 509Q330 509 367 473T405 377Q405 350 397 272Q397 265 395 251Q385 167 376 130Q362 69 315 31T205 -8Q141
-8 105 30ZM261 20T299 52T350 138Q356 175 365 251L368 278Q377 343 377 368Q377 419 347 450T265 481Q212 481 174 449T124 363Q122 353 113 287L108 251Q104 214 103 204Q97 152 96 138Q95 85 125 53T208 20Q261 20 299 52ZM326 610T315 616T290 634Q276 646
268 651T247 656Q231 656 219 650T194 627Q185 619 180 624L176 627Q173 630 173 633Q173 637 176 641Q209 682 250 682Q265 682 275 677T302 659Q304 657 313 651T331 641T346 637Q361 637 373 643T400 668Q402 672 406 673T414 672L416 671Q419 670 419 664Q419
657 414 651Q398 630 378 620T341 610Q326 610 315 616Z" />
<glyph unicode="&#xf6;" glyph-name="odieresis" horiz-adv-x="450" d="M141 -8T105 30T68 130Q68 162 75 218L79 251Q90 335 98 371Q112 433 158 471T268 509Q330 509 367 473T405 377Q405 350 397 272Q397 265 395 251Q385 167 376 130Q362 69 315 31T205 -8Q141
-8 105 30ZM261 20T299 52T350 138Q356 175 365 251L368 278Q377 343 377 368Q377 419 347 450T265 481Q212 481 174 449T124 363Q122 353 113 287L108 251Q104 214 103 204Q97 152 96 138Q95 85 125 53T208 20Q261 20 299 52ZM209 621T202 629T195 650Q195 664
205 674T230 685Q241 685 248 677T256 658Q256 643 246 632T222 621Q209 621 202 629ZM337 621T330 629T323 650Q323 664 333 674T358 685Q369 685 376 677T384 658Q384 643 374 632T350 621Q337 621 330 629Z" />
<glyph unicode="&#xf7;" glyph-name="divide" horiz-adv-x="462" d="M249 444T239 454T229 481Q229 500 243 514T275 529Q291 529 302 519T313 492Q313 473 298 459T265 444Q249 444 239 454ZM65 321T63 324T61 331L62 337Q62 341 65 344T73 347H435Q440 347 442
344T444 337L443 331Q441 321 432 321H69Q65 321 63 324ZM213 149T203 160T192 187Q192 206 206 220T239 234Q255 234 266 224T277 197Q277 178 262 164T229 149Q213 149 203 160Z" />
<glyph unicode="&#xf8;" glyph-name="oslash" horiz-adv-x="453" d="M407 350T399 272Q399 265 397 251Q387 167 378 130Q364 69 317 31T207 -8Q149 -8 110 26Q107 29 105 25L80 -14Q73 -23 66 -18L59 -14Q56 -12 56 -8T58 0L88 48Q91 51 89 54Q70 87 70 130Q70
162 77 218L81 251Q92 335 100 371Q114 433 160 471T270 509Q327 509 363 479Q366 476 368 480L393 518Q396 522 400 523T407 522L414 518Q417 516 417 512T416 504L387 458Q386 456 386 453Q407 420 407 377Q407 350 399 272ZM98 108T107 84Q109 82 110 82T113
84L347 446Q349 449 347 451Q315 481 267 481Q214 481 176 449T126 363Q124 353 115 287L110 251Q106 214 105 204Q99 152 98 138Q98 108 107 84ZM358 175T367 251L371 283Q379 353 379 370Q379 398 368 422Q367 423 365 423T362 421L127 58Q125 55 127 53Q157
20 210 20Q263 20 301 52T352 138Q358 175 367 251Z" />
<glyph unicode="&#xf9;" glyph-name="ugrave" horiz-adv-x="458" d="M389 501T398 501H408Q418 501 416 491L357 10Q355 0 346 0H337Q332 0 330 3T328 10L334 58Q335 61 333 61T330 59Q308 27 274 10T199 -7Q140 -7 106 26T71 120Q71 128 73 148L116 491Q116 495
119 498T127 501H136Q145 501 145 491L103 154Q102 145 102 130Q102 78 129 50T205 21Q262 21 300 58T347 160L387 491Q389 501 398 501ZM290 590T290 587Q290 580 281 580H275Q269 580 265 587L215 698L214 702Q214 710 223 710H233Q243 710 244 703L289 592Q290
590 290 587Z" />
<glyph unicode="&#xfa;" glyph-name="uacute" horiz-adv-x="458" d="M389 501T398 501H408Q418 501 416 491L357 10Q355 0 346 0H337Q332 0 330 3T328 10L334 58Q335 61 333 61T330 59Q308 27 274 10T199 -7Q140 -7 106 26T71 120Q71 128 73 148L116 491Q116 495
119 498T127 501H136Q145 501 145 491L103 154Q102 145 102 130Q102 78 129 50T205 21Q262 21 300 58T347 160L387 491Q389 501 398 501ZM258 580T257 583T259 592L332 703Q335 710 344 710H354Q359 710 361 707T359 698L282 587Q277 580 270 580H264Q258 580 257
583Z" />
<glyph unicode="&#xfb;" glyph-name="ucircumflex" horiz-adv-x="458" d="M389 501T398 501H408Q418 501 416 491L357 10Q355 0 346 0H337Q332 0 330 3T328 10L334 58Q335 61 333 61T330 59Q308 27 274 10T199 -7Q140 -7 106 26T71 120Q71 128 73 148L116 491Q116
495 119 498T127 501H136Q145 501 145 491L103 154Q102 145 102 130Q102 78 129 50T205 21Q262 21 300 58T347 160L387 491Q389 501 398 501ZM189 570T188 574T191 582L275 686Q280 692 288 692H302Q311 692 313 686L374 582L376 577Q376 570 367 570H355Q348 570
344 576L296 664Q295 666 293 666T290 664L218 576Q214 570 206 570H195Q189 570 188 574Z" />
<glyph unicode="&#xfc;" glyph-name="udieresis" horiz-adv-x="458" d="M389 501T398 501H408Q418 501 416 491L357 10Q355 0 346 0H337Q332 0 330 3T328 10L334 58Q335 61 333 61T330 59Q308 27 274 10T199 -7Q140 -7 106 26T71 120Q71 128 73 148L116 491Q116
495 119 498T127 501H136Q145 501 145 491L103 154Q102 145 102 130Q102 78 129 50T205 21Q262 21 300 58T347 160L387 491Q389 501 398 501ZM211 613T204 621T197 642Q197 656 207 666T232 677Q243 677 250 669T258 650Q258 635 248 624T224 613Q211 613 204 621ZM339
613T332 621T325 642Q325 656 335 666T360 677Q371 677 378 669T386 650Q386 635 376 624T352 613Q339 613 332 621Z" />
<glyph unicode="&#xfd;" glyph-name="yacute" horiz-adv-x="373" d="M7 -200T5 -197T4 -190L5 -183Q5 -179 7 -176T13 -173H19Q51 -172 69 -159T105 -113T153 -3Q154 -1 154 3L67 490V492Q67 501 76 501H86Q94 501 96 493L172 46Q172 44 174 44T177 46L360 493Q365
501 372 501H382Q387 501 389 498T389 490L159 -59Q133 -121 113 -150T72 -190T15 -200H9Q7 -200 5 -197ZM217 580T216 583T218 592L291 703Q294 710 303 710H313Q318 710 320 707T318 698L241 587Q236 580 229 580H223Q217 580 216 583Z" />
<glyph unicode="&#xfe;" glyph-name="thorn" horiz-adv-x="453" d="M408 334T397 250Q389 175 379 130Q364 68 319 30T213 -8Q172 -8 144 10T101 60Q100 63 99 63T96 59L66 -190Q64 -200 55 -200H45Q35 -200 37 -190L145 690Q147 700 156 700H165Q170 700 172
697T174 690L143 441Q143 438 145 438T148 440Q169 473 202 491T277 509Q338 509 374 471T409 371Q408 334 397 250ZM360 179T368 251Q373 292 376 320T379 369Q379 418 349 449T269 481Q219 481 183 449T136 365Q135 357 133 348T129 327L111 174Q108 150 108
131Q108 82 135 51T212 20Q264 20 302 52T351 136Q360 179 368 251Z" />
<glyph unicode="&#xff;" glyph-name="ydieresis" horiz-adv-x="373" d="M7 -200T5 -197T4 -190L5 -183Q5 -179 7 -176T13 -173H19Q51 -172 69 -159T105 -113T153 -3Q154 -1 154 3L67 490V492Q67 501 76 501H86Q94 501 96 493L172 46Q172 44 174 44T177 46L360
493Q365 501 372 501H382Q387 501 389 498T389 490L159 -59Q133 -121 113 -150T72 -190T15 -200H9Q7 -200 5 -197ZM170 613T163 621T156 642Q156 656 166 666T191 677Q202 677 209 669T217 650Q217 635 207 624T183 613Q170 613 163 621ZM298 613T291 621T284 642Q284
656 294 666T319 677Q330 677 337 669T345 650Q345 635 335 624T311 613Q298 613 291 621Z" />
<glyph unicode="&#x2013;" glyph-name="endash" horiz-adv-x="389" d="M53 268T55 278V286Q56 290 59 293T66 296H356Q361 296 363 293T365 286L364 278Q362 268 353 268H63Q53 268 55 278Z" />
<glyph unicode="&#x2014;" glyph-name="emdash" horiz-adv-x="628" d="M53 268T55 278V286Q56 290 59 293T66 296H595Q604 296 604 286L603 278Q602 274 599 271T592 268H63Q53 268 55 278Z" />
<glyph unicode="&#x2018;" glyph-name="quoteleft" horiz-adv-x="91" d="M43 508T48 519L130 692Q133 700 142 700H146Q157 700 152 689L79 516Q74 508 66 508H55Q43 508 48 519Z" />
<glyph unicode="&#x2019;" glyph-name="quoteright" horiz-adv-x="91" d="M157 700T152 689L71 516Q67 508 58 508H55Q43 508 48 519L122 692Q123 696 127 698T134 700H146Q157 700 152 689Z" />
<glyph unicode="&#x201a;" glyph-name="quotesinglbase" horiz-adv-x="582" d="M32 -68T35 -57L101 144Q104 153 113 153H122Q126 153 128 150T129 142L60 -59Q56 -68 48 -68H42Q32 -68 35 -57Z" />
<glyph unicode="&#x201c;" glyph-name="quotedblleft" horiz-adv-x="194" d="M45 508T48 520L132 692Q136 700 144 700H150Q161 700 156 689L79 516Q74 508 66 508H55Q45 508 48 520ZM150 508T148 511T148 520L231 692Q235 700 243 700H249Q260 700 255 689L179
516Q174 508 166 508H155Q150 508 148 511Z" />
<glyph unicode="&#x201d;" glyph-name="quotedblright" horiz-adv-x="194" d="M154 700T155 697T155 688L72 516Q68 508 60 508H55Q43 508 48 519L125 692Q126 696 130 698T137 700H149Q154 700 155 697ZM254 700T255 697T255 688L171 516Q167 508 159 508H154Q142
508 147 519L225 692Q228 700 237 700H249Q254 700 255 697Z" />
<glyph unicode="&#x201e;" glyph-name="quotedblbase" horiz-adv-x="186" d="M154 127T155 124T155 115L72 -57Q68 -65 60 -65H55Q43 -65 48 -54L125 119Q126 123 130 125T137 127H149Q154 127 155 124ZM254 127T255 124T255 115L171 -57Q167 -65 159 -65H154Q142
-65 147 -54L225 119Q228 127 237 127H249Q254 127 255 124Z" />
<glyph unicode="&#x2022;" glyph-name="bullet" horiz-adv-x="287" d="M105 154T79 181T52 248Q52 280 68 307T112 351T170 368Q209 368 235 342T261 275Q261 243 244 216T200 171T144 154Q105 154 79 181Z" />
<glyph unicode="&#x2039;" glyph-name="guilsinglleft" horiz-adv-x="339" d="M228 115T228 113Q228 107 220 107H212Q206 107 201 113L93 274Q91 276 91 280Q91 285 95 288L242 449Q248 455 255 455H262Q267 455 268 452T266 443L119 284Q118 281 119 278L226
119Q228 115 228 113Z" />
<glyph unicode="&#x203a;" glyph-name="guilsinglright" horiz-adv-x="363" d="M99 107T99 111Q99 115 103 119L249 278Q252 281 250 284L143 443Q141 447 141 449Q141 455 149 455H157Q164 455 168 449L276 288Q278 284 278 282Q278 277 274 274L126 113Q122
107 114 107H106Q99 107 99 111Z" />
</font>
</defs>
</svg>
