<?xml version="1.0" standalone="no"?>
<!DOCTYPE svg PUBLIC "-//W3C//DTD SVG 1.1//EN" "http://www.w3.org/Graphics/SVG/1.1/DTD/svg11.dtd">
<svg xmlns="http://www.w3.org/2000/svg">
<defs >
<font id="Barlow" horiz-adv-x="487" ><font-face
    font-family="Barlow ExtraLight"
    units-per-em="1000"
    panose-1="0 0 3 0 0 0 0 0 0 0"
    ascent="1000"
    descent="-200"
    alphabetic="0" />
<glyph unicode=" " glyph-name="space" horiz-adv-x="194" />
<glyph unicode="!" glyph-name="exclam" horiz-adv-x="303" d="M142 223T143 233L197 690Q199 700 208 700H227Q231 700 233 697T235 690L177 233Q176 223 166 223H152Q142 223 143 233ZM112 4T101 16T89 46Q89 68 105 83T141 99Q158 99 170 87T183 57Q183 36
167 20T130 4Q112 4 101 16Z" />
<glyph unicode="&quot;" glyph-name="quotedbl" horiz-adv-x="212" d="M82 496T82 506L99 683Q101 693 110 693H132Q136 693 138 690T140 683L114 506Q113 496 103 496H91Q82 496 82 506ZM183 496T184 506L202 683Q204 693 213 693H233Q238 693 240 690T242 683L216
506Q215 496 205 496H193Q183 496 184 506Z" />
<glyph unicode="#" glyph-name="numbersign" horiz-adv-x="628" d="M580 441T570 441H497Q492 441 492 437L441 250Q441 246 443 246H512Q517 246 519 243T521 236L518 221Q517 211 507 211H434Q429 211 429 207L378 21Q375 12 367 12L349 13Q345 13 343 16T341
24L391 207Q391 211 389 211H208Q203 211 203 207L152 21Q149 12 141 12L123 13Q119 13 117 16T115 24L165 207Q165 211 163 211H98Q93 211 91 214T89 221L92 236Q93 246 103 246H172Q177 246 177 250L227 437Q228 438 227 439T225 441H161Q152 441 152 451L155
466Q156 476 166 476H235Q240 476 240 480L291 667Q294 676 302 676L321 675Q325 675 327 672T328 664L278 480Q278 476 281 476H461Q466 476 466 480L517 667Q520 676 528 676L547 675Q551 675 553 672T554 664L504 480Q504 476 507 476H575Q580 476 582 473T584
466L581 451Q580 441 570 441ZM403 246T403 250L453 437Q454 438 453 439T451 441H271Q266 441 266 437L215 250Q215 246 217 246H398Q403 246 403 250Z" />
<glyph unicode="$" glyph-name="dollar" horiz-adv-x="527" d="M470 106T413 51T257 -8Q253 -8 253 -12L245 -76Q243 -86 234 -86H222Q212 -86 214 -76L223 -11Q223 -7 219 -7Q145 0 104 39T63 141Q63 148 65 166L70 204Q70 208 73 211T81 214H97Q106 214 106
204L102 172Q101 165 101 151Q101 94 141 61T255 27Q330 27 376 64T430 165Q431 171 431 183Q431 217 413 244T360 294T263 353Q208 382 180 402T135 448T119 513Q119 521 121 541Q130 616 176 658T301 707Q304 707 306 711L314 781Q316 791 325 791H336Q346 791
344 781L336 712Q334 708 339 708Q422 705 465 666T509 558Q509 550 507 532L503 505Q503 501 500 498T492 495H474Q464 495 466 505L468 526Q469 534 469 549Q469 606 431 639T321 673Q250 673 208 640T159 543Q158 536 158 523Q158 489 175 466T219 427T309 378Q393
335 431 294T470 193Q470 106 413 51Z" />
<glyph unicode="%" glyph-name="percent" horiz-adv-x="832" d="M222 439T189 473T156 558Q156 598 177 633T232 689T306 710Q356 710 389 676T423 592Q423 551 402 516T346 460T273 439Q222 439 189 473ZM199 0T198 3T199 12L651 693Q656 700 663 700H674Q680
700 681 697T679 688L229 7Q224 0 216 0H205Q199 0 198 3ZM307 468T334 484T377 528T394 588Q394 628 369 654T303 681Q272 681 245 665T202 621T185 561Q185 521 211 495T277 468Q307 468 334 484ZM524 -10T492 24T459 109Q459 149 479 184T534 240T608 261Q659
261 692 227T725 143Q725 102 704 67T649 11T575 -10Q524 -10 492 24ZM610 19T637 35T680 80T696 141Q696 180 670 206T605 232Q574 232 547 216T504 171T487 111Q487 71 513 45T579 19Q610 19 637 35Z" />
<glyph unicode="&amp;" glyph-name="ampersand" horiz-adv-x="623" d="M537 7Q537 4 535 2T528 0H505Q499 0 494 6L438 89Q437 91 435 91T432 89Q378 37 331 15T224 -8Q148 -8 104 26T60 123Q60 179 84 223T147 301T241 372Q244 373 242 377Q198 443 182 478T165
544Q165 557 166 563Q174 628 219 668T330 708Q393 708 430 676T467 588Q467 541 444 503T387 435T298 369Q294 368 297 364Q346 290 381 239Q388 229 394 221T405 204Q434 162 440 152Q442 147 445 152Q475 185 522 240Q530 248 536 243L549 234Q556 229 550 220Q498
159 464 123L463 121Q463 118 468 111L535 12L537 7ZM278 671T244 643T204 563Q203 558 203 548Q203 525 217 494T273 399Q276 396 279 398Q354 449 391 489T429 582Q429 623 402 647T328 671Q278 671 244 643ZM281 27T322 48T412 118Q416 122 413 124Q413 124
347 223L305 283L265 342Q264 345 260 343Q208 307 175 278T121 213T99 131Q99 81 134 54T230 27Q281 27 322 48Z" />
<glyph unicode="&apos;" glyph-name="quotesingle" horiz-adv-x="112" d="M82 502T83 512L100 687Q102 697 111 697H133Q142 697 142 687L115 512Q114 502 104 502H92Q82 502 83 512Z" />
<glyph unicode="(" glyph-name="parenleft" horiz-adv-x="214" d="M60 -110T57 -103Q33 -49 20 27T6 191Q6 252 14 322Q30 446 71 564T166 758Q170 765 178 765H194Q200 765 201 762T200 753Q151 677 112 561T58 324Q50 263 50 186Q50 102 61 28T95 -98L96 -102Q96
-110 86 -110H68Q60 -110 57 -103Z" />
<glyph unicode=")" glyph-name="parenright" horiz-adv-x="214" d="M89 -110T81 -110H62Q56 -110 55 -107T57 -98Q105 -24 143 90T197 324Q206 396 206 466Q206 550 194 625T161 753L160 757Q160 765 170 765H185Q193 765 196 758Q221 703 235 625T249 459Q249
391 240 322Q225 201 185 86T93 -103Q89 -110 81 -110Z" />
<glyph unicode="*" glyph-name="asterisk" horiz-adv-x="384" d="M206 393T208 403L224 539Q225 541 224 542T220 542L94 472Q92 471 89 471Q83 471 81 476L78 484Q77 485 77 488Q77 495 83 498L208 567Q210 568 210 570T209 573L101 642Q98 644 97 648T99 656L104
664Q106 668 110 669T118 668L227 598Q229 597 230 598T232 601L249 737Q249 741 252 744T260 747H269Q278 747 278 737L261 601Q261 596 265 598L392 668Q394 669 397 669Q403 669 406 664L408 656Q409 655 409 652Q409 645 403 642L277 573Q275 572 275 570T276
567L385 498Q389 496 389 492T387 484L382 476Q380 472 376 471T368 472L259 542Q257 543 256 542T253 539L237 403Q235 393 226 393H216Q206 393 208 403Z" />
<glyph unicode="+" glyph-name="plus" horiz-adv-x="492" d="M470 336T470 326L468 312Q466 302 457 302H283Q282 302 281 301T279 298L258 124Q256 114 247 114H233Q223 114 225 124L246 298Q246 302 243 302H70Q60 302 62 312L63 326Q65 336 74 336H247Q251
336 251 340L274 523Q274 527 277 530T285 533H298Q307 533 307 523L284 340Q284 336 288 336H461Q470 336 470 326Z" />
<glyph unicode="," glyph-name="comma" horiz-adv-x="256" d="M52 -71T51 -68T51 -60L123 145Q124 149 127 151T134 154H150Q162 154 157 143L81 -62Q78 -71 69 -71H57Q52 -71 51 -68Z" />
<glyph unicode="-" glyph-name="hyphen" horiz-adv-x="376" d="M61 300T61 310L63 325Q65 335 74 335H346Q356 335 354 325L352 310Q352 306 349 303T341 300H70Q61 300 61 310Z" />
<glyph unicode="." glyph-name="period" horiz-adv-x="268" d="M94 5T83 17T71 47Q71 68 87 84T124 100Q142 100 154 88T167 58Q167 37 150 21T112 5Q94 5 83 17Z" />
<glyph unicode="/" glyph-name="slash" horiz-adv-x="307" d="M13 0T18 11L300 692Q305 700 313 700H330Q335 700 337 697T338 689L55 8Q52 0 43 0H25Q13 0 18 11Z" />
<glyph unicode="0" glyph-name="zero" horiz-adv-x="545" d="M172 -9T126 34T80 151Q80 160 82 180L124 520Q135 606 193 657T339 709Q419 709 465 666T512 549Q512 540 510 520L468 180Q458 95 398 43T251 -9Q172 -9 126 34ZM326 26T374 67T430 178L472 522Q474
538 474 546Q474 605 437 639T335 674Q266 674 218 632T162 522L120 178Q119 170 119 155Q119 96 155 61T255 26Q326 26 374 67Z" />
<glyph unicode="1" glyph-name="one" horiz-adv-x="337" d="M257 700T264 700H286Q296 700 294 690L211 10Q209 0 200 0H181Q177 0 175 3T173 10L251 650Q252 652 251 653T247 653L128 596L123 594Q120 594 119 596T118 603L119 615Q120 622 127 627L251 697Q257
700 264 700Z" />
<glyph unicode="2" glyph-name="two" horiz-adv-x="509" d="M44 0T46 10L48 27Q50 35 54 39L179 184Q302 326 312 338Q422 466 430 539Q431 546 431 558Q431 611 397 642T303 673Q240 673 198 636T148 538L143 505Q143 501 140 498T133 495H114Q104 495 106 505L110
542Q120 616 174 662T307 708Q382 708 425 669T469 563Q469 547 468 539Q458 453 346 324Q257 220 100 40Q97 35 101 35H421Q426 35 428 32T430 25L428 10Q426 0 417 0H54Q44 0 46 10Z" />
<glyph unicode="3" glyph-name="three" horiz-adv-x="489" d="M425 301T425 261Q425 237 422 208Q416 156 397 113Q372 54 326 23T215 -8Q142 -8 100 36T58 152Q58 157 61 196Q62 206 72 206H90Q100 206 99 196Q97 170 97 154Q97 97 129 62T220 27Q320 27 361
121Q376 153 384 209Q387 233 387 255Q387 286 380 317Q357 400 264 400Q250 400 238 397Q229 394 226 400L218 410Q216 414 216 415Q216 418 220 424L425 660Q427 661 427 663T424 665H130Q120 665 122 675L124 690Q124 694 127 697T134 700H470Q479 700 479 690L476
672Q476 666 471 659L276 433Q274 431 275 430T279 428Q390 427 418 329Q425 301 425 261Z" />
<glyph unicode="4" glyph-name="four" horiz-adv-x="510" d="M455 235T453 225L451 209Q451 205 448 202T441 199H401Q398 199 396 195L374 10Q372 0 363 0H344Q340 0 338 3T336 10L359 195Q359 199 355 199H69Q59 199 61 209L63 225Q63 230 67 237L331 693Q335
700 344 700H362Q367 700 368 697T368 688L107 240Q106 238 106 237T109 235H360Q364 235 364 239L386 415Q386 419 389 422T397 425H415Q425 425 423 415L402 239Q402 235 405 235H445Q455 235 453 225Z" />
<glyph unicode="5" glyph-name="five" horiz-adv-x="488" d="M444 262T438 212Q434 171 423 133Q401 68 350 30T231 -8Q166 -8 125 28T76 124Q74 137 74 161Q74 171 84 171H103Q113 171 112 161Q112 147 113 140Q117 89 149 59T235 28Q290 28 331 60T389 149Q397
178 400 212Q405 240 405 286Q405 340 371 368T280 396Q231 396 191 374T132 311Q131 307 128 305T121 303H101Q91 303 93 313L139 690Q141 700 150 700H459Q464 700 466 697T468 690L466 675Q464 665 455 665H178Q175 665 173 661L137 375Q137 373 138 372T142
373Q168 400 206 415T288 431Q356 431 397 398T443 300Q444 262 438 212Z" />
<glyph unicode="6" glyph-name="six" horiz-adv-x="489" d="M444 295T444 268Q444 242 440 211Q432 146 419 121Q394 61 348 27T236 -8Q161 -8 118 35T75 150Q75 166 77 185T80 213L120 531Q130 612 184 660T317 708Q386 708 426 669T467 565Q467 558 465 540L464
533Q462 523 453 523H435Q426 523 426 532L427 540Q428 547 428 561Q428 611 397 642T313 673Q253 673 209 635T157 531L136 358Q136 355 137 355T140 356Q168 396 205 413T289 431Q417 431 440 307Q444 295 444 268ZM397 163T402 212Q406 239 406 262Q406 276
404 288Q399 336 367 366T281 396Q228 396 189 366T133 287Q124 262 118 211Q114 178 114 156Q114 143 115 137Q118 89 150 59T237 28Q287 28 327 55T385 137Q397 163 402 212Z" />
<glyph unicode="7" glyph-name="seven" horiz-adv-x="449" d="M130 0T135 11L444 660Q445 662 444 663T442 665H143Q140 665 138 661L133 617Q131 607 122 607H108Q103 607 101 610T99 617L108 690Q110 700 119 700H481Q491 700 489 690L487 671Q485 663 483 659L175
8Q171 0 162 0H142Q130 0 135 11Z" />
<glyph unicode="8" glyph-name="eight" horiz-adv-x="494" d="M431 264T431 231Q431 218 429 192Q421 121 384 68Q357 32 317 12T225 -8Q172 -8 136 13T82 76Q67 112 67 159Q67 169 69 193Q76 249 101 292Q132 349 189 374Q194 376 189 379Q151 399 132 432Q110
468 110 513Q110 544 120 573T148 625Q175 664 218 686T313 709Q368 709 405 687T460 622Q471 594 471 557Q471 487 426 432Q396 398 357 380Q352 377 356 375Q409 348 424 288Q431 264 431 231ZM179 423T207 408T271 391H275Q313 392 345 408T401 453Q417 473
425 499T434 551Q434 583 423 604Q410 637 381 655T307 674Q266 674 232 655T175 603Q148 559 148 512Q148 478 163 450Q179 423 207 408ZM384 129T391 194Q393 207 393 230Q393 256 389 273Q379 313 349 336T272 360H269Q177 360 133 278Q114 245 107 193Q105
169 105 160Q105 119 119 89Q147 27 229 27Q309 27 352 86Q384 129 391 194Z" />
<glyph unicode="9" glyph-name="nine" horiz-adv-x="501" d="M473 522T468 487L429 169Q419 88 365 40T232 -8Q163 -8 123 30T82 133Q82 142 84 160L85 167Q85 171 88 174T95 177H114Q123 177 123 169L121 160Q120 154 120 141Q120 90 151 59T236 27Q296 27 339
65T391 169L413 342Q413 345 412 345T408 344Q380 304 343 287T260 269Q131 269 108 393Q105 407 105 430Q105 457 109 489Q115 548 129 579Q155 639 201 673T313 708Q388 708 430 665T473 547Q473 522 468 487ZM321 304T360 334T415 413Q420 426 424 445T431 489Q435
522 435 544Q435 557 434 563Q431 611 399 641T311 672Q261 672 221 645T163 563Q152 535 146 488Q143 458 143 438Q143 424 145 412Q150 364 181 334T267 304Q321 304 360 334Z" />
<glyph unicode=":" glyph-name="colon" horiz-adv-x="317" d="M165 359T154 371T142 400Q142 421 158 437T194 453Q212 453 224 441T236 411Q236 390 220 375T183 359Q165 359 154 371ZM123 18T112 30T100 60Q100 81 116 96T152 112Q170 112 182 100T194 71Q194
49 178 34T141 18Q123 18 112 30Z" />
<glyph unicode=";" glyph-name="semicolon" horiz-adv-x="299" d="M159 362T148 373T136 402Q136 423 152 439T189 456Q206 456 218 444T231 414Q231 393 215 378T177 362Q159 362 148 373ZM86 -65T84 -62T83 -54L134 139Q137 148 145 148H164Q168 148 170 145T171
137L112 -56Q111 -65 101 -65H90Q86 -65 84 -62Z" />
<glyph unicode="&lt;" glyph-name="less" horiz-adv-x="492" d="M437 58T434 56T425 56L60 245Q54 250 55 257L58 279Q58 286 66 291L477 480Q479 481 482 481Q485 481 487 479T488 473L485 454Q485 447 477 443L99 271Q95 268 98 265L434 93Q440 89 440 82L437
63Q437 58 434 56Z" />
<glyph unicode="=" glyph-name="equal" horiz-adv-x="492" d="M60 416T62 426L63 440Q65 450 74 450H461Q470 450 470 440L468 426Q466 416 457 416H70Q60 416 62 426ZM60 456T62 466L63 480Q65 490 74 490H461Q470 490 470 480L468 466Q466 456 457 456H70Q60
456 62 466Z" />
<glyph unicode="&gt;" glyph-name="greater" horiz-adv-x="492" d="M40 55T37 55Q34 55 32 57T31 63L33 82Q34 89 41 93L420 265Q425 268 420 271L84 443Q78 448 79 454L81 473Q82 478 85 480T94 480L459 291Q465 286 464 279L461 257Q461 250 453 245L42 56Q40
55 37 55Z" />
<glyph unicode="?" glyph-name="question" horiz-adv-x="420" d="M176 190T178 200L186 270Q191 311 213 337T279 395Q312 421 330 438T364 481T383 543Q384 550 384 564Q384 614 354 643T273 673Q215 673 176 638T129 544L124 507Q124 503 121 500T113 497L95
498Q85 498 87 508L91 544Q100 617 151 663T277 709Q344 709 383 671T423 568Q423 560 421 542Q415 498 398 466T359 413T303 367Q265 338 247 318T226 269L218 200Q217 196 214 193T207 190H186Q176 190 178 200ZM159 4T148 16T136 45Q136 66 151 81T187 96Q204
96 216 85T228 56Q228 35 212 20T176 4Q159 4 148 16Z" />
<glyph unicode="@" glyph-name="at" horiz-adv-x="807" d="M575 599T633 568T723 480T755 352Q755 307 743 259Q721 172 672 122T563 71Q529 71 506 86T475 131Q473 137 470 132Q450 103 421 87T354 71Q305 71 278 96T251 163Q251 190 267 252Q273 279 280 302T295
341Q314 384 352 409T436 435Q465 435 486 424T519 392Q520 390 521 391T524 394L530 421Q533 430 541 430H553Q557 430 560 427T562 419L508 200Q504 185 504 170Q504 138 521 120T570 101Q615 101 653 142T711 258Q724 304 724 348Q724 414 695 464T612 541T489
568Q408 568 327 531T187 418T114 230Q110 203 110 171Q110 65 168 1T335 -63Q384 -63 432 -52T506 -22Q515 -16 519 -23L524 -31Q526 -35 526 -37Q526 -43 521 -45Q487 -68 434 -81T328 -94Q207 -94 142 -22T77 171Q77 199 82 237Q98 353 163 435T317 558T496
599Q575 599 633 568ZM396 101T424 122T467 177Q468 179 473 191T489 253Q502 309 505 330Q508 363 489 384T434 406Q398 406 368 385T321 331Q316 320 311 304T298 253Q288 216 286 203T284 177Q280 143 301 122T360 101Q396 101 424 122Z" />
<glyph unicode="A" glyph-name="A" horiz-adv-x="561" d="M467 0T465 8L438 146Q437 149 434 149H122Q119 149 118 146L58 8Q57 4 53 2T46 0H27Q16 0 21 11L321 692Q324 700 333 700H359Q362 700 365 698T369 692L504 11V9Q504 0 495 0H475Q467 0 465 8ZM134 185T135
184T139 182H427Q429 182 430 183T431 187L342 645Q341 647 340 647T336 645L135 187Q134 185 135 184Z" />
<glyph unicode="B" glyph-name="B" horiz-adv-x="611" d="M443 363T443 362T445 360Q490 341 513 304T537 216Q537 151 509 102T432 27T322 0H96Q86 0 88 10L171 690Q173 700 182 700H401Q480 700 525 660T570 550Q570 483 537 435T446 364Q443 363 443 362ZM207
665T205 661L171 383Q171 379 175 379H362Q437 379 484 424T532 541Q532 598 496 631T397 665H210Q207 665 205 661ZM395 36T442 78T498 189Q499 197 499 212Q499 273 462 308T358 344H170Q166 344 166 340L129 40Q129 38 130 37T132 36H326Q395 36 442 78Z" />
<glyph unicode="C" glyph-name="C" horiz-adv-x="588" d="M189 -9T137 40T85 170Q85 181 87 203L123 498Q135 593 201 650T366 708Q454 708 506 660T559 529Q559 519 557 499V498Q555 488 546 488L527 487Q518 487 518 493L519 499Q521 517 521 525Q521 593 478
633T362 673Q281 673 226 625T161 499L125 201Q123 183 123 174Q123 107 166 67T283 26Q362 26 417 74T483 201V203Q485 212 494 212L512 211Q521 211 521 207L520 202Q513 140 480 92T395 18T278 -9Q189 -9 137 40Z" />
<glyph unicode="D" glyph-name="D" horiz-adv-x="599" d="M86 0T88 10L171 690Q173 700 182 700H404Q485 700 531 659T577 546Q577 537 575 515L535 185Q525 99 467 50T318 0H96Q86 0 88 10ZM129 35T132 35H324Q395 35 442 76T497 187L537 512Q539 530 539 538Q539
598 503 631T402 665H210Q207 665 205 661L129 39Q129 35 132 35Z" />
<glyph unicode="E" glyph-name="E" horiz-adv-x="597" d="M593 665T584 665H210Q207 665 205 661L170 373Q170 369 173 369H441Q450 369 450 359L448 343Q447 339 444 336T437 333H169Q165 333 165 329L129 39Q129 35 132 35H507Q517 35 515 25L513 10Q513 6 510
3T502 0H96Q86 0 88 10L171 690Q173 700 182 700H588Q593 700 595 697T597 690L595 675Q593 665 584 665Z" />
<glyph unicode="F" glyph-name="F" horiz-adv-x="555" d="M592 665T583 665H210Q207 665 205 661L170 373Q170 369 173 369H440Q449 369 449 359L447 343Q446 339 443 336T436 333H169Q165 333 165 329L125 10Q125 6 122 3T114 0H96Q86 0 88 10L171 690Q173 700
182 700H587Q592 700 594 697T596 690L594 675Q592 665 583 665Z" />
<glyph unicode="G" glyph-name="G" horiz-adv-x="587" d="M189 -8T137 40T85 168Q85 178 87 200L123 500Q135 594 201 651T366 708Q454 708 506 660T558 533Q558 523 556 503L555 488Q553 478 544 478H525Q515 478 517 488L519 503Q520 511 520 527Q520 593 478
633T362 673Q281 673 226 626T161 501L124 199Q123 191 123 175Q123 107 166 67T284 27Q363 27 417 73T481 196L494 305Q495 306 494 307T491 309H333Q324 309 324 319L326 334Q328 344 337 344H527Q536 344 536 334L520 203Q508 106 442 49T278 -8Q189 -8 137
40Z" />
<glyph unicode="H" glyph-name="H" horiz-adv-x="646" d="M569 694T572 697T580 700H598Q607 700 607 690L523 10Q521 0 512 0H494Q485 0 485 10L524 329Q525 330 524 331T521 333H169Q165 333 165 329L125 10Q125 6 122 3T114 0H96Q86 0 88 10L171 690Q173 700
182 700H200Q205 700 207 697T209 690L170 373Q170 369 173 369H525Q527 369 528 370T530 373L569 690Q569 694 572 697Z" />
<glyph unicode="I" glyph-name="I" horiz-adv-x="249" d="M86 0T88 10L171 690Q173 700 182 700H200Q205 700 207 697T209 690L125 10Q125 6 122 3T114 0H96Q86 0 88 10Z" />
<glyph unicode="J" glyph-name="J" horiz-adv-x="558" d="M136 -8T86 38T35 163Q35 173 37 193L44 244Q44 248 47 251T54 254H73Q83 254 81 244L75 192Q73 176 73 168Q73 103 114 65T226 27Q304 27 357 72T419 192L480 690Q481 694 484 697T491 700H509Q519 700
517 690L456 193Q445 102 381 47T222 -8Q136 -8 86 38Z" />
<glyph unicode="K" glyph-name="K" horiz-adv-x="586" d="M86 0T88 10L171 690Q173 700 182 700H200Q205 700 207 697T209 690L164 326Q164 324 165 323T169 324L558 695Q563 700 570 700H590Q596 700 597 697T595 688L315 415Q312 412 314 409L535 12Q537 8 537
7Q537 4 535 2T528 0H504Q497 0 493 6L284 380Q284 382 282 382T279 381L159 271Q157 269 157 266L125 10Q125 6 122 3T114 0H96Q86 0 88 10Z" />
<glyph unicode="L" glyph-name="L" horiz-adv-x="550" d="M86 0T88 10L171 690Q173 700 182 700H200Q205 700 207 697T209 690L129 39Q129 35 132 35H484Q489 35 491 32T493 25L491 10Q489 0 480 0H96Q86 0 88 10Z" />
<glyph unicode="M" glyph-name="M" horiz-adv-x="693" d="M86 0T88 10L171 690Q173 700 182 700H202Q210 700 213 693L369 377Q370 376 372 376T375 377L612 693Q617 700 624 700H644Q654 700 652 690L569 10Q567 0 558 0H539Q535 0 533 3T531 10L606 621Q606
624 605 624T601 622L385 331Q380 324 372 324H363Q356 324 352 331L205 622Q204 625 203 625T200 621L125 10Q125 6 122 3T114 0H96Q86 0 88 10Z" />
<glyph unicode="N" glyph-name="N" horiz-adv-x="660" d="M86 0T88 10L171 690Q173 700 182 700H201Q209 700 212 693L503 83Q504 80 505 80T508 84L582 690Q584 700 593 700H612Q622 700 620 690L537 10Q535 0 526 0H505Q499 0 495 7L205 618Q204 621 202 621T200
617L125 10Q125 6 122 3T114 0H96Q86 0 88 10Z" />
<glyph unicode="O" glyph-name="O" horiz-adv-x="603" d="M191 -8T139 43T86 181Q86 191 88 215L122 484Q130 550 163 601T250 680T368 708Q458 708 511 657T564 518Q564 508 562 484L529 215Q521 149 487 99T400 20T280 -8Q191 -8 139 43ZM367 27T424 78T491
213L524 485Q526 505 526 515Q526 587 483 630T364 673Q282 673 226 622T159 485L126 213Q124 193 124 183Q124 112 167 70T285 27Q367 27 424 78Z" />
<glyph unicode="P" glyph-name="P" horiz-adv-x="571" d="M492 702T534 660T577 546Q577 537 575 515Q565 431 510 381T373 330H161Q158 330 156 326L118 10Q116 0 107 0H88Q78 0 80 10L164 692Q164 696 167 699T174 702H420Q492 702 534 660ZM423 364T460 386T518
449T539 540Q539 598 506 632T414 666H202Q198 666 198 662L162 368Q161 367 162 366T165 364H376Q423 364 460 386Z" />
<glyph unicode="Q" glyph-name="Q" horiz-adv-x="551" d="M429 708T479 659T530 527Q530 517 528 493L493 206Q482 116 424 59T279 -7Q274 -7 274 -11L262 -113Q261 -117 258 -120T251 -123H232Q222 -123 224 -113L236 -11Q238 -7 233 -7Q156 0 112 48T68 172Q68
182 70 206L105 493Q113 557 145 605T229 681T343 708Q429 708 479 659ZM490 495Q492 515 492 524Q492 592 451 632T339 673Q261 673 207 624T143 495L108 205Q106 187 106 177Q106 109 147 68T259 27Q338 27 391 76T455 205L490 495Z" />
<glyph unicode="R" glyph-name="R" horiz-adv-x="593" d="M484 0T483 7L370 333Q369 336 366 336H169Q165 336 165 332L125 10Q125 6 122 3T114 0H96Q86 0 88 10L171 692Q173 702 182 702H420Q492 702 534 660T577 546Q577 464 531 407T411 339Q406 337 408 334L519
12L520 8Q520 0 511 0H494Q484 0 483 7ZM207 666T205 662L170 374Q170 372 171 371T173 370H378Q424 370 460 392T518 453T539 541Q539 598 506 632T414 666H210Q207 666 205 662Z" />
<glyph unicode="S" glyph-name="S" horiz-adv-x="566" d="M172 -8T118 33T63 146Q63 161 64 169L69 204Q69 208 72 211T80 214H96Q105 214 105 204L101 172Q100 166 100 154Q100 96 146 62T275 27Q366 27 417 69T469 184Q469 233 431 267T296 347Q229 378 195
398T141 446T121 517Q121 523 123 541Q133 622 191 665T345 708Q442 708 494 667T546 554Q546 547 544 529L541 505Q539 495 530 495H512Q503 495 503 505L506 526Q507 533 507 546Q507 604 464 638T339 673Q253 673 206 635T159 523Q159 489 176 466T225 426T322
379Q418 335 463 294T508 190Q508 176 507 168Q497 88 434 40T268 -8Q172 -8 118 33Z" />
<glyph unicode="T" glyph-name="T" horiz-adv-x="545" d="M557 700T559 697T561 690L559 675Q557 665 548 665H353Q349 665 349 661L269 10Q267 0 258 0H240Q235 0 233 3T231 10L311 661Q311 665 308 665H120Q116 665 114 668T112 675L114 690Q116 700 125 700H553Q557
700 559 697Z" />
<glyph unicode="U" glyph-name="U" horiz-adv-x="636" d="M208 -8T155 42T102 176Q102 187 104 209L163 690Q165 700 174 700H193Q197 700 199 697T201 690L142 206Q140 188 140 179Q140 110 183 69T302 27Q385 27 441 76T507 206L567 690Q569 700 578 700H596Q605
700 605 690L546 209Q538 145 505 96T418 19T298 -8Q208 -8 155 42Z" />
<glyph unicode="V" glyph-name="V" horiz-adv-x="556" d="M239 0T237 8L104 689V691Q104 700 113 700H132Q135 700 138 698T142 692L264 63Q264 61 266 61T270 63L546 692Q549 700 558 700H576Q587 700 582 689L281 8Q278 0 269 0H247Q239 0 237 8Z" />
<glyph unicode="W" glyph-name="W" horiz-adv-x="851" d="M204 0T202 8L93 689V691Q93 695 96 697T103 700H122Q129 700 132 692L229 82Q230 80 231 80T234 82L467 691Q471 700 479 700H499Q507 700 509 691L597 82Q599 77 602 82L850 692Q855 700 862 700H880Q885
700 887 697T888 689L610 8Q607 0 598 0H578Q569 0 569 9L483 627Q483 629 482 629T479 627L243 9Q239 0 231 0H211Q204 0 202 8Z" />
<glyph unicode="X" glyph-name="X" horiz-adv-x="552" d="M23 0T22 3T25 12L276 347Q279 350 277 353L108 688Q107 690 107 694Q107 700 115 700H135Q143 700 146 693L301 384Q302 383 304 383T307 384L537 693Q544 700 550 700H570Q576 700 577 697T574 688L323
352Q320 349 322 346L491 12Q492 10 492 6Q492 0 484 0H464Q457 0 453 7L299 315Q298 317 296 317T293 315L62 7Q57 0 49 0H29Q23 0 22 3Z" />
<glyph unicode="Y" glyph-name="Y" horiz-adv-x="528" d="M227 0T227 10L266 326Q266 327 266 328T266 331L107 688Q106 690 106 693Q106 700 115 700H133Q141 700 144 693L287 372Q288 371 290 371T293 372L515 693Q520 700 527 700H546Q551 700 553 697T551
688L304 331Q303 330 303 326L264 10Q262 0 253 0H236Q227 0 227 10Z" />
<glyph unicode="Z" glyph-name="Z" horiz-adv-x="529" d="M31 0T31 10L34 29Q34 32 39 42L488 660Q490 662 489 663T486 665H121Q117 665 115 668T113 675L115 690Q117 700 126 700H528Q537 700 537 690L534 671Q534 668 529 658L80 40Q78 38 79 37T82 35H447Q451
35 453 32T455 25L453 10Q453 6 450 3T442 0H40Q31 0 31 10Z" />
<glyph unicode="[" glyph-name="bracketleft" horiz-adv-x="352" d="M-1 -109T-1 -99L104 752Q106 762 115 762H279Q289 762 287 752L285 737Q285 733 282 730T275 727H143Q141 727 140 726T138 723L41 -70Q41 -74 44 -74H177Q186 -74 186 -84L184 -99Q182 -109
173 -109H8Q-1 -109 -1 -99Z" />
<glyph unicode="\" glyph-name="backslash" horiz-adv-x="307" d="M254 9Q254 0 243 0H226Q218 0 215 8L100 689V691Q100 700 110 700H128Q136 700 138 692L254 11V9Z" />
<glyph unicode="]" glyph-name="bracketright" horiz-adv-x="352" d="M289 -103T286 -106T279 -109H114Q109 -109 107 -106T105 -99L107 -84Q109 -74 118 -74H251Q255 -74 255 -70L353 723Q353 727 349 727H217Q207 727 209 737L211 752Q211 756 214 759T222 762H386Q390
762 392 759T394 752L290 -99Q289 -103 286 -106Z" />
<glyph unicode="^" glyph-name="asciicircum" horiz-adv-x="427" d="M69 312T67 315T68 324L258 692Q261 700 269 700H290Q298 700 299 692L400 324V321Q400 317 397 315T390 312H376Q367 312 366 320L277 655Q277 658 275 658T272 655L100 320Q97 312 89 312H74Q69
312 67 315Z" />
<glyph unicode="_" glyph-name="underscore" horiz-adv-x="452" d="M13 0T15 10L17 24Q17 28 20 31T27 34H395Q404 34 404 24L402 10Q400 0 391 0H23Q13 0 15 10Z" />
<glyph unicode="`" glyph-name="grave" horiz-adv-x="175" d="M191 587Q191 579 182 579H168Q162 579 157 586L107 697Q106 699 106 702Q106 709 115 709H134Q143 709 144 702L190 591L191 587Z" />
<glyph unicode="a" glyph-name="a" horiz-adv-x="518" d="M434 502T443 502H461Q470 502 470 492L411 10Q410 6 407 3T400 0H381Q371 0 373 10L380 66Q380 69 379 69T375 67Q350 32 312 12T230 -8Q164 -8 123 28T75 124Q73 142 73 152Q73 178 82 250Q87 288 92
321T105 377Q127 438 177 474T293 510Q338 510 370 490T420 435Q422 433 423 433T425 436L432 492Q434 502 443 502ZM386 151T390 172T401 250Q409 317 409 342Q409 360 407 369Q404 415 374 445T293 475Q241 475 201 446T144 370Q136 352 132 330T120 252Q112
188 112 162Q112 152 114 134Q117 87 150 57T237 27Q289 27 326 57T379 134Q386 151 390 172Z" />
<glyph unicode="b" glyph-name="b" horiz-adv-x="519" d="M467 369T467 351Q467 324 458 250Q453 202 448 175T434 124Q413 64 363 28T247 -8Q204 -8 172 11T121 65Q120 67 119 67T116 64L110 10Q108 0 99 0H81Q76 0 74 3T72 10L156 690Q156 694 159 697T166 700H185Q195
700 193 690L162 438Q162 435 163 435T167 437Q192 472 229 491T311 510Q377 510 418 474T466 377Q467 369 467 351ZM405 155T409 176T421 252Q429 313 429 340Q429 357 426 370Q421 416 388 445T303 475Q252 475 215 445T163 369Q155 351 151 330T139 250Q131
183 131 158Q131 150 133 134Q137 88 167 58T249 27Q301 27 342 57T398 134Q405 155 409 176Z" />
<glyph unicode="c" glyph-name="c" horiz-adv-x="497" d="M173 -8T131 28T80 126Q78 150 78 164Q78 200 84 252Q93 324 111 377Q133 437 184 473T304 510Q371 510 415 475T466 386Q468 377 468 360Q468 351 458 349L440 347H438Q431 347 431 356L430 370Q426 414
391 444T299 475Q242 475 201 444T144 362Q130 318 122 251Q116 204 116 162Q116 101 149 64T244 27Q300 27 344 57T400 133L402 138Q405 148 415 146L431 143Q441 141 438 132Q435 122 433 116Q415 62 362 27T241 -8Q173 -8 131 28Z" />
<glyph unicode="d" glyph-name="d" horiz-adv-x="519" d="M458 700T467 700H486Q490 700 492 697T494 690L411 10Q410 6 407 3T400 0H381Q371 0 373 10L379 64Q380 67 379 67T375 65Q349 30 312 11T231 -8Q165 -8 124 28T76 124Q74 142 74 152Q74 178 83 250Q88
288 93 321T106 377Q128 438 178 474T294 510Q339 510 371 491T420 437Q422 435 423 435T425 438L456 690Q458 700 467 700ZM387 151T391 172T402 250Q410 317 410 342Q410 360 408 369Q405 415 375 445T294 475Q242 475 202 446T145 370Q137 352 133 330T121 252Q113
188 113 162Q113 152 115 134Q118 87 151 57T238 27Q290 27 327 57T380 134Q387 151 391 172Z" />
<glyph unicode="e" glyph-name="e" horiz-adv-x="512" d="M294 27T333 51T394 116Q398 125 407 122L419 118Q428 115 424 105Q398 54 349 23T238 -8Q171 -8 130 27T79 121Q77 132 77 156Q77 186 84 252Q90 300 94 326T107 375Q129 436 180 473T300 510Q377 510
420 466T463 346Q463 327 454 252Q452 241 443 241H125Q121 241 120 237Q119 230 115 194T113 141Q117 89 151 58T244 27Q294 27 333 51ZM239 475T198 444T141 363Q133 339 125 277Q125 273 129 273H415Q419 273 419 277Q426 341 425 361Q420 413 386 444T296 475Q239
475 198 444Z" />
<glyph unicode="f" glyph-name="f" horiz-adv-x="332" d="M257 665T232 635T198 537L194 506Q194 502 197 502H315Q325 502 323 492L321 476Q321 472 318 469T310 466H193Q189 466 189 462L133 10Q131 0 122 0H104Q95 0 95 10L151 462Q151 466 147 466H84Q80 466
78 469T76 476L78 492Q80 502 89 502H152Q156 502 156 506L160 538Q170 623 205 661T320 700H343Q353 700 351 690L350 675Q348 665 339 665H317Q257 665 232 635Z" />
<glyph unicode="g" glyph-name="g" horiz-adv-x="510" d="M435 502T444 502H462Q471 502 471 492L411 6Q384 -207 146 -199Q137 -199 138 -189L141 -172Q142 -162 152 -162Q255 -165 308 -123T373 7L381 67Q381 70 380 70T376 68Q351 33 314 14T230 -6Q166 -6
125 29T76 126Q73 143 73 164Q73 191 80 250Q91 335 107 379Q129 438 179 474T293 510Q339 510 371 491T421 437Q422 434 424 434T426 438L433 492Q435 502 444 502ZM390 156T393 179T403 251Q409 300 411 322T413 362Q411 411 380 443T294 475Q240 475 200 444T140
362Q129 330 119 252Q112 193 112 163Q112 147 113 142Q118 92 151 60T239 28Q295 28 333 60T386 141Q390 156 393 179Z" />
<glyph unicode="h" glyph-name="h" horiz-adv-x="520" d="M383 509T422 470T462 366Q462 358 460 340L419 10Q419 6 416 3T408 0H390Q381 0 381 10L421 333Q422 340 422 354Q422 408 390 441T306 474Q243 474 200 436T149 335L109 10Q107 0 98 0H80Q75 0 73 3T71
10L155 690Q155 694 158 697T165 700H184Q194 700 192 690L161 438Q161 435 162 435T165 436Q191 471 229 490T317 509Q383 509 422 470Z" />
<glyph unicode="i" glyph-name="i" horiz-adv-x="232" d="M157 612T148 621T138 644Q138 661 150 673T181 686Q196 686 205 677T215 654Q215 636 203 624T172 612Q157 612 148 621ZM77 0T79 10L138 492Q140 502 149 502H167Q172 502 174 499T176 492L117 10Q115
0 106 0H87Q77 0 79 10Z" />
<glyph unicode="j" glyph-name="j" horiz-adv-x="218" d="M150 611T141 619T132 643Q132 663 144 674T174 686Q190 686 199 678T209 655Q209 636 197 624T165 611Q150 611 141 619ZM-69 -210T-67 -200L-65 -185Q-65 -181 -62 -178T-54 -175Q-4 -173 26 -144T63
-64L131 492Q133 502 142 502H161Q165 502 167 499T169 492L101 -63Q93 -133 52 -170T-59 -210Q-69 -210 -67 -200Z" />
<glyph unicode="k" glyph-name="k" horiz-adv-x="471" d="M75 0T73 3T71 10L155 690Q155 694 158 697T165 700H184Q194 700 192 690L138 250Q138 248 139 247T143 248L412 497Q417 502 424 502H449Q456 502 456 497Q456 494 452 490L314 359Q311 356 312 354L419
12V9Q419 5 416 3T409 0H390Q381 0 380 8L283 326Q281 330 278 327L134 195Q131 194 131 190L109 10Q107 0 98 0H80Q75 0 73 3Z" />
<glyph unicode="l" glyph-name="l" horiz-adv-x="217" d="M76 0T74 3T72 10L156 690Q156 694 159 697T166 700H185Q195 700 193 690L110 10Q108 0 99 0H81Q76 0 74 3Z" />
<glyph unicode="m" glyph-name="m" horiz-adv-x="803" d="M673 509T710 473T747 373Q747 364 745 346L704 10Q703 6 700 3T693 0H674Q664 0 666 10L706 339Q707 347 707 361Q707 414 677 444T596 474Q535 474 495 439T446 341L406 10Q404 0 395 0H376Q372 0 370
3T368 10L408 339Q410 355 410 363Q410 415 380 444T299 474Q238 474 198 439T150 341L109 10Q107 0 98 0H80Q75 0 73 3T71 10L130 492Q132 502 141 502H160Q164 502 166 499T168 492L162 442Q161 439 162 439T166 441Q191 474 228 491T312 509Q363 509 397 486T443
419Q444 417 445 417T447 419Q471 463 513 486T609 509Q673 509 710 473Z" />
<glyph unicode="n" glyph-name="n" horiz-adv-x="520" d="M383 509T422 470T462 366Q462 358 460 340L419 10Q419 6 416 3T408 0H390Q381 0 381 10L421 333Q422 340 422 354Q422 408 390 441T306 474Q243 474 200 436T149 335L109 10Q107 0 98 0H80Q75 0 73 3T71
10L130 492Q132 502 141 502H160Q164 502 166 499T168 492L161 438Q161 435 162 435T165 436Q191 471 229 490T317 509Q383 509 422 470Z" />
<glyph unicode="o" glyph-name="o" horiz-adv-x="518" d="M171 -8T129 28T79 126Q77 136 77 160Q77 189 84 252Q95 339 108 377Q131 437 183 473T302 510Q370 510 413 474T463 377Q464 369 464 351Q464 314 456 252Q450 202 446 175T433 126Q410 65 358 29T239
-8Q171 -8 129 28ZM299 27T341 58T399 141Q407 165 418 251L421 275Q422 287 425 317T427 361Q423 412 389 443T297 475Q241 475 200 444T141 361Q132 333 122 251Q113 174 113 154Q113 97 147 62T243 27Q299 27 341 58Z" />
<glyph unicode="p" glyph-name="p" horiz-adv-x="527" d="M475 360T475 349Q475 324 466 252Q461 204 456 176T443 125Q422 65 372 29T255 -8Q211 -8 179 11T129 65Q128 67 127 67T124 64L93 -188Q93 -192 90 -195T82 -198H64Q55 -198 55 -188L139 492Q141 502
150 502H168Q173 502 175 499T177 492L170 438Q170 435 171 435T175 437Q200 471 237 490T319 510Q385 510 425 474T473 378Q475 360 475 349ZM412 150T417 172T428 250Q436 314 436 340Q436 350 434 368Q431 415 398 445T311 475Q260 475 223 445T169 368Q163
351 159 330T147 252Q139 185 139 160Q139 142 141 133Q145 87 175 57T256 27Q307 27 347 56T404 132Q412 150 417 172Z" />
<glyph unicode="q" glyph-name="q" horiz-adv-x="527" d="M434 502T443 502H461Q470 502 470 492L386 -188Q386 -192 383 -195T375 -198H357Q348 -198 348 -188L379 64Q380 67 379 67T375 65Q350 31 313 12T231 -8Q159 -8 117 34T74 146Q74 175 83 252Q89 302
94 329T108 378Q129 438 179 474T294 510Q338 510 370 491T420 437Q422 435 423 435T425 438L432 492Q434 502 443 502ZM387 151T391 172T402 252Q411 329 411 345Q411 354 409 368Q404 415 375 445T293 475Q240 475 199 445T144 368Q137 349 133 328T121 250Q113
189 113 162Q113 146 116 132Q121 86 154 57T239 27Q290 27 327 57T379 133Q387 151 391 172Z" />
<glyph unicode="r" glyph-name="r" horiz-adv-x="345" d="M342 506T362 495Q369 492 366 482L356 462Q353 452 344 457Q324 465 297 464Q240 464 197 419T146 310L109 10Q107 0 98 0H80Q75 0 73 3T71 10L130 492Q132 502 141 502H160Q164 502 166 499T168 492L159
417Q158 414 160 414T163 416Q188 458 225 482T307 506Q342 506 362 495Z" />
<glyph unicode="s" glyph-name="s" horiz-adv-x="460" d="M144 -4T101 29T58 111Q58 120 59 124L61 138Q61 142 64 145T72 148H89Q99 148 97 138L96 125Q93 100 107 78T150 43T218 29Q281 29 321 61T362 143Q362 169 346 185T309 210T237 237Q190 252 161 266T112
302T92 360Q92 425 143 465T275 506Q345 506 386 474T428 391Q428 382 427 377L426 374Q424 364 415 364H399Q394 364 392 366T390 371L391 377Q396 418 363 445T270 473Q208 473 169 444T129 367Q129 342 144 326T183 299T249 274Q300 258 329 246T379 210T400
150Q400 106 377 71T311 16T215 -4Q144 -4 101 29Z" />
<glyph unicode="t" glyph-name="t" horiz-adv-x="345" d="M320 474T317 471T310 468H192Q188 468 188 464L147 132Q145 116 145 109Q145 69 167 53T235 36H257Q261 36 263 33T265 26L263 11Q263 2 253 0H228Q169 0 138 21T107 98Q107 105 109 125L151 464Q151
468 148 468H89Q84 468 82 471T80 478L82 492Q82 496 85 499T93 502H152Q156 502 156 506L170 619Q172 629 181 629H198Q203 629 205 626T207 619L193 506Q193 504 194 503T196 502H314Q324 502 322 492L321 478Q320 474 317 471Z" />
<glyph unicode="u" glyph-name="u" horiz-adv-x="518" d="M434 502T443 502H461Q470 502 470 492L411 10Q410 6 407 3T400 0H381Q371 0 373 10L379 63Q380 66 379 66T375 64Q349 29 311 11T225 -7Q160 -7 120 30T80 133Q80 149 81 158L122 492Q123 496 126 499T133
502H152Q162 502 160 492L120 167Q119 159 119 145Q119 91 150 60T236 28Q299 28 341 66T392 167L432 492Q434 502 443 502Z" />
<glyph unicode="v" glyph-name="v" horiz-adv-x="441" d="M182 0T179 8L78 491V493Q78 502 87 502H108Q112 502 115 500T119 494L206 63Q206 61 208 61T211 63L405 494Q410 502 418 502H439Q450 502 445 491L225 8Q220 0 212 0H190Q182 0 179 8Z" />
<glyph unicode="w" glyph-name="w" horiz-adv-x="671" d="M156 0T153 8L77 491V493Q77 502 87 502H104Q114 502 114 494L178 59Q179 57 181 57T184 59L356 494Q358 502 367 502H387Q394 502 396 494L462 60Q463 58 465 58T468 60L640 494Q643 502 651 502H670Q682
502 677 491L480 8Q477 0 469 0H448Q441 0 438 8L371 428Q370 430 368 430T365 428L196 8Q191 0 184 0H163Q156 0 153 8Z" />
<glyph unicode="x" glyph-name="x" horiz-adv-x="437" d="M14 0T13 4T15 12L207 248Q208 250 208 254L74 490L72 495Q72 502 81 502H100Q109 502 111 496L231 285Q232 284 234 284T237 285L405 496Q410 502 418 502H439Q445 502 446 499T443 490L252 254Q251 251
252 248L385 12Q387 8 387 7Q387 0 377 0H357Q348 0 346 6L229 217Q229 219 227 219T224 217L53 6Q49 0 41 0H19Q14 0 13 4Z" />
<glyph unicode="y" glyph-name="y" horiz-adv-x="428" d="M8 -200T10 -190L11 -175Q12 -171 14 -168T20 -165H26Q63 -164 84 -152T125 -108T176 -3Q178 2 177 3L69 491V493Q69 502 78 502H97Q100 502 103 500T107 494L200 58Q201 56 203 56T206 58L402 494Q407
502 415 502H433Q443 502 440 491L187 -56Q158 -119 136 -149T89 -189T22 -200H15Q8 -200 10 -190Z" />
<glyph unicode="z" glyph-name="z" horiz-adv-x="426" d="M17 0T19 10L21 29Q23 38 26 42L378 461Q380 463 379 464T376 466H87Q77 466 79 476L81 492Q83 502 92 502H421Q425 502 427 499T429 492L427 473Q425 464 421 460L68 41Q67 40 67 38T69 36H361Q366 36
368 33T370 26L368 10Q366 0 357 0H27Q17 0 19 10Z" />
<glyph unicode="{" glyph-name="braceleft" horiz-adv-x="261" d="M101 -109T83 -91T64 -33Q64 -12 66 0L93 222Q95 244 95 252Q95 279 86 293T59 312Q50 314 51 322L53 338Q54 347 63 348Q87 354 101 375T120 438L146 653Q153 711 176 736T247 762H294Q299 762
301 759T303 752L301 737Q299 727 290 727H249Q220 727 204 709T183 648L158 440Q152 395 139 370T102 333Q98 332 101 328Q133 308 133 253Q133 244 131 220L104 5Q103 -3 103 -18Q103 -47 114 -60T151 -74H192Q202 -74 200 -84L198 -99Q198 -103 195 -106T187
-109H140Q101 -109 83 -91Z" />
<glyph unicode="|" glyph-name="bar" horiz-adv-x="145" d="M25 -80T25 -70L126 750Q128 760 137 760H155Q160 760 162 757T164 750L63 -70Q61 -80 52 -80H34Q25 -80 25 -70Z" />
<glyph unicode="}" glyph-name="braceright" horiz-adv-x="261" d="M8 -109Q-1 -109 -1 -99L1 -84Q3 -74 12 -74H53Q82 -74 98 -56T119 5L145 220Q151 264 164 289T201 328Q206 332 202 333Q170 351 170 406Q170 416 172 440L198 648Q200 666 200 672Q200 701
188 714T151 727H111Q106 727 104 730T102 737L104 752Q106 762 115 762H162Q202 762 220 744T238 686Q238 665 236 653L210 438Q208 416 208 409Q208 357 244 348Q253 346 252 338L250 322Q249 313 240 312Q216 307 202 286T183 222L156 0Q149 -58 126 -83T55
-109H8Z" />
<glyph unicode="~" glyph-name="asciitilde" horiz-adv-x="470" d="M310 246T290 254T239 282Q219 294 204 300T168 306Q117 306 85 264Q79 254 72 261L64 267Q56 272 62 280Q80 309 108 325T171 342Q196 342 214 335T253 315Q257 313 273 303T307 288T345 282Q367
282 382 292T417 323Q423 330 431 325L441 318Q447 312 442 304Q421 276 397 261T341 246Q310 246 290 254Z" />
<glyph unicode="&#xa0;" glyph-name="uni00A0" horiz-adv-x="194" />
<glyph unicode="&#xa1;" glyph-name="exclamdown" horiz-adv-x="303" d="M234 708T246 696T258 665Q258 644 242 629T204 613Q187 613 175 625T163 655Q163 677 179 692T216 708Q234 708 246 696ZM174 489T184 489H199Q208 489 207 479L153 22Q151 12 142 12H124Q119
12 117 15T115 22L173 479Q174 489 184 489Z" />
<glyph unicode="&#xa2;" glyph-name="cent" horiz-adv-x="497" d="M413 228Q416 238 426 236L442 233Q452 231 449 222Q446 212 444 206Q427 154 376 120T259 82Q255 82 255 78L247 10Q245 0 236 0H220Q210 0 212 10L221 80Q222 84 218 85Q165 94 132 129T92 216Q89
236 89 258Q89 293 95 342Q104 414 122 467Q142 519 183 553T281 597Q285 598 285 602L293 672Q295 682 304 682H319Q324 682 326 679T328 672L320 604Q318 600 323 600Q388 597 429 563T477 476Q479 467 479 450Q479 441 469 439L451 437H449Q442 437 442 446L441
460Q437 505 402 535T310 565Q253 565 212 534T155 452Q141 408 133 341Q127 294 127 252Q127 191 160 154T255 117Q311 117 355 147T412 223L413 228Z" />
<glyph unicode="&#xa3;" glyph-name="sterling" horiz-adv-x="586" d="M171 37T171 36T174 34H525Q534 34 534 24L532 10Q530 0 521 0H124Q114 0 116 10L118 26Q118 33 126 38Q152 52 172 88T198 171L215 314Q215 318 212 318H135Q125 318 127 328L128 341Q130
351 139 351H216Q220 351 220 355L241 522Q251 609 307 658T450 708Q508 708 543 678T591 588V586Q591 579 583 576L564 571L561 570Q555 570 553 578Q543 628 516 651T442 674Q373 674 330 634T278 522L258 355Q258 351 261 351H450Q455 351 457 348T459 341L457
328Q457 324 454 321T446 318H257Q253 318 253 314L236 173Q231 131 214 97T173 39Q171 37 171 36Z" />
<glyph unicode="&#xa4;" glyph-name="currency" horiz-adv-x="482" d="M440 285T426 249T384 184Q382 181 385 178L439 114Q441 110 441 109Q441 104 436 100L423 90Q416 84 410 91L356 153Q354 155 351 154Q296 113 232 113Q171 113 127 151Q124 153 121 150L56
91Q47 83 42 90L32 100Q25 107 32 114L99 174Q102 177 100 180Q69 224 69 278Q69 316 84 352T126 418Q128 422 126 424L72 488Q70 490 70 493Q70 498 74 502L87 512Q90 515 94 515Q97 515 101 511L153 449Q156 446 159 448Q213 489 278 489Q311 489 339 478T390
445Q393 442 396 445L468 511Q476 518 482 512L492 502Q499 495 492 488L416 420Q413 418 415 414Q440 375 440 324Q440 285 426 249ZM105 224T142 186T236 148Q279 148 318 171T381 234T405 319Q405 376 368 415T274 454Q231 454 192 430T129 366T105 281Q105
224 142 186Z" />
<glyph unicode="&#xa5;" glyph-name="yen" horiz-adv-x="668" d="M622 700T624 697T622 688L387 347Q386 345 386 344T389 342H514Q519 342 521 339T523 332L522 323Q520 313 511 313H376Q372 313 372 309L360 215Q360 213 361 212T363 211H498Q503 211 505 208T507
201L506 192Q504 182 495 182H360Q356 182 356 178L335 10Q333 0 324 0H307Q302 0 300 3T298 10L319 178Q319 182 315 182H176Q171 182 169 185T167 192L168 201Q170 211 179 211H319Q323 211 323 215L335 309Q335 313 331 313H192Q187 313 185 316T183 323L184
332Q186 342 195 342H325Q329 342 329 347L178 688Q177 690 177 693Q177 700 186 700H204Q212 700 215 693L358 372Q359 371 361 371T364 372L586 693Q591 700 598 700H617Q622 700 624 697Z" />
<glyph unicode="&#xa6;" glyph-name="brokenbar" horiz-adv-x="145" d="M82 396T84 406L126 750Q128 760 137 760H155Q160 760 162 757T164 750L122 406Q120 396 111 396H92Q82 396 84 406ZM25 -80T25 -70L68 274Q68 278 71 281T79 284H97Q107 284 105 274L63
-70Q61 -80 52 -80H34Q25 -80 25 -70Z" />
<glyph unicode="&#xa7;" glyph-name="section" horiz-adv-x="427" d="M114 -207T82 -173T49 -77Q49 -68 51 -46V-31Q52 -27 55 -24T62 -21H81Q91 -21 89 -31L88 -43Q87 -51 87 -66Q87 -116 111 -144T177 -173Q210 -173 237 -154T281 -103T297 -33Q297 16 267 39T186
79Q148 91 123 108T83 158Q72 183 72 217Q72 287 111 341Q147 388 203 402Q206 403 206 404T203 406Q166 421 143 456T120 536Q120 580 141 619T200 683T284 707Q341 707 374 671T408 575Q408 562 407 555L405 542Q403 532 394 532H376Q367 532 367 542L369 553Q370
559 370 571Q370 616 346 644T281 673Q246 673 218 653T174 601T158 533Q158 491 186 464T267 419Q297 409 320 395T361 355Q380 324 380 281Q380 209 342 154Q326 130 304 114T256 94Q251 93 256 91Q293 74 314 43T336 -32Q336 -80 314 -120T255 -184T171 -207Q114
-207 82 -173ZM276 118T313 170Q341 214 341 270Q341 311 326 333Q296 378 242 378Q212 378 184 361T138 316Q110 274 110 219Q110 190 120 171Q147 118 209 118Q276 118 313 170Z" />
<glyph unicode="&#xa8;" glyph-name="dieresis" horiz-adv-x="289" d="M111 613T103 622T94 645Q94 661 106 672T135 684Q149 684 157 675T165 653Q165 636 154 625T127 613Q111 613 103 622ZM265 613T257 621T248 643Q248 660 259 672T288 684Q301 684 309 676T318
654Q318 637 307 625T279 613Q265 613 257 621Z" />
<glyph unicode="&#xa9;" glyph-name="copyright" horiz-adv-x="865" d="M321 -8T251 31T141 141T102 299Q102 323 105 348Q117 450 172 532T314 661T500 708Q592 708 662 668T772 558T811 398Q811 374 808 348Q796 248 741 167T599 39T412 -8Q321 -8 251 31ZM508
21T586 64T715 181T777 348Q780 372 780 395Q780 477 745 542T646 643T497 679Q404 679 326 636T196 518T134 348Q131 326 131 302Q131 221 166 157T267 57T416 21Q508 21 586 64ZM393 169T369 191T345 252Q345 262 346 267L366 433Q372 477 402 503T479 530Q520
530 544 508T569 448Q569 439 568 434V432Q567 423 557 423L548 424Q538 424 539 430L540 436Q543 466 526 484T476 503Q443 503 421 485T395 436L374 262Q370 233 388 215T438 196Q470 196 492 214T518 262L519 265Q519 270 522 273T530 276H539Q549 276 548 272V266Q543
223 512 196T435 169Q393 169 369 191Z" />
<glyph unicode="&#xaa;" glyph-name="ordfeminine" horiz-adv-x="312" d="M283 562Q285 562 286 563T288 566L291 596Q292 601 292 612Q292 644 274 662T217 681Q184 681 161 667T129 630Q124 621 116 622L107 624Q96 626 100 635Q111 668 144 688T222 708Q271
708 297 683T323 616Q323 604 322 598L295 381Q293 371 284 371H274Q269 371 267 374T265 381L268 406Q268 411 264 407Q246 387 219 377T158 366Q116 366 90 385T63 443Q63 498 103 530T209 562H283ZM207 392T239 413T276 473L283 531Q284 532 283 533T280 535H206Q155
535 123 513T91 449Q91 420 111 406T165 392Q207 392 239 413ZM44 290T53 290H282Q292 290 290 280L289 268Q287 258 278 258H49Q39 258 41 268L42 280Q44 290 53 290Z" />
<glyph unicode="&#xab;" glyph-name="guillemotleft" horiz-adv-x="537" d="M272 114Q272 107 263 107H247Q239 107 236 113L122 274Q120 278 120 280Q120 285 124 288L277 449Q283 455 290 455H306Q312 455 313 452T310 443L158 284Q157 282 157 278L270 119L272
114ZM419 115T419 113Q419 111 417 109T411 107H394Q388 107 383 113L269 274Q267 278 267 279Q267 284 271 288L425 449Q430 455 437 455H454Q459 455 460 451T457 443L306 284Q303 281 305 278L417 119Q419 115 419 113Z" />
<glyph unicode="&#xac;" glyph-name="logicalnot" horiz-adv-x="492" d="M65 336T74 336H461Q470 336 470 326L453 188Q451 178 442 178H426Q422 178 420 181T418 188L431 298Q432 299 431 300T428 302H70Q60 302 62 312L63 326Q65 336 74 336Z" />
<glyph unicode="&#xad;" glyph-name="uni00AD" horiz-adv-x="376" d="M61 300T61 310L63 325Q65 335 74 335H346Q356 335 354 325L352 310Q352 306 349 303T341 300H70Q61 300 61 310Z" />
<glyph unicode="&#xae;" glyph-name="registered" horiz-adv-x="440" d="M336 715T374 693T433 633T454 548Q454 490 425 441T346 362T242 332Q195 332 157 354T98 414T77 500Q77 557 106 606T185 685T289 715Q336 715 374 693ZM293 358T335 383T402 452T428 545Q428
606 388 647T285 689Q238 689 196 664T128 596T102 504Q102 442 143 400T245 358Q293 358 335 383ZM328 548T319 535T295 515Q292 514 293 510L312 446V443Q312 439 310 437T303 434H298Q289 434 288 442L269 508Q268 511 265 511H244Q240 511 240 507L232 444Q230
434 221 434H217Q207 434 209 444L228 601Q230 611 239 611H286Q306 611 317 599T328 566Q328 548 319 535ZM251 590T249 586L243 534Q243 532 244 531T246 530H274Q288 530 296 539T305 565Q305 577 299 583T281 590H254Q251 590 249 586Z" />
<glyph unicode="&#xaf;" glyph-name="overscore" horiz-adv-x="249" d="M54 601T56 611L57 623Q59 633 68 633H298Q308 633 306 623L305 611Q303 601 294 601H64Q54 601 56 611Z" />
<glyph unicode="&#xb0;" glyph-name="degree" horiz-adv-x="372" d="M168 494T131 532T93 630Q93 678 116 719T180 784T265 808Q324 808 362 770T400 672Q400 624 377 583T313 518T227 494Q168 494 131 532ZM267 525T299 544T350 597T369 668Q369 715 339 746T261
777Q225 777 194 758T143 706T124 634Q124 587 154 556T230 525Q267 525 299 544Z" />
<glyph unicode="&#xb1;" glyph-name="plusminus" horiz-adv-x="492" d="M470 350T470 340L468 326Q466 316 457 316H283Q282 316 281 315T279 312L258 138Q256 128 247 128H233Q223 128 225 138L246 312Q246 316 243 316H70Q60 316 62 326L63 340Q65 350 74 350H247Q251
350 251 354L274 537Q274 541 277 544T285 547H298Q307 547 307 537L284 354Q284 350 288 350H461Q470 350 470 340ZM60 0T62 10L63 24Q65 34 74 34H461Q470 34 470 24L468 10Q466 0 457 0H70Q60 0 62 10Z" />
<glyph unicode="&#xb2;" glyph-name="uni00B2" horiz-adv-x="308" d="M17 454T19 464L20 475Q22 483 26 487L83 551Q147 623 178 659Q213 700 231 730T249 785Q249 814 229 832T176 850Q140 850 116 829T88 774L86 758Q84 748 75 748H62Q52 748 54 758L56 778Q63
824 97 851T179 879Q226 879 253 854T280 789Q280 733 208 649Q144 574 65 487Q64 485 64 484T66 482H247Q257 482 255 472L254 464Q254 460 251 457T243 454H27Q17 454 19 464Z" />
<glyph unicode="&#xb3;" glyph-name="uni00B3" horiz-adv-x="311" d="M266 638T266 607Q266 599 264 579Q258 535 240 505Q223 477 196 462T134 447Q95 447 71 469T39 528Q37 542 37 548L38 568Q39 578 49 578H62Q70 578 70 570Q70 563 69 554T69 539Q71 511 89
494T138 477Q186 477 211 517Q228 546 232 579Q233 587 233 602Q233 631 225 648Q218 667 202 677T163 688Q154 688 149 686H145Q140 686 137 690L132 696Q130 700 130 701Q130 706 134 710L251 839Q252 840 252 842T250 844H84Q79 844 77 847T75 854L76 862Q78
872 87 872H287Q297 872 295 862L294 851Q293 844 289 839L181 717Q179 716 179 714T182 712Q237 708 257 660Q266 638 266 607Z" />
<glyph unicode="&#xb4;" glyph-name="acute" horiz-adv-x="175" d="M90 579T89 582T90 591L163 702Q167 709 176 709H194Q200 709 201 706T199 697L122 586Q115 579 109 579H96Q90 579 89 582Z" />
<glyph unicode="&#xb5;" glyph-name="uni00B5" horiz-adv-x="527" d="M440 496T443 499T451 502H469Q478 502 478 492L418 10Q418 6 415 3T407 0H389Q380 0 380 10L387 63Q387 66 386 66T383 64Q357 29 319 11T233 -7Q157 -7 118 41Q114 44 112 39L84 -190Q84
-194 81 -197T73 -200H55Q45 -200 47 -190L130 492Q132 502 141 502H160Q164 502 166 499T168 492L128 167Q127 159 127 144Q127 90 158 59T244 28Q307 28 349 66T400 167L440 492Q440 496 443 499Z" />
<glyph unicode="&#xb6;" glyph-name="paragraph" horiz-adv-x="538" d="M490 700Q495 700 497 697T499 690L391 -190Q389 -200 380 -200H368Q358 -200 360 -190L465 664Q465 668 461 668H325Q323 668 322 667T320 664L215 -190Q215 -194 212 -197T204 -200H191Q182
-200 182 -190L236 246Q236 250 233 250Q188 252 153 278T97 346T77 442Q77 453 79 475Q86 537 119 588T201 670T305 700H490Z" />
<glyph unicode="&#xb7;" glyph-name="middot" horiz-adv-x="94" d="M241 5T230 17T218 47Q218 68 234 84T271 100Q289 100 301 88T314 58Q314 37 297 21T259 5Q241 5 230 17Z" />
<glyph unicode="&#xb8;" glyph-name="cedilla" horiz-adv-x="123" d="M-41 -178T-38 -168L-35 -160Q-31 -151 -22 -152Q-10 -155 0 -155Q20 -155 35 -145T57 -114Q60 -104 60 -93Q60 -53 21 -12Q17 -8 17 -5Q17 0 24 0H33Q41 0 45 -4Q92 -45 92 -93Q92 -108 87
-125Q77 -156 53 -169T-2 -183Q-17 -183 -32 -180Q-41 -178 -38 -168Z" />
<glyph unicode="&#xb9;" glyph-name="uni00B9" horiz-adv-x="175" d="M124 874T130 874H147Q151 874 153 871T155 864L106 464Q104 454 95 454H82Q78 454 76 457T74 464L120 835Q120 837 119 838T116 839L78 828L75 827Q68 827 68 837L69 843Q71 851 78 854L118
871Q124 874 130 874Z" />
<glyph unicode="&#xba;" glyph-name="ordmasculine" horiz-adv-x="327" d="M147 367T120 390T86 455Q85 463 85 479Q85 509 89 538Q98 598 105 620Q120 660 154 684T232 708Q281 708 309 679T338 600Q338 578 333 538Q327 481 317 455Q302 415 268 391T191 367Q147
367 120 390ZM227 395T252 414T289 467Q295 481 302 538Q308 588 308 597L307 608Q303 641 283 660T228 680Q194 680 170 661T133 608Q127 590 120 538Q115 498 115 480Q115 441 135 418T194 395Q227 395 252 414ZM50 258T50 268L52 280Q54 290 63 290H298Q302
290 304 287T306 280L305 268Q304 264 301 261T294 258H59Q50 258 50 268Z" />
<glyph unicode="&#xbb;" glyph-name="guillemotright" horiz-adv-x="537" d="M108 107T108 112Q108 115 112 119L263 278Q265 282 264 284L151 443L149 448Q149 455 158 455H174Q182 455 185 449L299 288Q301 286 301 282Q301 277 297 274L144 113Q138 107 131
107H115Q108 107 108 112ZM260 107T260 112Q260 115 264 119L415 278Q417 282 416 284L303 443L301 448Q301 455 310 455H326Q334 455 337 449L451 288Q453 286 453 282Q453 277 449 274L296 113Q290 107 283 107H267Q260 107 260 112Z" />
<glyph unicode="&#xbc;" glyph-name="onequarter" horiz-adv-x="760" d="M124 700T130 700H147Q151 700 153 697T155 690L106 290Q104 280 95 280H82Q78 280 76 283T74 290L120 661Q120 663 119 664T116 665L78 654L75 653Q68 653 68 663L69 669Q71 677 78 680L118
697Q124 700 130 700ZM85 0T92 12L601 693Q606 700 613 700H627Q633 700 634 697T631 688L122 7Q115 0 109 0H97Q85 0 92 12ZM729 147T731 144T733 137L732 127Q730 117 721 117H702Q698 117 698 113L685 10Q685 6 682 3T674 0H662Q653 0 653 10L666 113Q666 115
665 116T663 117H496Q491 117 489 120T487 127L488 137Q490 143 493 149L646 413Q649 420 657 420H669Q674 420 675 417T674 408L526 152Q525 150 526 149T528 147H666Q669 147 671 151L682 247Q684 257 693 257H706Q716 257 714 247L703 151Q702 150 703 149T706
147H724Q729 147 731 144Z" />
<glyph unicode="&#xbd;" glyph-name="onehalf" horiz-adv-x="755" d="M124 700T130 700H147Q151 700 153 697T155 690L106 290Q104 280 95 280H82Q78 280 76 283T74 290L120 661Q120 663 119 664T116 665L78 654L75 653Q68 653 68 663L69 669Q71 677 78 680L118
697Q124 700 130 700ZM85 0T92 12L601 693Q606 700 613 700H627Q633 700 634 697T631 688L122 7Q115 0 109 0H97Q85 0 92 12ZM477 0T479 10L480 21Q482 29 486 33L543 97Q607 169 638 205Q673 246 691 276T709 331Q709 360 689 378T636 396Q600 396 576 375T548
320L546 304Q544 294 535 294H522Q512 294 514 304L516 324Q523 370 557 397T639 425Q686 425 713 400T740 335Q740 279 668 195Q604 120 525 33Q524 31 524 30T526 28H707Q717 28 715 18L714 10Q714 6 711 3T703 0H487Q477 0 479 10Z" />
<glyph unicode="&#xbe;" glyph-name="threequarters" horiz-adv-x="859" d="M266 474T266 443Q266 435 264 415Q258 371 240 341Q223 313 196 298T134 283Q95 283 71 305T39 364Q37 378 37 384L38 404Q39 414 49 414H62Q70 414 70 406Q70 399 69 390T69 375Q71
347 89 330T138 313Q186 313 211 353Q228 382 232 415Q233 423 233 438Q233 467 225 484Q218 503 202 513T163 524Q154 524 149 522H145Q140 522 137 526L132 532Q130 536 130 537Q130 542 134 546L251 675Q252 676 252 678T250 680H84Q79 680 77 683T75 690L76
698Q78 708 87 708H287Q297 708 295 698L294 687Q293 680 289 675L181 553Q179 552 179 550T182 548Q237 544 257 496Q266 474 266 443ZM188 0T195 12L704 693Q709 700 716 700H730Q736 700 737 697T734 688L225 7Q218 0 212 0H200Q188 0 195 12ZM832 147T834 144T836
137L835 127Q833 117 824 117H805Q801 117 801 113L788 10Q788 6 785 3T777 0H765Q756 0 756 10L769 113Q769 115 768 116T766 117H599Q594 117 592 120T590 127L591 137Q593 143 596 149L749 413Q752 420 760 420H772Q777 420 778 417T777 408L629 152Q628 150
629 149T631 147H769Q772 147 774 151L785 247Q787 257 796 257H809Q819 257 817 247L806 151Q805 150 806 149T809 147H827Q832 147 834 144Z" />
<glyph unicode="&#xbf;" glyph-name="questiondown" horiz-adv-x="420" d="M284 496T295 485T307 456Q307 435 291 420T255 404Q238 404 226 415T214 444Q214 465 230 480T267 496Q284 496 295 485ZM261 310T263 307T265 300L256 230Q251 189 230 164T164 105Q131
79 113 62T79 19T60 -43Q59 -50 59 -64Q59 -114 89 -143T170 -173Q227 -173 266 -138T314 -44L318 -7Q320 3 329 3L348 2Q352 2 354 -1T356 -8L352 -44Q343 -117 291 -163T165 -209Q98 -209 59 -171T20 -68Q20 -60 22 -42Q28 2 45 34T85 87T140 133Q176 161 194
181T217 231L225 300Q227 310 236 310H256Q261 310 263 307Z" />
<glyph unicode="&#xc0;" glyph-name="Agrave" horiz-adv-x="561" d="M467 0T465 8L438 146Q437 149 434 149H122Q119 149 118 146L58 8Q57 4 53 2T46 0H27Q16 0 21 11L321 692Q324 700 333 700H359Q362 700 365 698T369 692L504 11V9Q504 0 495 0H475Q467 0 465
8ZM134 185T135 184T139 182H427Q429 182 430 183T431 187L342 645Q341 647 340 647T336 645L135 187Q134 185 135 184ZM347 785Q347 777 338 777H324Q318 777 313 784L263 895Q262 897 262 900Q262 907 271 907H290Q299 907 300 900L346 789L347 785Z" />
<glyph unicode="&#xc1;" glyph-name="Aacute" horiz-adv-x="561" d="M467 0T465 8L438 146Q437 149 434 149H122Q119 149 118 146L58 8Q57 4 53 2T46 0H27Q16 0 21 11L321 692Q324 700 333 700H359Q362 700 365 698T369 692L504 11V9Q504 0 495 0H475Q467 0 465
8ZM134 185T135 184T139 182H427Q429 182 430 183T431 187L342 645Q341 647 340 647T336 645L135 187Q134 185 135 184ZM309 777T308 780T309 789L382 900Q386 907 395 907H413Q419 907 420 904T418 895L341 784Q334 777 328 777H315Q309 777 308 780Z" />
<glyph unicode="&#xc2;" glyph-name="Acircumflex" horiz-adv-x="561" d="M467 0T465 8L438 146Q437 149 434 149H122Q119 149 118 146L58 8Q57 4 53 2T46 0H27Q16 0 21 11L321 692Q324 700 333 700H359Q362 700 365 698T369 692L504 11V9Q504 0 495 0H475Q467
0 465 8ZM134 185T135 184T139 182H427Q429 182 430 183T431 187L342 645Q341 647 340 647T336 645L135 187Q134 185 135 184ZM231 768T230 772T233 780L327 888Q331 894 340 894H360Q370 894 372 888L439 780Q441 778 441 775Q441 768 432 768H418Q408 768 406
774L350 865Q349 867 347 867T344 865L265 774Q261 768 252 768H237Q231 768 230 772Z" />
<glyph unicode="&#xc3;" glyph-name="Atilde" horiz-adv-x="561" d="M467 0T465 8L438 146Q437 149 434 149H122Q119 149 118 146L58 8Q57 4 53 2T46 0H27Q16 0 21 11L321 692Q324 700 333 700H359Q362 700 365 698T369 692L504 11V9Q504 0 495 0H475Q467 0 465
8ZM134 185T135 184T139 182H427Q429 182 430 183T431 187L342 645Q341 647 340 647T336 645L135 187Q134 185 135 184ZM383 798T371 804T345 822Q330 834 322 838T301 843Q285 843 273 838T246 815Q240 807 232 812L226 817Q220 823 225 831Q259 875 304 875Q320
875 330 870T359 852Q373 841 382 836T403 830Q418 830 431 836T460 861Q465 869 473 864L478 861Q482 860 482 854Q482 847 477 841Q460 819 439 809T400 798Q383 798 371 804Z" />
<glyph unicode="&#xc4;" glyph-name="Adieresis" horiz-adv-x="561" d="M467 0T465 8L438 146Q437 149 434 149H122Q119 149 118 146L58 8Q57 4 53 2T46 0H27Q16 0 21 11L321 692Q324 700 333 700H359Q362 700 365 698T369 692L504 11V9Q504 0 495 0H475Q467 0
465 8ZM134 185T135 184T139 182H427Q429 182 430 183T431 187L342 645Q341 647 340 647T336 645L135 187Q134 185 135 184ZM250 811T242 820T233 843Q233 859 245 870T274 882Q288 882 296 873T304 851Q304 834 293 823T266 811Q250 811 242 820ZM404 811T396
819T387 841Q387 858 398 870T427 882Q440 882 448 874T457 852Q457 835 446 823T418 811Q404 811 396 819Z" />
<glyph unicode="&#xc5;" glyph-name="Aring" horiz-adv-x="561" d="M467 0T465 8L438 146Q437 149 434 149H122Q119 149 118 146L58 8Q57 4 53 2T46 0H27Q16 0 21 11L321 692Q324 700 333 700H359Q362 700 365 698T369 692L504 11V9Q504 0 495 0H475Q467 0 465
8ZM134 185T135 184T139 182H427Q429 182 430 183T431 187L342 645Q341 647 340 647T336 645L135 187Q134 185 135 184ZM299 771T274 795T249 857Q249 887 264 912T305 953T360 969Q398 969 422 945T447 883Q447 853 432 828T391 787T336 771Q299 771 274 795ZM371
798T395 822T420 879Q420 907 402 924T357 942Q325 942 301 918T276 861Q276 833 294 816T339 798Q371 798 395 822Z" />
<glyph unicode="&#xc6;" glyph-name="AE" horiz-adv-x="876" d="M874 671T871 668T863 665H524Q520 665 520 661L484 373Q484 369 488 369H721Q726 369 728 366T730 359L728 343Q726 333 717 333H483Q479 333 479 329L443 39Q443 35 447 35H786Q795 35 795 25L793
10Q791 0 782 0H410Q400 0 402 10L418 145Q419 146 418 147T415 149H156Q153 149 151 146L63 7Q59 0 50 0H29Q23 0 21 3T23 12L460 693Q464 700 473 700H868Q878 700 876 690L874 675Q874 671 871 668ZM176 182T179 182H419Q423 182 423 186L481 653Q481 656 480
656T476 654L178 187Q176 182 179 182Z" />
<glyph unicode="&#xc7;" glyph-name="Ccedilla" horiz-adv-x="588" d="M556 492T553 490T546 488L527 487Q518 487 518 493L519 499Q521 517 521 525Q521 593 478 633T362 673Q281 673 226 625T161 499L125 201Q123 183 123 174Q123 107 166 67T283 26Q362 26
417 74T483 201V203Q485 212 494 212L512 211Q521 211 521 207L520 202Q513 140 480 92T395 18T278 -9H266Q260 -9 264 -13Q304 -52 304 -96Q304 -115 299 -129Q289 -160 265 -173T211 -187Q196 -187 181 -184Q171 -183 175 -172L178 -164Q182 -155 191 -156Q203
-159 213 -159Q233 -159 248 -149T270 -118Q273 -108 273 -97Q273 -57 234 -16Q222 -4 224 -4L211 0Q152 16 119 61T85 171Q85 181 87 203L123 498Q135 593 201 650T366 708Q454 708 506 660T559 529Q559 519 557 499L556 494Q556 492 553 490Z" />
<glyph unicode="&#xc8;" glyph-name="Egrave" horiz-adv-x="597" d="M593 665T584 665H210Q207 665 205 661L170 373Q170 369 173 369H441Q450 369 450 359L448 343Q447 339 444 336T437 333H169Q165 333 165 329L129 39Q129 35 132 35H507Q517 35 515 25L513
10Q513 6 510 3T502 0H96Q86 0 88 10L171 690Q173 700 182 700H588Q593 700 595 697T597 690L595 675Q593 665 584 665ZM382 795Q382 787 373 787H359Q353 787 348 794L298 905Q297 907 297 910Q297 917 306 917H325Q334 917 335 910L381 799L382 795Z" />
<glyph unicode="&#xc9;" glyph-name="Eacute" horiz-adv-x="597" d="M593 665T584 665H210Q207 665 205 661L170 373Q170 369 173 369H441Q450 369 450 359L448 343Q447 339 444 336T437 333H169Q165 333 165 329L129 39Q129 35 132 35H507Q517 35 515 25L513
10Q513 6 510 3T502 0H96Q86 0 88 10L171 690Q173 700 182 700H588Q593 700 595 697T597 690L595 675Q593 665 584 665ZM344 787T343 790T344 799L417 910Q421 917 430 917H448Q454 917 455 914T453 905L376 794Q369 787 363 787H350Q344 787 343 790Z" />
<glyph unicode="&#xca;" glyph-name="Ecircumflex" horiz-adv-x="597" d="M593 665T584 665H210Q207 665 205 661L170 373Q170 369 173 369H441Q450 369 450 359L448 343Q447 339 444 336T437 333H169Q165 333 165 329L129 39Q129 35 132 35H507Q517 35 515 25L513
10Q513 6 510 3T502 0H96Q86 0 88 10L171 690Q173 700 182 700H588Q593 700 595 697T597 690L595 675Q593 665 584 665ZM266 778T265 782T268 790L362 898Q366 904 375 904H395Q405 904 407 898L474 790Q476 788 476 785Q476 778 467 778H453Q443 778 441 784L385
875Q384 877 382 877T379 875L300 784Q296 778 287 778H272Q266 778 265 782Z" />
<glyph unicode="&#xcb;" glyph-name="Edieresis" horiz-adv-x="597" d="M593 665T584 665H210Q207 665 205 661L170 373Q170 369 173 369H441Q450 369 450 359L448 343Q447 339 444 336T437 333H169Q165 333 165 329L129 39Q129 35 132 35H507Q517 35 515 25L513
10Q513 6 510 3T502 0H96Q86 0 88 10L171 690Q173 700 182 700H588Q593 700 595 697T597 690L595 675Q593 665 584 665ZM285 821T277 830T268 853Q268 869 280 880T309 892Q323 892 331 883T339 861Q339 844 328 833T301 821Q285 821 277 830ZM439 821T431 829T422
851Q422 868 433 880T462 892Q475 892 483 884T492 862Q492 845 481 833T453 821Q439 821 431 829Z" />
<glyph unicode="&#xcc;" glyph-name="Igrave" horiz-adv-x="249" d="M86 0T88 10L171 690Q173 700 182 700H200Q205 700 207 697T209 690L125 10Q125 6 122 3T114 0H96Q86 0 88 10ZM188 795Q188 787 179 787H165Q159 787 154 794L104 905Q103 907 103 910Q103
917 112 917H131Q140 917 141 910L187 799L188 795Z" />
<glyph unicode="&#xcd;" glyph-name="Iacute" horiz-adv-x="249" d="M86 0T88 10L171 690Q173 700 182 700H200Q205 700 207 697T209 690L125 10Q125 6 122 3T114 0H96Q86 0 88 10ZM150 787T149 790T150 799L223 910Q227 917 236 917H254Q260 917 261 914T259
905L182 794Q175 787 169 787H156Q150 787 149 790Z" />
<glyph unicode="&#xce;" glyph-name="Icircumflex" horiz-adv-x="249" d="M86 0T88 10L171 690Q173 700 182 700H200Q205 700 207 697T209 690L125 10Q125 6 122 3T114 0H96Q86 0 88 10ZM72 778T71 782T74 790L168 898Q172 904 181 904H201Q211 904 213 898L280
790Q282 788 282 785Q282 778 273 778H259Q249 778 247 784L191 875Q190 877 188 877T185 875L106 784Q102 778 93 778H78Q72 778 71 782Z" />
<glyph unicode="&#xcf;" glyph-name="Idieresis" horiz-adv-x="249" d="M86 0T88 10L171 690Q173 700 182 700H200Q205 700 207 697T209 690L125 10Q125 6 122 3T114 0H96Q86 0 88 10ZM91 821T83 830T74 853Q74 869 86 880T115 892Q129 892 137 883T145 861Q145
844 134 833T107 821Q91 821 83 830ZM245 821T237 829T228 851Q228 868 239 880T268 892Q281 892 289 884T298 862Q298 845 287 833T259 821Q245 821 237 829Z" />
<glyph unicode="&#xd0;" glyph-name="Eth" horiz-adv-x="669" d="M555 700T601 659T647 545Q647 535 645 515L605 185Q595 99 537 50T388 0H166Q157 0 157 10L199 346Q199 350 195 350H139Q129 350 131 360L132 372Q134 382 143 382H199Q202 382 204 386L241 690Q243
700 252 700H474Q555 700 601 659ZM607 512Q609 530 609 538Q609 598 573 631T472 665H280Q278 665 277 664T275 661L241 386Q241 382 245 382H376Q386 382 384 372L383 360Q381 350 372 350H241Q238 350 236 346L199 39Q199 35 202 35H394Q465 35 512 76T567 187L607
512Z" />
<glyph unicode="&#xd1;" glyph-name="Ntilde" horiz-adv-x="660" d="M86 0T88 10L171 690Q173 700 182 700H201Q209 700 212 693L503 83Q504 80 505 80T508 84L582 690Q584 700 593 700H612Q622 700 620 690L537 10Q535 0 526 0H505Q499 0 495 7L205 618Q204 621
202 621T200 617L125 10Q125 6 122 3T114 0H96Q86 0 88 10ZM436 808T424 814T398 832Q383 844 375 848T354 853Q338 853 326 848T299 825Q293 817 285 822L279 827Q273 833 278 841Q312 885 357 885Q373 885 383 880T412 862Q426 851 435 846T456 840Q471 840 484
846T513 871Q518 879 526 874L531 871Q535 870 535 864Q535 857 530 851Q513 829 492 819T453 808Q436 808 424 814Z" />
<glyph unicode="&#xd2;" glyph-name="Ograve" horiz-adv-x="603" d="M191 -8T139 43T86 181Q86 191 88 215L122 484Q130 550 163 601T250 680T368 708Q458 708 511 657T564 518Q564 508 562 484L529 215Q521 149 487 99T400 20T280 -8Q191 -8 139 43ZM367 27T424
78T491 213L524 485Q526 505 526 515Q526 587 483 630T364 673Q282 673 226 622T159 485L126 213Q124 193 124 183Q124 112 167 70T285 27Q367 27 424 78ZM369 793Q369 785 360 785H346Q340 785 335 792L285 903Q284 905 284 908Q284 915 293 915H312Q321 915 322
908L368 797L369 793Z" />
<glyph unicode="&#xd3;" glyph-name="Oacute" horiz-adv-x="603" d="M191 -8T139 43T86 181Q86 191 88 215L122 484Q130 550 163 601T250 680T368 708Q458 708 511 657T564 518Q564 508 562 484L529 215Q521 149 487 99T400 20T280 -8Q191 -8 139 43ZM367 27T424
78T491 213L524 485Q526 505 526 515Q526 587 483 630T364 673Q282 673 226 622T159 485L126 213Q124 193 124 183Q124 112 167 70T285 27Q367 27 424 78ZM331 785T330 788T331 797L404 908Q408 915 417 915H435Q441 915 442 912T440 903L363 792Q356 785 350 785H337Q331
785 330 788Z" />
<glyph unicode="&#xd4;" glyph-name="Ocircumflex" horiz-adv-x="603" d="M191 -8T139 43T86 181Q86 191 88 215L122 484Q130 550 163 601T250 680T368 708Q458 708 511 657T564 518Q564 508 562 484L529 215Q521 149 487 99T400 20T280 -8Q191 -8 139 43ZM367
27T424 78T491 213L524 485Q526 505 526 515Q526 587 483 630T364 673Q282 673 226 622T159 485L126 213Q124 193 124 183Q124 112 167 70T285 27Q367 27 424 78ZM253 776T252 780T255 788L349 896Q353 902 362 902H382Q392 902 394 896L461 788Q463 786 463 783Q463
776 454 776H440Q430 776 428 782L372 873Q371 875 369 875T366 873L287 782Q283 776 274 776H259Q253 776 252 780Z" />
<glyph unicode="&#xd5;" glyph-name="Otilde" horiz-adv-x="603" d="M191 -8T139 43T86 181Q86 191 88 215L122 484Q130 550 163 601T250 680T368 708Q458 708 511 657T564 518Q564 508 562 484L529 215Q521 149 487 99T400 20T280 -8Q191 -8 139 43ZM367 27T424
78T491 213L524 485Q526 505 526 515Q526 587 483 630T364 673Q282 673 226 622T159 485L126 213Q124 193 124 183Q124 112 167 70T285 27Q367 27 424 78ZM405 806T393 812T367 830Q352 842 344 846T323 851Q307 851 295 846T268 823Q262 815 254 820L248 825Q242
831 247 839Q281 883 326 883Q342 883 352 878T381 860Q395 849 404 844T425 838Q440 838 453 844T482 869Q487 877 495 872L500 869Q504 868 504 862Q504 855 499 849Q482 827 461 817T422 806Q405 806 393 812Z" />
<glyph unicode="&#xd6;" glyph-name="Odieresis" horiz-adv-x="603" d="M191 -8T139 43T86 181Q86 191 88 215L122 484Q130 550 163 601T250 680T368 708Q458 708 511 657T564 518Q564 508 562 484L529 215Q521 149 487 99T400 20T280 -8Q191 -8 139 43ZM367 27T424
78T491 213L524 485Q526 505 526 515Q526 587 483 630T364 673Q282 673 226 622T159 485L126 213Q124 193 124 183Q124 112 167 70T285 27Q367 27 424 78ZM272 819T264 828T255 851Q255 867 267 878T296 890Q310 890 318 881T326 859Q326 842 315 831T288 819Q272
819 264 828ZM426 819T418 827T409 849Q409 866 420 878T449 890Q462 890 470 882T479 860Q479 843 468 831T440 819Q426 819 418 827Z" />
<glyph unicode="&#xd7;" glyph-name="multiply" horiz-adv-x="399" d="M390 460T390 459Q390 454 386 450L248 324Q245 321 248 318L351 195Q353 191 353 189Q353 185 349 181L338 170Q335 167 331 167T324 170L220 293Q219 296 214 293L78 168Q70 162 64 168L56
178Q54 180 54 184Q54 189 58 192L194 317Q198 321 195 323L86 453Q83 456 83 459Q83 463 87 467L98 477Q102 480 106 480T112 477L222 348Q225 345 228 348L366 474Q369 477 373 477T379 474L388 464Q390 460 390 459Z" />
<glyph unicode="&#xd8;" glyph-name="Oslash" horiz-adv-x="605" d="M501 667T503 666Q533 641 549 603T566 517Q566 506 564 484L531 215Q523 149 489 99T402 20T282 -8Q205 -8 152 32Q150 35 146 31L115 -25Q112 -33 104 -33H89Q84 -33 82 -30T83 -21L126 55Q128
59 125 60Q88 109 88 182Q88 193 90 215L123 484Q131 550 165 601T252 680T370 708Q430 708 471 686Q476 684 477 688L502 733Q506 741 514 741H528Q533 741 535 738T535 729L502 671Q501 667 503 666ZM126 193T126 184Q126 136 146 101Q149 96 151 101L454 647Q456
652 453 653Q416 673 366 673Q284 673 228 622T161 485L128 213Q126 193 126 184ZM526 485Q528 507 528 516Q528 587 485 630Q481 633 479 629L170 73Q169 69 171 68Q215 27 287 27Q369 27 426 78T493 213L526 485Z" />
<glyph unicode="&#xd9;" glyph-name="Ugrave" horiz-adv-x="636" d="M208 -8T155 42T102 176Q102 187 104 209L163 690Q165 700 174 700H193Q197 700 199 697T201 690L142 206Q140 188 140 179Q140 110 183 69T302 27Q385 27 441 76T507 206L567 690Q569 700 578
700H596Q605 700 605 690L546 209Q538 145 505 96T418 19T298 -8Q208 -8 155 42ZM387 797Q387 789 378 789H364Q358 789 353 796L303 907Q302 909 302 912Q302 919 311 919H330Q339 919 340 912L386 801L387 797Z" />
<glyph unicode="&#xda;" glyph-name="Uacute" horiz-adv-x="636" d="M208 -8T155 42T102 176Q102 187 104 209L163 690Q165 700 174 700H193Q197 700 199 697T201 690L142 206Q140 188 140 179Q140 110 183 69T302 27Q385 27 441 76T507 206L567 690Q569 700 578
700H596Q605 700 605 690L546 209Q538 145 505 96T418 19T298 -8Q208 -8 155 42ZM349 789T348 792T349 801L422 912Q426 919 435 919H453Q459 919 460 916T458 907L381 796Q374 789 368 789H355Q349 789 348 792Z" />
<glyph unicode="&#xdb;" glyph-name="Ucircumflex" horiz-adv-x="636" d="M208 -8T155 42T102 176Q102 187 104 209L163 690Q165 700 174 700H193Q197 700 199 697T201 690L142 206Q140 188 140 179Q140 110 183 69T302 27Q385 27 441 76T507 206L567 690Q569
700 578 700H596Q605 700 605 690L546 209Q538 145 505 96T418 19T298 -8Q208 -8 155 42ZM271 780T270 784T273 792L367 900Q371 906 380 906H400Q410 906 412 900L479 792Q481 790 481 787Q481 780 472 780H458Q448 780 446 786L390 877Q389 879 387 879T384 877L305
786Q301 780 292 780H277Q271 780 270 784Z" />
<glyph unicode="&#xdc;" glyph-name="Udieresis" horiz-adv-x="636" d="M208 -8T155 42T102 176Q102 187 104 209L163 690Q165 700 174 700H193Q197 700 199 697T201 690L142 206Q140 188 140 179Q140 110 183 69T302 27Q385 27 441 76T507 206L567 690Q569 700
578 700H596Q605 700 605 690L546 209Q538 145 505 96T418 19T298 -8Q208 -8 155 42ZM290 823T282 832T273 855Q273 871 285 882T314 894Q328 894 336 885T344 863Q344 846 333 835T306 823Q290 823 282 832ZM444 823T436 831T427 853Q427 870 438 882T467 894Q480
894 488 886T497 864Q497 847 486 835T458 823Q444 823 436 831Z" />
<glyph unicode="&#xdd;" glyph-name="Yacute" horiz-adv-x="528" d="M227 0T227 10L266 326Q266 327 266 328T266 331L107 688Q106 690 106 693Q106 700 115 700H133Q141 700 144 693L287 372Q288 371 290 371T293 372L515 693Q520 700 527 700H546Q551 700 553
697T551 688L304 331Q303 330 303 326L264 10Q262 0 253 0H236Q227 0 227 10ZM293 776T292 779T293 788L366 899Q370 906 379 906H397Q403 906 404 903T402 894L325 783Q318 776 312 776H299Q293 776 292 779Z" />
<glyph unicode="&#xde;" glyph-name="Thorn" horiz-adv-x="544" d="M445 535T487 493T530 378Q530 369 528 349Q518 265 463 215T326 165H141Q139 165 138 164T136 161L118 10Q116 0 107 0H88Q78 0 80 10L163 690Q165 700 174 700H193Q197 700 199 697T201 690L183
539Q182 538 183 537T186 535H372Q445 535 487 493ZM375 199T412 221T470 282T492 373Q492 431 458 465T366 500H182Q179 500 177 496L141 203Q141 199 145 199H329Q375 199 412 221Z" />
<glyph unicode="&#xdf;" glyph-name="germandbls" horiz-adv-x="563" d="M76 0T74 3T72 10L135 522Q145 608 205 658T349 709Q438 709 484 669T531 554Q531 487 501 439T418 373Q416 372 416 371T418 369Q455 352 475 316T496 226Q496 202 494 190Q482 100 421
50T251 0H171Q162 0 162 10L164 24Q166 34 175 34H258Q348 34 397 75T456 192Q458 204 458 226Q458 351 322 354H244Q234 354 236 364L237 377Q239 387 248 387H328Q403 387 444 423T492 529Q493 536 493 549Q493 610 457 642T346 675Q279 675 231 635T173 524L110
10Q108 0 99 0H81Q76 0 74 3Z" />
<glyph unicode="&#xe0;" glyph-name="agrave" horiz-adv-x="518" d="M434 502T443 502H461Q470 502 470 492L411 10Q410 6 407 3T400 0H381Q371 0 373 10L380 66Q380 69 379 69T375 67Q350 32 312 12T230 -8Q164 -8 123 28T75 124Q73 142 73 152Q73 178 82 250Q87
288 92 321T105 377Q127 438 177 474T293 510Q338 510 370 490T420 435Q422 433 423 433T425 436L432 492Q434 502 443 502ZM386 151T390 172T401 250Q409 317 409 342Q409 360 407 369Q404 415 374 445T293 475Q241 475 201 446T144 370Q136 352 132 330T120 252Q112
188 112 162Q112 152 114 134Q117 87 150 57T237 27Q289 27 326 57T379 134Q386 151 390 172ZM326 587Q326 579 317 579H303Q297 579 292 586L242 697Q241 699 241 702Q241 709 250 709H269Q278 709 279 702L325 591L326 587Z" />
<glyph unicode="&#xe1;" glyph-name="aacute" horiz-adv-x="518" d="M434 502T443 502H461Q470 502 470 492L411 10Q410 6 407 3T400 0H381Q371 0 373 10L380 66Q380 69 379 69T375 67Q350 32 312 12T230 -8Q164 -8 123 28T75 124Q73 142 73 152Q73 178 82 250Q87
288 92 321T105 377Q127 438 177 474T293 510Q338 510 370 490T420 435Q422 433 423 433T425 436L432 492Q434 502 443 502ZM386 151T390 172T401 250Q409 317 409 342Q409 360 407 369Q404 415 374 445T293 475Q241 475 201 446T144 370Q136 352 132 330T120 252Q112
188 112 162Q112 152 114 134Q117 87 150 57T237 27Q289 27 326 57T379 134Q386 151 390 172ZM288 579T287 582T288 591L361 702Q365 709 374 709H392Q398 709 399 706T397 697L320 586Q313 579 307 579H294Q288 579 287 582Z" />
<glyph unicode="&#xe2;" glyph-name="acircumflex" horiz-adv-x="518" d="M434 502T443 502H461Q470 502 470 492L411 10Q410 6 407 3T400 0H381Q371 0 373 10L380 66Q380 69 379 69T375 67Q350 32 312 12T230 -8Q164 -8 123 28T75 124Q73 142 73 152Q73 178 82
250Q87 288 92 321T105 377Q127 438 177 474T293 510Q338 510 370 490T420 435Q422 433 423 433T425 436L432 492Q434 502 443 502ZM386 151T390 172T401 250Q409 317 409 342Q409 360 407 369Q404 415 374 445T293 475Q241 475 201 446T144 370Q136 352 132 330T120
252Q112 188 112 162Q112 152 114 134Q117 87 150 57T237 27Q289 27 326 57T379 134Q386 151 390 172ZM210 570T209 574T212 582L306 690Q310 696 319 696H339Q349 696 351 690L418 582Q420 580 420 577Q420 570 411 570H397Q387 570 385 576L329 667Q328 669 326
669T323 667L244 576Q240 570 231 570H216Q210 570 209 574Z" />
<glyph unicode="&#xe3;" glyph-name="atilde" horiz-adv-x="518" d="M434 502T443 502H461Q470 502 470 492L411 10Q410 6 407 3T400 0H381Q371 0 373 10L380 66Q380 69 379 69T375 67Q350 32 312 12T230 -8Q164 -8 123 28T75 124Q73 142 73 152Q73 178 82 250Q87
288 92 321T105 377Q127 438 177 474T293 510Q338 510 370 490T420 435Q422 433 423 433T425 436L432 492Q434 502 443 502ZM386 151T390 172T401 250Q409 317 409 342Q409 360 407 369Q404 415 374 445T293 475Q241 475 201 446T144 370Q136 352 132 330T120 252Q112
188 112 162Q112 152 114 134Q117 87 150 57T237 27Q289 27 326 57T379 134Q386 151 390 172ZM362 600T350 606T324 624Q309 636 301 640T280 645Q264 645 252 640T225 617Q219 609 211 614L205 619Q199 625 204 633Q238 677 283 677Q299 677 309 672T338 654Q352
643 361 638T382 632Q397 632 410 638T439 663Q444 671 452 666L457 663Q461 662 461 656Q461 649 456 643Q439 621 418 611T379 600Q362 600 350 606Z" />
<glyph unicode="&#xe4;" glyph-name="adieresis" horiz-adv-x="518" d="M434 502T443 502H461Q470 502 470 492L411 10Q410 6 407 3T400 0H381Q371 0 373 10L380 66Q380 69 379 69T375 67Q350 32 312 12T230 -8Q164 -8 123 28T75 124Q73 142 73 152Q73 178 82
250Q87 288 92 321T105 377Q127 438 177 474T293 510Q338 510 370 490T420 435Q422 433 423 433T425 436L432 492Q434 502 443 502ZM386 151T390 172T401 250Q409 317 409 342Q409 360 407 369Q404 415 374 445T293 475Q241 475 201 446T144 370Q136 352 132 330T120
252Q112 188 112 162Q112 152 114 134Q117 87 150 57T237 27Q289 27 326 57T379 134Q386 151 390 172ZM229 613T221 622T212 645Q212 661 224 672T253 684Q267 684 275 675T283 653Q283 636 272 625T245 613Q229 613 221 622ZM383 613T375 621T366 643Q366 660
377 672T406 684Q419 684 427 676T436 654Q436 637 425 625T397 613Q383 613 375 621Z" />
<glyph unicode="&#xe5;" glyph-name="aring" horiz-adv-x="518" d="M434 502T443 502H461Q470 502 470 492L411 10Q410 6 407 3T400 0H381Q371 0 373 10L380 66Q380 69 379 69T375 67Q350 32 312 12T230 -8Q164 -8 123 28T75 124Q73 142 73 152Q73 178 82 250Q87
288 92 321T105 377Q127 438 177 474T293 510Q338 510 370 490T420 435Q422 433 423 433T425 436L432 492Q434 502 443 502ZM386 151T390 172T401 250Q409 317 409 342Q409 360 407 369Q404 415 374 445T293 475Q241 475 201 446T144 370Q136 352 132 330T120 252Q112
188 112 162Q112 152 114 134Q117 87 150 57T237 27Q289 27 326 57T379 134Q386 151 390 172ZM278 573T253 597T228 659Q228 689 243 714T284 755T339 771Q377 771 401 747T426 685Q426 655 411 630T370 589T315 573Q278 573 253 597ZM350 600T374 624T399 681Q399
709 381 726T336 744Q304 744 280 720T255 663Q255 635 273 618T318 600Q350 600 374 624Z" />
<glyph unicode="&#xe6;" glyph-name="ae" horiz-adv-x="805" d="M132 -8T91 20T49 108Q49 190 108 235T268 281H387Q391 281 391 285L398 342Q400 358 400 366Q400 416 371 445T281 475Q229 475 192 453T142 392Q138 382 130 384L112 387Q107 388 105 391T105
398Q122 449 171 479T288 510Q348 510 383 485T429 415Q431 410 434 415Q457 457 501 483T599 510Q664 510 706 474T755 377Q757 359 757 352Q757 333 747 257Q747 252 744 249T736 246H429Q425 246 425 242L413 149L412 135Q412 84 449 57T543 29Q592 29 630 52T689
117Q692 126 701 123L714 119Q723 116 719 106Q695 55 646 24T535 -8Q477 -8 439 16T389 84Q388 86 387 86T385 85Q362 41 309 17T195 -8Q132 -8 91 20ZM429 281T433 281H710Q714 281 714 285Q718 337 718 352Q718 406 685 440T594 475Q540 475 499 444T443 361Q436
340 430 285Q429 281 433 281ZM265 26T316 57T374 148L386 242Q386 246 382 246H265Q186 246 137 213T87 116Q87 72 118 49T201 26Q265 26 316 57Z" />
<glyph unicode="&#xe7;" glyph-name="ccedilla" horiz-adv-x="497" d="M402 138Q405 148 415 146L431 143Q441 141 438 132Q435 122 433 116Q416 64 366 30T250 -8Q245 -8 248 -13Q289 -50 289 -95Q289 -110 284 -128Q274 -159 250 -172T196 -186Q181 -186 166
-183Q157 -182 159 -171L162 -163Q166 -154 176 -155Q186 -158 198 -158Q224 -158 241 -143T258 -95Q258 -52 210 -8Q210 -6 206 -6Q153 3 121 38T80 126Q78 150 78 164Q78 200 84 252Q93 324 111 377Q133 437 184 473T304 510Q371 510 415 475T466 386Q468 377
468 360Q468 351 458 349L440 347H438Q431 347 431 356L430 370Q426 414 391 444T299 475Q242 475 201 444T144 362Q130 318 122 251Q116 204 116 162Q116 101 149 64T244 27Q300 27 344 57T400 133L402 138Z" />
<glyph unicode="&#xe8;" glyph-name="egrave" horiz-adv-x="512" d="M294 27T333 51T394 116Q398 125 407 122L419 118Q428 115 424 105Q398 54 349 23T238 -8Q171 -8 130 27T79 121Q77 132 77 156Q77 186 84 252Q90 300 94 326T107 375Q129 436 180 473T300 510Q377
510 420 466T463 346Q463 327 454 252Q452 241 443 241H125Q121 241 120 237Q119 230 115 194T113 141Q117 89 151 58T244 27Q294 27 333 51ZM239 475T198 444T141 363Q133 339 125 277Q125 273 129 273H415Q419 273 419 277Q426 341 425 361Q420 413 386 444T296
475Q239 475 198 444ZM323 595Q323 587 314 587H300Q294 587 289 594L239 705Q238 707 238 710Q238 717 247 717H266Q275 717 276 710L322 599L323 595Z" />
<glyph unicode="&#xe9;" glyph-name="eacute" horiz-adv-x="512" d="M294 27T333 51T394 116Q398 125 407 122L419 118Q428 115 424 105Q398 54 349 23T238 -8Q171 -8 130 27T79 121Q77 132 77 156Q77 186 84 252Q90 300 94 326T107 375Q129 436 180 473T300 510Q377
510 420 466T463 346Q463 327 454 252Q452 241 443 241H125Q121 241 120 237Q119 230 115 194T113 141Q117 89 151 58T244 27Q294 27 333 51ZM239 475T198 444T141 363Q133 339 125 277Q125 273 129 273H415Q419 273 419 277Q426 341 425 361Q420 413 386 444T296
475Q239 475 198 444ZM285 587T284 590T285 599L358 710Q362 717 371 717H389Q395 717 396 714T394 705L317 594Q310 587 304 587H291Q285 587 284 590Z" />
<glyph unicode="&#xea;" glyph-name="ecircumflex" horiz-adv-x="512" d="M294 27T333 51T394 116Q398 125 407 122L419 118Q428 115 424 105Q398 54 349 23T238 -8Q171 -8 130 27T79 121Q77 132 77 156Q77 186 84 252Q90 300 94 326T107 375Q129 436 180 473T300
510Q377 510 420 466T463 346Q463 327 454 252Q452 241 443 241H125Q121 241 120 237Q119 230 115 194T113 141Q117 89 151 58T244 27Q294 27 333 51ZM239 475T198 444T141 363Q133 339 125 277Q125 273 129 273H415Q419 273 419 277Q426 341 425 361Q420 413 386
444T296 475Q239 475 198 444ZM207 578T206 582T209 590L303 698Q307 704 316 704H336Q346 704 348 698L415 590Q417 588 417 585Q417 578 408 578H394Q384 578 382 584L326 675Q325 677 323 677T320 675L241 584Q237 578 228 578H213Q207 578 206 582Z" />
<glyph unicode="&#xeb;" glyph-name="edieresis" horiz-adv-x="512" d="M294 27T333 51T394 116Q398 125 407 122L419 118Q428 115 424 105Q398 54 349 23T238 -8Q171 -8 130 27T79 121Q77 132 77 156Q77 186 84 252Q90 300 94 326T107 375Q129 436 180 473T300
510Q377 510 420 466T463 346Q463 327 454 252Q452 241 443 241H125Q121 241 120 237Q119 230 115 194T113 141Q117 89 151 58T244 27Q294 27 333 51ZM239 475T198 444T141 363Q133 339 125 277Q125 273 129 273H415Q419 273 419 277Q426 341 425 361Q420 413 386
444T296 475Q239 475 198 444ZM226 621T218 630T209 653Q209 669 221 680T250 692Q264 692 272 683T280 661Q280 644 269 633T242 621Q226 621 218 630ZM380 621T372 629T363 651Q363 668 374 680T403 692Q416 692 424 684T433 662Q433 645 422 633T394 621Q380
621 372 629Z" />
<glyph unicode="&#xec;" glyph-name="igrave" horiz-adv-x="206" d="M64 0T64 10L123 492Q124 496 127 499T134 502H153Q163 502 161 492L102 10Q100 0 91 0H73Q64 0 64 10ZM163 596Q163 588 154 588H140Q134 588 129 595L79 706Q78 708 78 711Q78 718 87 718H106Q115
718 116 711L162 600L163 596Z" />
<glyph unicode="&#xed;" glyph-name="iacute" horiz-adv-x="206" d="M64 0T64 10L123 492Q124 496 127 499T134 502H153Q163 502 161 492L102 10Q100 0 91 0H73Q64 0 64 10ZM125 588T124 591T125 600L198 711Q202 718 211 718H229Q235 718 236 715T234 706L157
595Q150 588 144 588H131Q125 588 124 591Z" />
<glyph unicode="&#xee;" glyph-name="icircumflex" horiz-adv-x="206" d="M64 0T64 10L123 492Q124 496 127 499T134 502H153Q163 502 161 492L102 10Q100 0 91 0H73Q64 0 64 10ZM47 579T46 583T49 591L143 699Q147 705 156 705H176Q186 705 188 699L255 591Q257
589 257 586Q257 579 248 579H234Q224 579 222 585L166 676Q165 678 163 678T160 676L81 585Q77 579 68 579H53Q47 579 46 583Z" />
<glyph unicode="&#xef;" glyph-name="idieresis" horiz-adv-x="286" d="M110 0T110 10L169 492Q170 496 173 499T180 502H199Q209 502 207 492L148 10Q146 0 137 0H119Q110 0 110 10ZM109 622T101 631T92 654Q92 670 104 681T133 693Q147 693 155 684T163 662Q163
645 152 634T125 622Q109 622 101 631ZM263 622T255 630T246 652Q246 669 257 681T286 693Q299 693 307 685T316 663Q316 646 305 634T277 622Q263 622 255 630Z" />
<glyph unicode="&#xf0;" glyph-name="eth" horiz-adv-x="504" d="M451 322T442 248Q436 199 432 173T420 124Q399 65 348 29T230 -8Q158 -8 116 35T73 147Q73 173 82 249Q89 302 93 326T105 372Q124 428 170 462T276 498Q316 501 351 489T407 451Q408 449 409
449T410 452Q398 521 348 589Q346 593 343 591L259 563L255 562Q250 562 247 570V578L246 582Q246 587 254 590L323 612Q325 613 326 615T325 618Q295 653 259 688Q256 691 256 694Q256 696 258 698T265 700H288Q294 700 299 695Q346 650 364 629Q366 627 369 628L440
651L444 652Q449 652 452 644L453 636V634Q453 627 445 624L389 606Q384 603 385 602Q452 508 452 383Q452 362 451 351Q451 322 442 248ZM392 157T397 197T403 247L407 280Q413 334 413 343Q413 352 412 356Q409 406 376 437T288 469Q234 469 194 438T138 356Q133
343 129 317T123 273T120 247Q111 178 111 147Q111 92 144 59T234 25Q288 25 329 56T386 138Q392 157 397 197Z" />
<glyph unicode="&#xf1;" glyph-name="ntilde" horiz-adv-x="520" d="M383 509T422 470T462 366Q462 358 460 340L419 10Q419 6 416 3T408 0H390Q381 0 381 10L421 333Q422 340 422 354Q422 408 390 441T306 474Q243 474 200 436T149 335L109 10Q107 0 98 0H80Q75
0 73 3T71 10L130 492Q132 502 141 502H160Q164 502 166 499T168 492L161 438Q161 435 162 435T165 436Q191 471 229 490T317 509Q383 509 422 470ZM363 600T351 606T325 624Q310 636 302 640T281 645Q265 645 253 640T226 617Q220 609 212 614L206 619Q200 625
205 633Q239 677 284 677Q300 677 310 672T339 654Q353 643 362 638T383 632Q398 632 411 638T440 663Q445 671 453 666L458 663Q462 662 462 656Q462 649 457 643Q440 621 419 611T380 600Q363 600 351 606Z" />
<glyph unicode="&#xf2;" glyph-name="ograve" horiz-adv-x="518" d="M171 -8T129 28T79 126Q77 136 77 160Q77 189 84 252Q95 339 108 377Q131 437 183 473T302 510Q370 510 413 474T463 377Q464 369 464 351Q464 314 456 252Q450 202 446 175T433 126Q410 65
358 29T239 -8Q171 -8 129 28ZM299 27T341 58T399 141Q407 165 418 251L421 275Q422 287 425 317T427 361Q423 412 389 443T297 475Q241 475 200 444T141 361Q132 333 122 251Q113 174 113 154Q113 97 147 62T243 27Q299 27 341 58ZM325 595Q325 587 316 587H302Q296
587 291 594L241 705Q240 707 240 710Q240 717 249 717H268Q277 717 278 710L324 599L325 595Z" />
<glyph unicode="&#xf3;" glyph-name="oacute" horiz-adv-x="518" d="M171 -8T129 28T79 126Q77 136 77 160Q77 189 84 252Q95 339 108 377Q131 437 183 473T302 510Q370 510 413 474T463 377Q464 369 464 351Q464 314 456 252Q450 202 446 175T433 126Q410 65
358 29T239 -8Q171 -8 129 28ZM299 27T341 58T399 141Q407 165 418 251L421 275Q422 287 425 317T427 361Q423 412 389 443T297 475Q241 475 200 444T141 361Q132 333 122 251Q113 174 113 154Q113 97 147 62T243 27Q299 27 341 58ZM287 587T286 590T287 599L360
710Q364 717 373 717H391Q397 717 398 714T396 705L319 594Q312 587 306 587H293Q287 587 286 590Z" />
<glyph unicode="&#xf4;" glyph-name="ocircumflex" horiz-adv-x="518" d="M171 -8T129 28T79 126Q77 136 77 160Q77 189 84 252Q95 339 108 377Q131 437 183 473T302 510Q370 510 413 474T463 377Q464 369 464 351Q464 314 456 252Q450 202 446 175T433 126Q410
65 358 29T239 -8Q171 -8 129 28ZM299 27T341 58T399 141Q407 165 418 251L421 275Q422 287 425 317T427 361Q423 412 389 443T297 475Q241 475 200 444T141 361Q132 333 122 251Q113 174 113 154Q113 97 147 62T243 27Q299 27 341 58ZM209 578T208 582T211 590L305
698Q309 704 318 704H338Q348 704 350 698L417 590Q419 588 419 585Q419 578 410 578H396Q386 578 384 584L328 675Q327 677 325 677T322 675L243 584Q239 578 230 578H215Q209 578 208 582Z" />
<glyph unicode="&#xf5;" glyph-name="otilde" horiz-adv-x="518" d="M171 -8T129 28T79 126Q77 136 77 160Q77 189 84 252Q95 339 108 377Q131 437 183 473T302 510Q370 510 413 474T463 377Q464 369 464 351Q464 314 456 252Q450 202 446 175T433 126Q410 65
358 29T239 -8Q171 -8 129 28ZM299 27T341 58T399 141Q407 165 418 251L421 275Q422 287 425 317T427 361Q423 412 389 443T297 475Q241 475 200 444T141 361Q132 333 122 251Q113 174 113 154Q113 97 147 62T243 27Q299 27 341 58ZM361 608T349 614T323 632Q308
644 300 648T279 653Q263 653 251 648T224 625Q218 617 210 622L204 627Q198 633 203 641Q237 685 282 685Q298 685 308 680T337 662Q351 651 360 646T381 640Q396 640 409 646T438 671Q443 679 451 674L456 671Q460 670 460 664Q460 657 455 651Q438 629 417 619T378
608Q361 608 349 614Z" />
<glyph unicode="&#xf6;" glyph-name="odieresis" horiz-adv-x="518" d="M171 -8T129 28T79 126Q77 136 77 160Q77 189 84 252Q95 339 108 377Q131 437 183 473T302 510Q370 510 413 474T463 377Q464 369 464 351Q464 314 456 252Q450 202 446 175T433 126Q410
65 358 29T239 -8Q171 -8 129 28ZM299 27T341 58T399 141Q407 165 418 251L421 275Q422 287 425 317T427 361Q423 412 389 443T297 475Q241 475 200 444T141 361Q132 333 122 251Q113 174 113 154Q113 97 147 62T243 27Q299 27 341 58ZM228 621T220 630T211 653Q211
669 223 680T252 692Q266 692 274 683T282 661Q282 644 271 633T244 621Q228 621 220 630ZM382 621T374 629T365 651Q365 668 376 680T405 692Q418 692 426 684T435 662Q435 645 424 633T396 621Q382 621 374 629Z" />
<glyph unicode="&#xf7;" glyph-name="divide" horiz-adv-x="492" d="M264 450T253 461T242 489Q242 510 257 524T291 539Q308 539 319 529T331 502Q331 481 316 466T280 450Q264 450 253 461ZM67 315T65 318T63 325L65 339Q67 349 76 349H463Q473 349 471 339L470
325Q468 315 459 315H72Q67 315 65 318ZM226 143T215 154T204 182Q204 202 219 217T254 232Q271 232 282 221T293 193Q293 173 278 158T243 143Q226 143 215 154Z" />
<glyph unicode="&#xf8;" glyph-name="oslash" horiz-adv-x="521" d="M468 369T468 351Q468 314 460 252Q454 202 449 175T436 126Q414 65 362 29T242 -8Q171 -8 127 33Q126 34 125 34T122 32L84 -18Q82 -22 78 -23T70 -21L60 -13Q53 -7 58 1L102 59Q105 62 103
65Q87 90 82 126Q80 144 80 155Q80 176 88 252Q99 339 112 377Q135 437 187 473T306 510Q367 510 413 477Q415 475 418 478L450 521Q457 530 463 524L475 516Q481 510 476 502L440 455Q439 452 440 449Q463 416 467 377Q468 369 468 351ZM120 118T127 100Q129 96
133 100L389 441Q391 445 388 446Q356 475 301 475Q245 475 204 444T145 361Q136 333 126 251Q115 171 118 141Q120 118 127 100ZM411 165T422 251Q431 327 431 346Q431 357 430 361Q429 390 416 415Q415 416 413 416T410 415L150 70Q148 67 150 65Q185 27 247
27Q302 27 344 58T403 141Q411 165 422 251Z" />
<glyph unicode="&#xf9;" glyph-name="ugrave" horiz-adv-x="518" d="M434 502T443 502H461Q470 502 470 492L411 10Q410 6 407 3T400 0H381Q371 0 373 10L379 63Q380 66 379 66T375 64Q349 29 311 11T225 -7Q160 -7 120 30T80 133Q80 149 81 158L122 492Q123 496
126 499T133 502H152Q162 502 160 492L120 167Q119 159 119 145Q119 91 150 60T236 28Q299 28 341 66T392 167L432 492Q434 502 443 502ZM326 587Q326 579 317 579H303Q297 579 292 586L242 697Q241 699 241 702Q241 709 250 709H269Q278 709 279 702L325 591L326
587Z" />
<glyph unicode="&#xfa;" glyph-name="uacute" horiz-adv-x="518" d="M434 502T443 502H461Q470 502 470 492L411 10Q410 6 407 3T400 0H381Q371 0 373 10L379 63Q380 66 379 66T375 64Q349 29 311 11T225 -7Q160 -7 120 30T80 133Q80 149 81 158L122 492Q123 496
126 499T133 502H152Q162 502 160 492L120 167Q119 159 119 145Q119 91 150 60T236 28Q299 28 341 66T392 167L432 492Q434 502 443 502ZM288 579T287 582T288 591L361 702Q365 709 374 709H392Q398 709 399 706T397 697L320 586Q313 579 307 579H294Q288 579 287
582Z" />
<glyph unicode="&#xfb;" glyph-name="ucircumflex" horiz-adv-x="518" d="M434 502T443 502H461Q470 502 470 492L411 10Q410 6 407 3T400 0H381Q371 0 373 10L379 63Q380 66 379 66T375 64Q349 29 311 11T225 -7Q160 -7 120 30T80 133Q80 149 81 158L122 492Q123
496 126 499T133 502H152Q162 502 160 492L120 167Q119 159 119 145Q119 91 150 60T236 28Q299 28 341 66T392 167L432 492Q434 502 443 502ZM210 570T209 574T212 582L306 690Q310 696 319 696H339Q349 696 351 690L418 582Q420 580 420 577Q420 570 411 570H397Q387
570 385 576L329 667Q328 669 326 669T323 667L244 576Q240 570 231 570H216Q210 570 209 574Z" />
<glyph unicode="&#xfc;" glyph-name="udieresis" horiz-adv-x="518" d="M434 502T443 502H461Q470 502 470 492L411 10Q410 6 407 3T400 0H381Q371 0 373 10L379 63Q380 66 379 66T375 64Q349 29 311 11T225 -7Q160 -7 120 30T80 133Q80 149 81 158L122 492Q123
496 126 499T133 502H152Q162 502 160 492L120 167Q119 159 119 145Q119 91 150 60T236 28Q299 28 341 66T392 167L432 492Q434 502 443 502ZM229 613T221 622T212 645Q212 661 224 672T253 684Q267 684 275 675T283 653Q283 636 272 625T245 613Q229 613 221 622ZM383
613T375 621T366 643Q366 660 377 672T406 684Q419 684 427 676T436 654Q436 637 425 625T397 613Q383 613 375 621Z" />
<glyph unicode="&#xfd;" glyph-name="yacute" horiz-adv-x="428" d="M8 -200T10 -190L11 -175Q12 -171 14 -168T20 -165H26Q63 -164 84 -152T125 -108T176 -3Q178 2 177 3L69 491V493Q69 502 78 502H97Q100 502 103 500T107 494L200 58Q201 56 203 56T206 58L402
494Q407 502 415 502H433Q443 502 440 491L187 -56Q158 -119 136 -149T89 -189T22 -200H15Q8 -200 10 -190ZM241 580T240 583T241 592L314 703Q318 710 327 710H345Q351 710 352 707T350 698L273 587Q266 580 260 580H247Q241 580 240 583Z" />
<glyph unicode="&#xfe;" glyph-name="thorn" horiz-adv-x="517" d="M465 369T465 351Q465 316 457 250Q451 200 446 173T432 124Q411 64 361 28T245 -8Q202 -8 170 10T121 62Q120 65 119 65T116 61L85 -190Q85 -194 82 -197T74 -200H56Q47 -200 47 -190L156 690Q156
694 159 697T166 700H185Q195 700 193 690L163 441Q162 438 164 438T167 440Q192 473 228 491T309 510Q375 510 416 474T464 377Q465 369 465 351ZM403 155T407 176T419 252Q427 313 427 340Q427 357 424 370Q419 416 386 445T301 475Q250 475 213 445T161 369Q152
349 150 333L129 167V157Q129 148 131 134Q135 88 165 58T247 27Q299 27 340 57T396 134Q403 155 407 176Z" />
<glyph unicode="&#xff;" glyph-name="ydieresis" horiz-adv-x="428" d="M8 -200T10 -190L11 -175Q12 -171 14 -168T20 -165H26Q63 -164 84 -152T125 -108T176 -3Q178 2 177 3L69 491V493Q69 502 78 502H97Q100 502 103 500T107 494L200 58Q201 56 203 56T206 58L402
494Q407 502 415 502H433Q443 502 440 491L187 -56Q158 -119 136 -149T89 -189T22 -200H15Q8 -200 10 -190ZM182 614T174 623T165 646Q165 662 177 673T206 685Q220 685 228 676T236 654Q236 637 225 626T198 614Q182 614 174 623ZM336 614T328 622T319 644Q319
661 330 673T359 685Q372 685 380 677T389 655Q389 638 378 626T350 614Q336 614 328 622Z" />
<glyph unicode="&#x2013;" glyph-name="endash" horiz-adv-x="425" d="M61 264T59 267T57 274L59 289Q61 299 70 299H391Q401 299 399 289L397 274Q397 270 394 267T386 264H65Q61 264 59 267Z" />
<glyph unicode="&#x2014;" glyph-name="emdash" horiz-adv-x="677" d="M61 264T59 267T57 274L59 289Q61 299 70 299H642Q652 299 650 289L649 274Q647 264 638 264H65Q61 264 59 267Z" />
<glyph unicode="&#x2018;" glyph-name="quoteleft" horiz-adv-x="108" d="M49 505T48 508T49 517L138 692Q142 700 150 700H163Q168 700 169 697T169 689L88 513Q87 509 83 507T76 505H54Q49 505 48 508Z" />
<glyph unicode="&#x2019;" glyph-name="quoteright" horiz-adv-x="108" d="M168 700T169 697T168 688L79 513Q75 505 67 505H54Q43 505 48 516L129 692Q132 700 141 700H163Q168 700 169 697Z" />
<glyph unicode="&#x201a;" glyph-name="quotesinglbase" horiz-adv-x="582" d="M52 -71T51 -68T51 -60L123 145Q124 149 127 151T134 154H150Q162 154 157 143L81 -62Q78 -71 69 -71H57Q52 -71 51 -68Z" />
<glyph unicode="&#x201c;" glyph-name="quotedblleft" horiz-adv-x="215" d="M49 505T48 508T49 517L137 692Q141 700 149 700H161Q166 700 167 697T167 689L87 513Q86 509 82 507T75 505H54Q49 505 48 508ZM160 505T159 508T160 517L247 692Q251 700 259 700H270Q280
700 277 689L197 513Q192 505 184 505H165Q160 505 159 508Z" />
<glyph unicode="&#x201d;" glyph-name="quotedblright" horiz-adv-x="215" d="M165 700T166 697T165 688L78 513Q74 505 66 505H54Q43 505 48 516L128 692Q131 700 140 700H160Q165 700 166 697ZM275 700T276 697T276 688L187 513Q183 505 175 505H164Q154 505
157 516L237 692Q242 700 250 700H270Q275 700 276 697Z" />
<glyph unicode="&#x201e;" glyph-name="quotedblbase" horiz-adv-x="218" d="M165 127T166 124T165 115L78 -60Q74 -68 66 -68H54Q43 -68 48 -57L128 119Q131 127 140 127H160Q165 127 166 124ZM275 127T276 124T276 115L187 -60Q183 -68 175 -68H164Q154 -68
157 -57L237 119Q242 127 250 127H270Q275 127 276 124Z" />
<glyph unicode="&#x2022;" glyph-name="bullet" horiz-adv-x="296" d="M108 154T82 181T55 248Q55 281 71 309T115 354T175 371Q215 371 241 344T267 276Q267 244 250 216T206 171T148 154Q108 154 82 181Z" />
<glyph unicode="&#x2039;" glyph-name="guilsinglleft" horiz-adv-x="365" d="M246 114Q246 107 237 107H221Q213 107 210 113L96 274Q93 277 93 280Q93 284 97 288L251 449Q255 455 263 455H280Q287 455 287 450Q287 447 283 443L132 284Q130 280 131 278L244
119L246 114Z" />
<glyph unicode="&#x203a;" glyph-name="guilsinglright" horiz-adv-x="394" d="M108 107T108 112Q108 115 112 119L263 278Q265 282 264 284L151 443L149 448Q149 455 158 455H174Q182 455 185 449L299 288Q301 286 301 282Q301 277 297 274L144 113Q138 107 131
107H115Q108 107 108 112Z" />
</font>
</defs>
</svg>
