<?xml version="1.0" standalone="no"?>
<!DOCTYPE svg PUBLIC "-//W3C//DTD SVG 1.1//EN" "http://www.w3.org/Graphics/SVG/1.1/DTD/svg11.dtd">
<svg xmlns="http://www.w3.org/2000/svg">
<defs >
<font id="Barlow" horiz-adv-x="506" ><font-face
    font-family="Barlow"
    units-per-em="1000"
    panose-1="0 0 8 0 0 0 0 0 0 0"
    ascent="1000"
    descent="-200"
    alphabetic="0" />
<glyph unicode=" " glyph-name="space" horiz-adv-x="194" />
<glyph unicode="!" glyph-name="exclam" horiz-adv-x="336" d="M122 240T125 257L165 683Q167 692 171 696T183 700H287Q303 700 300 683L235 257Q234 249 229 245T216 240H139Q122 240 125 257ZM112 1T90 22T68 77Q68 116 99 145T168 174Q200 174 223 152T247
96Q247 58 217 30T147 1Q112 1 90 22Z" />
<glyph unicode="&quot;" glyph-name="quotedbl" horiz-adv-x="348" d="M66 471T68 487L79 680Q79 689 84 693T97 698H194Q212 698 209 680L172 487Q169 471 154 471H82Q66 471 68 487ZM258 471T260 487L271 680Q271 689 276 693T289 698H385Q403 698 400 680L363
487Q360 471 345 471H274Q258 471 260 487Z" />
<glyph unicode="#" glyph-name="numbersign" horiz-adv-x="666" d="M650 404T634 404H567Q562 404 559 399L533 301Q530 295 538 295H585Q602 295 600 278L589 192Q587 175 571 175H505Q499 175 497 170L462 43Q458 27 443 27H339Q331 27 328 32T327 45L360 169Q363
175 355 175H261Q256 175 254 170L219 43Q213 27 199 27H95Q87 27 84 32T83 45L117 169Q119 175 112 175H64Q47 175 50 192L60 278Q63 295 79 295H145Q150 295 152 300L179 398Q181 404 174 404H128Q120 404 117 408T114 421L124 508Q127 525 143 525H208Q213 525
215 530L250 657Q256 673 270 673H374Q382 673 385 668T386 655L352 531Q351 528 353 527T357 525H451Q453 525 455 526T458 530L493 657Q497 673 512 673H616Q624 673 627 668T628 655L595 531Q592 525 600 525H649Q666 525 664 508L652 421Q650 404 634 404ZM393
295T396 300L422 398Q425 404 417 404H323Q318 404 316 399L289 301Q288 295 294 295H388Q393 295 396 300Z" />
<glyph unicode="$" glyph-name="dollar" horiz-adv-x="535" d="M493 115T439 61T295 -5Q289 -7 289 -12L284 -57Q283 -74 265 -74H208Q191 -74 194 -57L201 -11Q203 -6 197 -4Q123 6 83 46T42 150Q42 157 44 175L49 218Q51 235 68 235H169Q185 235 183 222L182
208Q181 203 181 193Q181 158 203 136T268 113Q312 113 337 136T366 192Q370 222 346 240T265 283Q258 286 225 301T164 336Q125 363 104 397T82 479Q82 569 136 629T282 704Q289 706 289 711L294 765Q295 782 312 782H368Q384 782 382 765L375 712Q373 707 379
705Q457 696 499 653T541 542Q541 534 539 516L535 483Q532 466 516 466H414Q407 466 403 469T399 476L400 486Q401 492 401 503Q401 540 380 563T316 587Q275 587 250 567T219 513Q216 490 228 475T260 449T319 424Q354 411 384 397Q447 367 476 325T506 227Q506
219 504 199Q493 115 439 61Z" />
<glyph unicode="%" glyph-name="percent" horiz-adv-x="800" d="M183 393T145 432T106 532Q106 578 130 619T196 684T282 709Q340 709 378 670T417 571Q417 523 393 483T329 418T243 393Q183 393 145 432ZM158 0T155 2T151 9Q151 12 155 20L598 688Q601 694 607
697T619 700H681Q693 700 693 690Q693 686 690 680L248 12Q241 0 226 0H164Q158 0 155 2ZM289 466T316 495T344 563Q344 594 324 614T273 635Q235 635 207 607T179 540Q179 508 200 487T252 466Q289 466 316 495ZM513 -9T475 31T436 131Q436 177 460 218T525 283T611
307Q669 307 708 268T747 170Q747 122 723 81T659 16T572 -9Q513 -9 475 31ZM619 65T646 93T674 161Q674 192 654 213T602 234Q564 234 537 206T509 139Q509 107 529 86T581 65Q619 65 646 93Z" />
<glyph unicode="&amp;" glyph-name="ampersand" horiz-adv-x="683" d="M615 17T615 12Q615 7 611 4T599 0H485Q474 0 465 9Q456 21 449 31T436 49Q432 53 427 50Q330 -8 227 -8Q143 -8 90 30T36 142Q36 218 77 269T188 364Q194 367 191 372Q156 422 143 451T129
506Q129 517 130 523Q141 606 201 657T351 708Q434 708 485 664T536 549Q536 477 495 429T383 341Q378 338 381 333L460 229Q461 227 463 227T468 229Q504 263 534 304Q542 313 549 313Q554 313 558 310L627 266Q634 262 634 254Q634 247 630 242Q584 179 536 133Q533
130 536 123Q564 83 612 21Q615 17 615 12ZM307 580T287 563T267 517Q267 505 275 488T309 435Q312 430 317 433Q356 457 377 479T398 530Q398 553 382 566T339 580Q307 580 287 563ZM296 110T354 144Q360 147 357 152Q344 169 340 175Q333 183 326 192T311 211L282
249L265 271Q262 275 257 272Q218 248 197 223T175 166Q175 140 193 125T246 110Q296 110 354 144Z" />
<glyph unicode="&apos;" glyph-name="quotesingle" horiz-adv-x="163" d="M68 473T68 489L79 681Q79 690 84 694T97 699H201Q219 699 216 681L179 489Q176 473 161 473H82Q68 473 68 489Z" />
<glyph unicode="(" glyph-name="parenleft" horiz-adv-x="337" d="M100 -91T93 -81Q56 -22 35 56T14 228Q14 278 20 332Q36 462 83 568T196 749Q205 759 217 759H316Q330 759 330 749Q330 744 326 739Q201 553 174 333Q167 278 167 224Q167 68 226 -71Q228 -77
228 -79Q228 -84 224 -87T212 -91H112Q100 -91 93 -81Z" />
<glyph unicode=")" glyph-name="parenright" horiz-adv-x="337" d="M175 -91T163 -91H64Q50 -91 50 -81Q50 -76 54 -71Q179 113 206 333Q213 388 213 443Q213 598 154 739L152 747Q152 752 156 755T168 759H267Q279 759 286 749Q323 690 344 612T366 438Q366 384
359 332Q343 203 297 99T185 -81Q175 -91 163 -91Z" />
<glyph unicode="*" glyph-name="asterisk" horiz-adv-x="387" d="M183 393T185 410L196 494Q197 497 196 498T190 498L108 452Q104 449 98 449Q89 449 86 458L68 502Q67 504 67 508Q67 519 78 525L160 567Q167 571 161 575L89 615Q81 620 81 627Q81 630 85 638L114
682Q121 692 129 692Q133 692 137 689L208 644Q215 640 215 648L224 730Q227 747 243 747H289Q305 747 303 730L292 648Q292 640 298 644L380 689Q386 692 390 692Q397 692 402 682L420 638Q421 636 421 631Q421 621 410 615L328 575Q320 571 327 567L399 525Q406
521 406 512Q406 508 403 502L374 458Q368 449 360 449Q356 449 351 452L280 498Q275 502 273 494L264 410Q261 393 245 393H200Q183 393 185 410Z" />
<glyph unicode="+" glyph-name="plus" horiz-adv-x="471" d="M468 361T466 344L455 257Q453 240 437 240H310Q305 240 303 234L287 105Q285 88 269 88H185Q169 88 171 105L187 234Q187 240 182 240H55Q38 240 40 257L51 344Q53 361 70 361H197Q203 361 203 367L219
499Q222 516 238 516H321Q338 516 336 499L320 367Q319 361 325 361H452Q468 361 466 344Z" />
<glyph unicode="," glyph-name="comma" horiz-adv-x="257" d="M16 -98T13 -93T12 -80L70 142Q71 149 76 153T89 158H178Q186 158 189 153T190 139L104 -84Q98 -98 84 -98H24Q16 -98 13 -93Z" />
<glyph unicode="-" glyph-name="hyphen" horiz-adv-x="397" d="M37 235T40 252L50 339Q53 356 69 356H376Q393 356 391 339L380 252Q378 235 362 235H54Q37 235 40 252Z" />
<glyph unicode="." glyph-name="period" horiz-adv-x="259" d="M73 -4T52 17T30 72Q30 98 44 120T82 155T129 169Q162 169 186 147T210 93Q210 53 180 25T108 -4Q73 -4 52 17Z" />
<glyph unicode="/" glyph-name="slash" horiz-adv-x="431" d="M13 0T10 3T6 12L8 20L337 687Q343 700 357 700H459Q473 700 473 688L471 680L142 13Q136 0 122 0H19Q13 0 10 3Z" />
<glyph unicode="0" glyph-name="zero" horiz-adv-x="553" d="M158 -11T104 40T50 181Q50 205 52 218L84 482Q97 586 166 647T343 708Q440 708 494 658T549 519Q549 495 547 482L515 218Q502 112 432 51T255 -11Q158 -11 104 40ZM313 110T342 137T377 211L411 486Q412
492 412 502Q412 542 390 564T328 587Q285 587 256 560T222 486L188 211Q187 205 187 193Q187 154 209 132T270 110Q313 110 342 137Z" />
<glyph unicode="1" glyph-name="one" horiz-adv-x="329" d="M204 700T216 700H326Q342 700 340 683L258 17Q256 0 240 0H136Q119 0 121 17L188 562Q189 565 187 567T182 568L95 550H91Q77 550 78 565L87 641Q90 656 102 660L195 696Q204 700 216 700Z" />
<glyph unicode="2" glyph-name="two" horiz-adv-x="543" d="M24 0T26 17L37 101Q38 112 48 122Q110 179 223 292L288 357Q388 457 395 507L396 518Q396 549 375 568T317 587Q278 587 252 565T220 505L218 485Q215 468 199 468H94Q78 468 80 485L85 527Q100 609
169 658T332 708Q395 708 441 686T511 624T535 534Q535 486 509 436T430 329Q387 281 276 176L226 128Q223 126 223 124T228 121H482Q499 121 497 104L486 17Q484 0 468 0H41Q24 0 26 17Z" />
<glyph unicode="3" glyph-name="three" horiz-adv-x="524" d="M493 304T493 266Q493 241 491 228Q485 177 461 128Q429 64 370 28T237 -8Q163 -8 112 30T44 133Q38 159 38 188Q38 204 39 212Q41 229 57 229H162Q177 229 177 214Q177 184 182 168Q187 142 205 128T251
113Q305 113 331 162Q348 192 353 232Q355 250 355 258Q355 285 347 309Q331 356 279 356Q263 356 232 337Q226 334 222 334Q214 334 210 341L167 412Q164 418 164 422Q164 430 172 436L340 572Q343 574 343 576T338 579H114Q97 579 99 596L110 683Q112 700 129
700H523Q540 700 538 683L526 585Q525 573 514 564L373 445Q369 442 370 440T375 437Q459 420 484 334Q493 304 493 266Z" />
<glyph unicode="4" glyph-name="four" horiz-adv-x="587" d="M551 305T554 301T557 288L546 197Q544 180 527 180H493Q486 180 486 174L467 17Q464 0 448 0H344Q328 0 330 17L349 174Q351 180 344 180H51Q43 180 40 184T37 197L46 269Q48 281 52 290L274 687Q281
700 294 700H405Q418 700 418 690Q418 686 415 680L211 312Q207 305 215 305H359Q366 305 366 311L381 429Q383 446 399 446H503Q520 446 517 429L503 311Q502 309 503 307T508 305H543Q551 305 554 301Z" />
<glyph unicode="5" glyph-name="five" horiz-adv-x="523" d="M501 294T501 261Q501 236 499 224Q493 174 472 132Q443 69 382 31T245 -7Q171 -7 120 29T53 129Q47 149 45 179Q45 187 50 192T63 197H171Q185 197 187 183Q189 175 191 169Q196 143 214 129T260 115Q285
115 305 127T337 161Q344 174 347 180Q354 194 359 221Q361 235 361 242Q361 254 357 276Q353 302 335 316T286 330Q262 330 241 321T207 293Q198 280 186 280H74Q57 280 60 297L107 683Q109 700 126 700H517Q533 700 531 683L520 596Q518 579 502 579H237Q232
579 230 573L212 428Q211 424 213 423T218 424Q265 452 321 452Q388 452 435 417T496 319Q501 294 501 261Z" />
<glyph unicode="6" glyph-name="six" horiz-adv-x="521" d="M500 308T500 266Q500 247 497 224Q490 166 466 120Q433 61 376 27T246 -7Q171 -7 121 28T54 127Q47 152 47 187Q47 199 49 225L86 526Q92 580 125 621T210 685T327 708Q415 708 467 666T519 552Q519
537 518 529L515 506Q513 489 497 489H393Q385 489 381 492T378 500L379 510Q383 543 364 565T312 587Q276 587 250 565T220 507L209 415Q208 411 210 410T216 412Q260 446 324 446Q382 446 425 419T488 339Q500 308 500 266ZM361 195T361 242Q361 271 353 288Q333
328 287 328Q235 328 209 287Q192 262 186 220Q185 213 185 199Q185 177 191 159Q207 115 260 115Q310 115 338 159Q361 195 361 242Z" />
<glyph unicode="7" glyph-name="seven" horiz-adv-x="481" d="M94 0T94 11Q94 16 97 20L371 572Q373 579 368 579H188Q186 579 184 578T182 573L177 533Q175 516 158 516H80Q63 516 65 533L85 683Q87 700 103 700H518Q534 700 532 683L521 590Q520 580 514 569L238
13Q232 0 218 0H107Q94 0 94 11Z" />
<glyph unicode="8" glyph-name="eight" horiz-adv-x="525" d="M495 277T495 239Q495 228 493 204Q485 145 458 102Q426 51 370 22T241 -8Q172 -8 123 20T53 104Q40 136 40 174Q40 183 42 205Q49 262 77 309Q99 344 133 367Q141 372 134 375Q110 396 96 425Q82
453 82 489Q82 567 129 625Q163 667 215 690T330 713Q401 713 449 686T518 606Q530 572 530 537Q530 476 494 427Q472 399 441 376Q434 373 440 368Q471 346 484 308Q495 277 495 239ZM216 520T216 487Q216 463 225 446Q233 427 251 418T293 408Q345 408 373 447Q393
474 393 516Q393 532 388 547Q371 592 315 592Q288 592 267 581T233 549Q216 520 216 487ZM359 184T359 233Q359 253 354 270Q347 294 329 307T282 320Q228 320 200 271Q186 248 183 216Q181 200 181 193Q181 167 190 149Q209 111 256 111Q303 111 330 146Q359
184 359 233Z" />
<glyph unicode="9" glyph-name="nine" horiz-adv-x="515" d="M516 544T516 513Q516 495 513 475L476 174Q470 120 438 79T353 15T236 -8Q148 -8 96 34T43 148Q43 163 44 171L47 194Q49 211 66 211H169Q185 211 185 201L183 190Q179 157 198 135T251 113Q286 113
312 135T342 193L353 285Q354 289 352 290T346 288Q303 254 238 254Q180 254 137 281T74 361Q62 393 62 434Q62 454 65 476Q72 534 96 580Q129 639 186 673T317 707Q392 707 441 672T508 573Q516 544 516 513ZM370 438T376 480Q378 496 378 503Q378 526 371 541Q355
585 303 585Q251 585 225 541Q201 506 201 458Q201 432 210 412Q228 372 276 372Q327 372 353 413Q370 438 376 480Z" />
<glyph unicode=":" glyph-name="colon" horiz-adv-x="353" d="M164 333T142 355T120 410Q120 435 135 457T173 493T220 506Q253 506 276 484T300 430Q300 390 270 362T199 333Q164 333 142 355ZM123 6T102 27T80 81Q80 106 94 128T132 164T180 178Q213 178 236
156T260 103Q260 63 230 35T159 6Q123 6 102 27Z" />
<glyph unicode=";" glyph-name="semicolon" horiz-adv-x="307" d="M138 313T117 334T95 389Q95 415 110 437T148 472T195 486Q227 486 250 464T274 410Q274 370 245 342T173 313Q138 313 117 334ZM41 -97T45 -79L93 140Q94 147 99 151T112 156H202Q210 156 213
151T214 137L136 -82Q132 -97 117 -97H58Q41 -97 45 -79Z" />
<glyph unicode="&lt;" glyph-name="less" horiz-adv-x="471" d="M429 36T423 33T409 33L47 207Q34 214 37 227L48 321Q49 334 63 341L468 515Q474 517 476 517Q488 517 486 502L473 404Q472 391 459 385L192 278Q188 277 188 275T191 270L431 164Q443 158 442
145L430 46Q429 36 423 33Z" />
<glyph unicode="=" glyph-name="equal" horiz-adv-x="471" d="M38 333T40 350L51 437Q53 454 70 454H452Q468 454 466 437L455 350Q453 333 437 333H55Q38 333 40 350ZM38 397T40 414L51 501Q53 518 70 518H452Q468 518 466 501L455 414Q453 397 437 397H55Q38
397 40 414Z" />
<glyph unicode="&gt;" glyph-name="greater" horiz-adv-x="471" d="M26 31T24 31Q13 31 14 46L27 145Q28 158 41 164L308 270Q312 271 312 273T309 278L69 385Q57 391 58 404L70 502Q71 512 77 515T91 515L453 341Q464 334 463 321L452 227Q451 214 437 207L32
33Q26 31 24 31Z" />
<glyph unicode="?" glyph-name="question" horiz-adv-x="505" d="M175 222T178 239L181 266Q187 316 215 346T295 411Q337 439 358 459T382 510Q386 542 365 561T306 581Q265 581 238 560T207 506L205 495Q204 479 187 479L84 483Q77 483 73 486T69 495L70 506Q77
566 112 612T202 684T325 710Q417 710 470 665T523 542Q523 533 521 515Q516 471 497 440T455 388T394 344Q356 318 338 301T316 257L314 239Q311 222 295 222H192Q175 222 178 239ZM190 -2T169 18T148 69Q148 105 177 131T242 158Q273 158 294 138T316 88Q316
52 288 25T222 -2Q190 -2 169 18Z" />
<glyph unicode="@" glyph-name="at" horiz-adv-x="794" d="M591 659T654 627T750 537T784 399Q784 350 771 299Q747 201 694 147T562 92Q494 92 463 132Q460 136 455 132Q433 113 405 103T347 93Q293 93 263 123T233 201Q233 234 245 277Q255 323 274 360Q297
409 337 435T423 462Q469 462 492 433Q494 430 496 430T500 435L502 444Q505 460 521 460H579Q588 460 591 456T593 442L546 261Q542 246 542 229Q542 206 552 193T583 179Q613 179 636 208T674 293Q687 342 687 386Q687 476 634 523T490 571Q411 571 340 535T219
432T148 274Q138 233 138 192Q138 102 191 51T336 -1Q380 -1 421 9T489 36Q495 39 500 39Q507 39 511 32L537 -5Q540 -10 540 -14Q540 -23 531 -29Q490 -57 431 -73T312 -90Q234 -90 174 -58T79 36T44 181Q44 228 56 282Q81 393 148 479T310 612T506 659Q591 659
654 627ZM410 173T434 215Q448 238 457 278Q466 317 466 339Q466 358 454 369T422 381Q402 381 385 370T357 339Q347 323 333 273Q323 235 325 215Q327 195 338 184T371 173Q410 173 434 215Z" />
<glyph unicode="A" glyph-name="A" horiz-adv-x="651" d="M462 0T460 14L444 107Q443 112 439 112H201Q196 112 195 107L156 14Q150 0 136 0H23Q10 0 10 11L12 19L301 686Q307 700 321 700H463Q477 700 480 686L605 19V15Q605 8 601 4T589 0H476Q462 0 460 14ZM242
221T247 221H419Q425 221 425 228L375 533Q374 537 372 537T367 533L243 228Q242 221 247 221Z" />
<glyph unicode="B" glyph-name="B" horiz-adv-x="601" d="M485 365T485 363T487 358Q561 317 561 227Q561 218 559 196Q547 99 477 50T303 0H56Q40 0 42 17L124 683Q126 700 142 700H381Q589 700 589 543Q589 520 587 508Q576 407 488 366Q485 365 485 363ZM247
579T247 573L228 419Q227 413 233 413H346Q391 413 419 434T452 495L453 507Q453 541 431 560T366 579H253Q247 579 247 573ZM367 122T395 149T424 225Q424 260 402 279T338 298H219Q214 298 212 292L192 128Q192 122 197 122H318Q367 122 395 149Z" />
<glyph unicode="C" glyph-name="C" horiz-adv-x="590" d="M173 -8T113 48T53 198Q53 222 55 235L83 466Q92 538 130 593T229 678T365 708Q469 708 529 654T590 510Q590 499 588 477Q586 468 571 466L467 459H463Q448 459 450 464L451 470Q452 476 452 487Q452
533 425 560T350 587Q298 587 263 555T221 470L191 229Q190 223 190 212Q190 167 217 140T292 113Q344 113 379 145T421 229Q423 241 439 240L542 235Q558 233 558 230L557 225Q549 156 511 103T413 21T277 -8Q173 -8 113 48Z" />
<glyph unicode="D" glyph-name="D" horiz-adv-x="599" d="M40 0T42 17L124 683Q126 700 142 700H380Q480 700 539 651T598 518Q598 508 596 488L562 212Q555 149 519 101T425 27T294 0H56Q40 0 42 17ZM192 121T197 121H314Q359 121 390 152T428 235L457 465Q458
472 458 484Q458 528 435 553T369 579H253Q247 579 247 573L192 127Q192 121 197 121Z" />
<glyph unicode="E" glyph-name="E" horiz-adv-x="566" d="M582 579T566 579H253Q251 579 249 578T247 573L228 420Q228 414 233 414H436Q453 414 450 397L440 310Q437 293 421 293H218Q212 293 212 287L192 127Q192 121 197 121H510Q526 121 524 104L513 17Q511
0 495 0H56Q40 0 42 17L124 683Q126 700 142 700H581Q597 700 595 683L584 596Q582 579 566 579Z" />
<glyph unicode="F" glyph-name="F" horiz-adv-x="543" d="M581 579T565 579H253Q251 579 249 578T247 573L228 420Q228 414 233 414H436Q453 414 450 397L440 310Q437 293 421 293H218Q212 293 212 287L179 17Q176 0 160 0H56Q40 0 42 17L124 683Q126 700 142
700H580Q596 700 594 683L583 596Q581 579 565 579Z" />
<glyph unicode="G" glyph-name="G" horiz-adv-x="589" d="M174 -8T114 49T53 201Q53 225 55 238L83 462Q92 535 130 591T229 677T365 708Q433 708 484 683T562 612T590 510Q590 500 588 482V480Q585 463 569 463H465Q458 463 454 465T450 471L451 478Q452 483
452 492Q452 534 425 560T350 587Q298 587 263 554T220 466L192 234Q191 228 191 216Q191 170 220 142T297 113Q348 113 381 140T420 217L426 261Q426 267 421 267H318Q301 267 304 284L314 366Q316 383 332 383H559Q576 383 574 366L558 239Q544 124 468 58T277
-8Q174 -8 114 49Z" />
<glyph unicode="H" glyph-name="H" horiz-adv-x="609" d="M487 700T503 700H607Q624 700 621 683L539 17Q537 0 521 0H417Q400 0 403 17L436 287Q436 293 431 293H218Q212 293 212 287L179 17Q176 0 160 0H56Q40 0 42 17L124 683Q126 700 142 700H246Q263 700
260 683L228 420Q228 414 233 414H446Q452 414 452 420L484 683Q487 700 503 700Z" />
<glyph unicode="I" glyph-name="I" horiz-adv-x="255" d="M40 0T42 17L124 683Q126 700 142 700H246Q263 700 260 683L179 17Q176 0 160 0H56Q40 0 42 17Z" />
<glyph unicode="J" glyph-name="J" horiz-adv-x="572" d="M143 -8T84 45T24 187Q24 198 26 220L30 255Q33 272 49 272H153Q169 272 167 255L163 220Q162 214 162 204Q162 163 188 138T259 113Q310 113 344 142T385 220L442 683Q444 700 460 700H563Q580 700 578
683L521 220Q513 152 476 101T378 21T244 -8Q143 -8 84 45Z" />
<glyph unicode="K" glyph-name="K" horiz-adv-x="607" d="M40 0T42 17L124 683Q126 700 142 700H246Q263 700 260 683L227 410Q226 406 228 405T233 407L489 690Q498 700 511 700H628Q641 700 641 691Q641 687 635 679L390 401Q386 397 389 393L567 20Q569 14
569 13Q569 7 565 4T554 0H437Q424 0 418 11L284 295Q283 298 280 298T275 295L206 217Q203 212 202 210L179 17Q176 0 160 0H56Q40 0 42 17Z" />
<glyph unicode="L" glyph-name="L" horiz-adv-x="555" d="M40 0T42 17L124 683Q126 700 142 700H246Q263 700 260 683L192 127Q192 121 197 121H509Q525 121 523 104L512 17Q510 0 494 0H56Q40 0 42 17Z" />
<glyph unicode="M" glyph-name="M" horiz-adv-x="690" d="M49 0T46 4T43 17L125 683Q127 700 143 700H247Q260 700 265 689L377 455Q378 452 380 452T385 455L556 689Q564 700 577 700H681Q697 700 695 683L613 17Q611 0 595 0H491Q474 0 476 17L530 450Q530 455
528 455T523 452L405 287Q397 276 384 276H335Q321 276 317 287L240 452Q238 456 236 455T233 450L180 17Q177 0 161 0H57Q49 0 46 4Z" />
<glyph unicode="N" glyph-name="N" horiz-adv-x="638" d="M40 0T42 17L124 683Q126 700 142 700H242Q255 700 260 689L452 273Q454 269 456 270T459 275L509 683Q511 700 527 700H629Q646 700 644 683L562 17Q559 0 543 0H444Q432 0 426 12L234 432Q232 436 230
435T227 430L178 17Q175 0 159 0H56Q40 0 42 17Z" />
<glyph unicode="O" glyph-name="O" horiz-adv-x="602" d="M176 -11T115 47T53 204Q53 222 56 243L82 457Q91 531 130 588T230 676T368 708Q473 708 534 650T596 496Q596 477 593 457L567 243Q558 168 519 111T418 21T280 -11Q176 -11 115 47ZM349 110T385 145T430
238L457 458Q458 465 458 479Q458 529 430 558T353 587Q300 587 263 552T219 458L192 238Q191 231 191 217Q191 168 219 139T295 110Q349 110 385 145Z" />
<glyph unicode="P" glyph-name="P" horiz-adv-x="579" d="M493 701T544 652T596 518Q596 508 594 484Q586 421 553 373T466 299T348 272H211Q206 272 204 266L174 17Q171 0 155 0H51Q35 0 37 17L119 684Q121 701 137 701H406Q493 701 544 652ZM395 385T427 416T459
496Q459 534 435 556T371 579H249Q244 579 242 573L220 391Q219 385 225 385H347Q395 385 427 416Z" />
<glyph unicode="Q" glyph-name="Q" horiz-adv-x="575" d="M456 708T515 651T575 497Q575 478 572 457L545 233Q534 144 480 83T343 1Q337 -1 337 -5L328 -81Q325 -98 309 -98H205Q197 -98 194 -94T191 -81L200 -6Q200 -1 196 0Q126 18 87 69T47 196Q47 220 49
233L76 457Q85 532 123 589T222 677T355 708Q456 708 515 651ZM436 464Q437 471 437 485Q437 531 411 559T340 587Q291 587 256 553T214 464L186 236Q185 229 185 216Q185 169 211 141T282 113Q332 113 366 147T408 236L436 464Z" />
<glyph unicode="R" glyph-name="R" horiz-adv-x="596" d="M403 0T398 13L312 285Q312 290 306 290H218Q213 290 211 284L179 17Q176 0 160 0H56Q40 0 42 17L124 684Q126 701 142 701H415Q500 701 549 653T599 522Q599 512 597 490Q588 422 549 373T450 304Q447
303 446 301T446 296L540 20Q541 18 541 13Q541 8 537 4T526 0H416Q403 0 398 13ZM247 579T247 573L226 405Q226 399 231 399H357Q402 399 432 427T462 500Q462 536 440 557T380 579H253Q247 579 247 573Z" />
<glyph unicode="S" glyph-name="S" horiz-adv-x="574" d="M163 -8T102 41T40 174Q40 183 42 201L44 218Q47 235 63 235H165Q173 235 177 232T180 222L178 208Q173 168 205 141T294 113Q349 113 377 138T406 199Q406 221 392 236T353 262T276 295Q217 317 178 338T111
396T83 485Q83 492 85 510Q96 601 168 654T346 708Q415 708 467 685T548 619T577 519Q577 511 575 493L573 483Q571 466 555 466H453Q436 466 438 476L439 486Q444 528 415 557T326 587Q276 587 248 565T219 502Q219 481 233 466T274 437T357 403Q420 378 454 361T516
309T544 221Q544 213 542 195Q535 134 499 88T404 17T269 -8Q163 -8 102 41Z" />
<glyph unicode="T" glyph-name="T" horiz-adv-x="567" d="M606 700T604 683L593 595Q591 578 574 578H407Q402 578 400 572L332 17Q330 0 313 0H210Q193 0 195 17L263 572Q265 578 258 578H95Q87 578 84 582T81 595L92 683Q94 700 110 700H589Q606 700 604 683Z" />
<glyph unicode="U" glyph-name="U" horiz-adv-x="610" d="M182 -8T122 48T61 198Q61 208 63 232L119 683Q121 700 137 700H241Q258 700 256 683L200 231Q199 224 199 212Q199 167 226 140T300 113Q351 113 386 145T429 231L484 683Q487 700 503 700H607Q624 700
621 683L566 232Q557 161 519 107T421 22T285 -8Q182 -8 122 48Z" />
<glyph unicode="V" glyph-name="V" horiz-adv-x="603" d="M211 0T208 14L93 681V683Q93 691 97 695T109 700H222Q236 700 238 686L306 204Q307 200 310 200T314 204L498 685Q505 700 519 700H628Q642 700 642 690Q642 686 639 681L358 14Q352 0 338 0H225Q211 0 208 14Z" />
<glyph unicode="W" glyph-name="W" horiz-adv-x="837" d="M181 0T177 4T172 15L83 681V685Q83 700 100 700H210Q225 700 226 685L268 286Q268 282 271 282T276 286L412 685Q417 700 431 700H541Q557 700 557 685L604 286Q604 282 606 282T610 286L747 685Q752
700 766 700H872Q880 700 883 695T883 681L645 15Q641 0 625 0H518Q503 0 501 15L457 440Q456 444 453 444T449 440L306 15Q302 0 287 0H188Q181 0 177 4Z" />
<glyph unicode="X" glyph-name="X" horiz-adv-x="612" d="M14 0T14 10Q14 15 18 20L242 346Q244 350 243 354L99 680Q97 686 97 687Q97 700 113 700H226Q240 700 245 688L340 464Q342 461 344 461T348 464L499 688Q507 700 521 700H632Q645 700 645 690Q645 685
641 680L417 354Q415 349 416 346L560 20Q562 14 562 12Q562 7 558 4T546 0H435Q421 0 416 12L320 235Q317 241 312 235L161 12Q154 0 139 0H27Q14 0 14 10Z" />
<glyph unicode="Y" glyph-name="Y" horiz-adv-x="598" d="M211 1T214 18L244 265Q244 271 243 273L97 680Q96 682 96 687Q96 692 100 696T111 700H224Q230 700 235 697T241 687L328 427Q329 424 331 424T336 427L486 687Q494 700 507 700H620Q634 700 634 689Q634
685 631 680L383 273Q380 267 380 265L349 18Q347 1 331 1H228Q211 1 214 18Z" />
<glyph unicode="Z" glyph-name="Z" horiz-adv-x="540" d="M11 0T14 17L26 116Q28 128 35 137L399 572Q401 575 401 577T396 579H99Q91 579 88 583T85 596L96 683Q98 700 114 700H553Q570 700 568 683L556 584Q554 571 546 563L183 128Q180 125 181 123T186 121H482Q499
121 497 104L486 17Q484 0 468 0H28Q11 0 14 17Z" />
<glyph unicode="[" glyph-name="bracketleft" horiz-adv-x="404" d="M-4 -147T-1 -130L111 783Q113 800 129 800H349Q366 800 364 783L353 696Q351 679 335 679H241Q234 679 234 673L149 -19Q149 -25 154 -25H249Q266 -25 264 -42L253 -130Q250 -147 234 -147H13Q-4
-147 -1 -130Z" />
<glyph unicode="\" glyph-name="backslash" horiz-adv-x="431" d="M389 16Q389 9 385 5T372 0H270Q256 0 253 13L88 680V684Q88 700 104 700H207Q221 700 224 687L389 20V16Z" />
<glyph unicode="]" glyph-name="bracketright" horiz-adv-x="404" d="M332 -147T316 -147H94Q78 -147 80 -130L91 -42Q93 -25 109 -25H205Q211 -25 211 -19L296 673Q296 679 291 679H197Q180 679 182 696L193 783Q195 800 212 800H432Q449 800 446 783L334 -130Q332
-147 316 -147Z" />
<glyph unicode="^" glyph-name="asciicircum" horiz-adv-x="459" d="M59 298T56 301T52 309Q52 314 55 318L231 686Q237 700 251 700H338Q352 700 355 686L444 318V314Q444 298 427 298H346Q331 298 328 312L281 549Q280 554 278 554T273 549L168 312Q162 298
147 298H66Q59 298 56 301Z" />
<glyph unicode="_" glyph-name="underscore" horiz-adv-x="507" d="M-1 0T1 17L10 90Q12 107 29 107H466Q483 107 481 90L472 17Q469 0 453 0H16Q-1 0 1 17Z" />
<glyph unicode="`" glyph-name="grave" horiz-adv-x="237" d="M263 591T263 587Q263 581 259 578T248 574H166Q154 574 148 585L97 676Q94 681 94 685Q94 690 98 693T109 697H207Q221 697 225 685L262 594Q263 591 263 587Z" />
<glyph unicode="a" glyph-name="a" horiz-adv-x="538" d="M395 514T411 514H515Q532 514 530 497L471 17Q468 0 452 0H348Q340 0 337 4T334 17L337 44Q338 48 336 48T331 46Q284 -8 213 -8Q148 -8 102 32T44 139Q38 168 38 199Q38 219 42 259Q52 334 76 383Q106
447 159 485T279 523Q351 523 383 474Q385 471 387 472T390 477L393 497Q395 514 411 514ZM355 196T362 257Q365 280 365 299Q365 337 355 360Q335 399 294 399Q249 399 222 361Q193 321 186 256Q184 243 184 220Q184 181 194 158Q202 137 219 126T260 115Q302
115 331 158Q355 196 362 257Z" />
<glyph unicode="b" glyph-name="b" horiz-adv-x="540" d="M526 354T526 314Q526 288 523 259Q512 182 491 139Q463 73 408 33T286 -8Q215 -8 182 46Q180 49 178 49T175 44L172 17Q169 0 153 0H49Q33 0 35 17L117 683Q119 700 135 700H239Q256 700 254 683L228
477Q228 473 230 472T235 474Q279 523 351 523Q417 523 461 485T519 383Q526 354 526 314ZM372 196T379 256Q381 280 381 291Q381 335 368 361Q350 399 305 399Q265 399 235 360Q211 323 202 257Q200 244 200 220Q200 181 210 158Q228 115 270 115Q317 115 346
158Q372 196 379 256Z" />
<glyph unicode="c" glyph-name="c" horiz-adv-x="521" d="M172 -8T120 32T52 142Q46 171 46 203Q46 220 50 260Q58 324 81 376Q113 444 175 483T314 522Q392 522 445 482T511 381Q515 365 515 350Q515 335 499 332L395 316L390 315Q385 315 382 318T378 327L377
341Q373 367 352 384T299 401Q268 401 245 385T209 341Q194 309 188 259Q185 234 185 213Q185 191 188 177Q193 147 212 130T263 113Q294 113 318 129T355 174L357 179V179Q358 183 364 188T378 193L478 177Q485 175 488 170T489 158Q488 148 481 135Q452 68 389
30T249 -8Q172 -8 120 32Z" />
<glyph unicode="d" glyph-name="d" horiz-adv-x="540" d="M418 700T434 700H538Q555 700 552 683L471 17Q468 0 452 0H348Q340 0 337 4T334 17L337 44Q338 48 336 48T331 46Q284 -8 213 -8Q148 -8 102 32T44 139Q38 168 38 199Q38 219 42 259Q52 334 76 383Q106
447 159 485T279 523Q351 523 383 474Q385 471 387 472T390 477L416 683Q418 700 434 700ZM355 196T362 257Q365 280 365 299Q365 337 355 360Q335 399 294 399Q249 399 222 361Q193 321 186 256Q184 243 184 220Q184 181 194 158Q202 137 219 126T260 115Q302
115 331 158Q355 196 362 257Z" />
<glyph unicode="e" glyph-name="e" horiz-adv-x="531" d="M351 114T389 157Q396 164 403 164Q408 164 412 159L461 104Q466 97 466 93Q466 88 460 80Q424 39 371 16T258 -8Q169 -8 116 39T53 168Q49 188 49 216Q49 237 52 261Q60 318 75 359Q104 433 168 478T313
523Q408 523 456 465T509 302Q509 264 505 229Q503 212 487 212H189Q183 212 183 206V196Q183 187 185 175Q192 144 218 128T285 111Q351 114 389 157ZM265 401T243 386T208 342Q201 324 199 317Q198 311 203 311H368Q374 311 374 317Q374 326 372 338Q367 367
348 384T296 401Q265 401 243 386Z" />
<glyph unicode="f" glyph-name="f" horiz-adv-x="375" d="M390 515T388 498L378 413Q375 396 359 396H271Q266 396 264 390L218 17Q216 0 200 0H96Q79 0 82 17L127 390Q129 396 122 396H71Q54 396 57 413L67 498Q69 515 86 515H137Q143 515 144 521L146 542Q154
604 176 638T242 687T358 700H390Q406 700 404 683L395 612Q393 595 377 595H350Q315 594 301 581T282 531L280 521Q280 515 285 515H374Q390 515 388 498Z" />
<glyph unicode="g" glyph-name="g" horiz-adv-x="539" d="M399 514T415 514H519Q536 514 533 497L478 46Q462 -85 382 -141T188 -197Q154 -197 116 -192Q102 -191 104 -174L119 -81Q120 -73 126 -69T140 -66Q175 -71 198 -71Q260 -71 296 -43T341 47Q342 50 340
50T335 48Q293 8 223 8Q160 8 111 39T48 141Q44 162 44 192Q44 218 48 260Q59 340 81 387Q109 448 162 485T279 522Q353 522 387 477Q390 474 392 475T395 480L397 497Q399 514 415 514ZM361 208T368 261Q372 290 372 310Q372 328 369 341Q364 368 346 384T297
401Q268 401 246 385T210 341Q193 312 186 260Q183 235 183 216Q183 195 188 180Q193 153 213 137T263 120Q294 120 316 136T350 179Q361 208 368 261Z" />
<glyph unicode="h" glyph-name="h" horiz-adv-x="531" d="M425 522T466 482T507 371Q507 362 505 340L466 17Q463 0 447 0H343Q327 0 329 17L365 311Q366 317 366 327Q366 360 348 380T298 401Q262 401 237 376T206 311L170 17Q168 0 151 0H48Q31 0 33 17L115
683Q117 700 133 700H237Q254 700 252 683L225 469Q225 460 231 466Q277 522 355 522Q425 522 466 482Z" />
<glyph unicode="i" glyph-name="i" horiz-adv-x="252" d="M142 563T122 582T102 634Q102 676 129 703T196 731Q231 731 251 712T271 660Q271 618 244 591T176 563Q142 563 122 582ZM39 0T41 17L100 497Q102 514 118 514H222Q239 514 237 497L178 17Q175 0 159
0H55Q39 0 41 17Z" />
<glyph unicode="j" glyph-name="j" horiz-adv-x="244" d="M141 560T121 581T100 634Q100 672 129 699T195 727Q227 727 248 706T270 654Q270 615 242 588T174 560Q141 560 121 581ZM-103 -204T-101 -187L-90 -102Q-89 -86 -71 -86Q-17 -87 7 -68T38 -2L99 497Q101
514 117 514H221Q238 514 236 497L175 0Q165 -80 138 -124T59 -187T-86 -204Q-103 -204 -101 -187Z" />
<glyph unicode="k" glyph-name="k" horiz-adv-x="517" d="M31 0T33 17L115 683Q117 700 133 700H237Q254 700 252 683L211 353Q211 349 213 349T218 351L365 504Q377 514 387 514H504Q518 514 518 504Q518 498 513 493L374 339Q372 337 372 331L477 20Q478 18
478 15Q478 8 474 4T462 0H352Q338 0 334 13L268 242Q267 249 261 243L191 164Q190 163 189 161T187 157L170 17Q168 0 151 0H48Q31 0 33 17Z" />
<glyph unicode="l" glyph-name="l" horiz-adv-x="242" d="M33 0T35 17L117 683Q119 700 135 700H239Q256 700 254 683L172 17Q169 0 153 0H49Q33 0 35 17Z" />
<glyph unicode="m" glyph-name="m" horiz-adv-x="810" d="M715 522T752 484T789 378Q789 355 787 343L747 17Q745 0 728 0H625Q608 0 610 17L646 312Q647 318 647 329Q647 362 630 381T583 401Q549 401 525 377T495 313L459 17Q457 0 440 0H338Q321 0 323 17L359
312Q360 318 360 328Q360 362 342 381T294 401Q263 401 240 382T208 329L170 17Q168 0 151 0H48Q31 0 33 17L92 497Q94 514 111 514H214Q231 514 229 497L225 465Q224 461 226 460T231 463Q280 522 361 522Q409 522 442 502T491 442Q492 438 494 438T499 442Q525
482 564 502T648 522Q715 522 752 484Z" />
<glyph unicode="n" glyph-name="n" horiz-adv-x="531" d="M425 522T466 482T507 371Q507 362 505 340L466 17Q463 0 447 0H343Q327 0 329 17L365 311Q366 317 366 327Q366 360 348 380T298 401Q262 401 237 376T206 311L170 17Q168 0 151 0H48Q31 0 33 17L92 497Q94
514 111 514H214Q231 514 229 497L225 469Q225 460 231 466Q277 522 355 522Q425 522 466 482Z" />
<glyph unicode="o" glyph-name="o" horiz-adv-x="540" d="M169 -8T116 36T51 156Q47 177 47 208Q47 233 50 258Q58 322 78 364Q109 438 172 480T317 522Q397 522 448 480T513 365Q518 335 518 307Q518 284 515 260Q510 212 490 159Q458 81 395 37T251 -8Q169 -8
116 36ZM298 113T322 133T361 188Q372 215 377 258Q380 282 380 303Q380 349 359 375T299 401Q267 401 243 382T204 329Q193 300 188 258Q185 236 185 214Q185 167 205 140T266 113Q298 113 322 133Z" />
<glyph unicode="p" glyph-name="p" horiz-adv-x="542" d="M529 347T529 315Q529 295 525 255Q517 181 491 131Q462 67 409 29T289 -9Q217 -9 184 40Q183 43 181 42T177 37L152 -169Q150 -186 133 -186H30Q13 -186 15 -169L97 497Q99 514 115 514H219Q236 514 234
497L230 470Q230 466 232 466T237 468Q283 522 354 522Q420 522 466 482T523 375Q529 347 529 315ZM373 193T382 258Q384 282 384 292Q384 328 374 356Q355 399 308 399Q266 399 237 356Q213 319 205 257Q202 235 202 216Q202 179 213 154Q232 115 273 115Q317
115 346 153Q373 193 382 258Z" />
<glyph unicode="q" glyph-name="q" horiz-adv-x="542" d="M395 514T411 514H515Q532 514 530 497L448 -169Q445 -186 429 -186H325Q309 -186 311 -169L336 37Q337 41 335 42T330 40Q286 -9 213 -9Q147 -9 103 29T45 131Q38 159 38 195Q38 215 42 255Q50 326 73
375Q101 441 156 481T278 522Q349 522 382 468Q384 465 386 465T389 470L393 497Q395 514 411 514ZM354 191T362 257Q365 278 365 297Q365 333 355 356Q337 399 294 399Q247 399 218 356Q193 316 186 258Q184 232 184 222Q184 180 196 153Q216 115 260 115Q301
115 329 154Q354 191 362 257Z" />
<glyph unicode="r" glyph-name="r" horiz-adv-x="372" d="M374 521T393 509Q401 505 401 497Q401 494 399 488L368 383Q366 375 362 373T348 372Q332 376 320 376Q313 376 297 374Q262 371 235 347T203 285L170 17Q168 0 151 0H48Q31 0 33 17L92 497Q94 514 111
514H214Q231 514 229 497L225 466Q224 462 226 461T231 463Q277 521 343 521Q374 521 393 509Z" />
<glyph unicode="s" glyph-name="s" horiz-adv-x="488" d="M138 -7T85 29T32 125Q32 136 33 142L34 147Q36 164 52 164H150Q166 164 166 158L165 151Q162 129 183 114T241 98Q276 98 298 112T320 149Q320 165 303 173T251 191Q207 204 183 214Q129 234 97 262T64
341Q64 395 93 436T173 499T288 521Q375 521 426 482T477 377Q477 365 476 359Q475 354 470 351T458 347H363Q346 347 347 353L348 359Q350 381 331 396T276 411Q242 411 219 398T196 362Q196 344 215 335T277 315Q287 312 300 309T328 300Q389 281 424 252T460
169Q460 157 459 150Q449 76 387 35T229 -7Q138 -7 85 29Z" />
<glyph unicode="t" glyph-name="t" horiz-adv-x="369" d="M366 401T350 401H263Q258 401 256 395L231 188Q230 182 230 170Q230 124 278 124H305Q322 124 320 107L309 21Q308 14 303 9T291 3Q253 1 237 1Q163 1 127 23T90 107Q90 115 92 133L124 395Q126 401 119
401H70Q53 401 55 418L65 497Q67 514 83 514H133Q139 514 140 520L153 633Q156 650 172 650H271Q288 650 285 633L271 520Q271 514 277 514H364Q372 514 375 510T378 497L369 418Q366 401 350 401Z" />
<glyph unicode="u" glyph-name="u" horiz-adv-x="529" d="M385 514T402 514H505Q522 514 520 497L461 17Q459 0 442 0H339Q322 0 324 17L327 44Q328 48 326 48T321 46Q276 -7 195 -7Q128 -7 87 31T46 139Q46 148 48 168L88 497Q91 514 107 514H210Q226 514 224
497L188 203Q187 197 187 186Q187 152 205 133T255 113Q288 113 312 133T345 187L383 497Q385 514 402 514Z" />
<glyph unicode="v" glyph-name="v" horiz-adv-x="504" d="M160 0T157 14L66 495L65 500Q65 506 70 510T82 514H196Q210 514 213 499L253 199Q254 195 257 195T261 199L376 499Q383 514 396 514L510 513Q524 513 524 503Q524 499 521 494L313 14Q307 0 292 0H174Q160
0 157 14Z" />
<glyph unicode="w" glyph-name="w" horiz-adv-x="760" d="M146 0T143 14L66 495V499Q66 514 82 514H188Q204 514 205 499L235 203Q236 199 239 199T243 203L351 499Q356 514 372 514H467Q474 514 478 510T483 499L520 202Q521 198 524 198T528 202L638 499Q640
506 646 510T659 514L765 513Q774 513 777 508T777 494L579 14Q573 0 559 0H450Q436 0 433 14L393 276Q391 280 389 280T385 276L289 15Q287 8 282 4T269 0H160Q146 0 143 14Z" />
<glyph unicode="x" glyph-name="x" horiz-adv-x="522" d="M5 0T5 10Q5 14 10 21L190 253Q193 258 191 261L68 493Q66 496 66 501Q66 514 82 514H192Q204 514 210 503L279 370Q281 368 283 368T287 370L388 503Q396 514 408 514H527Q540 514 540 504Q540 500 535
493L356 261Q353 256 355 253L477 21Q479 18 479 13Q479 0 464 0H353Q341 0 335 11L267 144Q266 147 264 147T259 144L158 11Q150 0 138 0H18Q5 0 5 10Z" />
<glyph unicode="y" glyph-name="y" horiz-adv-x="490" d="M-3 -199T-1 -182L9 -100Q11 -83 17 -83H23Q83 -83 111 -68T156 -4Q157 -1 157 4L61 495L60 500Q60 506 65 510T77 514H188Q202 514 205 500L248 202Q248 198 251 198T256 202L368 499Q373 514 388 514H500Q513
514 513 503L511 495L282 -19Q249 -92 219 -128T142 -182T10 -199H4Q-3 -199 -1 -182Z" />
<glyph unicode="z" glyph-name="z" horiz-adv-x="446" d="M4 0T6 17L18 116Q19 127 28 137L274 380Q276 383 276 385T272 387H74Q57 387 59 404L71 497Q73 514 89 514H442Q459 514 457 497L445 399Q444 388 434 378L182 135Q180 132 180 130T184 128H400Q417 128
414 111L403 17Q400 0 384 0H20Q4 0 6 17Z" />
<glyph unicode="{" glyph-name="braceleft" horiz-adv-x="365" d="M137 -147T109 -123T80 -49Q80 -41 82 -23L107 184Q109 202 109 209Q109 264 64 273Q48 275 50 290L60 369Q62 384 78 386Q106 391 122 412T143 474L168 677Q175 738 211 769T310 800H393Q410
800 408 783L397 696Q394 679 378 679H357Q334 679 318 662T297 616L277 455Q271 407 254 378T207 333Q199 330 206 326Q228 314 238 293T248 238Q248 216 246 203L226 38Q225 34 225 25Q225 1 237 -12T270 -25H292Q300 -25 303 -29T306 -42L295 -130Q293 -147
277 -147H193Q137 -147 109 -123Z" />
<glyph unicode="|" glyph-name="bar" horiz-adv-x="197" d="M1 -80T3 -63L102 743Q104 760 120 760H224Q241 760 239 743L140 -63Q137 -80 121 -80H17Q1 -80 3 -63Z" />
<glyph unicode="}" glyph-name="braceright" horiz-adv-x="365" d="M13 -147Q-4 -147 -1 -130L9 -42Q12 -25 28 -25H49Q73 -25 89 -8T109 38L130 203Q136 252 153 281T200 326Q207 330 201 333Q179 345 169 366T159 420Q159 442 161 455L180 616Q181 620 181 628Q181
652 169 665T136 679H114Q98 679 100 696L111 783Q113 800 129 800H213Q269 800 298 775T327 701Q327 693 325 677L300 474Q298 456 298 449Q298 395 343 386Q359 384 357 369L347 290Q345 275 329 273Q301 268 285 247T264 184L239 -23Q232 -84 196 -115T96 -147H13Z"
/>
<glyph unicode="~" glyph-name="asciitilde" horiz-adv-x="518" d="M326 201T307 208T269 228Q247 242 230 250T192 258Q154 258 127 226Q121 218 114 218Q110 218 104 222L52 261Q45 268 45 274Q45 279 48 283Q71 326 113 353T202 380Q225 380 242 374T280 354Q286
351 301 342T329 327T356 322Q386 322 413 354Q420 362 428 362Q432 362 437 359L497 315Q505 310 505 302Q505 298 502 293Q478 252 437 227T351 201Q326 201 307 208Z" />
<glyph unicode="&#xa0;" glyph-name="uni00A0" horiz-adv-x="194" />
<glyph unicode="&#xa1;" glyph-name="exclamdown" horiz-adv-x="336" d="M269 708T291 687T313 632Q313 606 299 584T261 549T212 535Q180 535 157 557T134 613Q134 651 163 679T233 708Q269 708 291 687ZM151 469T167 469H244Q252 469 256 465T259 452L220 26Q218
17 214 13T202 9H98Q82 9 85 26L149 452Q151 469 167 469Z" />
<glyph unicode="&#xa2;" glyph-name="cent" horiz-adv-x="521" d="M368 269V269Q369 273 375 278T389 283L489 267Q496 265 499 260T500 248Q499 238 492 225Q468 170 421 134T312 87Q306 86 306 80L301 18Q300 1 283 1H201Q185 1 187 18L199 85Q199 89 194 91Q143
105 109 142T63 232Q57 261 57 293Q57 310 61 350Q71 418 92 466Q116 518 159 554T257 604Q263 606 263 610L268 676Q271 693 286 693H368Q385 693 382 676L371 614Q371 608 376 607Q435 595 474 558T522 471Q526 455 526 440Q526 425 510 422L406 406L401 405Q396
405 393 408T389 417L388 431Q384 457 363 474T310 491Q279 491 256 475T220 431Q205 399 199 349Q196 324 196 303Q196 281 199 267Q204 237 223 220T274 203Q305 203 329 219T366 264L368 269Z" />
<glyph unicode="&#xa3;" glyph-name="sterling" horiz-adv-x="595" d="M279 166T239 128Q236 125 236 123T241 121H544Q561 121 559 104L548 17Q546 0 530 0H87Q71 0 73 17L84 108Q85 120 97 128Q120 144 132 166T149 222L156 281Q156 287 151 287H91Q75 287 77
304L87 384Q89 401 105 401H165Q171 401 171 407L181 490Q194 593 260 650T427 708Q504 708 550 668T611 556Q612 554 612 551Q612 539 597 536L500 518Q499 518 498 518T495 518Q484 518 481 530Q472 561 456 574T414 587Q375 587 350 564T319 493L308 407Q308
401 313 401H484Q492 401 495 397T498 384L488 304Q486 287 470 287H299Q293 287 293 281L285 222Q279 166 239 128Z" />
<glyph unicode="&#xa4;" glyph-name="currency" horiz-adv-x="557" d="M509 262T470 202Q467 196 470 193L522 131Q527 126 527 121Q527 115 519 107L448 51Q441 46 436 46Q428 46 424 52L377 108Q374 111 369 109Q319 84 266 84Q215 84 174 107Q168 108 165 105L106
51Q101 46 95 46Q90 46 83 51L26 107Q21 112 21 117Q21 123 29 131L91 188Q95 192 93 197Q77 235 77 275Q77 344 116 406Q119 412 116 415L65 475Q60 482 60 486Q60 493 68 499L139 556Q146 561 151 561Q158 561 162 555L210 499Q212 495 218 498Q266 523 320 523Q376
523 420 496Q424 493 429 497L493 555Q499 561 506 561Q511 561 516 556L572 499Q577 494 577 488Q577 481 570 475L499 410Q496 407 497 402Q509 364 509 331Q509 262 470 202ZM195 255T219 230T281 204Q309 204 334 219T375 261T391 317Q391 354 367 379T306
404Q277 404 252 389T211 348T195 293Q195 255 219 230Z" />
<glyph unicode="&#xa5;" glyph-name="yen" horiz-adv-x="665" d="M670 700T670 690Q670 685 666 680L461 341Q457 334 464 334H544Q561 334 559 317L553 273Q551 256 535 256H420Q414 256 414 250L408 203Q408 197 413 197H528Q544 197 542 180L536 135Q534 118
518 118H403Q401 118 399 117T397 112L385 18Q383 1 367 1H264Q247 1 250 18L261 112Q261 118 256 118H142Q125 118 127 135L133 180Q135 197 151 197H266Q272 197 272 203L278 250Q280 256 273 256H159Q142 256 144 273L150 317Q152 334 168 334H250Q257 334 254
341L133 680Q131 686 131 687Q131 700 147 700H260Q272 700 277 687L364 427Q365 424 367 424T372 427L522 687Q530 700 543 700H657Q670 700 670 690Z" />
<glyph unicode="&#xa6;" glyph-name="brokenbar" horiz-adv-x="197" d="M60 402T62 419L102 743Q104 760 120 760H224Q241 760 239 743L199 419Q197 402 180 402H77Q60 402 62 419ZM1 -80T3 -63L43 261Q45 278 61 278H165Q182 278 179 261L140 -63Q137 -80 121
-80H17Q1 -80 3 -63Z" />
<glyph unicode="&#xa7;" glyph-name="section" horiz-adv-x="482" d="M109 -208T64 -168T19 -58Q19 -46 20 -39L23 -7Q25 2 29 6T41 10H145Q153 10 157 7T160 -3L158 -16L157 -28Q157 -55 172 -71T213 -87Q243 -87 263 -67T284 -17Q284 3 271 16T239 39T174 67Q128
86 102 104T61 150Q46 183 46 219Q46 286 88 340Q112 370 153 388Q157 390 157 392T155 395Q124 413 105 443T86 515Q86 566 115 610T196 681T310 708Q388 708 436 666T485 556Q485 541 484 533L482 515Q480 498 464 498H360Q343 498 345 508L346 518L347 529Q347
555 332 571T292 587Q263 587 242 566T221 515Q221 486 245 470T318 435Q355 423 383 408T430 369Q460 334 460 283Q460 252 449 221T419 163Q388 120 350 110Q347 109 347 107T349 104Q384 80 402 51T420 -15Q420 -73 389 -117T306 -184T192 -208Q109 -208 64
-168ZM280 182T303 208Q321 229 321 260Q321 280 312 293Q305 305 292 311T261 318Q243 318 227 310T201 288Q188 272 185 248L184 237Q184 221 192 208Q208 182 244 182Q280 182 303 208Z" />
<glyph unicode="&#xa8;" glyph-name="dieresis" horiz-adv-x="360" d="M111 571T94 587T77 631Q77 666 100 689T156 712Q184 712 200 696T216 652Q216 616 194 594T139 571Q111 571 94 587ZM297 571T281 587T264 629Q264 665 286 688T342 712Q370 712 386 696T402
652Q402 616 381 594T325 571Q297 571 281 587Z" />
<glyph unicode="&#xa9;" glyph-name="copyright" horiz-adv-x="792" d="M284 -8T214 31T106 141T67 301Q67 326 70 353Q82 453 137 534T278 661T463 708Q555 708 625 669T735 560T774 402Q774 379 771 353Q758 250 703 168T561 39T375 -8Q284 -8 214 31ZM463 70T530
106T640 207T693 353Q696 373 696 392Q696 461 666 515T580 599T454 630Q376 630 309 594T199 495T146 353Q143 332 143 312Q143 242 173 187T259 101T385 70Q463 70 530 106ZM351 174T322 201T293 273Q293 283 294 289L310 414Q316 466 352 497T443 528Q493 528
521 504T549 436Q549 426 548 420Q548 413 531 413L491 412Q475 412 475 415V419Q478 440 467 452T435 465Q414 465 401 453T384 419L367 283Q365 263 376 251T408 238Q428 238 442 250T459 283Q459 287 464 289T476 292L516 291Q524 291 528 290T532 286L531 282Q525
233 489 204T400 174Q351 174 322 201Z" />
<glyph unicode="&#xaa;" glyph-name="ordfeminine" horiz-adv-x="320" d="M260 567Q266 567 266 573L268 583Q271 609 256 625T213 642Q194 642 178 634T154 614Q149 606 145 603T134 600L93 604Q84 605 81 609T80 622Q91 659 130 683T220 708Q275 708 309 680T344
608Q344 599 343 595L316 381Q314 364 298 364H257Q240 364 242 379L243 383Q244 387 242 388T237 386Q206 358 151 358Q103 358 76 379T48 440Q48 497 89 532T199 567H260ZM204 419T228 437T255 479L258 502Q258 508 252 508H202Q166 508 146 495T125 454Q125
437 137 428T172 419Q204 419 228 437ZM32 311T48 311H299Q316 311 314 294L308 250Q306 233 290 233H38Q22 233 24 250L29 294Q32 311 48 311Z" />
<glyph unicode="&#xab;" glyph-name="guillemotleft" horiz-adv-x="494" d="M259 124T259 119Q259 107 244 107H158Q144 107 140 118L70 269Q68 272 68 279Q68 287 73 293L180 444Q187 455 200 455H287Q299 455 299 446Q299 440 295 435L188 285Q186 281 187 277L257
127Q259 124 259 119ZM426 121T426 120Q426 114 422 111T411 107H325Q312 107 306 118L237 269Q235 272 235 279Q235 287 240 293L346 444Q354 455 367 455H454Q466 455 466 446Q466 440 462 435L355 285Q353 281 354 277L424 127Q426 121 426 120Z" />
<glyph unicode="&#xac;" glyph-name="logicalnot" horiz-adv-x="471" d="M53 361T70 361H452Q468 361 466 344L442 145Q439 128 423 128H339Q322 128 324 145L335 234Q336 236 335 238T330 240H55Q38 240 40 257L51 344Q53 361 70 361Z" />
<glyph unicode="&#xad;" glyph-name="uni00AD" horiz-adv-x="397" d="M37 235T40 252L50 339Q53 356 69 356H376Q393 356 391 339L380 252Q378 235 362 235H54Q37 235 40 252Z" />
<glyph unicode="&#xae;" glyph-name="registered" horiz-adv-x="432" d="M334 710T374 688T436 627T459 539Q459 530 457 512Q450 454 418 407T338 334T234 307Q183 307 144 329T82 391T60 482Q60 544 90 596T171 679T283 710Q334 710 374 688ZM284 362T321 384T381
445T403 531Q403 585 368 620T276 656Q233 656 196 634T137 574T115 491Q115 434 150 398T240 362Q284 362 321 384ZM333 534T325 520T304 498Q298 495 300 490L312 438V434Q312 427 308 423T296 418H282Q266 418 265 432L255 483Q255 488 249 488V488Q243 488
243 482L237 435Q234 418 218 418H207Q190 418 192 435L211 586Q213 603 229 603H282Q305 603 319 589T333 553Q333 534 325 520ZM252 563T252 557L248 529Q248 523 253 523H265Q274 523 280 529T287 543V546Q287 554 283 558T270 563H258Q252 563 252 557Z" />
<glyph unicode="&#xaf;" glyph-name="overscore" horiz-adv-x="285" d="M51 578T54 595L61 656Q63 673 80 673H332Q349 673 346 656L339 595Q336 578 320 578H68Q51 578 54 595Z" />
<glyph unicode="&#xb0;" glyph-name="degree" horiz-adv-x="365" d="M158 471T118 512T77 617Q77 668 102 712T171 782T262 808Q325 808 365 767T406 663Q406 611 381 567T313 497T221 471Q158 471 118 512ZM267 563T291 589T316 652Q316 681 298 699T251 717Q217
717 192 692T166 630Q166 601 185 582T232 563Q267 563 291 589Z" />
<glyph unicode="&#xb1;" glyph-name="plusminus" horiz-adv-x="471" d="M468 456T466 439L455 352Q453 335 437 335H310Q305 335 303 329L287 200Q285 183 269 183H185Q169 183 171 200L187 329Q187 335 182 335H55Q38 335 40 352L51 439Q53 456 70 456H197Q203
456 203 462L219 594Q222 611 238 611H321Q338 611 336 594L320 462Q319 456 325 456H452Q468 456 466 439ZM38 0T40 17L51 104Q53 121 70 121H452Q468 121 466 104L455 17Q453 0 437 0H55Q38 0 40 17Z" />
<glyph unicode="&#xb2;" glyph-name="uni00B2" horiz-adv-x="333" d="M10 416T13 433L19 481Q20 492 30 502Q93 559 168 632Q232 693 232 724Q232 742 221 752T189 763Q167 763 152 750T134 717L133 712Q131 695 115 695H59Q42 695 44 712L46 731Q56 781 98 811T199
841Q257 841 290 811T323 735Q323 705 308 677T261 614Q227 576 145 501Q143 499 143 497T147 494H284Q301 494 298 477L293 433Q291 416 275 416H27Q10 416 13 433Z" />
<glyph unicode="&#xb3;" glyph-name="uni00B3" horiz-adv-x="314" d="M293 598T293 580Q293 573 291 553Q287 516 271 487Q251 451 216 431T137 410Q92 410 62 433T20 496Q14 514 16 537Q16 545 20 549T33 554H90Q103 554 105 538Q105 526 108 518Q111 504 121
497T147 489Q173 489 188 511Q200 529 203 555Q205 569 205 575Q205 591 199 603Q190 626 163 626Q154 626 142 621Q135 618 129 618Q122 618 119 624L97 657Q94 662 94 667Q94 675 101 681L191 750Q195 753 194 755T189 757H67Q50 757 53 774L58 818Q60 835 77
835H305Q321 835 319 818L313 770Q312 759 302 749L225 686Q219 680 228 678Q270 667 288 620Q293 598 293 580Z" />
<glyph unicode="&#xb4;" glyph-name="acute" horiz-adv-x="237" d="M79 574T79 584Q79 588 82 594L141 685Q148 697 162 697H260Q273 697 273 688Q273 683 268 676L195 585Q186 574 173 574H92Q79 574 79 584Z" />
<glyph unicode="&#xb5;" glyph-name="uni00B5" horiz-adv-x="534" d="M390 514T406 514H510Q527 514 525 497L466 17Q463 0 447 0H343Q327 0 329 17L332 44Q333 48 331 48T326 46Q281 -7 200 -7Q191 -7 173 -5H172Q168 -5 166 -11L145 -183Q143 -200 127 -200H23Q6
-200 9 -183L92 497Q94 514 111 514H214Q231 514 229 497L193 203Q192 197 192 186Q192 152 210 133T260 113Q293 113 317 133T350 187L388 497Q390 514 406 514Z" />
<glyph unicode="&#xb6;" glyph-name="paragraph" horiz-adv-x="606" d="M603 700Q620 700 617 683L511 -183Q509 -200 492 -200H426Q409 -200 411 -183L507 594Q507 600 501 600H409Q403 600 403 594L307 -183Q305 -200 289 -200H221Q204 -200 206 -183L259 245Q259
251 254 251Q166 259 114 311T61 445Q61 455 63 475Q71 540 106 591T200 671T331 700H603Z" />
<glyph unicode="&#xb7;" glyph-name="middot" horiz-adv-x="178" d="M281 -4T260 17T238 72Q238 98 252 120T290 155T337 169Q370 169 394 147T418 93Q418 53 388 25T316 -4Q281 -4 260 17Z" />
<glyph unicode="&#xb8;" glyph-name="cedilla" horiz-adv-x="164" d="M-42 -179T-37 -163L-28 -123Q-22 -107 -6 -111Q4 -113 8 -113Q20 -113 29 -107T42 -90Q44 -86 44 -77Q44 -51 13 -20Q7 -14 7 -9Q7 -5 10 -3T21 0H71Q83 0 91 -7Q133 -49 133 -93Q133 -108
126 -129Q113 -163 86 -177T26 -192Q-3 -192 -28 -183Q-42 -179 -37 -163Z" />
<glyph unicode="&#xb9;" glyph-name="uni00B9" horiz-adv-x="188" d="M101 836T113 836H174Q182 836 185 832T188 819L141 433Q138 416 122 416H67Q50 416 53 433L91 750Q93 756 86 756L67 754H65Q49 754 51 770L55 804Q58 818 70 823L92 832Q101 836 113 836Z" />
<glyph unicode="&#xba;" glyph-name="ordmasculine" horiz-adv-x="345" d="M151 362T118 387T74 459Q69 475 69 503Q69 516 71 536Q77 584 92 613Q114 659 153 683T242 708Q287 708 319 684T363 614Q368 587 368 562Q368 545 367 537Q362 495 343 459Q322 413
284 388T199 362Q151 362 118 387ZM224 439T239 449T264 480Q275 504 278 536Q281 551 281 566Q281 597 267 614T230 632Q195 632 173 590Q162 569 159 536Q157 518 157 507Q157 492 160 480Q164 460 176 450T208 439Q224 439 239 449ZM34 232T36 249L42 295Q44
312 61 312H326Q343 312 341 295L335 249Q333 232 317 232H51Q34 232 36 249Z" />
<glyph unicode="&#xbb;" glyph-name="guillemotright" horiz-adv-x="494" d="M64 107T64 116Q64 122 68 127L175 277Q177 281 176 285L106 435Q104 438 104 443Q104 455 119 455H205Q218 455 223 444L293 293Q295 290 295 283Q295 275 290 269L183 118Q175 107
163 107H76Q64 107 64 116ZM236 107T236 116Q236 122 240 127L347 277Q349 281 348 285L278 435Q276 438 276 443Q276 455 291 455H377Q390 455 395 444L465 293Q467 290 467 283Q467 275 462 269L355 118Q347 107 335 107H248Q236 107 236 116Z" />
<glyph unicode="&#xbc;" glyph-name="onequarter" horiz-adv-x="797" d="M101 700T113 700H174Q182 700 185 696T188 683L141 297Q138 280 122 280H67Q50 280 53 297L91 614Q93 620 86 620L67 618H65Q49 618 51 634L55 668Q58 682 70 687L92 696Q101 700 113 700ZM93
0T93 10Q93 15 97 20L557 688Q566 700 578 700H641Q654 700 654 690Q654 685 650 680L190 12Q181 0 169 0H106Q93 0 93 10ZM789 187T786 170L780 122Q778 105 762 105H750Q744 105 744 99L734 17Q731 0 715 0H660Q643 0 645 17L655 99Q657 105 650 105H481Q465
105 467 122L472 160Q474 172 478 181L604 407Q612 420 625 420H682Q695 420 695 410Q695 406 692 400L581 194Q577 187 585 187H660Q666 187 667 193L674 252Q676 269 693 269H748Q765 269 762 252L755 193Q755 187 760 187H772Q789 187 786 170Z" />
<glyph unicode="&#xbd;" glyph-name="onehalf" horiz-adv-x="773" d="M101 700T113 700H174Q182 700 185 696T188 683L141 297Q138 280 122 280H67Q50 280 53 297L91 614Q93 620 86 620L67 618H65Q49 618 51 634L55 668Q58 682 70 687L92 696Q101 700 113 700ZM93
0T93 10Q93 15 97 20L557 688Q566 700 578 700H641Q654 700 654 690Q654 685 650 680L190 12Q181 0 169 0H106Q93 0 93 10ZM464 0T467 17L473 65Q474 76 484 86Q547 143 622 216Q686 277 686 308Q686 326 675 336T643 347Q621 347 606 334T588 301L587 296Q585
279 569 279H513Q496 279 498 296L500 315Q510 365 552 395T653 425Q711 425 744 395T777 319Q777 289 762 261T715 198Q681 160 599 85Q597 83 597 81T601 78H738Q755 78 752 61L747 17Q745 0 729 0H481Q464 0 467 17Z" />
<glyph unicode="&#xbe;" glyph-name="threequarters" horiz-adv-x="886" d="M293 465T293 447Q293 440 291 420Q287 383 271 354Q251 318 216 298T137 277Q92 277 62 300T20 363Q14 381 16 404Q16 412 20 416T33 421H90Q103 421 105 405Q105 393 108 385Q111 371
121 364T147 356Q173 356 188 378Q200 396 203 422Q205 436 205 442Q205 458 199 470Q190 493 163 493Q154 493 142 488Q135 485 129 485Q122 485 119 491L97 524Q94 529 94 534Q94 542 101 548L191 617Q195 620 194 622T189 624H67Q50 624 53 641L58 685Q60 702
77 702H305Q321 702 319 685L313 637Q312 626 302 616L225 553Q219 547 228 545Q270 534 288 487Q293 465 293 447ZM184 0T184 10Q184 15 188 20L648 688Q657 700 669 700H732Q745 700 745 690Q745 685 741 680L281 12Q272 0 260 0H197Q184 0 184 10ZM880 187T877
170L871 122Q869 105 853 105H841Q835 105 835 99L825 17Q822 0 806 0H751Q734 0 736 17L746 99Q748 105 741 105H572Q556 105 558 122L563 160Q565 172 569 181L695 407Q703 420 716 420H773Q786 420 786 410Q786 406 783 400L672 194Q668 187 676 187H751Q757
187 758 193L765 252Q767 269 784 269H839Q856 269 853 252L846 193Q846 187 851 187H863Q880 187 877 170Z" />
<glyph unicode="&#xbf;" glyph-name="questiondown" horiz-adv-x="505" d="M338 502T359 482T380 431Q380 395 351 369T285 342Q255 342 234 362T212 412Q212 448 240 475T306 502Q338 502 359 482ZM344 278T347 274T350 261L347 234Q341 184 313 154T233 89Q191
61 170 41T146 -10Q142 -42 163 -61T222 -81Q263 -81 290 -60T321 -6L323 5Q324 21 341 21L444 17Q451 17 455 14T459 5L458 -6Q451 -66 416 -112T326 -184T203 -210Q111 -210 58 -165T5 -42Q5 -33 7 -15Q12 29 31 60T73 112T134 156Q172 182 190 199T212 243L214
261Q217 278 233 278H336Q344 278 347 274Z" />
<glyph unicode="&#xc0;" glyph-name="Agrave" horiz-adv-x="651" d="M462 0T460 14L444 107Q443 112 439 112H201Q196 112 195 107L156 14Q150 0 136 0H23Q10 0 10 11L12 19L301 686Q307 700 321 700H463Q477 700 480 686L605 19V15Q605 8 601 4T589 0H476Q462
0 460 14ZM242 221T247 221H419Q425 221 425 228L375 533Q374 537 372 537T367 533L243 228Q242 221 247 221ZM435 777T435 773Q435 767 431 764T420 760H338Q326 760 320 771L269 862Q266 867 266 871Q266 876 270 879T281 883H379Q393 883 397 871L434 780Q435
777 435 773Z" />
<glyph unicode="&#xc1;" glyph-name="Aacute" horiz-adv-x="651" d="M462 0T460 14L444 107Q443 112 439 112H201Q196 112 195 107L156 14Q150 0 136 0H23Q10 0 10 11L12 19L301 686Q307 700 321 700H463Q477 700 480 686L605 19V15Q605 8 601 4T589 0H476Q462
0 460 14ZM242 221T247 221H419Q425 221 425 228L375 533Q374 537 372 537T367 533L243 228Q242 221 247 221ZM322 760T322 770Q322 774 325 780L384 871Q391 883 405 883H503Q516 883 516 874Q516 869 511 862L438 771Q429 760 416 760H335Q322 760 322 770Z"
/>
<glyph unicode="&#xc2;" glyph-name="Acircumflex" horiz-adv-x="651" d="M462 0T460 14L444 107Q443 112 439 112H201Q196 112 195 107L156 14Q150 0 136 0H23Q10 0 10 11L12 19L301 686Q307 700 321 700H463Q477 700 480 686L605 19V15Q605 8 601 4T589 0H476Q462
0 460 14ZM242 221T247 221H419Q425 221 425 228L375 533Q374 537 372 537T367 533L243 228Q242 221 247 221ZM236 757T236 766Q236 771 241 778L321 875Q328 885 342 885H447Q460 885 466 875L524 778Q526 775 526 770Q526 757 511 757H439Q427 757 421 768L392
825Q391 828 389 828T384 825L341 768Q333 757 321 757H249Q236 757 236 766Z" />
<glyph unicode="&#xc3;" glyph-name="Atilde" horiz-adv-x="651" d="M462 0T460 14L444 107Q443 112 439 112H201Q196 112 195 107L156 14Q150 0 136 0H23Q10 0 10 11L12 19L301 686Q307 700 321 700H463Q477 700 480 686L605 19V15Q605 8 601 4T589 0H476Q462
0 460 14ZM242 221T247 221H419Q425 221 425 228L375 533Q374 537 372 537T367 533L243 228Q242 221 247 221ZM428 760T416 766T385 785Q373 794 366 797T350 801Q328 801 312 784Q304 775 297 775Q293 775 289 779L258 803Q251 810 251 816Q251 822 254 826Q272
859 297 875T351 892Q368 892 381 887T411 869Q425 860 435 856T456 851Q476 851 491 869Q498 878 505 878Q510 878 514 874L546 850Q551 845 551 839Q551 832 543 819Q522 790 496 775T446 760Q428 760 416 766Z" />
<glyph unicode="&#xc4;" glyph-name="Adieresis" horiz-adv-x="651" d="M462 0T460 14L444 107Q443 112 439 112H201Q196 112 195 107L156 14Q150 0 136 0H23Q10 0 10 11L12 19L301 686Q307 700 321 700H463Q477 700 480 686L605 19V15Q605 8 601 4T589 0H476Q462
0 460 14ZM242 221T247 221H419Q425 221 425 228L375 533Q374 537 372 537T367 533L243 228Q242 221 247 221ZM260 757T243 773T226 817Q226 852 249 875T305 898Q333 898 349 882T365 838Q365 802 343 780T288 757Q260 757 243 773ZM446 757T430 773T413 815Q413
851 435 874T491 898Q519 898 535 882T551 838Q551 802 530 780T474 757Q446 757 430 773Z" />
<glyph unicode="&#xc5;" glyph-name="Aring" horiz-adv-x="651" d="M462 0T460 14L444 107Q443 112 439 112H201Q196 112 195 107L156 14Q150 0 136 0H23Q10 0 10 11L12 19L301 686Q307 700 321 700H463Q477 700 480 686L605 19V15Q605 8 601 4T589 0H476Q462
0 460 14ZM242 221T247 221H419Q425 221 425 228L375 533Q374 537 372 537T367 533L243 228Q242 221 247 221ZM338 746T311 773T284 842Q284 876 301 905T346 951T407 968Q449 968 476 941T503 872Q503 838 486 809T441 763T380 746Q338 746 311 773ZM408 810T424
826T440 865Q440 883 429 894T400 905Q378 905 363 890T347 851Q347 834 358 822T388 810Q408 810 424 826Z" />
<glyph unicode="&#xc6;" glyph-name="AE" horiz-adv-x="931" d="M946 579T930 579H627Q622 579 620 573L602 420Q601 414 607 414H801Q817 414 815 397L804 310Q802 293 786 293H592Q587 293 585 287L566 127Q565 125 566 123T571 121H873Q890 121 888 104L877
17Q875 0 858 0H430Q413 0 415 17L426 106Q427 108 426 110T421 112H226Q220 112 219 108L162 12Q155 0 141 0H26Q13 0 13 11Q13 16 16 20L426 688Q433 700 447 700H944Q961 700 959 683L948 596Q946 579 930 579ZM288 221T295 221H435Q437 221 439 222T441 227L478
524Q478 528 476 529T471 526L292 228Q288 221 295 221Z" />
<glyph unicode="&#xc7;" glyph-name="Ccedilla" horiz-adv-x="590" d="M587 468T571 466L467 459H463Q448 459 450 464L451 470Q452 476 452 487Q452 533 425 560T350 587Q298 587 263 555T221 470L191 229Q190 223 190 212Q190 167 217 140T292 113Q344 113 379
145T421 229Q423 241 439 240L542 235Q558 233 558 230L557 225Q546 130 480 68T314 -6Q310 -7 309 -9T311 -14Q340 -47 340 -85Q340 -105 333 -122Q320 -156 294 -170T234 -185Q206 -185 179 -176Q167 -172 170 -156L180 -116Q184 -100 201 -104Q211 -106 215
-106Q241 -106 250 -83Q252 -75 252 -70Q252 -40 208 -2L202 1Q131 19 92 70T53 198Q53 222 55 235L83 466Q92 538 130 593T229 678T365 708Q469 708 529 654T590 510Q590 499 588 477V472Q587 468 571 466Z" />
<glyph unicode="&#xc8;" glyph-name="Egrave" horiz-adv-x="566" d="M582 579T566 579H253Q251 579 249 578T247 573L228 420Q228 414 233 414H436Q453 414 450 397L440 310Q437 293 421 293H218Q212 293 212 287L192 127Q192 121 197 121H510Q526 121 524 104L513
17Q511 0 495 0H56Q40 0 42 17L124 683Q126 700 142 700H581Q597 700 595 683L584 596Q582 579 566 579ZM402 789T402 785Q402 779 398 776T387 772H305Q293 772 287 783L236 874Q233 879 233 883Q233 888 237 891T248 895H346Q360 895 364 883L401 792Q402 789
402 785Z" />
<glyph unicode="&#xc9;" glyph-name="Eacute" horiz-adv-x="566" d="M582 579T566 579H253Q251 579 249 578T247 573L228 420Q228 414 233 414H436Q453 414 450 397L440 310Q437 293 421 293H218Q212 293 212 287L192 127Q192 121 197 121H510Q526 121 524 104L513
17Q511 0 495 0H56Q40 0 42 17L124 683Q126 700 142 700H581Q597 700 595 683L584 596Q582 579 566 579ZM289 772T289 782Q289 786 292 792L351 883Q358 895 372 895H470Q483 895 483 886Q483 881 478 874L405 783Q396 772 383 772H302Q289 772 289 782Z" />
<glyph unicode="&#xca;" glyph-name="Ecircumflex" horiz-adv-x="566" d="M582 579T566 579H253Q251 579 249 578T247 573L228 420Q228 414 233 414H436Q453 414 450 397L440 310Q437 293 421 293H218Q212 293 212 287L192 127Q192 121 197 121H510Q526 121 524
104L513 17Q511 0 495 0H56Q40 0 42 17L124 683Q126 700 142 700H581Q597 700 595 683L584 596Q582 579 566 579ZM203 769T203 778Q203 783 208 790L288 887Q295 897 309 897H414Q427 897 433 887L491 790Q493 787 493 782Q493 769 478 769H406Q394 769 388 780L359
837Q358 840 356 840T351 837L308 780Q300 769 288 769H216Q203 769 203 778Z" />
<glyph unicode="&#xcb;" glyph-name="Edieresis" horiz-adv-x="566" d="M582 579T566 579H253Q251 579 249 578T247 573L228 420Q228 414 233 414H436Q453 414 450 397L440 310Q437 293 421 293H218Q212 293 212 287L192 127Q192 121 197 121H510Q526 121 524
104L513 17Q511 0 495 0H56Q40 0 42 17L124 683Q126 700 142 700H581Q597 700 595 683L584 596Q582 579 566 579ZM227 769T210 785T193 829Q193 864 216 887T272 910Q300 910 316 894T332 850Q332 814 310 792T255 769Q227 769 210 785ZM413 769T397 785T380 827Q380
863 402 886T458 910Q486 910 502 894T518 850Q518 814 497 792T441 769Q413 769 397 785Z" />
<glyph unicode="&#xcc;" glyph-name="Igrave" horiz-adv-x="255" d="M40 0T42 17L124 683Q126 700 142 700H246Q263 700 260 683L179 17Q176 0 160 0H56Q40 0 42 17ZM233 789T233 785Q233 779 229 776T218 772H136Q124 772 118 783L67 874Q64 879 64 883Q64 888
68 891T79 895H177Q191 895 195 883L232 792Q233 789 233 785Z" />
<glyph unicode="&#xcd;" glyph-name="Iacute" horiz-adv-x="255" d="M40 0T42 17L124 683Q126 700 142 700H246Q263 700 260 683L179 17Q176 0 160 0H56Q40 0 42 17ZM120 772T120 782Q120 786 123 792L182 883Q189 895 203 895H301Q314 895 314 886Q314 881 309
874L236 783Q227 772 214 772H133Q120 772 120 782Z" />
<glyph unicode="&#xce;" glyph-name="Icircumflex" horiz-adv-x="255" d="M40 0T42 17L124 683Q126 700 142 700H246Q263 700 260 683L179 17Q176 0 160 0H56Q40 0 42 17ZM34 769T34 778Q34 783 39 790L119 887Q126 897 140 897H245Q258 897 264 887L322 790Q324
787 324 782Q324 769 309 769H237Q225 769 219 780L190 837Q189 840 187 840T182 837L139 780Q131 769 119 769H47Q34 769 34 778Z" />
<glyph unicode="&#xcf;" glyph-name="Idieresis" horiz-adv-x="255" d="M40 0T42 17L124 683Q126 700 142 700H246Q263 700 260 683L179 17Q176 0 160 0H56Q40 0 42 17ZM57 769T40 785T23 829Q23 864 46 887T102 910Q130 910 146 894T162 850Q162 814 140 792T85
769Q57 769 40 785ZM243 769T227 785T210 827Q210 863 232 886T288 910Q316 910 332 894T348 850Q348 814 327 792T271 769Q243 769 227 785Z" />
<glyph unicode="&#xd0;" glyph-name="Eth" horiz-adv-x="649" d="M530 700T589 651T648 518Q648 508 646 488L612 212Q604 149 568 101T474 27T343 0H106Q89 0 91 17L127 307Q127 313 122 313H95Q78 313 80 330L88 392Q90 409 106 409H134Q140 409 140 415L173
683Q175 700 192 700H429Q530 700 589 651ZM506 465Q507 472 507 486Q507 529 484 554T418 579H303Q298 579 296 573L277 415Q277 409 282 409H354Q362 409 365 405T368 392L361 330Q358 313 342 313H270Q264 313 264 307L242 127Q241 125 242 123T247 121H363Q408
121 439 152T478 235L506 465Z" />
<glyph unicode="&#xd1;" glyph-name="Ntilde" horiz-adv-x="638" d="M40 0T42 17L124 683Q126 700 142 700H242Q255 700 260 689L452 273Q454 269 456 270T459 275L509 683Q511 700 527 700H629Q646 700 644 683L562 17Q559 0 543 0H444Q432 0 426 12L234 432Q232
436 230 435T227 430L178 17Q175 0 159 0H56Q40 0 42 17ZM416 773T404 779T373 798Q361 807 354 810T338 814Q316 814 300 797Q292 788 285 788Q281 788 277 792L246 816Q239 823 239 829Q239 835 242 839Q260 872 285 888T339 905Q356 905 369 900T399 882Q413
873 423 869T444 864Q464 864 479 882Q486 891 493 891Q498 891 502 887L534 863Q539 858 539 852Q539 845 531 832Q510 803 484 788T434 773Q416 773 404 779Z" />
<glyph unicode="&#xd2;" glyph-name="Ograve" horiz-adv-x="602" d="M176 -11T115 47T53 204Q53 222 56 243L82 457Q91 531 130 588T230 676T368 708Q473 708 534 650T596 496Q596 477 593 457L567 243Q558 168 519 111T418 21T280 -11Q176 -11 115 47ZM349 110T385
145T430 238L457 458Q458 465 458 479Q458 529 430 558T353 587Q300 587 263 552T219 458L192 238Q191 231 191 217Q191 168 219 139T295 110Q349 110 385 145ZM411 785T411 781Q411 775 407 772T396 768H314Q302 768 296 779L245 870Q242 875 242 879Q242 884
246 887T257 891H355Q369 891 373 879L410 788Q411 785 411 781Z" />
<glyph unicode="&#xd3;" glyph-name="Oacute" horiz-adv-x="602" d="M176 -11T115 47T53 204Q53 222 56 243L82 457Q91 531 130 588T230 676T368 708Q473 708 534 650T596 496Q596 477 593 457L567 243Q558 168 519 111T418 21T280 -11Q176 -11 115 47ZM349 110T385
145T430 238L457 458Q458 465 458 479Q458 529 430 558T353 587Q300 587 263 552T219 458L192 238Q191 231 191 217Q191 168 219 139T295 110Q349 110 385 145ZM298 768T298 778Q298 782 301 788L360 879Q367 891 381 891H479Q492 891 492 882Q492 877 487 870L414
779Q405 768 392 768H311Q298 768 298 778Z" />
<glyph unicode="&#xd4;" glyph-name="Ocircumflex" horiz-adv-x="602" d="M176 -11T115 47T53 204Q53 222 56 243L82 457Q91 531 130 588T230 676T368 708Q473 708 534 650T596 496Q596 477 593 457L567 243Q558 168 519 111T418 21T280 -11Q176 -11 115 47ZM349
110T385 145T430 238L457 458Q458 465 458 479Q458 529 430 558T353 587Q300 587 263 552T219 458L192 238Q191 231 191 217Q191 168 219 139T295 110Q349 110 385 145ZM212 765T212 774Q212 779 217 786L297 883Q304 893 318 893H423Q436 893 442 883L500 786Q502
783 502 778Q502 765 487 765H415Q403 765 397 776L368 833Q367 836 365 836T360 833L317 776Q309 765 297 765H225Q212 765 212 774Z" />
<glyph unicode="&#xd5;" glyph-name="Otilde" horiz-adv-x="602" d="M176 -11T115 47T53 204Q53 222 56 243L82 457Q91 531 130 588T230 676T368 708Q473 708 534 650T596 496Q596 477 593 457L567 243Q558 168 519 111T418 21T280 -11Q176 -11 115 47ZM349 110T385
145T430 238L457 458Q458 465 458 479Q458 529 430 558T353 587Q300 587 263 552T219 458L192 238Q191 231 191 217Q191 168 219 139T295 110Q349 110 385 145ZM404 768T392 774T361 793Q349 802 342 805T326 809Q304 809 288 792Q280 783 273 783Q269 783 265
787L234 811Q227 818 227 824Q227 830 230 834Q248 867 273 883T327 900Q344 900 357 895T387 877Q401 868 411 864T432 859Q452 859 467 877Q474 886 481 886Q486 886 490 882L522 858Q527 853 527 847Q527 840 519 827Q498 798 472 783T422 768Q404 768 392 774Z"
/>
<glyph unicode="&#xd6;" glyph-name="Odieresis" horiz-adv-x="602" d="M176 -11T115 47T53 204Q53 222 56 243L82 457Q91 531 130 588T230 676T368 708Q473 708 534 650T596 496Q596 477 593 457L567 243Q558 168 519 111T418 21T280 -11Q176 -11 115 47ZM349
110T385 145T430 238L457 458Q458 465 458 479Q458 529 430 558T353 587Q300 587 263 552T219 458L192 238Q191 231 191 217Q191 168 219 139T295 110Q349 110 385 145ZM236 765T219 781T202 825Q202 860 225 883T281 906Q309 906 325 890T341 846Q341 810 319
788T264 765Q236 765 219 781ZM422 765T406 781T389 823Q389 859 411 882T467 906Q495 906 511 890T527 846Q527 810 506 788T450 765Q422 765 406 781Z" />
<glyph unicode="&#xd7;" glyph-name="multiply" horiz-adv-x="433" d="M432 430T432 425Q432 419 424 411L322 318Q319 315 321 310L399 218Q404 213 404 208Q404 202 396 194L330 134Q323 128 317 128Q311 128 306 134L229 225Q228 227 226 227T222 225L120 132Q114
126 107 126Q101 126 97 132L44 194Q39 201 39 205Q39 212 47 218L149 311Q152 314 150 319L71 412Q67 416 67 422Q67 429 74 436L140 497Q146 503 152 503Q158 503 163 497L243 403Q244 402 246 402T250 403L352 496Q360 502 364 502Q371 502 375 496L427 435Q432
430 432 425Z" />
<glyph unicode="&#xd8;" glyph-name="Oslash" horiz-adv-x="607" d="M540 648T543 646Q600 589 600 496Q600 477 597 457L571 243Q562 168 523 110T422 21T284 -11Q213 -11 159 17Q155 21 151 15L127 -25Q120 -37 106 -37H61Q48 -37 48 -26Q48 -22 51 -17L100
61Q102 66 99 70Q57 124 57 204Q57 224 60 243L86 457Q95 531 134 588T234 676T372 708Q433 708 477 689Q482 687 486 692L507 728Q515 740 528 740H573Q586 740 586 730Q586 726 583 720L542 654Q540 648 543 646ZM196 234T195 232Q195 227 197 227T203 230L409
569Q411 571 411 573T408 576Q384 587 357 587Q304 587 267 552T223 458L196 238Q196 234 195 232ZM461 458Q462 464 462 477Q462 487 460 505Q459 509 457 509T452 506L228 141Q225 136 229 133Q257 110 299 110Q352 110 389 145T434 238L461 458Z" />
<glyph unicode="&#xd9;" glyph-name="Ugrave" horiz-adv-x="610" d="M182 -8T122 48T61 198Q61 208 63 232L119 683Q121 700 137 700H241Q258 700 256 683L200 231Q199 224 199 212Q199 167 226 140T300 113Q351 113 386 145T429 231L484 683Q487 700 503 700H607Q624
700 621 683L566 232Q557 161 519 107T421 22T285 -8Q182 -8 122 48ZM416 790T416 786Q416 780 412 777T401 773H319Q307 773 301 784L250 875Q247 880 247 884Q247 889 251 892T262 896H360Q374 896 378 884L415 793Q416 790 416 786Z" />
<glyph unicode="&#xda;" glyph-name="Uacute" horiz-adv-x="610" d="M182 -8T122 48T61 198Q61 208 63 232L119 683Q121 700 137 700H241Q258 700 256 683L200 231Q199 224 199 212Q199 167 226 140T300 113Q351 113 386 145T429 231L484 683Q487 700 503 700H607Q624
700 621 683L566 232Q557 161 519 107T421 22T285 -8Q182 -8 122 48ZM303 773T303 783Q303 787 306 793L365 884Q372 896 386 896H484Q497 896 497 887Q497 882 492 875L419 784Q410 773 397 773H316Q303 773 303 783Z" />
<glyph unicode="&#xdb;" glyph-name="Ucircumflex" horiz-adv-x="610" d="M182 -8T122 48T61 198Q61 208 63 232L119 683Q121 700 137 700H241Q258 700 256 683L200 231Q199 224 199 212Q199 167 226 140T300 113Q351 113 386 145T429 231L484 683Q487 700 503
700H607Q624 700 621 683L566 232Q557 161 519 107T421 22T285 -8Q182 -8 122 48ZM217 770T217 779Q217 784 222 791L302 888Q309 898 323 898H428Q441 898 447 888L505 791Q507 788 507 783Q507 770 492 770H420Q408 770 402 781L373 838Q372 841 370 841T365
838L322 781Q314 770 302 770H230Q217 770 217 779Z" />
<glyph unicode="&#xdc;" glyph-name="Udieresis" horiz-adv-x="610" d="M182 -8T122 48T61 198Q61 208 63 232L119 683Q121 700 137 700H241Q258 700 256 683L200 231Q199 224 199 212Q199 167 226 140T300 113Q351 113 386 145T429 231L484 683Q487 700 503 700H607Q624
700 621 683L566 232Q557 161 519 107T421 22T285 -8Q182 -8 122 48ZM241 770T224 786T207 830Q207 865 230 888T286 911Q314 911 330 895T346 851Q346 815 324 793T269 770Q241 770 224 786ZM427 770T411 786T394 828Q394 864 416 887T472 911Q500 911 516 895T532
851Q532 815 511 793T455 770Q427 770 411 786Z" />
<glyph unicode="&#xdd;" glyph-name="Yacute" horiz-adv-x="598" d="M211 1T214 18L244 265Q244 271 243 273L97 680Q96 682 96 687Q96 692 100 696T111 700H224Q230 700 235 697T241 687L328 427Q329 424 331 424T336 427L486 687Q494 700 507 700H620Q634 700
634 689Q634 685 631 680L383 273Q380 267 380 265L349 18Q347 1 331 1H228Q211 1 214 18ZM296 760T296 770Q296 774 299 780L358 871Q365 883 379 883H477Q490 883 490 874Q490 869 485 862L412 771Q403 760 390 760H309Q296 760 296 770Z" />
<glyph unicode="&#xde;" glyph-name="Thorn" horiz-adv-x="564" d="M461 561T513 511T565 379Q565 370 563 348Q555 286 520 239T432 165T316 139H195Q190 139 188 133L174 17Q171 0 155 0H51Q35 0 37 17L119 683Q121 700 137 700H241Q258 700 256 683L241 567Q241
561 246 561H374Q461 561 513 511ZM359 253T389 277T426 345Q427 350 427 359Q427 397 403 418T338 440H232Q225 440 225 434L203 259Q203 253 209 253H315Q359 253 389 277Z" />
<glyph unicode="&#xdf;" glyph-name="germandbls" horiz-adv-x="592" d="M33 1T35 18L92 484Q105 590 176 649T358 708Q464 708 524 664T585 540Q585 532 583 514Q573 424 499 384Q496 383 496 381T498 376Q526 357 542 322T559 240Q559 230 557 206Q545 107 470
54T260 0H230Q213 0 215 17L226 103Q228 120 245 120H294Q354 120 388 151T423 237Q423 277 398 298T327 321H279Q262 321 265 338L274 415Q276 432 293 432H344Q391 432 419 457T447 521Q447 551 425 569T353 588Q308 588 272 564T231 497L172 17Q169 0 153 0L50
1Q33 1 35 18Z" />
<glyph unicode="&#xe0;" glyph-name="agrave" horiz-adv-x="538" d="M395 514T411 514H515Q532 514 530 497L471 17Q468 0 452 0H348Q340 0 337 4T334 17L337 44Q338 48 336 48T331 46Q284 -8 213 -8Q148 -8 102 32T44 139Q38 168 38 199Q38 219 42 259Q52 334
76 383Q106 447 159 485T279 523Q351 523 383 474Q385 471 387 472T390 477L393 497Q395 514 411 514ZM355 196T362 257Q365 280 365 299Q365 337 355 360Q335 399 294 399Q249 399 222 361Q193 321 186 256Q184 243 184 220Q184 181 194 158Q202 137 219 126T260
115Q302 115 331 158Q355 196 362 257ZM380 591T380 587Q380 581 376 578T365 574H283Q271 574 265 585L214 676Q211 681 211 685Q211 690 215 693T226 697H324Q338 697 342 685L379 594Q380 591 380 587Z" />
<glyph unicode="&#xe1;" glyph-name="aacute" horiz-adv-x="538" d="M395 514T411 514H515Q532 514 530 497L471 17Q468 0 452 0H348Q340 0 337 4T334 17L337 44Q338 48 336 48T331 46Q284 -8 213 -8Q148 -8 102 32T44 139Q38 168 38 199Q38 219 42 259Q52 334
76 383Q106 447 159 485T279 523Q351 523 383 474Q385 471 387 472T390 477L393 497Q395 514 411 514ZM355 196T362 257Q365 280 365 299Q365 337 355 360Q335 399 294 399Q249 399 222 361Q193 321 186 256Q184 243 184 220Q184 181 194 158Q202 137 219 126T260
115Q302 115 331 158Q355 196 362 257ZM267 574T267 584Q267 588 270 594L329 685Q336 697 350 697H448Q461 697 461 688Q461 683 456 676L383 585Q374 574 361 574H280Q267 574 267 584Z" />
<glyph unicode="&#xe2;" glyph-name="acircumflex" horiz-adv-x="538" d="M395 514T411 514H515Q532 514 530 497L471 17Q468 0 452 0H348Q340 0 337 4T334 17L337 44Q338 48 336 48T331 46Q284 -8 213 -8Q148 -8 102 32T44 139Q38 168 38 199Q38 219 42 259Q52
334 76 383Q106 447 159 485T279 523Q351 523 383 474Q385 471 387 472T390 477L393 497Q395 514 411 514ZM355 196T362 257Q365 280 365 299Q365 337 355 360Q335 399 294 399Q249 399 222 361Q193 321 186 256Q184 243 184 220Q184 181 194 158Q202 137 219 126T260
115Q302 115 331 158Q355 196 362 257ZM181 571T181 580Q181 585 186 592L266 689Q273 699 287 699H392Q405 699 411 689L469 592Q471 589 471 584Q471 571 456 571H384Q372 571 366 582L337 639Q336 642 334 642T329 639L286 582Q278 571 266 571H194Q181 571
181 580Z" />
<glyph unicode="&#xe3;" glyph-name="atilde" horiz-adv-x="538" d="M395 514T411 514H515Q532 514 530 497L471 17Q468 0 452 0H348Q340 0 337 4T334 17L337 44Q338 48 336 48T331 46Q284 -8 213 -8Q148 -8 102 32T44 139Q38 168 38 199Q38 219 42 259Q52 334
76 383Q106 447 159 485T279 523Q351 523 383 474Q385 471 387 472T390 477L393 497Q395 514 411 514ZM355 196T362 257Q365 280 365 299Q365 337 355 360Q335 399 294 399Q249 399 222 361Q193 321 186 256Q184 243 184 220Q184 181 194 158Q202 137 219 126T260
115Q302 115 331 158Q355 196 362 257ZM373 574T361 580T330 599Q318 608 311 611T295 615Q273 615 257 598Q249 589 242 589Q238 589 234 593L203 617Q196 624 196 630Q196 636 199 640Q217 673 242 689T296 706Q313 706 326 701T356 683Q370 674 380 670T401
665Q421 665 436 683Q443 692 450 692Q455 692 459 688L491 664Q496 659 496 653Q496 646 488 633Q467 604 441 589T391 574Q373 574 361 580Z" />
<glyph unicode="&#xe4;" glyph-name="adieresis" horiz-adv-x="538" d="M395 514T411 514H515Q532 514 530 497L471 17Q468 0 452 0H348Q340 0 337 4T334 17L337 44Q338 48 336 48T331 46Q284 -8 213 -8Q148 -8 102 32T44 139Q38 168 38 199Q38 219 42 259Q52
334 76 383Q106 447 159 485T279 523Q351 523 383 474Q385 471 387 472T390 477L393 497Q395 514 411 514ZM355 196T362 257Q365 280 365 299Q365 337 355 360Q335 399 294 399Q249 399 222 361Q193 321 186 256Q184 243 184 220Q184 181 194 158Q202 137 219 126T260
115Q302 115 331 158Q355 196 362 257ZM205 571T188 587T171 631Q171 666 194 689T250 712Q278 712 294 696T310 652Q310 616 288 594T233 571Q205 571 188 587ZM391 571T375 587T358 629Q358 665 380 688T436 712Q464 712 480 696T496 652Q496 616 475 594T419
571Q391 571 375 587Z" />
<glyph unicode="&#xe5;" glyph-name="aring" horiz-adv-x="538" d="M395 514T411 514H515Q532 514 530 497L471 17Q468 0 452 0H348Q340 0 337 4T334 17L337 44Q338 48 336 48T331 46Q284 -8 213 -8Q148 -8 102 32T44 139Q38 168 38 199Q38 219 42 259Q52 334
76 383Q106 447 159 485T279 523Q351 523 383 474Q385 471 387 472T390 477L393 497Q395 514 411 514ZM355 196T362 257Q365 280 365 299Q365 337 355 360Q335 399 294 399Q249 399 222 361Q193 321 186 256Q184 243 184 220Q184 181 194 158Q202 137 219 126T260
115Q302 115 331 158Q355 196 362 257ZM283 560T256 587T229 656Q229 690 246 719T291 765T352 782Q394 782 421 755T448 686Q448 652 431 623T386 577T325 560Q283 560 256 587ZM353 624T369 640T385 679Q385 697 374 708T345 719Q323 719 308 704T292 665Q292
648 303 636T333 624Q353 624 369 640Z" />
<glyph unicode="&#xe6;" glyph-name="ae" horiz-adv-x="814" d="M115 -8T69 24T22 121Q22 135 23 142Q32 215 90 258T244 302H342Q348 302 348 308L351 327L352 338Q352 367 334 384T280 401Q252 401 231 391T201 363Q194 348 180 350L77 364Q69 365 66 370T64
383Q75 422 108 454T188 504T285 522Q339 522 380 500T439 445Q442 441 446 445Q469 476 512 499T604 522Q673 522 726 482T792 374Q796 357 796 322Q796 278 790 230Q787 212 771 212H483Q478 212 476 206L477 184Q478 149 505 132T576 115Q643 115 681 155Q687
163 694 163Q698 163 703 158L749 108Q753 104 753 97Q753 90 748 84Q712 42 661 17T549 -8Q493 -8 452 14T394 71Q392 74 391 74T388 74Q360 37 308 15T192 -8Q115 -8 69 24ZM487 302T493 302H654Q660 302 660 308Q660 330 658 338Q654 366 635 383T586 401Q555
401 532 384T496 338Q497 341 488 308Q487 302 493 302ZM265 94T296 116T332 177L336 206Q336 212 331 212H262Q215 212 188 195T161 146Q161 123 178 109T226 94Q265 94 296 116Z" />
<glyph unicode="&#xe7;" glyph-name="ccedilla" horiz-adv-x="521" d="M357 179V179Q358 183 364 188T378 193L478 177Q485 175 488 170T489 158Q488 148 481 135Q457 80 409 44T300 -3Q296 -4 296 -6T297 -11Q329 -47 329 -87Q329 -104 323 -122Q309 -156 283
-170T223 -185Q194 -185 169 -176Q156 -172 159 -156L169 -116Q174 -99 191 -104Q199 -106 204 -106Q230 -106 239 -83Q241 -79 241 -70Q241 -42 201 -5L195 -2Q139 11 102 48T52 142Q46 171 46 203Q46 220 50 260Q58 324 81 376Q113 444 175 483T314 522Q392 522
445 482T511 381Q515 365 515 350Q515 335 499 332L395 316L390 315Q385 315 382 318T378 327L377 341Q373 367 352 384T299 401Q268 401 245 385T209 341Q194 309 188 259Q185 234 185 213Q185 191 188 177Q193 147 212 130T263 113Q294 113 318 129T355 174L357
179Z" />
<glyph unicode="&#xe8;" glyph-name="egrave" horiz-adv-x="531" d="M351 114T389 157Q396 164 403 164Q408 164 412 159L461 104Q466 97 466 93Q466 88 460 80Q424 39 371 16T258 -8Q169 -8 116 39T53 168Q49 188 49 216Q49 237 52 261Q60 318 75 359Q104 433
168 478T313 523Q408 523 456 465T509 302Q509 264 505 229Q503 212 487 212H189Q183 212 183 206V196Q183 187 185 175Q192 144 218 128T285 111Q351 114 389 157ZM265 401T243 386T208 342Q201 324 199 317Q198 311 203 311H368Q374 311 374 317Q374 326 372
338Q367 367 348 384T296 401Q265 401 243 386ZM374 600T374 596Q374 590 370 587T359 583H277Q265 583 259 594L208 685Q205 690 205 694Q205 699 209 702T220 706H318Q332 706 336 694L373 603Q374 600 374 596Z" />
<glyph unicode="&#xe9;" glyph-name="eacute" horiz-adv-x="531" d="M351 114T389 157Q396 164 403 164Q408 164 412 159L461 104Q466 97 466 93Q466 88 460 80Q424 39 371 16T258 -8Q169 -8 116 39T53 168Q49 188 49 216Q49 237 52 261Q60 318 75 359Q104 433
168 478T313 523Q408 523 456 465T509 302Q509 264 505 229Q503 212 487 212H189Q183 212 183 206V196Q183 187 185 175Q192 144 218 128T285 111Q351 114 389 157ZM265 401T243 386T208 342Q201 324 199 317Q198 311 203 311H368Q374 311 374 317Q374 326 372
338Q367 367 348 384T296 401Q265 401 243 386ZM261 583T261 593Q261 597 264 603L323 694Q330 706 344 706H442Q455 706 455 697Q455 692 450 685L377 594Q368 583 355 583H274Q261 583 261 593Z" />
<glyph unicode="&#xea;" glyph-name="ecircumflex" horiz-adv-x="531" d="M351 114T389 157Q396 164 403 164Q408 164 412 159L461 104Q466 97 466 93Q466 88 460 80Q424 39 371 16T258 -8Q169 -8 116 39T53 168Q49 188 49 216Q49 237 52 261Q60 318 75 359Q104
433 168 478T313 523Q408 523 456 465T509 302Q509 264 505 229Q503 212 487 212H189Q183 212 183 206V196Q183 187 185 175Q192 144 218 128T285 111Q351 114 389 157ZM265 401T243 386T208 342Q201 324 199 317Q198 311 203 311H368Q374 311 374 317Q374 326
372 338Q367 367 348 384T296 401Q265 401 243 386ZM175 580T175 589Q175 594 180 601L260 698Q267 708 281 708H386Q399 708 405 698L463 601Q465 598 465 593Q465 580 450 580H378Q366 580 360 591L331 648Q330 651 328 651T323 648L280 591Q272 580 260 580H188Q175
580 175 589Z" />
<glyph unicode="&#xeb;" glyph-name="edieresis" horiz-adv-x="531" d="M351 114T389 157Q396 164 403 164Q408 164 412 159L461 104Q466 97 466 93Q466 88 460 80Q424 39 371 16T258 -8Q169 -8 116 39T53 168Q49 188 49 216Q49 237 52 261Q60 318 75 359Q104
433 168 478T313 523Q408 523 456 465T509 302Q509 264 505 229Q503 212 487 212H189Q183 212 183 206V196Q183 187 185 175Q192 144 218 128T285 111Q351 114 389 157ZM265 401T243 386T208 342Q201 324 199 317Q198 311 203 311H368Q374 311 374 317Q374 326
372 338Q367 367 348 384T296 401Q265 401 243 386ZM199 580T182 596T165 640Q165 675 188 698T244 721Q272 721 288 705T304 661Q304 625 282 603T227 580Q199 580 182 596ZM385 580T369 596T352 638Q352 674 374 697T430 721Q458 721 474 705T490 661Q490 625
469 603T413 580Q385 580 369 596Z" />
<glyph unicode="&#xec;" glyph-name="igrave" horiz-adv-x="234" d="M28 0T30 17L89 497Q92 514 108 514H212Q228 514 226 497L167 17Q165 0 148 0H45Q28 0 30 17ZM217 602T217 598Q217 592 213 589T202 585H120Q108 585 102 596L51 687Q48 692 48 696Q48 701
52 704T63 708H161Q175 708 179 696L216 605Q217 602 217 598Z" />
<glyph unicode="&#xed;" glyph-name="iacute" horiz-adv-x="234" d="M28 0T30 17L89 497Q92 514 108 514H212Q228 514 226 497L167 17Q165 0 148 0H45Q28 0 30 17ZM104 585T104 595Q104 599 107 605L166 696Q173 708 187 708H285Q298 708 298 699Q298 694 293
687L220 596Q211 585 198 585H117Q104 585 104 595Z" />
<glyph unicode="&#xee;" glyph-name="icircumflex" horiz-adv-x="234" d="M28 0T30 17L89 497Q92 514 108 514H212Q228 514 226 497L167 17Q165 0 148 0H45Q28 0 30 17ZM18 582T18 591Q18 596 23 603L103 700Q110 710 124 710H229Q242 710 248 700L306 603Q308
600 308 595Q308 582 293 582H221Q209 582 203 593L174 650Q173 653 171 653T166 650L123 593Q115 582 103 582H31Q18 582 18 591Z" />
<glyph unicode="&#xef;" glyph-name="idieresis" horiz-adv-x="260" d="M42 0T44 17L103 497Q106 514 122 514H226Q242 514 240 497L181 17Q179 0 162 0H59Q42 0 44 17ZM55 582T38 598T21 642Q21 677 44 700T100 723Q128 723 144 707T160 663Q160 627 138 605T83
582Q55 582 38 598ZM241 582T225 598T208 640Q208 676 230 699T286 723Q314 723 330 707T346 663Q346 627 325 605T269 582Q241 582 225 598Z" />
<glyph unicode="&#xf0;" glyph-name="eth" horiz-adv-x="525" d="M494 350T494 316Q494 270 489 234Q482 172 461 127Q429 66 369 29T234 -8Q160 -8 109 28T41 127Q35 154 35 183Q35 207 38 234Q47 297 67 340Q84 376 114 403T181 441Q199 448 224 452T276 457Q320
457 342 446Q349 443 347 451Q338 481 317 529Q315 534 310 532L215 506Q213 505 210 505Q205 505 202 509T197 519L191 561V565Q191 576 205 581L267 598Q275 600 270 606Q246 641 213 679Q209 684 209 689Q209 694 213 697T225 700H331Q344 700 351 690L388 634Q391
629 396 631L475 653Q477 654 480 654Q491 654 494 640L499 598V594Q499 583 485 578L439 566Q433 565 435 558Q462 508 476 463T492 366Q494 350 494 316ZM344 180T350 230Q353 253 353 268Q353 288 349 300Q344 327 326 342T279 358Q251 358 229 343T194 300Q180
273 176 230Q174 216 174 194Q174 171 178 158Q183 131 201 115T247 98Q275 98 297 114T332 158Q344 180 350 230Z" />
<glyph unicode="&#xf1;" glyph-name="ntilde" horiz-adv-x="531" d="M425 522T466 482T507 371Q507 362 505 340L466 17Q463 0 447 0H343Q327 0 329 17L365 311Q366 317 366 327Q366 360 348 380T298 401Q262 401 237 376T206 311L170 17Q168 0 151 0H48Q31 0
33 17L92 497Q94 514 111 514H214Q231 514 229 497L225 469Q225 460 231 466Q277 522 355 522Q425 522 466 482ZM373 574T361 580T330 599Q318 608 311 611T295 615Q273 615 257 598Q249 589 242 589Q238 589 234 593L203 617Q196 624 196 630Q196 636 199 640Q217
673 242 689T296 706Q313 706 326 701T356 683Q370 674 380 670T401 665Q421 665 436 683Q443 692 450 692Q455 692 459 688L491 664Q496 659 496 653Q496 646 488 633Q467 604 441 589T391 574Q373 574 361 580Z" />
<glyph unicode="&#xf2;" glyph-name="ograve" horiz-adv-x="540" d="M169 -8T116 36T51 156Q47 177 47 208Q47 233 50 258Q58 322 78 364Q109 438 172 480T317 522Q397 522 448 480T513 365Q518 335 518 307Q518 284 515 260Q510 212 490 159Q458 81 395 37T251
-8Q169 -8 116 36ZM298 113T322 133T361 188Q372 215 377 258Q380 282 380 303Q380 349 359 375T299 401Q267 401 243 382T204 329Q193 300 188 258Q185 236 185 214Q185 167 205 140T266 113Q298 113 322 133ZM379 599T379 595Q379 589 375 586T364 582H282Q270
582 264 593L213 684Q210 689 210 693Q210 698 214 701T225 705H323Q337 705 341 693L378 602Q379 599 379 595Z" />
<glyph unicode="&#xf3;" glyph-name="oacute" horiz-adv-x="540" d="M169 -8T116 36T51 156Q47 177 47 208Q47 233 50 258Q58 322 78 364Q109 438 172 480T317 522Q397 522 448 480T513 365Q518 335 518 307Q518 284 515 260Q510 212 490 159Q458 81 395 37T251
-8Q169 -8 116 36ZM298 113T322 133T361 188Q372 215 377 258Q380 282 380 303Q380 349 359 375T299 401Q267 401 243 382T204 329Q193 300 188 258Q185 236 185 214Q185 167 205 140T266 113Q298 113 322 133ZM266 582T266 592Q266 596 269 602L328 693Q335 705
349 705H447Q460 705 460 696Q460 691 455 684L382 593Q373 582 360 582H279Q266 582 266 592Z" />
<glyph unicode="&#xf4;" glyph-name="ocircumflex" horiz-adv-x="540" d="M169 -8T116 36T51 156Q47 177 47 208Q47 233 50 258Q58 322 78 364Q109 438 172 480T317 522Q397 522 448 480T513 365Q518 335 518 307Q518 284 515 260Q510 212 490 159Q458 81 395
37T251 -8Q169 -8 116 36ZM298 113T322 133T361 188Q372 215 377 258Q380 282 380 303Q380 349 359 375T299 401Q267 401 243 382T204 329Q193 300 188 258Q185 236 185 214Q185 167 205 140T266 113Q298 113 322 133ZM180 579T180 588Q180 593 185 600L265 697Q272
707 286 707H391Q404 707 410 697L468 600Q470 597 470 592Q470 579 455 579H383Q371 579 365 590L336 647Q335 650 333 650T328 647L285 590Q277 579 265 579H193Q180 579 180 588Z" />
<glyph unicode="&#xf5;" glyph-name="otilde" horiz-adv-x="540" d="M169 -8T116 36T51 156Q47 177 47 208Q47 233 50 258Q58 322 78 364Q109 438 172 480T317 522Q397 522 448 480T513 365Q518 335 518 307Q518 284 515 260Q510 212 490 159Q458 81 395 37T251
-8Q169 -8 116 36ZM298 113T322 133T361 188Q372 215 377 258Q380 282 380 303Q380 349 359 375T299 401Q267 401 243 382T204 329Q193 300 188 258Q185 236 185 214Q185 167 205 140T266 113Q298 113 322 133ZM372 582T360 588T329 607Q317 616 310 619T294 623Q272
623 256 606Q248 597 241 597Q237 597 233 601L202 625Q195 632 195 638Q195 644 198 648Q216 681 241 697T295 714Q312 714 325 709T355 691Q369 682 379 678T400 673Q420 673 435 691Q442 700 449 700Q454 700 458 696L490 672Q495 667 495 661Q495 654 487 641Q466
612 440 597T390 582Q372 582 360 588Z" />
<glyph unicode="&#xf6;" glyph-name="odieresis" horiz-adv-x="540" d="M169 -8T116 36T51 156Q47 177 47 208Q47 233 50 258Q58 322 78 364Q109 438 172 480T317 522Q397 522 448 480T513 365Q518 335 518 307Q518 284 515 260Q510 212 490 159Q458 81 395 37T251
-8Q169 -8 116 36ZM298 113T322 133T361 188Q372 215 377 258Q380 282 380 303Q380 349 359 375T299 401Q267 401 243 382T204 329Q193 300 188 258Q185 236 185 214Q185 167 205 140T266 113Q298 113 322 133ZM204 579T187 595T170 639Q170 674 193 697T249 720Q277
720 293 704T309 660Q309 624 287 602T232 579Q204 579 187 595ZM390 579T374 595T357 637Q357 673 379 696T435 720Q463 720 479 704T495 660Q495 624 474 602T418 579Q390 579 374 595Z" />
<glyph unicode="&#xf7;" glyph-name="divide" horiz-adv-x="471" d="M242 417T225 434T208 477Q208 508 231 531T284 554Q309 554 325 537T342 493Q342 463 319 440T268 417Q242 417 225 434ZM39 251T42 268L52 355Q55 372 71 372H453Q470 372 467 355L457 268Q454
251 438 251H56Q39 251 42 268ZM200 78T184 95T167 139Q167 169 190 192T243 215Q268 215 284 198T301 156Q301 125 278 102T226 78Q200 78 184 95Z" />
<glyph unicode="&#xf8;" glyph-name="oslash" horiz-adv-x="545" d="M523 337T523 309Q523 286 520 260Q515 212 495 159Q463 81 400 37T256 -8Q193 -8 146 18Q141 21 138 16L101 -30Q95 -38 87 -38Q83 -38 77 -34L47 -9Q42 -5 42 2Q42 10 46 15L87 65Q90 69 87
73Q64 106 56 156Q52 177 52 208Q52 233 55 258Q63 322 83 364Q114 438 177 480T322 522Q380 522 424 499Q429 497 432 502L467 546Q473 554 480 554Q484 554 490 550L520 525Q526 521 526 513Q526 508 521 501L485 455Q481 451 484 447Q509 414 518 365Q523 337
523 309ZM190 231T190 207Q192 198 198 206L340 386Q345 391 340 394Q326 401 304 401Q272 401 248 382T209 329Q198 300 193 258Q190 231 190 207ZM377 214T382 258Q385 294 384 317Q384 321 382 321T377 318L229 132Q225 127 230 124Q247 113 271 113Q303 113
327 133T365 188Q377 214 382 258Z" />
<glyph unicode="&#xf9;" glyph-name="ugrave" horiz-adv-x="529" d="M385 514T402 514H505Q522 514 520 497L461 17Q459 0 442 0H339Q322 0 324 17L327 44Q328 48 326 48T321 46Q276 -7 195 -7Q128 -7 87 31T46 139Q46 148 48 168L88 497Q91 514 107 514H210Q226
514 224 497L188 203Q187 197 187 186Q187 152 205 133T255 113Q288 113 312 133T345 187L383 497Q385 514 402 514ZM371 591T371 587Q371 581 367 578T356 574H274Q262 574 256 585L205 676Q202 681 202 685Q202 690 206 693T217 697H315Q329 697 333 685L370
594Q371 591 371 587Z" />
<glyph unicode="&#xfa;" glyph-name="uacute" horiz-adv-x="529" d="M385 514T402 514H505Q522 514 520 497L461 17Q459 0 442 0H339Q322 0 324 17L327 44Q328 48 326 48T321 46Q276 -7 195 -7Q128 -7 87 31T46 139Q46 148 48 168L88 497Q91 514 107 514H210Q226
514 224 497L188 203Q187 197 187 186Q187 152 205 133T255 113Q288 113 312 133T345 187L383 497Q385 514 402 514ZM258 574T258 584Q258 588 261 594L320 685Q327 697 341 697H439Q452 697 452 688Q452 683 447 676L374 585Q365 574 352 574H271Q258 574 258
584Z" />
<glyph unicode="&#xfb;" glyph-name="ucircumflex" horiz-adv-x="529" d="M385 514T402 514H505Q522 514 520 497L461 17Q459 0 442 0H339Q322 0 324 17L327 44Q328 48 326 48T321 46Q276 -7 195 -7Q128 -7 87 31T46 139Q46 148 48 168L88 497Q91 514 107 514H210Q226
514 224 497L188 203Q187 197 187 186Q187 152 205 133T255 113Q288 113 312 133T345 187L383 497Q385 514 402 514ZM172 571T172 580Q172 585 177 592L257 689Q264 699 278 699H383Q396 699 402 689L460 592Q462 589 462 584Q462 571 447 571H375Q363 571 357
582L328 639Q327 642 325 642T320 639L277 582Q269 571 257 571H185Q172 571 172 580Z" />
<glyph unicode="&#xfc;" glyph-name="udieresis" horiz-adv-x="529" d="M385 514T402 514H505Q522 514 520 497L461 17Q459 0 442 0H339Q322 0 324 17L327 44Q328 48 326 48T321 46Q276 -7 195 -7Q128 -7 87 31T46 139Q46 148 48 168L88 497Q91 514 107 514H210Q226
514 224 497L188 203Q187 197 187 186Q187 152 205 133T255 113Q288 113 312 133T345 187L383 497Q385 514 402 514ZM196 571T179 587T162 631Q162 666 185 689T241 712Q269 712 285 696T301 652Q301 616 279 594T224 571Q196 571 179 587ZM382 571T366 587T349
629Q349 665 371 688T427 712Q455 712 471 696T487 652Q487 616 466 594T410 571Q382 571 366 587Z" />
<glyph unicode="&#xfd;" glyph-name="yacute" horiz-adv-x="490" d="M-3 -199T-1 -182L9 -100Q11 -83 17 -83H23Q83 -83 111 -68T156 -4Q157 -1 157 4L61 495L60 500Q60 506 65 510T77 514H188Q202 514 205 500L248 202Q248 198 251 198T256 202L368 499Q373 514
388 514H500Q513 514 513 503L511 495L282 -19Q249 -92 219 -128T142 -182T10 -199H4Q-3 -199 -1 -182ZM240 584T240 594Q240 598 243 604L302 695Q309 707 323 707H421Q434 707 434 698Q434 693 429 686L356 595Q347 584 334 584H253Q240 584 240 594Z" />
<glyph unicode="&#xfe;" glyph-name="thorn" horiz-adv-x="528" d="M514 355T514 319Q514 299 510 259Q502 188 479 139Q451 73 396 33T274 -8Q215 -8 180 30Q178 33 176 33T173 28L147 -183Q145 -200 129 -200H25Q8 -200 11 -183L117 683Q119 700 135 700H239Q256
700 254 683L230 491Q229 487 231 487T237 488Q277 523 339 523Q405 523 449 485T507 383Q514 355 514 319ZM359 198T366 256Q368 282 368 292Q368 334 356 361Q336 399 292 399Q251 399 223 360L214 344Q211 338 211 336L192 180V175Q192 168 197 158Q215 115
258 115Q305 115 334 158Q359 198 366 256Z" />
<glyph unicode="&#xff;" glyph-name="ydieresis" horiz-adv-x="490" d="M-3 -199T-1 -182L9 -100Q11 -83 17 -83H23Q83 -83 111 -68T156 -4Q157 -1 157 4L61 495L60 500Q60 506 65 510T77 514H188Q202 514 205 500L248 202Q248 198 251 198T256 202L368 499Q373
514 388 514H500Q513 514 513 503L511 495L282 -19Q249 -92 219 -128T142 -182T10 -199H4Q-3 -199 -1 -182ZM178 581T161 597T144 641Q144 676 167 699T223 722Q251 722 267 706T283 662Q283 626 261 604T206 581Q178 581 161 597ZM364 581T348 597T331 639Q331
675 353 698T409 722Q437 722 453 706T469 662Q469 626 448 604T392 581Q364 581 348 597Z" />
<glyph unicode="&#x2013;" glyph-name="endash" horiz-adv-x="462" d="M36 223T38 240L49 327Q51 344 67 344H441Q458 344 455 327L445 240Q442 223 426 223H53Q36 223 38 240Z" />
<glyph unicode="&#x2014;" glyph-name="emdash" horiz-adv-x="639" d="M36 224T38 241L49 327Q51 344 67 344H617Q634 344 632 327L621 241Q619 224 603 224H53Q36 224 38 241Z" />
<glyph unicode="&#x2018;" glyph-name="quoteleft" horiz-adv-x="198" d="M53 474T50 477T46 485Q46 490 49 494L149 687Q156 700 169 700H245Q259 700 259 689L257 681L183 488Q177 474 163 474H59Q53 474 50 477Z" />
<glyph unicode="&#x2019;" glyph-name="quoteright" horiz-adv-x="198" d="M257 700T257 689Q257 685 254 680L154 487Q147 474 134 474H58Q50 474 47 479T46 493L120 686Q126 700 140 700H244Q257 700 257 689Z" />
<glyph unicode="&#x201a;" glyph-name="quotesinglbase" horiz-adv-x="582" d="M16 -98T13 -93T12 -80L70 142Q71 149 76 153T89 158H178Q186 158 189 153T190 139L104 -84Q98 -98 84 -98H24Q16 -98 13 -93Z" />
<glyph unicode="&#x201c;" glyph-name="quotedblleft" horiz-adv-x="352" d="M46 474T46 485L48 493L138 686Q144 700 159 700H230Q239 700 242 695T243 681L176 489Q172 474 157 474H59Q46 474 46 485ZM217 474T217 484Q217 489 220 493L308 686Q314 700 329
700H400Q409 700 412 695T412 681L348 489Q344 474 329 474H231Q217 474 217 484Z" />
<glyph unicode="&#x201d;" glyph-name="quotedblright" horiz-adv-x="352" d="M240 700T240 689L238 681L149 488Q143 474 128 474H57Q49 474 46 479T45 493L109 685Q114 700 129 700H227Q240 700 240 689ZM412 700T412 689L410 681L320 488Q314 474 299 474H227Q218
474 215 479T215 493L281 685Q286 700 300 700H398Q412 700 412 689Z" />
<glyph unicode="&#x201e;" glyph-name="quotedblbase" horiz-adv-x="372" d="M240 128T240 117L238 109L149 -84Q143 -98 128 -98H57Q49 -98 46 -93T45 -79L109 113Q114 128 129 128H227Q240 128 240 117ZM412 128T412 117L410 109L320 -84Q314 -98 299 -98H227Q218
-98 215 -93T215 -79L281 113Q286 128 300 128H398Q412 128 412 117Z" />
<glyph unicode="&#x2022;" glyph-name="bullet" horiz-adv-x="307" d="M105 146T74 179T42 260Q42 299 62 332T115 386T185 406Q233 406 264 374T295 294Q295 255 275 221T222 167T153 146Q105 146 74 179Z" />
<glyph unicode="&#x2039;" glyph-name="guilsinglleft" horiz-adv-x="325" d="M251 124T251 119Q251 107 236 107H150Q138 107 132 118L62 269Q60 272 60 279Q60 287 65 293L172 444Q180 455 193 455H279Q291 455 291 446Q291 440 287 435L180 285Q177 281 180
277L249 127Q251 124 251 119Z" />
<glyph unicode="&#x203a;" glyph-name="guilsinglright" horiz-adv-x="337" d="M64 107T64 116Q64 122 68 127L175 277Q177 281 176 285L106 435Q104 438 104 443Q104 455 119 455H205Q218 455 223 444L293 293Q295 290 295 283Q295 275 290 269L183 118Q175 107
163 107H76Q64 107 64 116Z" />
</font>
</defs>
</svg>
